<svg width="314" height="300" viewBox="0 0 314 300" fill="none" xmlns="http://www.w3.org/2000/svg">
<path d="M182.938 91.1861L74.247 269.518C128.254 285.583 185.828 245.728 202.669 180.416C210.761 149.222 208.06 117.833 197.123 91.8161C194.388 85.3532 186.702 84.9926 182.938 91.1861Z" fill="#003218"/>
<path d="M296.215 126.133L75.0021 269.69C127.691 317.502 215.012 303.616 269.889 238.483C296.154 207.402 310.241 170.198 312.016 134.606C312.436 125.754 303.885 121.142 296.215 126.133Z" fill="#003218"/>
<path d="M88.4951 272.807C144.668 280.15 197.118 230.797 205.973 163.049C214.828 95.3002 176.825 34.1248 120.652 26.7826C64.4785 19.4405 12.0292 68.7933 3.17414 136.542C-5.68093 204.29 32.3217 265.465 88.4951 272.807Z" stroke="#C75571" stroke-width="2"/>
<path d="M89.5647 281.004C149.328 319.968 235.857 292.57 282.924 220.379C329.991 148.187 320.151 57.9592 260.387 18.995C200.623 -19.9693 114.094 7.4284 67.0274 79.62C19.9605 151.812 29.801 242.04 89.5647 281.004Z" stroke="#C75571" stroke-width="2"/>
<path d="M74.5 269L312 116" stroke="#C75571" stroke-width="2"/>
<path d="M74.5 269L190.5 78.5" stroke="#C75571" stroke-width="2"/>
</svg>
