<svg width="768" height="544" viewBox="0 0 768 544" fill="none" xmlns="http://www.w3.org/2000/svg">
<rect width="768" height="544" fill="#DEEEE1"/>
<path d="M47.0898 46.2485C58.479 46.2485 62 44.2582 62 46.1999C62 48.3358 59.485 49.5494 47.0539 49.5494C34.6587 49.5494 32 48.3358 32 46.1999C32.0359 44.2582 35.7006 46.2485 47.0898 46.2485Z" fill="#9BB2DD"/>
<path d="M47.5036 52.2615C58.9065 52.2615 62 49.8804 62 52.3963C62 55.0918 59.482 59.6294 47.036 59.6294C34.6259 59.5844 32 55.0469 32 52.3514C32 49.8804 36.1007 52.2615 47.5036 52.2615Z" fill="#9BB2DD"/>
<path d="M47.0898 43.6694C58.479 43.6694 62 42.2989 62 39.8673C62 37.2147 59.485 32.7494 47.0539 32.7494C34.6228 32.7494 32 37.2147 32 39.8673C32 42.2989 35.7006 43.6694 47.0898 43.6694Z" fill="#9BB2DD"/>
<path d="M159.09 158.248C170.479 158.248 174 156.258 174 158.2C174 160.336 171.485 161.549 159.054 161.549C146.659 161.549 144 160.336 144 158.2C144.036 156.258 147.701 158.248 159.09 158.248Z" fill="#FFD675"/>
<path d="M159.504 164.262C170.906 164.262 174 161.88 174 164.396C174 167.092 171.482 171.629 159.036 171.629C146.626 171.584 144 167.047 144 164.351C144 161.88 148.101 164.262 159.504 164.262Z" fill="#FFD675"/>
<path d="M159.09 155.669C170.479 155.669 174 154.299 174 151.867C174 149.215 171.485 144.749 159.054 144.749C146.623 144.749 144 149.215 144 151.867C144 154.299 147.701 155.669 159.09 155.669Z" fill="#FFD675"/>
<path d="M103.09 102.248C114.479 102.248 118 100.258 118 102.2C118 104.336 115.485 105.549 103.054 105.549C90.6587 105.549 88 104.336 88 102.2C88.0359 100.258 91.7006 102.248 103.09 102.248Z" fill="#FAC0B5"/>
<path d="M103.504 108.262C114.906 108.262 118 105.88 118 108.396C118 111.092 115.482 115.629 103.036 115.629C90.6259 115.584 88 111.047 88 108.351C88 105.88 92.1007 108.262 103.504 108.262Z" fill="#FAC0B5"/>
<path d="M103.09 99.6694C114.479 99.6694 118 98.2989 118 95.8673C118 93.2147 115.485 88.7494 103.054 88.7494C90.6228 88.7494 88 93.2147 88 95.8673C88 98.2989 91.7006 99.6694 103.09 99.6694Z" fill="#FAC0B5"/>
<path d="M383.571 45.8991C394.96 45.8991 398.481 43.9089 398.481 45.8506C398.481 47.9864 395.966 49.2 383.535 49.2C371.139 49.2 368.481 47.9864 368.481 45.8506C368.517 43.9089 372.181 45.8991 383.571 45.8991Z" fill="#FAC0B5"/>
<path d="M383.984 51.9121C395.387 51.9121 398.481 49.5311 398.481 52.0469C398.481 54.7425 395.963 59.28 383.517 59.28C371.107 59.2351 368.481 54.6975 368.481 52.002C368.481 49.5311 372.581 51.9121 383.984 51.9121Z" fill="#FAC0B5"/>
<path d="M383.571 43.32C394.96 43.32 398.481 41.9495 398.481 39.5179C398.481 36.8653 395.966 32.4 383.535 32.4C371.104 32.4 368.481 36.8653 368.481 39.5179C368.481 41.9495 372.181 43.32 383.571 43.32Z" fill="#FAC0B5"/>
<path d="M663.09 102.248C674.479 102.248 678 100.258 678 102.2C678 104.336 675.485 105.549 663.054 105.549C650.659 105.549 648 104.336 648 102.2C648.036 100.258 651.701 102.248 663.09 102.248Z" fill="#9BB2DD"/>
<path d="M663.504 108.262C674.906 108.262 678 105.88 678 108.396C678 111.092 675.482 115.629 663.036 115.629C650.626 115.584 648 111.047 648 108.351C648 105.88 652.101 108.262 663.504 108.262Z" fill="#9BB2DD"/>
<path d="M663.09 99.6694C674.479 99.6694 678 98.2989 678 95.8673C678 93.2147 675.485 88.7494 663.054 88.7494C650.623 88.7494 648 93.2147 648 95.8673C648 98.2989 651.701 99.6694 663.09 99.6694Z" fill="#9BB2DD"/>
<path d="M495.571 157.899C506.96 157.899 510.481 155.909 510.481 157.851C510.481 159.986 507.966 161.2 495.535 161.2C483.139 161.2 480.481 159.986 480.481 157.851C480.517 155.909 484.181 157.899 495.571 157.899Z" fill="#92D2C4"/>
<path d="M495.984 163.912C507.387 163.912 510.481 161.531 510.481 164.047C510.481 166.742 507.963 171.28 495.517 171.28C483.107 171.235 480.481 166.698 480.481 164.002C480.481 161.531 484.581 163.912 495.984 163.912Z" fill="#92D2C4"/>
<path d="M495.571 155.32C506.96 155.32 510.481 153.949 510.481 151.518C510.481 148.865 507.966 144.4 495.535 144.4C483.104 144.4 480.481 148.865 480.481 151.518C480.481 153.949 484.181 155.32 495.571 155.32Z" fill="#92D2C4"/>
<path d="M663.09 214.248C674.479 214.248 678 212.258 678 214.2C678 216.336 675.485 217.549 663.054 217.549C650.659 217.549 648 216.336 648 214.2C648.036 212.258 651.701 214.248 663.09 214.248Z" fill="#92D2C4"/>
<path d="M663.504 220.262C674.906 220.262 678 217.88 678 220.396C678 223.092 675.482 227.629 663.036 227.629C650.626 227.584 648 223.047 648 220.351C648 217.88 652.101 220.262 663.504 220.262Z" fill="#92D2C4"/>
<path d="M663.09 211.669C674.479 211.669 678 210.299 678 207.867C678 205.215 675.485 200.749 663.054 200.749C650.623 200.749 648 205.215 648 207.867C648 210.299 651.701 211.669 663.09 211.669Z" fill="#92D2C4"/>
<path d="M551.09 214.248C562.479 214.248 566 212.258 566 214.2C566 216.336 563.485 217.549 551.054 217.549C538.659 217.549 536 216.336 536 214.2C536.036 212.258 539.701 214.248 551.09 214.248Z" fill="#9BB2DD"/>
<path d="M551.504 220.262C562.906 220.262 566 217.88 566 220.396C566 223.092 563.482 227.629 551.036 227.629C538.626 227.584 536 223.047 536 220.351C536 217.88 540.101 220.262 551.504 220.262Z" fill="#9BB2DD"/>
<path d="M551.09 211.669C562.479 211.669 566 210.299 566 207.867C566 205.215 563.485 200.749 551.054 200.749C538.623 200.749 536 205.215 536 207.867C536 210.299 539.701 211.669 551.09 211.669Z" fill="#9BB2DD"/>
<path d="M159.09 46.2485C170.479 46.2485 174 44.2582 174 46.1999C174 48.3358 171.485 49.5494 159.054 49.5494C146.659 49.5494 144 48.3358 144 46.1999C144.036 44.2582 147.701 46.2485 159.09 46.2485Z" fill="#92D2C4"/>
<path d="M159.504 52.2615C170.906 52.2615 174 49.8804 174 52.3963C174 55.0918 171.482 59.6294 159.036 59.6294C146.626 59.5844 144 55.0469 144 52.3514C144 49.8804 148.101 52.2615 159.504 52.2615Z" fill="#92D2C4"/>
<path d="M159.09 43.6694C170.479 43.6694 174 42.2989 174 39.8673C174 37.2147 171.485 32.7494 159.054 32.7494C146.623 32.7494 144 37.2147 144 39.8673C144 42.2989 147.701 43.6694 159.09 43.6694Z" fill="#92D2C4"/>
<path d="M271.09 158.248C282.479 158.248 286 156.258 286 158.2C286 160.336 283.485 161.549 271.054 161.549C258.659 161.549 256 160.336 256 158.2C256.036 156.258 259.701 158.248 271.09 158.248Z" fill="#FAC0B5"/>
<path d="M271.504 164.262C282.906 164.262 286 161.88 286 164.396C286 167.092 283.482 171.629 271.036 171.629C258.626 171.584 256 167.047 256 164.351C256 161.88 260.101 164.262 271.504 164.262Z" fill="#FAC0B5"/>
<path d="M271.09 155.669C282.479 155.669 286 154.299 286 151.867C286 149.215 283.485 144.749 271.054 144.749C258.623 144.749 256 149.215 256 151.867C256 154.299 259.701 155.669 271.09 155.669Z" fill="#FAC0B5"/>
<path d="M439.09 214.248C450.479 214.248 454 212.258 454 214.2C454 216.336 451.485 217.549 439.054 217.549C426.659 217.549 424 216.336 424 214.2C424.036 212.258 427.701 214.248 439.09 214.248Z" fill="#FAC0B5"/>
<path d="M439.504 220.262C450.906 220.262 454 217.88 454 220.396C454 223.092 451.482 227.629 439.036 227.629C426.626 227.584 424 223.047 424 220.351C424 217.88 428.101 220.262 439.504 220.262Z" fill="#FAC0B5"/>
<path d="M439.09 211.669C450.479 211.669 454 210.299 454 207.867C454 205.215 451.485 200.749 439.054 200.749C426.623 200.749 424 205.215 424 207.867C424 210.299 427.701 211.669 439.09 211.669Z" fill="#FAC0B5"/>
<path d="M327.09 214.248C338.479 214.248 342 212.258 342 214.2C342 216.336 339.485 217.549 327.054 217.549C314.659 217.549 312 216.336 312 214.2C312.036 212.258 315.701 214.248 327.09 214.248Z" fill="#FFD675"/>
<path d="M327.504 220.262C338.906 220.262 342 217.88 342 220.396C342 223.092 339.482 227.629 327.036 227.629C314.626 227.584 312 223.047 312 220.351C312 217.88 316.101 220.262 327.504 220.262Z" fill="#FFD675"/>
<path d="M327.09 211.669C338.479 211.669 342 210.299 342 207.867C342 205.215 339.485 200.749 327.054 200.749C314.623 200.749 312 205.215 312 207.867C312 210.299 315.701 211.669 327.09 211.669Z" fill="#FFD675"/>
<path d="M215.09 214.248C226.479 214.248 230 212.258 230 214.2C230 216.336 227.485 217.549 215.054 217.549C202.659 217.549 200 216.336 200 214.2C200.036 212.258 203.701 214.248 215.09 214.248Z" fill="#92D2C4"/>
<path d="M215.504 220.262C226.906 220.262 230 217.88 230 220.396C230 223.092 227.482 227.629 215.036 227.629C202.626 227.584 200 223.047 200 220.351C200 217.88 204.101 220.262 215.504 220.262Z" fill="#92D2C4"/>
<path d="M215.09 211.669C226.479 211.669 230 210.299 230 207.867C230 205.215 227.485 200.749 215.054 200.749C202.623 200.749 200 205.215 200 207.867C200 210.299 203.701 211.669 215.09 211.669Z" fill="#92D2C4"/>
<path d="M439.09 102.248C450.479 102.248 454 100.258 454 102.2C454 104.336 451.485 105.549 439.054 105.549C426.659 105.549 424 104.336 424 102.2C424.036 100.258 427.701 102.248 439.09 102.248Z" fill="#FFD675"/>
<path d="M439.504 108.262C450.906 108.262 454 105.88 454 108.396C454 111.092 451.482 115.629 439.036 115.629C426.626 115.584 424 111.047 424 108.351C424 105.88 428.101 108.262 439.504 108.262Z" fill="#FFD675"/>
<path d="M439.09 99.6694C450.479 99.6694 454 98.2989 454 95.8673C454 93.2147 451.485 88.7494 439.054 88.7494C426.623 88.7494 424 93.2147 424 95.8673C424 98.2989 427.701 99.6694 439.09 99.6694Z" fill="#FFD675"/>
<path d="M719.09 46.2485C730.479 46.2485 734 44.2582 734 46.1999C734 48.3358 731.485 49.5494 719.054 49.5494C706.659 49.5494 704 48.3358 704 46.1999C704.036 44.2582 707.701 46.2485 719.09 46.2485Z" fill="#FFD675"/>
<path d="M719.504 52.2615C730.906 52.2615 734 49.8804 734 52.3963C734 55.0918 731.482 59.6294 719.036 59.6294C706.626 59.5844 704 55.0469 704 52.3514C704 49.8804 708.101 52.2615 719.504 52.2615Z" fill="#FFD675"/>
<path d="M719.09 43.6694C730.479 43.6694 734 42.2989 734 39.8673C734 37.2147 731.485 32.7494 719.054 32.7494C706.623 32.7494 704 37.2147 704 39.8673C704 42.2989 707.701 43.6694 719.09 43.6694Z" fill="#FFD675"/>
<path d="M215.09 102.248C226.479 102.248 230 100.258 230 102.2C230 104.336 227.485 105.549 215.054 105.549C202.659 105.549 200 104.336 200 102.2C200.036 100.258 203.701 102.248 215.09 102.248Z" fill="#9BB2DD"/>
<path d="M215.504 108.262C226.906 108.262 230 105.88 230 108.396C230 111.092 227.482 115.629 215.036 115.629C202.626 115.584 200 111.047 200 108.351C200 105.88 204.101 108.262 215.504 108.262Z" fill="#9BB2DD"/>
<path d="M215.09 99.6694C226.479 99.6694 230 98.2989 230 95.8673C230 93.2147 227.485 88.7494 215.054 88.7494C202.623 88.7494 200 93.2147 200 95.8673C200 98.2989 203.701 99.6694 215.09 99.6694Z" fill="#9BB2DD"/>
<path d="M47.0898 158.248C58.479 158.248 62 156.258 62 158.2C62 160.336 59.485 161.549 47.0539 161.549C34.6587 161.549 32 160.336 32 158.2C32.0359 156.258 35.7006 158.248 47.0898 158.248Z" fill="#92D2C4"/>
<path d="M47.5036 164.262C58.9065 164.262 62 161.88 62 164.396C62 167.092 59.482 171.629 47.036 171.629C34.6259 171.584 32 167.047 32 164.351C32 161.88 36.1007 164.262 47.5036 164.262Z" fill="#92D2C4"/>
<path d="M47.0898 155.669C58.479 155.669 62 154.299 62 151.867C62 149.215 59.485 144.749 47.0539 144.749C34.6228 144.749 32 149.215 32 151.867C32 154.299 35.7006 155.669 47.0898 155.669Z" fill="#92D2C4"/>
<path d="M47.0898 270.248C58.479 270.248 62 268.258 62 270.2C62 272.336 59.485 273.549 47.0539 273.549C34.6587 273.549 32 272.336 32 270.2C32.0359 268.258 35.7006 270.248 47.0898 270.248Z" fill="#FFD675"/>
<path d="M47.5036 276.262C58.9065 276.262 62 273.88 62 276.396C62 279.092 59.482 283.629 47.036 283.629C34.6259 283.584 32 279.047 32 276.351C32 273.88 36.1007 276.262 47.5036 276.262Z" fill="#FFD675"/>
<path d="M47.0898 267.669C58.479 267.669 62 266.299 62 263.867C62 261.215 59.485 256.749 47.0539 256.749C34.6228 256.749 32 261.215 32 263.867C32 266.299 35.7006 267.669 47.0898 267.669Z" fill="#FFD675"/>
<path d="M103.09 326.248C114.479 326.248 118 324.258 118 326.2C118 328.336 115.485 329.549 103.054 329.549C90.6587 329.549 88 328.336 88 326.2C88.0359 324.258 91.7006 326.248 103.09 326.248Z" fill="#92D2C4"/>
<path d="M103.504 332.262C114.906 332.262 118 329.88 118 332.396C118 335.092 115.482 339.629 103.036 339.629C90.6259 339.584 88 335.047 88 332.351C88 329.88 92.1007 332.262 103.504 332.262Z" fill="#92D2C4"/>
<path d="M103.09 323.669C114.479 323.669 118 322.299 118 319.867C118 317.215 115.485 312.749 103.054 312.749C90.6228 312.749 88 317.215 88 319.867C88 322.299 91.7006 323.669 103.09 323.669Z" fill="#92D2C4"/>
<path d="M103.09 438.248C114.479 438.248 118 436.258 118 438.2C118 440.336 115.485 441.549 103.054 441.549C90.6587 441.549 88 440.336 88 438.2C88.0359 436.258 91.7006 438.248 103.09 438.248Z" fill="#FFD675"/>
<path d="M103.504 444.262C114.906 444.262 118 441.88 118 444.396C118 447.092 115.482 451.629 103.036 451.629C90.6259 451.584 88 447.047 88 444.351C88 441.88 92.1007 444.262 103.504 444.262Z" fill="#FFD675"/>
<path d="M103.09 435.669C114.479 435.669 118 434.299 118 431.867C118 429.215 115.485 424.749 103.054 424.749C90.6228 424.749 88 429.215 88 431.867C88 434.299 91.7006 435.669 103.09 435.669Z" fill="#FFD675"/>
<path d="M47.0898 382.248C58.479 382.248 62 380.258 62 382.2C62 384.336 59.485 385.549 47.0539 385.549C34.6587 385.549 32 384.336 32 382.2C32.0359 380.258 35.7006 382.248 47.0898 382.248Z" fill="#FAC0B5"/>
<path d="M47.5036 388.262C58.9065 388.262 62 385.88 62 388.396C62 391.092 59.482 395.629 47.036 395.629C34.6259 395.584 32 391.047 32 388.351C32 385.88 36.1007 388.262 47.5036 388.262Z" fill="#FAC0B5"/>
<path d="M47.0898 379.669C58.479 379.669 62 378.299 62 375.867C62 373.215 59.485 368.749 47.0539 368.749C34.6228 368.749 32 373.215 32 375.867C32 378.299 35.7006 379.669 47.0898 379.669Z" fill="#FAC0B5"/>
<path d="M47.0898 494.248C58.479 494.248 62 492.258 62 494.2C62 496.336 59.485 497.549 47.0539 497.549C34.6587 497.549 32 496.336 32 494.2C32.0359 492.258 35.7006 494.248 47.0898 494.248Z" fill="#9BB2DD"/>
<path d="M47.5036 500.262C58.9065 500.262 62 497.88 62 500.396C62 503.092 59.482 507.629 47.036 507.629C34.6259 507.584 32 503.047 32 500.351C32 497.88 36.1007 500.262 47.5036 500.262Z" fill="#9BB2DD"/>
<path d="M47.0898 491.669C58.479 491.669 62 490.299 62 487.867C62 485.215 59.485 480.749 47.0539 480.749C34.6228 480.749 32 485.215 32 487.867C32 490.299 35.7006 491.669 47.0898 491.669Z" fill="#9BB2DD"/>
<path d="M215.09 326.248C226.479 326.248 230 324.258 230 326.2C230 328.336 227.485 329.549 215.054 329.549C202.659 329.549 200 328.336 200 326.2C200.036 324.258 203.701 326.248 215.09 326.248Z" fill="#FFD675"/>
<path d="M215.504 332.262C226.906 332.262 230 329.88 230 332.396C230 335.092 227.482 339.629 215.036 339.629C202.626 339.584 200 335.047 200 332.351C200 329.88 204.101 332.262 215.504 332.262Z" fill="#FFD675"/>
<path d="M215.09 323.669C226.479 323.669 230 322.299 230 319.867C230 317.215 227.485 312.749 215.054 312.749C202.623 312.749 200 317.215 200 319.867C200 322.299 203.701 323.669 215.09 323.669Z" fill="#FFD675"/>
<path d="M215.09 438.248C226.479 438.248 230 436.258 230 438.2C230 440.336 227.485 441.549 215.054 441.549C202.659 441.549 200 440.336 200 438.2C200.036 436.258 203.701 438.248 215.09 438.248Z" fill="#FAC0B5"/>
<path d="M215.504 444.262C226.906 444.262 230 441.88 230 444.396C230 447.092 227.482 451.629 215.036 451.629C202.626 451.584 200 447.047 200 444.351C200 441.88 204.101 444.262 215.504 444.262Z" fill="#FAC0B5"/>
<path d="M215.09 435.669C226.479 435.669 230 434.299 230 431.867C230 429.215 227.485 424.749 215.054 424.749C202.623 424.749 200 429.215 200 431.867C200 434.299 203.701 435.669 215.09 435.669Z" fill="#FAC0B5"/>
<path d="M159.09 382.248C170.479 382.248 174 380.258 174 382.2C174 384.336 171.485 385.549 159.054 385.549C146.659 385.549 144 384.336 144 382.2C144.036 380.258 147.701 382.248 159.09 382.248Z" fill="#9BB2DD"/>
<path d="M159.504 388.262C170.906 388.262 174 385.88 174 388.396C174 391.092 171.482 395.629 159.036 395.629C146.626 395.584 144 391.047 144 388.351C144 385.88 148.101 388.262 159.504 388.262Z" fill="#9BB2DD"/>
<path d="M159.09 379.669C170.479 379.669 174 378.299 174 375.867C174 373.215 171.485 368.749 159.054 368.749C146.623 368.749 144 373.215 144 375.867C144 378.299 147.701 379.669 159.09 379.669Z" fill="#9BB2DD"/>
<path d="M159.09 494.248C170.479 494.248 174 492.258 174 494.2C174 496.336 171.485 497.549 159.054 497.549C146.659 497.549 144 496.336 144 494.2C144.036 492.258 147.701 494.248 159.09 494.248Z" fill="#92D2C4"/>
<path d="M159.504 500.262C170.906 500.262 174 497.88 174 500.396C174 503.092 171.482 507.629 159.036 507.629C146.626 507.584 144 503.047 144 500.351C144 497.88 148.101 500.262 159.504 500.262Z" fill="#92D2C4"/>
<path d="M159.09 491.669C170.479 491.669 174 490.299 174 487.867C174 485.215 171.485 480.749 159.054 480.749C146.623 480.749 144 485.215 144 487.867C144 490.299 147.701 491.669 159.09 491.669Z" fill="#92D2C4"/>
<path d="M327.09 326.248C338.479 326.248 342 324.258 342 326.2C342 328.336 339.485 329.549 327.054 329.549C314.659 329.549 312 328.336 312 326.2C312.036 324.258 315.701 326.248 327.09 326.248Z" fill="#FAC0B5"/>
<path d="M327.504 332.262C338.906 332.262 342 329.88 342 332.396C342 335.092 339.482 339.629 327.036 339.629C314.626 339.584 312 335.047 312 332.351C312 329.88 316.101 332.262 327.504 332.262Z" fill="#FAC0B5"/>
<path d="M327.09 323.669C338.479 323.669 342 322.299 342 319.867C342 317.215 339.485 312.749 327.054 312.749C314.623 312.749 312 317.215 312 319.867C312 322.299 315.701 323.669 327.09 323.669Z" fill="#FAC0B5"/>
<path d="M327.09 438.248C338.479 438.248 342 436.258 342 438.2C342 440.336 339.485 441.549 327.054 441.549C314.659 441.549 312 440.336 312 438.2C312.036 436.258 315.701 438.248 327.09 438.248Z" fill="#9BB2DD"/>
<path d="M327.504 444.262C338.906 444.262 342 441.88 342 444.396C342 447.092 339.482 451.629 327.036 451.629C314.626 451.584 312 447.047 312 444.351C312 441.88 316.101 444.262 327.504 444.262Z" fill="#9BB2DD"/>
<path d="M327.09 435.669C338.479 435.669 342 434.299 342 431.867C342 429.215 339.485 424.749 327.054 424.749C314.623 424.749 312 429.215 312 431.867C312 434.299 315.701 435.669 327.09 435.669Z" fill="#9BB2DD"/>
<path d="M271.09 382.248C282.479 382.248 286 380.258 286 382.2C286 384.336 283.485 385.549 271.054 385.549C258.659 385.549 256 384.336 256 382.2C256.036 380.258 259.701 382.248 271.09 382.248Z" fill="#92D2C4"/>
<path d="M271.504 388.262C282.906 388.262 286 385.88 286 388.396C286 391.092 283.482 395.629 271.036 395.629C258.626 395.584 256 391.047 256 388.351C256 385.88 260.101 388.262 271.504 388.262Z" fill="#92D2C4"/>
<path d="M271.09 379.669C282.479 379.669 286 378.299 286 375.867C286 373.215 283.485 368.749 271.054 368.749C258.623 368.749 256 373.215 256 375.867C256 378.299 259.701 379.669 271.09 379.669Z" fill="#92D2C4"/>
<path d="M271.09 494.248C282.479 494.248 286 492.258 286 494.2C286 496.336 283.485 497.549 271.054 497.549C258.659 497.549 256 496.336 256 494.2C256.036 492.258 259.701 494.248 271.09 494.248Z" fill="#FFD675"/>
<path d="M271.504 500.262C282.906 500.262 286 497.88 286 500.396C286 503.092 283.482 507.629 271.036 507.629C258.626 507.584 256 503.047 256 500.351C256 497.88 260.101 500.262 271.504 500.262Z" fill="#FFD675"/>
<path d="M271.09 491.669C282.479 491.669 286 490.299 286 487.867C286 485.215 283.485 480.749 271.054 480.749C258.623 480.749 256 485.215 256 487.867C256 490.299 259.701 491.669 271.09 491.669Z" fill="#FFD675"/>
<path d="M439.09 326.248C450.479 326.248 454 324.258 454 326.2C454 328.336 451.485 329.549 439.054 329.549C426.659 329.549 424 328.336 424 326.2C424.036 324.258 427.701 326.248 439.09 326.248Z" fill="#9BB2DD"/>
<path d="M439.504 332.262C450.906 332.262 454 329.88 454 332.396C454 335.092 451.482 339.629 439.036 339.629C426.626 339.584 424 335.047 424 332.351C424 329.88 428.101 332.262 439.504 332.262Z" fill="#9BB2DD"/>
<path d="M439.09 323.669C450.479 323.669 454 322.299 454 319.867C454 317.215 451.485 312.749 439.054 312.749C426.623 312.749 424 317.215 424 319.867C424 322.299 427.701 323.669 439.09 323.669Z" fill="#9BB2DD"/>
<path d="M439.09 438.248C450.479 438.248 454 436.258 454 438.2C454 440.336 451.485 441.549 439.054 441.549C426.659 441.549 424 440.336 424 438.2C424.036 436.258 427.701 438.248 439.09 438.248Z" fill="#92D2C4"/>
<path d="M439.504 444.262C450.906 444.262 454 441.88 454 444.396C454 447.092 451.482 451.629 439.036 451.629C426.626 451.584 424 447.047 424 444.351C424 441.88 428.101 444.262 439.504 444.262Z" fill="#92D2C4"/>
<path d="M439.09 435.669C450.479 435.669 454 434.299 454 431.867C454 429.215 451.485 424.749 439.054 424.749C426.623 424.749 424 429.215 424 431.867C424 434.299 427.701 435.669 439.09 435.669Z" fill="#92D2C4"/>
<path d="M383.09 382.248C394.479 382.248 398 380.258 398 382.2C398 384.336 395.485 385.549 383.054 385.549C370.659 385.549 368 384.336 368 382.2C368.036 380.258 371.701 382.248 383.09 382.248Z" fill="#FFD675"/>
<path d="M383.504 388.262C394.906 388.262 398 385.88 398 388.396C398 391.092 395.482 395.629 383.036 395.629C370.626 395.584 368 391.047 368 388.351C368 385.88 372.101 388.262 383.504 388.262Z" fill="#FFD675"/>
<path d="M383.09 379.669C394.479 379.669 398 378.299 398 375.867C398 373.215 395.485 368.749 383.054 368.749C370.623 368.749 368 373.215 368 375.867C368 378.299 371.701 379.669 383.09 379.669Z" fill="#FFD675"/>
<path d="M383.09 494.248C394.479 494.248 398 492.258 398 494.2C398 496.336 395.485 497.549 383.054 497.549C370.659 497.549 368 496.336 368 494.2C368.036 492.258 371.701 494.248 383.09 494.248Z" fill="#FAC0B5"/>
<path d="M383.504 500.262C394.906 500.262 398 497.88 398 500.396C398 503.092 395.482 507.629 383.036 507.629C370.626 507.584 368 503.047 368 500.351C368 497.88 372.101 500.262 383.504 500.262Z" fill="#FAC0B5"/>
<path d="M383.09 491.669C394.479 491.669 398 490.299 398 487.867C398 485.215 395.485 480.749 383.054 480.749C370.623 480.749 368 485.215 368 487.867C368 490.299 371.701 491.669 383.09 491.669Z" fill="#FAC0B5"/>
<path d="M551.09 326.248C562.479 326.248 566 324.258 566 326.2C566 328.336 563.485 329.549 551.054 329.549C538.659 329.549 536 328.336 536 326.2C536.036 324.258 539.701 326.248 551.09 326.248Z" fill="#92D2C4"/>
<path d="M551.504 332.262C562.906 332.262 566 329.88 566 332.396C566 335.092 563.482 339.629 551.036 339.629C538.626 339.584 536 335.047 536 332.351C536 329.88 540.101 332.262 551.504 332.262Z" fill="#92D2C4"/>
<path d="M551.09 323.669C562.479 323.669 566 322.299 566 319.867C566 317.215 563.485 312.749 551.054 312.749C538.623 312.749 536 317.215 536 319.867C536 322.299 539.701 323.669 551.09 323.669Z" fill="#92D2C4"/>
<path d="M551.09 438.248C562.479 438.248 566 436.258 566 438.2C566 440.336 563.485 441.549 551.054 441.549C538.659 441.549 536 440.336 536 438.2C536.036 436.258 539.701 438.248 551.09 438.248Z" fill="#FFD675"/>
<path d="M551.504 444.262C562.906 444.262 566 441.88 566 444.396C566 447.092 563.482 451.629 551.036 451.629C538.626 451.584 536 447.047 536 444.351C536 441.88 540.101 444.262 551.504 444.262Z" fill="#FFD675"/>
<path d="M551.09 435.669C562.479 435.669 566 434.299 566 431.867C566 429.215 563.485 424.749 551.054 424.749C538.623 424.749 536 429.215 536 431.867C536 434.299 539.701 435.669 551.09 435.669Z" fill="#FFD675"/>
<path d="M495.09 382.248C506.479 382.248 510 380.258 510 382.2C510 384.336 507.485 385.549 495.054 385.549C482.659 385.549 480 384.336 480 382.2C480.036 380.258 483.701 382.248 495.09 382.248Z" fill="#FAC0B5"/>
<path d="M495.504 388.262C506.906 388.262 510 385.88 510 388.396C510 391.092 507.482 395.629 495.036 395.629C482.626 395.584 480 391.047 480 388.351C480 385.88 484.101 388.262 495.504 388.262Z" fill="#FAC0B5"/>
<path d="M495.09 379.669C506.479 379.669 510 378.299 510 375.867C510 373.215 507.485 368.749 495.054 368.749C482.623 368.749 480 373.215 480 375.867C480 378.299 483.701 379.669 495.09 379.669Z" fill="#FAC0B5"/>
<path d="M495.09 494.248C506.479 494.248 510 492.258 510 494.2C510 496.336 507.485 497.549 495.054 497.549C482.659 497.549 480 496.336 480 494.2C480.036 492.258 483.701 494.248 495.09 494.248Z" fill="#9BB2DD"/>
<path d="M495.504 500.262C506.906 500.262 510 497.88 510 500.396C510 503.092 507.482 507.629 495.036 507.629C482.626 507.584 480 503.047 480 500.351C480 497.88 484.101 500.262 495.504 500.262Z" fill="#9BB2DD"/>
<path d="M495.09 491.669C506.479 491.669 510 490.299 510 487.867C510 485.215 507.485 480.749 495.054 480.749C482.623 480.749 480 485.215 480 487.867C480 490.299 483.701 491.669 495.09 491.669Z" fill="#9BB2DD"/>
<path d="M663.09 326.248C674.479 326.248 678 324.258 678 326.2C678 328.336 675.485 329.549 663.054 329.549C650.659 329.549 648 328.336 648 326.2C648.036 324.258 651.701 326.248 663.09 326.248Z" fill="#FFD675"/>
<path d="M663.504 332.262C674.906 332.262 678 329.88 678 332.396C678 335.092 675.482 339.629 663.036 339.629C650.626 339.584 648 335.047 648 332.351C648 329.88 652.101 332.262 663.504 332.262Z" fill="#FFD675"/>
<path d="M663.09 323.669C674.479 323.669 678 322.299 678 319.867C678 317.215 675.485 312.749 663.054 312.749C650.623 312.749 648 317.215 648 319.867C648 322.299 651.701 323.669 663.09 323.669Z" fill="#FFD675"/>
<path d="M663.09 438.248C674.479 438.248 678 436.258 678 438.2C678 440.336 675.485 441.549 663.054 441.549C650.659 441.549 648 440.336 648 438.2C648.036 436.258 651.701 438.248 663.09 438.248Z" fill="#FAC0B5"/>
<path d="M663.504 444.262C674.906 444.262 678 441.88 678 444.396C678 447.092 675.482 451.629 663.036 451.629C650.626 451.584 648 447.047 648 444.351C648 441.88 652.101 444.262 663.504 444.262Z" fill="#FAC0B5"/>
<path d="M663.09 435.669C674.479 435.669 678 434.299 678 431.867C678 429.215 675.485 424.749 663.054 424.749C650.623 424.749 648 429.215 648 431.867C648 434.299 651.701 435.669 663.09 435.669Z" fill="#FAC0B5"/>
<path d="M607.09 382.248C618.479 382.248 622 380.258 622 382.2C622 384.336 619.485 385.549 607.054 385.549C594.659 385.549 592 384.336 592 382.2C592.036 380.258 595.701 382.248 607.09 382.248Z" fill="#9BB2DD"/>
<path d="M607.504 388.262C618.906 388.262 622 385.88 622 388.396C622 391.092 619.482 395.629 607.036 395.629C594.626 395.584 592 391.047 592 388.351C592 385.88 596.101 388.262 607.504 388.262Z" fill="#9BB2DD"/>
<path d="M607.09 379.669C618.479 379.669 622 378.299 622 375.867C622 373.215 619.485 368.749 607.054 368.749C594.623 368.749 592 373.215 592 375.867C592 378.299 595.701 379.669 607.09 379.669Z" fill="#9BB2DD"/>
<path d="M607.09 494.248C618.479 494.248 622 492.258 622 494.2C622 496.336 619.485 497.549 607.054 497.549C594.659 497.549 592 496.336 592 494.2C592.036 492.258 595.701 494.248 607.09 494.248Z" fill="#92D2C4"/>
<path d="M607.504 500.262C618.906 500.262 622 497.88 622 500.396C622 503.092 619.482 507.629 607.036 507.629C594.626 507.584 592 503.047 592 500.351C592 497.88 596.101 500.262 607.504 500.262Z" fill="#92D2C4"/>
<path d="M607.09 491.669C618.479 491.669 622 490.299 622 487.867C622 485.215 619.485 480.749 607.054 480.749C594.623 480.749 592 485.215 592 487.867C592 490.299 595.701 491.669 607.09 491.669Z" fill="#92D2C4"/>
<path d="M719.09 382.248C730.479 382.248 734 380.258 734 382.2C734 384.336 731.485 385.549 719.054 385.549C706.659 385.549 704 384.336 704 382.2C704.036 380.258 707.701 382.248 719.09 382.248Z" fill="#92D2C4"/>
<path d="M719.504 388.262C730.906 388.262 734 385.88 734 388.396C734 391.092 731.482 395.629 719.036 395.629C706.626 395.584 704 391.047 704 388.351C704 385.88 708.101 388.262 719.504 388.262Z" fill="#92D2C4"/>
<path d="M719.09 379.669C730.479 379.669 734 378.299 734 375.867C734 373.215 731.485 368.749 719.054 368.749C706.623 368.749 704 373.215 704 375.867C704 378.299 707.701 379.669 719.09 379.669Z" fill="#92D2C4"/>
<path d="M719.09 494.248C730.479 494.248 734 492.258 734 494.2C734 496.336 731.485 497.549 719.054 497.549C706.659 497.549 704 496.336 704 494.2C704.036 492.258 707.701 494.248 719.09 494.248Z" fill="#FFD675"/>
<path d="M719.504 500.262C730.906 500.262 734 497.88 734 500.396C734 503.092 731.482 507.629 719.036 507.629C706.626 507.584 704 503.047 704 500.351C704 497.88 708.101 500.262 719.504 500.262Z" fill="#FFD675"/>
<path d="M719.09 491.669C730.479 491.669 734 490.299 734 487.867C734 485.215 731.485 480.749 719.054 480.749C706.623 480.749 704 485.215 704 487.867C704 490.299 707.701 491.669 719.09 491.669Z" fill="#FFD675"/>
<path d="M159.09 270.248C170.479 270.248 174 268.258 174 270.2C174 272.336 171.485 273.549 159.054 273.549C146.659 273.549 144 272.336 144 270.2C144.036 268.258 147.701 270.248 159.09 270.248Z" fill="#FAC0B5"/>
<path d="M159.504 276.262C170.906 276.262 174 273.88 174 276.396C174 279.092 171.482 283.629 159.036 283.629C146.626 283.584 144 279.047 144 276.351C144 273.88 148.101 276.262 159.504 276.262Z" fill="#FAC0B5"/>
<path d="M159.09 267.669C170.479 267.669 174 266.299 174 263.867C174 261.215 171.485 256.749 159.054 256.749C146.623 256.749 144 261.215 144 263.867C144 266.299 147.701 267.669 159.09 267.669Z" fill="#FAC0B5"/>
<path d="M271.09 270.248C282.479 270.248 286 268.258 286 270.2C286 272.336 283.485 273.549 271.054 273.549C258.659 273.549 256 272.336 256 270.2C256.036 268.258 259.701 270.248 271.09 270.248Z" fill="#9BB2DD"/>
<path d="M271.504 276.262C282.906 276.262 286 273.88 286 276.396C286 279.092 283.482 283.629 271.036 283.629C258.626 283.584 256 279.047 256 276.351C256 273.88 260.101 276.262 271.504 276.262Z" fill="#9BB2DD"/>
<path d="M271.09 267.669C282.479 267.669 286 266.299 286 263.867C286 261.215 283.485 256.749 271.054 256.749C258.623 256.749 256 261.215 256 263.867C256 266.299 259.701 267.669 271.09 267.669Z" fill="#9BB2DD"/>
<path d="M383.09 270.248C394.479 270.248 398 268.258 398 270.2C398 272.336 395.485 273.549 383.054 273.549C370.659 273.549 368 272.336 368 270.2C368.036 268.258 371.701 270.248 383.09 270.248Z" fill="#92D2C4"/>
<path d="M383.504 276.262C394.906 276.262 398 273.88 398 276.396C398 279.092 395.482 283.629 383.036 283.629C370.626 283.584 368 279.047 368 276.351C368 273.88 372.101 276.262 383.504 276.262Z" fill="#92D2C4"/>
<path d="M383.09 267.669C394.479 267.669 398 266.299 398 263.867C398 261.215 395.485 256.749 383.054 256.749C370.623 256.749 368 261.215 368 263.867C368 266.299 371.701 267.669 383.09 267.669Z" fill="#92D2C4"/>
<path d="M495.09 270.248C506.479 270.248 510 268.258 510 270.2C510 272.336 507.485 273.549 495.054 273.549C482.659 273.549 480 272.336 480 270.2C480.036 268.258 483.701 270.248 495.09 270.248Z" fill="#FFD675"/>
<path d="M495.504 276.262C506.906 276.262 510 273.88 510 276.396C510 279.092 507.482 283.629 495.036 283.629C482.626 283.584 480 279.047 480 276.351C480 273.88 484.101 276.262 495.504 276.262Z" fill="#FFD675"/>
<path d="M495.09 267.669C506.479 267.669 510 266.299 510 263.867C510 261.215 507.485 256.749 495.054 256.749C482.623 256.749 480 261.215 480 263.867C480 266.299 483.701 267.669 495.09 267.669Z" fill="#FFD675"/>
<path d="M607.09 270.248C618.479 270.248 622 268.258 622 270.2C622 272.336 619.485 273.549 607.054 273.549C594.659 273.549 592 272.336 592 270.2C592.036 268.258 595.701 270.248 607.09 270.248Z" fill="#FAC0B5"/>
<path d="M607.504 276.262C618.906 276.262 622 273.88 622 276.396C622 279.092 619.482 283.629 607.036 283.629C594.626 283.584 592 279.047 592 276.351C592 273.88 596.101 276.262 607.504 276.262Z" fill="#FAC0B5"/>
<path d="M607.09 267.669C618.479 267.669 622 266.299 622 263.867C622 261.215 619.485 256.749 607.054 256.749C594.623 256.749 592 261.215 592 263.867C592 266.299 595.701 267.669 607.09 267.669Z" fill="#FAC0B5"/>
<path d="M719.09 270.248C730.479 270.248 734 268.258 734 270.2C734 272.336 731.485 273.549 719.054 273.549C706.659 273.549 704 272.336 704 270.2C704.036 268.258 707.701 270.248 719.09 270.248Z" fill="#9BB2DD"/>
<path d="M719.504 276.262C730.906 276.262 734 273.88 734 276.396C734 279.092 731.482 283.629 719.036 283.629C706.626 283.584 704 279.047 704 276.351C704 273.88 708.101 276.262 719.504 276.262Z" fill="#9BB2DD"/>
<path d="M719.09 267.669C730.479 267.669 734 266.299 734 263.867C734 261.215 731.485 256.749 719.054 256.749C706.623 256.749 704 261.215 704 263.867C704 266.299 707.701 267.669 719.09 267.669Z" fill="#9BB2DD"/>
<path d="M103.09 214.248C114.479 214.248 118 212.258 118 214.2C118 216.336 115.485 217.549 103.054 217.549C90.6587 217.549 88 216.336 88 214.2C88.0359 212.258 91.7006 214.248 103.09 214.248Z" fill="#9BB2DD"/>
<path d="M103.504 220.262C114.906 220.262 118 217.88 118 220.396C118 223.092 115.482 227.629 103.036 227.629C90.6259 227.584 88 223.047 88 220.351C88 217.88 92.1007 220.262 103.504 220.262Z" fill="#9BB2DD"/>
<path d="M103.09 211.669C114.479 211.669 118 210.299 118 207.867C118 205.215 115.485 200.749 103.054 200.749C90.6228 200.749 88 205.215 88 207.867C88 210.299 91.7006 211.669 103.09 211.669Z" fill="#9BB2DD"/>
<path d="M495.09 46.2485C506.479 46.2485 510 44.2582 510 46.1999C510 48.3358 507.485 49.5494 495.054 49.5494C482.659 49.5494 480 48.3358 480 46.1999C480.036 44.2582 483.701 46.2485 495.09 46.2485Z" fill="#9BB2DD"/>
<path d="M495.504 52.2615C506.906 52.2615 510 49.8804 510 52.3963C510 55.0918 507.482 59.6294 495.036 59.6294C482.626 59.5844 480 55.0469 480 52.3514C480 49.8804 484.101 52.2615 495.504 52.2615Z" fill="#9BB2DD"/>
<path d="M495.09 43.6694C506.479 43.6694 510 42.2989 510 39.8673C510 37.2147 507.485 32.7494 495.054 32.7494C482.623 32.7494 480 37.2147 480 39.8673C480 42.2989 483.701 43.6694 495.09 43.6694Z" fill="#9BB2DD"/>
<path d="M607.09 158.248C618.479 158.248 622 156.258 622 158.2C622 160.336 619.485 161.549 607.054 161.549C594.659 161.549 592 160.336 592 158.2C592.036 156.258 595.701 158.248 607.09 158.248Z" fill="#FFD675"/>
<path d="M607.504 164.262C618.906 164.262 622 161.88 622 164.396C622 167.092 619.482 171.629 607.036 171.629C594.626 171.584 592 167.047 592 164.351C592 161.88 596.101 164.262 607.504 164.262Z" fill="#FFD675"/>
<path d="M607.09 155.669C618.479 155.669 622 154.299 622 151.867C622 149.215 619.485 144.749 607.054 144.749C594.623 144.749 592 149.215 592 151.867C592 154.299 595.701 155.669 607.09 155.669Z" fill="#FFD675"/>
<path d="M271.09 46.2485C282.479 46.2485 286 44.2582 286 46.1999C286 48.3358 283.485 49.5494 271.054 49.5494C258.659 49.5494 256 48.3358 256 46.1999C256.036 44.2582 259.701 46.2485 271.09 46.2485Z" fill="#FFD675"/>
<path d="M271.504 52.2615C282.906 52.2615 286 49.8804 286 52.3963C286 55.0918 283.482 59.6294 271.036 59.6294C258.626 59.5844 256 55.0469 256 52.3514C256 49.8804 260.101 52.2615 271.504 52.2615Z" fill="#FFD675"/>
<path d="M271.09 43.6694C282.479 43.6694 286 42.2989 286 39.8673C286 37.2147 283.485 32.7494 271.054 32.7494C258.623 32.7494 256 37.2147 256 39.8673C256 42.2989 259.701 43.6694 271.09 43.6694Z" fill="#FFD675"/>
<path d="M383.09 158.248C394.479 158.248 398 156.258 398 158.2C398 160.336 395.485 161.549 383.054 161.549C370.659 161.549 368 160.336 368 158.2C368.036 156.258 371.701 158.248 383.09 158.248Z" fill="#9BB2DD"/>
<path d="M383.504 164.262C394.906 164.262 398 161.88 398 164.396C398 167.092 395.482 171.629 383.036 171.629C370.626 171.584 368 167.047 368 164.351C368 161.88 372.101 164.262 383.504 164.262Z" fill="#9BB2DD"/>
<path d="M383.09 155.669C394.479 155.669 398 154.299 398 151.867C398 149.215 395.485 144.749 383.054 144.749C370.623 144.749 368 149.215 368 151.867C368 154.299 371.701 155.669 383.09 155.669Z" fill="#9BB2DD"/>
<path d="M551.09 102.248C562.479 102.248 566 100.258 566 102.2C566 104.336 563.485 105.549 551.054 105.549C538.659 105.549 536 104.336 536 102.2C536.036 100.258 539.701 102.248 551.09 102.248Z" fill="#FAC0B5"/>
<path d="M551.504 108.262C562.906 108.262 566 105.88 566 108.396C566 111.092 563.482 115.629 551.036 115.629C538.626 115.584 536 111.047 536 108.351C536 105.88 540.101 108.262 551.504 108.262Z" fill="#FAC0B5"/>
<path d="M551.09 99.6694C562.479 99.6694 566 98.2989 566 95.8673C566 93.2147 563.485 88.7494 551.054 88.7494C538.623 88.7494 536 93.2147 536 95.8673C536 98.2989 539.701 99.6694 551.09 99.6694Z" fill="#FAC0B5"/>
<path d="M327.09 102.248C338.479 102.248 342 100.258 342 102.2C342 104.336 339.485 105.549 327.054 105.549C314.659 105.549 312 104.336 312 102.2C312.036 100.258 315.701 102.248 327.09 102.248Z" fill="#92D2C4"/>
<path d="M327.504 108.262C338.906 108.262 342 105.88 342 108.396C342 111.092 339.482 115.629 327.036 115.629C314.626 115.584 312 111.047 312 108.351C312 105.88 316.101 108.262 327.504 108.262Z" fill="#92D2C4"/>
<path d="M327.09 99.6694C338.479 99.6694 342 98.2989 342 95.8673C342 93.2147 339.485 88.7494 327.054 88.7494C314.623 88.7494 312 93.2147 312 95.8673C312 98.2989 315.701 99.6694 327.09 99.6694Z" fill="#92D2C4"/>
<path d="M607.571 45.8991C618.96 45.8991 622.481 43.9089 622.481 45.8506C622.481 47.9864 619.966 49.2 607.535 49.2C595.139 49.2 592.481 47.9864 592.481 45.8506C592.517 43.9089 596.181 45.8991 607.571 45.8991Z" fill="#92D2C4"/>
<path d="M607.984 51.9121C619.387 51.9121 622.481 49.5311 622.481 52.0469C622.481 54.7425 619.963 59.28 607.517 59.28C595.107 59.2351 592.481 54.6975 592.481 52.002C592.481 49.5311 596.581 51.9121 607.984 51.9121Z" fill="#92D2C4"/>
<path d="M607.571 43.32C618.96 43.32 622.481 41.9495 622.481 39.5179C622.481 36.8653 619.966 32.4 607.535 32.4C595.104 32.4 592.481 36.8653 592.481 39.5179C592.481 41.9495 596.181 43.32 607.571 43.32Z" fill="#92D2C4"/>
<path d="M719.571 157.899C730.96 157.899 734.481 155.909 734.481 157.851C734.481 159.986 731.966 161.2 719.535 161.2C707.139 161.2 704.481 159.986 704.481 157.851C704.517 155.909 708.181 157.899 719.571 157.899Z" fill="#FAC0B5"/>
<path d="M719.984 163.912C731.387 163.912 734.481 161.531 734.481 164.047C734.481 166.742 731.963 171.28 719.517 171.28C707.107 171.235 704.481 166.698 704.481 164.002C704.481 161.531 708.581 163.912 719.984 163.912Z" fill="#FAC0B5"/>
<path d="M719.571 155.32C730.96 155.32 734.481 153.949 734.481 151.518C734.481 148.865 731.966 144.4 719.535 144.4C707.103 144.4 704.481 148.865 704.481 151.518C704.481 153.949 708.181 155.32 719.571 155.32Z" fill="#FAC0B5"/>
</svg>
