<svg width="597" height="160" viewBox="0 0 597 160" fill="none" xmlns="http://www.w3.org/2000/svg">
<path d="M18.52 18.12V7H24V35H18.52V23.4H8.12V35H2.6V7H8.12V18.12H18.52ZM34.7216 23.44V29.72H46.5216V35H29.2016V7H46.3216V12.28H34.7216V18.24H45.3216V23.44H34.7216ZM74.8422 35H68.8422L67.1622 29.96H56.0022L54.3222 35H48.3622L58.1622 7H65.0022L74.8422 35ZM61.6022 13.36L57.7622 24.8H65.4422L61.6022 13.36ZM77.5609 7H88.6809C92.5209 7 95.7209 8.34666 98.2809 11.04C100.868 13.7067 102.161 17.0267 102.161 21C102.161 24.9733 100.868 28.2933 98.2809 30.96C95.7209 33.6533 92.5209 35 88.6809 35H77.5609V7ZM83.0809 29.72H88.6809C91.1076 29.72 93.0809 28.92 94.6009 27.32C96.1209 25.6667 96.8809 23.56 96.8809 21C96.8809 18.4133 96.1209 16.32 94.6009 14.72C93.0809 13.0933 91.1076 12.28 88.6809 12.28H83.0809V29.72ZM111.597 7V29.72H122.277V35H106.077V7H111.597ZM125.413 35V7H130.933V35H125.413ZM152.316 24.08V7H157.836V35H153.636L141.636 17.88V35H136.116V7H140.316L152.316 24.08ZM168.55 23.44V29.72H180.35V35H163.03V7H180.15V12.28H168.55V18.24H179.15V23.44H168.55ZM192.081 9.6L199.441 7H204.241V35H198.721V12.84L193.441 14.32L192.081 9.6ZM233.149 19.96H247.189V22.12C247.189 26.12 245.909 29.36 243.349 31.84C240.789 34.32 237.483 35.56 233.429 35.56C229.109 35.56 225.523 34.16 222.669 31.36C219.843 28.5333 218.429 25.0933 218.429 21.04C218.429 16.96 219.829 13.5067 222.629 10.68C225.456 7.85333 228.949 6.44 233.109 6.44C235.696 6.44 238.069 7.02667 240.229 8.2C242.389 9.37333 244.083 10.96 245.309 12.96L240.589 15.68C239.923 14.5333 238.909 13.6 237.549 12.88C236.189 12.16 234.696 11.8 233.069 11.8C230.376 11.8 228.176 12.68 226.469 14.44C224.763 16.1467 223.909 18.3467 223.909 21.04C223.909 23.68 224.776 25.8667 226.509 27.6C228.243 29.3067 230.563 30.16 233.469 30.16C235.576 30.16 237.336 29.6933 238.749 28.76C240.163 27.8267 241.123 26.52 241.629 24.84H233.149V19.96ZM251.116 35V7H256.636V35H251.116ZM267.339 7V29.72H278.019V35H261.819V7H267.339ZM302.475 35H296.515L290.875 25.28H286.675V35H281.155V7H292.355C294.941 7 297.141 7.90667 298.955 9.72C300.768 11.5333 301.675 13.72 301.675 16.28C301.675 18.0133 301.181 19.6267 300.195 21.12C299.208 22.5867 297.901 23.6933 296.275 24.44L302.475 35ZM292.355 12.16H286.675V20.44H292.355C293.395 20.44 294.288 20.04 295.035 19.24C295.781 18.4133 296.155 17.4267 296.155 16.28C296.155 15.1333 295.781 14.16 295.035 13.36C294.288 12.56 293.395 12.16 292.355 12.16ZM328.973 31.36C326.146 34.16 322.706 35.56 318.653 35.56C314.599 35.56 311.159 34.16 308.333 31.36C305.533 28.5067 304.132 25.0533 304.132 21C304.132 16.92 305.533 13.48 308.333 10.68C311.159 7.85333 314.599 6.44 318.653 6.44C322.706 6.44 326.146 7.85333 328.973 10.68C331.799 13.48 333.213 16.92 333.213 21C333.213 25.08 331.799 28.5333 328.973 31.36ZM312.213 27.6C313.919 29.3067 316.066 30.16 318.653 30.16C321.239 30.16 323.386 29.3067 325.093 27.6C326.826 25.8667 327.693 23.6667 327.693 21C327.693 18.3333 326.826 16.1333 325.093 14.4C323.359 12.6667 321.213 11.8 318.653 11.8C316.093 11.8 313.946 12.6667 312.213 14.4C310.479 16.1333 309.613 18.3333 309.613 21C309.613 23.6667 310.479 25.8667 312.213 27.6ZM350.981 7H357.221L347.621 24.08V35H342.141V24.08L332.581 7H338.821L344.901 18.68L350.981 7ZM386.825 20.48C389.278 21.8933 390.505 24.0267 390.505 26.88C390.505 29.2533 389.665 31.2 387.985 32.72C386.305 34.24 384.238 35 381.785 35H369.905V7H380.945C383.318 7 385.331 7.74666 386.985 9.24C388.638 10.7333 389.465 12.6133 389.465 14.88C389.465 17.2 388.585 19.0667 386.825 20.48ZM380.945 12.16H375.425V18.32H380.945C381.798 18.32 382.505 18.0267 383.065 17.44C383.651 16.8533 383.945 16.12 383.945 15.24C383.945 14.36 383.665 13.6267 383.105 13.04C382.545 12.4533 381.825 12.16 380.945 12.16ZM375.425 29.84H381.785C382.718 29.84 383.491 29.5333 384.105 28.92C384.718 28.28 385.025 27.48 385.025 26.52C385.025 25.5867 384.718 24.8133 384.105 24.2C383.491 23.56 382.718 23.24 381.785 23.24H375.425V29.84ZM417.683 31.36C414.857 34.16 411.417 35.56 407.363 35.56C403.31 35.56 399.87 34.16 397.043 31.36C394.243 28.5067 392.843 25.0533 392.843 21C392.843 16.92 394.243 13.48 397.043 10.68C399.87 7.85333 403.31 6.44 407.363 6.44C411.417 6.44 414.857 7.85333 417.683 10.68C420.51 13.48 421.923 16.92 421.923 21C421.923 25.08 420.51 28.5333 417.683 31.36ZM400.923 27.6C402.63 29.3067 404.777 30.16 407.363 30.16C409.95 30.16 412.097 29.3067 413.803 27.6C415.537 25.8667 416.403 23.6667 416.403 21C416.403 18.3333 415.537 16.1333 413.803 14.4C412.07 12.6667 409.923 11.8 407.363 11.8C404.803 11.8 402.657 12.6667 400.923 14.4C399.19 16.1333 398.323 18.3333 398.323 21C398.323 23.6667 399.19 25.8667 400.923 27.6ZM431.323 7V29.72H442.003V35H425.803V7H431.323ZM445.139 7H456.259C460.099 7 463.299 8.34666 465.859 11.04C468.446 13.7067 469.739 17.0267 469.739 21C469.739 24.9733 468.446 28.2933 465.859 30.96C463.299 33.6533 460.099 35 456.259 35H445.139V7ZM450.659 29.72H456.259C458.686 29.72 460.659 28.92 462.179 27.32C463.699 25.6667 464.459 23.56 464.459 21C464.459 18.4133 463.699 16.32 462.179 14.72C460.659 13.0933 458.686 12.28 456.259 12.28H450.659V29.72ZM500.695 25.12H503.695V30.24H500.695V35H495.135V30.24H481.895V25.12L491.215 7H497.135L487.855 25.12H495.135V18.48H500.695V25.12ZM516.858 35.56C513.364 35.56 510.618 34.24 508.618 31.6C506.644 28.9067 505.658 25.3733 505.658 21C505.658 16.6267 506.644 13.1067 508.618 10.44C510.618 7.77333 513.364 6.44 516.858 6.44C520.404 6.44 523.151 7.77333 525.098 10.44C527.071 13.1067 528.058 16.6267 528.058 21C528.058 25.3733 527.071 28.9067 525.098 31.6C523.151 34.24 520.404 35.56 516.858 35.56ZM522.578 21C522.578 18.0133 522.084 15.7333 521.098 14.16C520.138 12.5867 518.724 11.8 516.858 11.8C514.991 11.8 513.578 12.5867 512.618 14.16C511.658 15.7333 511.178 18.0133 511.178 21C511.178 23.9867 511.658 26.2667 512.618 27.84C513.578 29.3867 514.991 30.16 516.858 30.16C518.724 30.16 520.138 29.3733 521.098 27.8C522.084 26.2267 522.578 23.96 522.578 21ZM549.053 3L533.053 39H530.773L546.773 3H549.053ZM570.031 25.12H573.031V30.24H570.031V35H564.471V30.24H551.231V25.12L560.551 7H566.471L557.191 25.12H564.471V18.48H570.031V25.12ZM591.426 20.44C594.013 21.9867 595.306 24.24 595.306 27.2C595.306 29.7867 594.4 31.8267 592.586 33.32C590.8 34.8133 588.36 35.56 585.266 35.56C582.146 35.56 579.693 34.8133 577.906 33.32C576.12 31.8267 575.226 29.7867 575.226 27.2C575.226 24.2667 576.506 22.0133 579.066 20.44C577.12 19.0533 576.146 17.12 576.146 14.64C576.146 12.0533 577.013 10.04 578.746 8.6C580.506 7.16 582.68 6.44 585.266 6.44C587.88 6.44 590.04 7.16 591.746 8.6C593.48 10.04 594.346 12.0533 594.346 14.64C594.346 17.12 593.373 19.0533 591.426 20.44ZM588.866 14.92C588.866 13.9067 588.533 13.1067 587.866 12.52C587.2 11.9333 586.333 11.64 585.266 11.64C584.2 11.64 583.333 11.9333 582.666 12.52C582 13.1067 581.666 13.9067 581.666 14.92C581.666 15.96 582 16.7733 582.666 17.36C583.333 17.9467 584.2 18.24 585.266 18.24C586.333 18.24 587.2 17.9467 587.866 17.36C588.533 16.7733 588.866 15.96 588.866 14.92ZM588.586 29.32C589.413 28.6267 589.826 27.68 589.826 26.48C589.826 25.28 589.413 24.3467 588.586 23.68C587.76 22.9867 586.653 22.64 585.266 22.64C583.88 22.64 582.773 22.9867 581.946 23.68C581.12 24.3467 580.706 25.28 580.706 26.48C580.706 27.68 581.12 28.6267 581.946 29.32C582.773 30.0133 583.88 30.36 585.266 30.36C586.653 30.36 587.76 30.0133 588.586 29.32Z" fill="#003218"/>
<path d="M14.816 63.496V54.6H19.2V77H14.816V67.72H6.496V77H2.08V54.6H6.496V63.496H14.816ZM27.7773 67.752V72.776H37.2173V77H23.3613V54.6H37.0573V58.824H27.7773V63.592H36.2573V67.752H27.7773ZM59.8738 77H55.0738L53.7298 72.968H44.8018L43.4578 77H38.6898L46.5298 54.6H52.0018L59.8738 77ZM49.2818 59.688L46.2098 68.84H52.3538L49.2818 59.688ZM62.0488 54.6H70.9448C74.0168 54.6 76.5768 55.6773 78.6248 57.832C80.6941 59.9653 81.7288 62.6213 81.7288 65.8C81.7288 68.9787 80.6941 71.6347 78.6248 73.768C76.5768 75.9227 74.0168 77 70.9448 77H62.0488V54.6ZM66.4648 72.776H70.9448C72.8861 72.776 74.4648 72.136 75.6808 70.856C76.8968 69.5333 77.5048 67.848 77.5048 65.8C77.5048 63.7307 76.8968 62.056 75.6808 60.776C74.4648 59.4747 72.8861 58.824 70.9448 58.824H66.4648V72.776ZM89.2773 54.6V72.776H97.8213V77H84.8613V54.6H89.2773ZM100.33 77V54.6H104.746V77H100.33ZM121.853 68.264V54.6H126.269V77H122.909L113.309 63.304V77H108.893V54.6H112.253L121.853 68.264ZM134.84 67.752V72.776H144.28V77H130.424V54.6H144.12V58.824H134.84V63.592H143.32V67.752H134.84ZM169.153 77H154.177V73.704L161.825 65.832C163.531 64.0187 164.385 62.5253 164.385 61.352C164.385 60.4773 164.107 59.7733 163.553 59.24C163.019 58.7067 162.326 58.44 161.473 58.44C159.766 58.44 158.518 59.3147 157.729 61.064L154.017 58.888C154.699 57.3733 155.691 56.2107 156.993 55.4C158.315 54.568 159.787 54.152 161.409 54.152C163.435 54.152 165.174 54.792 166.625 56.072C168.075 57.3307 168.801 59.0373 168.801 61.192C168.801 63.5173 167.574 65.9067 165.121 68.36L160.737 72.744H169.153V77ZM191.145 64.968H202.377V66.696C202.377 69.896 201.353 72.488 199.305 74.472C197.257 76.456 194.611 77.448 191.369 77.448C187.913 77.448 185.043 76.328 182.761 74.088C180.499 71.8267 179.368 69.0747 179.368 65.832C179.368 62.568 180.489 59.8053 182.729 57.544C184.99 55.2827 187.785 54.152 191.113 54.152C193.182 54.152 195.081 54.6213 196.809 55.56C198.537 56.4987 199.891 57.768 200.873 59.368L197.097 61.544C196.563 60.6267 195.753 59.88 194.665 59.304C193.577 58.728 192.382 58.44 191.081 58.44C188.926 58.44 187.166 59.144 185.801 60.552C184.435 61.9173 183.753 63.6773 183.753 65.832C183.753 67.944 184.446 69.6933 185.833 71.08C187.219 72.4453 189.075 73.128 191.401 73.128C193.086 73.128 194.494 72.7547 195.625 72.008C196.755 71.2613 197.523 70.216 197.929 68.872H191.145V64.968ZM205.518 77V54.6H209.934V77H205.518ZM218.496 54.6V72.776H227.04V77H214.08V54.6H218.496ZM246.605 77H241.837L237.325 69.224H233.965V77H229.549V54.6H238.509C240.578 54.6 242.338 55.3253 243.789 56.776C245.239 58.2267 245.965 59.976 245.965 62.024C245.965 63.4107 245.57 64.7013 244.781 65.896C243.991 67.0693 242.946 67.9547 241.645 68.552L246.605 77ZM238.509 58.728H233.965V65.352H238.509C239.341 65.352 240.055 65.032 240.653 64.392C241.25 63.7307 241.549 62.9413 241.549 62.024C241.549 61.1067 241.25 60.328 240.653 59.688C240.055 59.048 239.341 58.728 238.509 58.728ZM267.803 74.088C265.542 76.328 262.79 77.448 259.547 77.448C256.304 77.448 253.552 76.328 251.291 74.088C249.051 71.8053 247.931 69.0427 247.931 65.8C247.931 62.536 249.051 59.784 251.291 57.544C253.552 55.2827 256.304 54.152 259.547 54.152C262.79 54.152 265.542 55.2827 267.803 57.544C270.064 59.784 271.195 62.536 271.195 65.8C271.195 69.064 270.064 71.8267 267.803 74.088ZM254.395 71.08C255.76 72.4453 257.478 73.128 259.547 73.128C261.616 73.128 263.334 72.4453 264.699 71.08C266.086 69.6933 266.779 67.9333 266.779 65.8C266.779 63.6667 266.086 61.9067 264.699 60.52C263.312 59.1333 261.595 58.44 259.547 58.44C257.499 58.44 255.782 59.1333 254.395 60.52C253.008 61.9067 252.315 63.6667 252.315 65.8C252.315 67.9333 253.008 69.6933 254.395 71.08ZM285.41 54.6H290.402L282.722 68.264V77H278.338V68.264L270.69 54.6H275.682L280.546 63.944L285.41 54.6ZM314.085 65.384C316.047 66.5147 317.029 68.2213 317.029 70.504C317.029 72.4027 316.357 73.96 315.013 75.176C313.669 76.392 312.015 77 310.053 77H300.549V54.6H309.381C311.279 54.6 312.89 55.1973 314.213 56.392C315.535 57.5867 316.197 59.0907 316.197 60.904C316.197 62.76 315.493 64.2533 314.085 65.384ZM309.381 58.728H304.965V63.656H309.381C310.063 63.656 310.629 63.4213 311.077 62.952C311.546 62.4827 311.781 61.896 311.781 61.192C311.781 60.488 311.557 59.9013 311.109 59.432C310.661 58.9627 310.085 58.728 309.381 58.728ZM304.965 72.872H310.053C310.799 72.872 311.418 72.6267 311.909 72.136C312.399 71.624 312.645 70.984 312.645 70.216C312.645 69.4693 312.399 68.8507 311.909 68.36C311.418 67.848 310.799 67.592 310.053 67.592H304.965V72.872ZM338.772 74.088C336.51 76.328 333.758 77.448 330.516 77.448C327.273 77.448 324.521 76.328 322.26 74.088C320.02 71.8053 318.9 69.0427 318.9 65.8C318.9 62.536 320.02 59.784 322.26 57.544C324.521 55.2827 327.273 54.152 330.516 54.152C333.758 54.152 336.51 55.2827 338.772 57.544C341.033 59.784 342.164 62.536 342.164 65.8C342.164 69.064 341.033 71.8267 338.772 74.088ZM325.364 71.08C326.729 72.4453 328.446 73.128 330.516 73.128C332.585 73.128 334.302 72.4453 335.668 71.08C337.054 69.6933 337.748 67.9333 337.748 65.8C337.748 63.6667 337.054 61.9067 335.668 60.52C334.281 59.1333 332.564 58.44 330.516 58.44C328.468 58.44 326.75 59.1333 325.364 60.52C323.977 61.9067 323.284 63.6667 323.284 65.8C323.284 67.9333 323.977 69.6933 325.364 71.08ZM349.684 54.6V72.776H358.228V77H345.268V54.6H349.684ZM360.736 54.6H369.632C372.704 54.6 375.264 55.6773 377.312 57.832C379.382 59.9653 380.416 62.6213 380.416 65.8C380.416 68.9787 379.382 71.6347 377.312 73.768C375.264 75.9227 372.704 77 369.632 77H360.736V54.6ZM365.152 72.776H369.632C371.574 72.776 373.152 72.136 374.368 70.856C375.584 69.5333 376.192 67.848 376.192 65.8C376.192 63.7307 375.584 62.056 374.368 60.776C373.152 59.4747 371.574 58.824 369.632 58.824H365.152V72.776ZM404.957 58.248L400.765 63.688C402.322 64.136 403.559 64.9253 404.477 66.056C405.415 67.1867 405.885 68.5307 405.885 70.088C405.885 72.392 405.106 74.1947 403.549 75.496C402.034 76.7973 400.146 77.448 397.885 77.448C396.114 77.448 394.546 77.0427 393.181 76.232C391.815 75.4 390.823 74.2267 390.205 72.712L393.981 70.536C394.514 72.264 395.815 73.128 397.885 73.128C399.015 73.128 399.89 72.8613 400.509 72.328C401.149 71.7733 401.469 71.0267 401.469 70.088C401.469 69.1707 401.149 68.4347 400.509 67.88C399.89 67.3253 399.015 67.048 397.885 67.048H396.925L395.229 64.488L399.645 58.728H390.877V54.6H404.957V58.248ZM422.246 77H407.27V73.704L414.918 65.832C416.625 64.0187 417.478 62.5253 417.478 61.352C417.478 60.4773 417.201 59.7733 416.646 59.24C416.113 58.7067 415.42 58.44 414.566 58.44C412.86 58.44 411.612 59.3147 410.822 61.064L407.11 58.888C407.793 57.3733 408.785 56.2107 410.086 55.4C411.409 54.568 412.881 54.152 414.502 54.152C416.529 54.152 418.268 54.792 419.718 56.072C421.169 57.3307 421.894 59.0373 421.894 61.192C421.894 63.5173 420.668 65.9067 418.214 68.36L413.83 72.744H422.246V77ZM439.086 51.4L426.286 80.2H424.462L437.262 51.4H439.086ZM455.868 69.096H458.268V73.192H455.868V77H451.42V73.192H440.828V69.096L448.284 54.6H453.02L445.596 69.096H451.42V63.784H455.868V69.096ZM468.799 77.448C466.004 77.448 463.807 76.392 462.207 74.28C460.628 72.1253 459.839 69.2987 459.839 65.8C459.839 62.3013 460.628 59.4853 462.207 57.352C463.807 55.2187 466.004 54.152 468.799 54.152C471.636 54.152 473.833 55.2187 475.391 57.352C476.969 59.4853 477.759 62.3013 477.759 65.8C477.759 69.2987 476.969 72.1253 475.391 74.28C473.833 76.392 471.636 77.448 468.799 77.448ZM473.375 65.8C473.375 63.4107 472.98 61.5867 472.191 60.328C471.423 59.0693 470.292 58.44 468.799 58.44C467.305 58.44 466.175 59.0693 465.407 60.328C464.639 61.5867 464.255 63.4107 464.255 65.8C464.255 68.1893 464.639 70.0133 465.407 71.272C466.175 72.5093 467.305 73.128 468.799 73.128C470.292 73.128 471.423 72.4987 472.191 71.24C472.98 69.9813 473.375 68.168 473.375 65.8Z" fill="#003218"/>
<path d="M10.48 97.608V109H8.576V103.912H3.328V109H1.408V97.608H3.328V102.248H8.576V97.608H10.48ZM21.7303 97.608V99.272H16.0343V102.36H21.3783V104.008H16.0343V107.336H21.8903V109H14.1143V97.608H21.7303ZM32.4183 109L31.3623 105.912H26.6423L25.5863 109H23.5703L27.7143 97.608H30.2903L34.4343 109H32.4183ZM27.2183 104.248H30.7863L30.4823 103.352C29.8423 101.453 29.3516 99.944 29.0103 98.824H28.9783C28.4129 100.68 27.9276 102.189 27.5223 103.352L27.2183 104.248ZM36.3861 109V97.608H40.0341C41.9435 97.608 43.4155 98.104 44.4501 99.096C45.4848 100.077 46.0021 101.48 46.0021 103.304C46.0021 105.128 45.4848 106.536 44.4501 107.528C43.4155 108.509 41.9435 109 40.0341 109H36.3861ZM40.0021 99.272H38.2901V107.336H40.0021C42.6795 107.336 44.0181 105.992 44.0181 103.304C44.0181 100.616 42.6795 99.272 40.0021 99.272ZM50.7624 97.608V107.336H56.3624V109H48.8424V97.608H50.7624ZM60.6561 97.608V109H58.7361V97.608H60.6561ZM73.6945 97.608V109H70.9425L68.4785 104.232C67.6145 102.547 66.8092 100.915 66.0625 99.336H66.0305C66.0945 101.064 66.1265 102.792 66.1265 104.52V109H64.2705V97.608H67.0385L69.4865 102.376C70.3505 104.061 71.1558 105.693 71.9025 107.272H71.9345C71.8812 105.352 71.8545 103.624 71.8545 102.088V97.608H73.6945ZM84.9365 97.608V99.272H79.2405V102.36H84.5845V104.008H79.2405V107.336H85.0965V109H77.3205V97.608H84.9365ZM95.824 97.976C96.9547 97.976 97.8507 98.248 98.512 98.792C99.1733 99.336 99.504 100.061 99.504 100.968C99.504 102.163 98.88 102.984 97.632 103.432V103.464C98.336 103.699 98.8533 104.029 99.184 104.456C99.5147 104.883 99.68 105.443 99.68 106.136C99.68 107.075 99.328 107.827 98.624 108.392C97.92 108.957 96.992 109.24 95.84 109.24C94.5813 109.24 93.6053 108.925 92.912 108.296C92.2293 107.667 91.888 106.771 91.888 105.608H93.808C93.808 106.973 94.4853 107.656 95.84 107.656C96.416 107.656 96.88 107.512 97.232 107.224C97.584 106.925 97.76 106.536 97.76 106.056C97.76 104.925 96.9707 104.36 95.392 104.36H95.008V102.808H95.392C96.0747 102.808 96.6133 102.659 97.008 102.36C97.4133 102.051 97.616 101.645 97.616 101.144C97.616 100.675 97.4453 100.296 97.104 100.008C96.7627 99.7093 96.3147 99.56 95.76 99.56C95.1627 99.56 94.704 99.7253 94.384 100.056C94.064 100.376 93.904 100.861 93.904 101.512H92C92 100.403 92.336 99.5387 93.008 98.92C93.6907 98.2907 94.6293 97.976 95.824 97.976ZM116.616 97.608V109H113.864L111.4 104.232C110.536 102.547 109.731 100.915 108.984 99.336H108.952C109.016 101.064 109.048 102.792 109.048 104.52V109H107.192V97.608H109.96L112.408 102.376C113.272 104.061 114.078 105.693 114.824 107.272H114.856C114.803 105.352 114.776 103.624 114.776 102.088V97.608H116.616ZM127.858 97.608V99.272H122.162V102.36H127.506V104.008H122.162V107.336H128.018V109H120.242V97.608H127.858ZM137.544 97.608H139.448V104.696C139.448 106.168 139.07 107.293 138.312 108.072C137.566 108.851 136.488 109.24 135.08 109.24C133.672 109.24 132.59 108.851 131.832 108.072C131.075 107.293 130.696 106.168 130.696 104.696V97.608H132.616V104.632C132.616 105.581 132.83 106.301 133.256 106.792C133.683 107.283 134.291 107.528 135.08 107.528C135.87 107.528 136.478 107.283 136.904 106.792C137.331 106.301 137.544 105.581 137.544 104.632V97.608ZM150.599 97.608V99.272H144.903V102.36H150.247V104.008H144.903V107.336H150.759V109H142.983V97.608H150.599ZM167.343 97.608V109H165.439V103.912H160.191V109H158.271V97.608H160.191V102.248H165.439V97.608H167.343ZM178.168 109L177.112 105.912H172.392L171.336 109H169.32L173.464 97.608H176.04L180.184 109H178.168ZM172.968 104.248H176.536L176.232 103.352C175.592 101.453 175.102 99.944 174.76 98.824H174.728C174.163 100.68 173.678 102.189 173.272 103.352L172.968 104.248ZM189.953 109L188.897 105.912H184.177L183.121 109H181.105L185.249 97.608H187.825L191.969 109H189.953ZM184.753 104.248H188.321L188.017 103.352C187.377 101.453 186.886 99.944 186.545 98.824H186.513C185.947 100.68 185.462 102.189 185.057 103.352L184.753 104.248ZM197.311 97.368C198.687 97.368 199.727 97.688 200.431 98.328C201.145 98.9573 201.503 99.8853 201.503 101.112H199.567C199.567 100.397 199.369 99.8587 198.975 99.496C198.58 99.1227 198.015 98.936 197.279 98.936C196.66 98.936 196.169 99.0747 195.807 99.352C195.455 99.6187 195.279 99.9867 195.279 100.456C195.279 100.947 195.465 101.309 195.839 101.544C196.212 101.779 196.895 102.019 197.887 102.264C198.399 102.392 198.815 102.504 199.135 102.6C199.455 102.696 199.801 102.84 200.175 103.032C200.559 103.213 200.857 103.416 201.071 103.64C201.284 103.864 201.46 104.157 201.599 104.52C201.748 104.872 201.823 105.283 201.823 105.752C201.823 106.808 201.433 107.656 200.655 108.296C199.876 108.925 198.847 109.24 197.567 109.24C196.169 109.24 195.081 108.899 194.303 108.216C193.524 107.523 193.135 106.531 193.135 105.24H195.103C195.103 106.851 195.929 107.656 197.583 107.656C198.287 107.656 198.836 107.501 199.231 107.192C199.636 106.883 199.839 106.461 199.839 105.928C199.839 105.395 199.657 105.016 199.295 104.792C198.932 104.568 198.255 104.333 197.263 104.088C196.729 103.949 196.308 103.837 195.999 103.752C195.7 103.656 195.353 103.517 194.959 103.336C194.564 103.144 194.265 102.941 194.063 102.728C193.86 102.504 193.684 102.216 193.535 101.864C193.385 101.501 193.311 101.091 193.311 100.632C193.311 99.6613 193.673 98.8773 194.399 98.28C195.135 97.672 196.105 97.368 197.311 97.368ZM215.96 97.608H217.864V104.696C217.864 106.168 217.485 107.293 216.728 108.072C215.981 108.851 214.904 109.24 213.496 109.24C212.088 109.24 211.005 108.851 210.248 108.072C209.491 107.293 209.112 106.168 209.112 104.696V97.608H211.032V104.632C211.032 105.581 211.245 106.301 211.672 106.792C212.099 107.283 212.707 107.528 213.496 107.528C214.285 107.528 214.893 107.283 215.32 106.792C215.747 106.301 215.96 105.581 215.96 104.632V97.608ZM230.823 97.608V109H228.071L225.607 104.232C224.743 102.547 223.937 100.915 223.191 99.336H223.159C223.223 101.064 223.255 102.792 223.255 104.52V109H221.399V97.608H224.167L226.615 102.376C227.479 104.061 228.284 105.693 229.031 107.272H229.063C229.009 105.352 228.983 103.624 228.983 102.088V97.608H230.823ZM236.369 97.608V109H234.449V97.608H236.369ZM244.319 97.368C245.684 97.368 246.783 97.752 247.615 98.52C248.447 99.288 248.89 100.285 248.943 101.512H247.007C246.922 100.755 246.639 100.163 246.159 99.736C245.69 99.2987 245.076 99.08 244.319 99.08C243.348 99.08 242.586 99.4587 242.031 100.216C241.476 100.963 241.199 101.992 241.199 103.304C241.199 104.616 241.471 105.651 242.015 106.408C242.57 107.155 243.322 107.528 244.271 107.528C245.028 107.528 245.647 107.309 246.127 106.872C246.618 106.435 246.916 105.827 247.023 105.048H248.991C248.874 106.36 248.399 107.389 247.567 108.136C246.735 108.872 245.636 109.24 244.271 109.24C242.703 109.24 241.466 108.712 240.559 107.656C239.663 106.6 239.215 105.149 239.215 103.304C239.215 101.459 239.668 100.008 240.575 98.952C241.492 97.896 242.74 97.368 244.319 97.368ZM259.006 109L257.95 105.912H253.23L252.174 109H250.158L254.302 97.608H256.878L261.022 109H259.006ZM253.806 104.248H257.374L257.07 103.352C256.43 101.453 255.939 99.944 255.598 98.824H255.566C255 100.68 254.515 102.189 254.11 103.352L253.806 104.248ZM280.302 97.608V109H278.446V103.272C278.446 101.672 278.467 100.232 278.51 98.952H278.478C278.104 100.2 277.646 101.629 277.102 103.24L275.134 109H272.942L270.974 103.24C270.43 101.629 269.971 100.2 269.598 98.952H269.566C269.608 100.232 269.63 101.672 269.63 103.272V109H267.774V97.608H270.862L272.702 103.032C273.203 104.493 273.64 105.923 274.014 107.32H274.046C274.462 105.837 274.904 104.408 275.374 103.032L277.214 97.608H280.302ZM291.533 97.608V99.272H285.837V102.36H291.181V104.008H285.837V107.336H291.693V109H283.917V97.608H291.533ZM294.717 109V97.608H298.365C300.275 97.608 301.747 98.104 302.781 99.096C303.816 100.077 304.333 101.48 304.333 103.304C304.333 105.128 303.816 106.536 302.781 107.528C301.747 108.509 300.275 109 298.365 109H294.717ZM298.333 99.272H296.621V107.336H298.333C301.011 107.336 302.349 105.992 302.349 103.304C302.349 100.616 301.011 99.272 298.333 99.272ZM309.094 97.608V109H307.174V97.608H309.094ZM319.46 97.608H321.364V104.696C321.364 106.168 320.985 107.293 320.228 108.072C319.481 108.851 318.404 109.24 316.996 109.24C315.588 109.24 314.505 108.851 313.748 108.072C312.991 107.293 312.612 106.168 312.612 104.696V97.608H314.532V104.632C314.532 105.581 314.745 106.301 315.172 106.792C315.599 107.283 316.207 107.528 316.996 107.528C317.785 107.528 318.393 107.283 318.82 106.792C319.247 106.301 319.46 105.581 319.46 104.632V97.608ZM337.427 97.608V109H335.571V103.272C335.571 101.672 335.592 100.232 335.635 98.952H335.603C335.229 100.2 334.771 101.629 334.227 103.24L332.259 109H330.067L328.099 103.24C327.555 101.629 327.096 100.2 326.723 98.952H326.691C326.733 100.232 326.755 101.672 326.755 103.272V109H324.899V97.608H327.987L329.827 103.032C330.328 104.493 330.765 105.923 331.139 107.32H331.171C331.587 105.837 332.029 104.408 332.499 103.032L334.339 97.608H337.427ZM350.122 98.216V109H348.234V101.416H345.722V100.04C346.597 100.04 347.242 99.9013 347.658 99.624C348.085 99.336 348.346 98.8667 348.442 98.216H350.122ZM359.211 97.976C360.224 97.976 361.035 98.2533 361.643 98.808C362.251 99.352 362.592 100.109 362.667 101.08H360.747C360.597 100.067 360.059 99.56 359.131 99.56C358.427 99.56 357.861 99.864 357.435 100.472C357.019 101.069 356.795 101.981 356.763 103.208H356.795C357.445 102.376 358.299 101.96 359.355 101.96C360.389 101.96 361.227 102.291 361.867 102.952C362.507 103.603 362.827 104.451 362.827 105.496C362.827 106.616 362.469 107.523 361.755 108.216C361.04 108.899 360.107 109.24 358.955 109.24C357.664 109.24 356.677 108.797 355.995 107.912C355.312 107.027 354.971 105.715 354.971 103.976C354.971 102.045 355.339 100.563 356.075 99.528C356.821 98.4933 357.867 97.976 359.211 97.976ZM358.987 103.448C358.411 103.448 357.947 103.645 357.595 104.04C357.253 104.424 357.083 104.936 357.083 105.576C357.083 106.216 357.248 106.723 357.579 107.096C357.92 107.469 358.379 107.656 358.955 107.656C359.531 107.656 359.989 107.469 360.331 107.096C360.683 106.712 360.859 106.195 360.859 105.544C360.859 104.915 360.688 104.408 360.347 104.024C360.005 103.64 359.552 103.448 358.987 103.448ZM371.068 97.08L366.3 110.424H364.796L369.564 97.08H371.068ZM377.302 97.976C378.433 97.976 379.329 98.248 379.99 98.792C380.651 99.336 380.982 100.061 380.982 100.968C380.982 102.163 380.358 102.984 379.11 103.432V103.464C379.814 103.699 380.331 104.029 380.662 104.456C380.993 104.883 381.158 105.443 381.158 106.136C381.158 107.075 380.806 107.827 380.102 108.392C379.398 108.957 378.47 109.24 377.318 109.24C376.059 109.24 375.083 108.925 374.39 108.296C373.707 107.667 373.366 106.771 373.366 105.608H375.286C375.286 106.973 375.963 107.656 377.318 107.656C377.894 107.656 378.358 107.512 378.71 107.224C379.062 106.925 379.238 106.536 379.238 106.056C379.238 104.925 378.449 104.36 376.87 104.36H376.486V102.808H376.87C377.553 102.808 378.091 102.659 378.486 102.36C378.891 102.051 379.094 101.645 379.094 101.144C379.094 100.675 378.923 100.296 378.582 100.008C378.241 99.7093 377.793 99.56 377.238 99.56C376.641 99.56 376.182 99.7253 375.862 100.056C375.542 100.376 375.382 100.861 375.382 101.512H373.478C373.478 100.403 373.814 99.5387 374.486 98.92C375.169 98.2907 376.107 97.976 377.302 97.976ZM391.719 104.888V106.408H390.071V109H388.183V106.408H383.047V104.776L387.543 98.216H390.071V104.888H391.719ZM385.959 103.256L384.823 104.888H388.231V103.496C388.231 102.376 388.258 101.112 388.311 99.704H388.279C387.756 100.557 386.983 101.741 385.959 103.256Z" fill="#003218"/>
<path d="M10.48 124.608V136H8.576V130.912H3.328V136H1.408V124.608H3.328V129.248H8.576V124.608H10.48ZM16.6102 134.896C17.1223 134.896 17.5383 134.773 17.8583 134.528C18.1889 134.283 18.3969 133.957 18.4823 133.552H20.3542C20.1943 134.32 19.7836 134.96 19.1223 135.472C18.4609 135.984 17.6236 136.24 16.6102 136.24C15.3836 136.24 14.4183 135.84 13.7142 135.04C13.0209 134.24 12.6742 133.173 12.6742 131.84C12.6742 130.613 13.0209 129.605 13.7142 128.816C14.4183 128.027 15.3729 127.632 16.5782 127.632C17.4956 127.632 18.2743 127.883 18.9143 128.384C19.5649 128.875 20.0023 129.547 20.2263 130.4C20.3756 130.88 20.4503 131.515 20.4503 132.304H14.4822C14.5143 133.179 14.7223 133.829 15.1063 134.256C15.5009 134.683 16.0023 134.896 16.6102 134.896ZM17.9703 129.52C17.6076 129.157 17.1436 128.976 16.5782 128.976C16.0129 128.976 15.5436 129.157 15.1702 129.52C14.8076 129.883 14.5889 130.411 14.5143 131.104H18.6263C18.5623 130.411 18.3436 129.883 17.9703 129.52ZM25.4186 127.632C26.5066 127.632 27.3333 127.899 27.8986 128.432C28.4746 128.965 28.7626 129.76 28.7626 130.816V133.856C28.7626 134.731 28.832 135.445 28.9706 136H27.3226C27.248 135.669 27.2106 135.291 27.2106 134.864H27.1786C26.5813 135.739 25.6693 136.176 24.4426 136.176C23.6106 136.176 22.944 135.952 22.4426 135.504C21.9413 135.045 21.6906 134.464 21.6906 133.76C21.6906 133.067 21.9253 132.512 22.3946 132.096C22.8746 131.68 23.68 131.381 24.8106 131.2C25.4933 131.083 26.224 131.003 27.0026 130.96V130.64C27.0026 129.52 26.4746 128.96 25.4186 128.96C24.928 128.96 24.544 129.088 24.2666 129.344C23.9893 129.6 23.84 129.947 23.8186 130.384H22.0266C22.0693 129.573 22.3786 128.912 22.9546 128.4C23.5413 127.888 24.3626 127.632 25.4186 127.632ZM27.0026 132.544V132.144C26.3093 132.187 25.6853 132.256 25.1306 132.352C24.544 132.448 24.128 132.592 23.8826 132.784C23.648 132.976 23.5306 133.259 23.5306 133.632C23.5306 133.995 23.6533 134.288 23.8986 134.512C24.1546 134.725 24.512 134.832 24.9706 134.832C25.5893 134.832 26.08 134.651 26.4426 134.288C26.656 134.064 26.8 133.829 26.8746 133.584C26.96 133.328 27.0026 132.981 27.0026 132.544ZM38.2196 124.608V136H36.4436V134.88H36.4116C36.177 135.296 35.841 135.621 35.4036 135.856C34.977 136.08 34.5076 136.192 33.9956 136.192C32.961 136.192 32.1343 135.808 31.5156 135.04C30.9076 134.261 30.6036 133.227 30.6036 131.936C30.6036 130.635 30.9076 129.6 31.5156 128.832C32.1236 128.053 32.945 127.664 33.9796 127.664C34.4916 127.664 34.9556 127.776 35.3716 128C35.7983 128.224 36.129 128.533 36.3636 128.928H36.3956V124.608H38.2196ZM34.5236 129.088C33.905 129.088 33.4143 129.349 33.0516 129.872C32.689 130.384 32.5076 131.072 32.5076 131.936C32.5076 132.8 32.689 133.493 33.0516 134.016C33.4143 134.528 33.905 134.784 34.5236 134.784C35.121 134.784 35.5956 134.528 35.9476 134.016C36.3103 133.504 36.4916 132.811 36.4916 131.936C36.4916 131.051 36.3103 130.357 35.9476 129.856C35.5956 129.344 35.121 129.088 34.5236 129.088ZM42.5382 124.608V136H40.7142V124.608H42.5382ZM46.8545 127.872V136H45.0305V127.872H46.8545ZM46.8545 124.608V126.352H45.0305V124.608H46.8545ZM53.5387 127.68C54.4774 127.68 55.2027 127.963 55.7147 128.528C56.2374 129.093 56.4987 129.925 56.4987 131.024V136H54.6747V131.184C54.6747 129.829 54.1254 129.152 53.0267 129.152C52.4827 129.152 52.0347 129.355 51.6827 129.76C51.3414 130.165 51.1707 130.741 51.1707 131.488V136H49.3467V127.872H51.0747V128.928H51.1067C51.6827 128.096 52.4934 127.68 53.5387 127.68ZM62.289 134.896C62.801 134.896 63.217 134.773 63.537 134.528C63.8677 134.283 64.0757 133.957 64.161 133.552H66.033C65.873 134.32 65.4623 134.96 64.801 135.472C64.1397 135.984 63.3023 136.24 62.289 136.24C61.0623 136.24 60.097 135.84 59.393 135.04C58.6997 134.24 58.353 133.173 58.353 131.84C58.353 130.613 58.6997 129.605 59.393 128.816C60.097 128.027 61.0517 127.632 62.257 127.632C63.1743 127.632 63.953 127.883 64.593 128.384C65.2437 128.875 65.681 129.547 65.905 130.4C66.0543 130.88 66.129 131.515 66.129 132.304H60.161C60.193 133.179 60.401 133.829 60.785 134.256C61.1797 134.683 61.681 134.896 62.289 134.896ZM63.649 129.52C63.2863 129.157 62.8223 128.976 62.257 128.976C61.6917 128.976 61.2223 129.157 60.849 129.52C60.4863 129.883 60.2677 130.411 60.193 131.104H64.305C64.241 130.411 64.0223 129.883 63.649 129.52ZM79.6809 131.888V133.408H78.0329V136H76.1449V133.408H71.0089V131.776L75.5049 125.216H78.0329V131.888H79.6809ZM73.9209 130.256L72.7849 131.888H76.1929V130.496C76.1929 129.376 76.2195 128.112 76.2729 126.704H76.2409C75.7182 127.557 74.9449 128.741 73.9209 130.256ZM94.8733 124.608V136H92.1213L89.6573 131.232C88.7933 129.547 87.9879 127.915 87.2413 126.336H87.2093C87.2733 128.064 87.3053 129.792 87.3053 131.52V136H85.4493V124.608H88.2173L90.6653 129.376C91.5293 131.061 92.3346 132.693 93.0813 134.272H93.1133C93.0599 132.352 93.0333 130.624 93.0333 129.088V124.608H94.8733ZM100.995 134.896C101.507 134.896 101.923 134.773 102.243 134.528C102.574 134.283 102.782 133.957 102.867 133.552H104.739C104.579 134.32 104.169 134.96 103.507 135.472C102.846 135.984 102.009 136.24 100.995 136.24C99.7686 136.24 98.8032 135.84 98.0992 135.04C97.4059 134.24 97.0592 133.173 97.0592 131.84C97.0592 130.613 97.4059 129.605 98.0992 128.816C98.8032 128.027 99.7579 127.632 100.963 127.632C101.881 127.632 102.659 127.883 103.299 128.384C103.95 128.875 104.387 129.547 104.611 130.4C104.761 130.88 104.835 131.515 104.835 132.304H98.8672C98.8992 133.179 99.1072 133.829 99.4912 134.256C99.8859 134.683 100.387 134.896 100.995 134.896ZM102.355 129.52C101.993 129.157 101.529 128.976 100.963 128.976C100.398 128.976 99.9286 129.157 99.5552 129.52C99.1926 129.883 98.9739 130.411 98.8992 131.104H103.011C102.947 130.411 102.729 129.883 102.355 129.52ZM109.644 136.192C108.705 136.192 107.974 135.909 107.452 135.344C106.94 134.779 106.684 133.947 106.684 132.848V127.872H108.508V132.688C108.508 134.043 109.057 134.72 110.156 134.72C110.7 134.72 111.142 134.517 111.484 134.112C111.836 133.707 112.012 133.131 112.012 132.384V127.872H113.836V136H112.108V134.944H112.076C111.5 135.776 110.689 136.192 109.644 136.192ZM119.706 134.896C120.218 134.896 120.634 134.773 120.954 134.528C121.285 134.283 121.493 133.957 121.578 133.552H123.45C123.29 134.32 122.879 134.96 122.218 135.472C121.557 135.984 120.719 136.24 119.706 136.24C118.479 136.24 117.514 135.84 116.81 135.04C116.117 134.24 115.77 133.173 115.77 131.84C115.77 130.613 116.117 129.605 116.81 128.816C117.514 128.027 118.469 127.632 119.674 127.632C120.591 127.632 121.37 127.883 122.01 128.384C122.661 128.875 123.098 129.547 123.322 130.4C123.471 130.88 123.546 131.515 123.546 132.304H117.578C117.61 133.179 117.818 133.829 118.202 134.256C118.597 134.683 119.098 134.896 119.706 134.896ZM121.066 129.52C120.703 129.157 120.239 128.976 119.674 128.976C119.109 128.976 118.639 129.157 118.266 129.52C117.903 129.883 117.685 130.411 117.61 131.104H121.722C121.658 130.411 121.439 129.883 121.066 129.52ZM138.634 124.608V136H136.73V130.912H131.482V136H129.562V124.608H131.482V129.248H136.73V124.608H138.634ZM144.428 127.632C145.516 127.632 146.343 127.899 146.908 128.432C147.484 128.965 147.772 129.76 147.772 130.816V133.856C147.772 134.731 147.841 135.445 147.98 136H146.332C146.257 135.669 146.22 135.291 146.22 134.864H146.188C145.591 135.739 144.679 136.176 143.452 136.176C142.62 136.176 141.953 135.952 141.452 135.504C140.951 135.045 140.7 134.464 140.7 133.76C140.7 133.067 140.935 132.512 141.404 132.096C141.884 131.68 142.689 131.381 143.82 131.2C144.503 131.083 145.233 131.003 146.012 130.96V130.64C146.012 129.52 145.484 128.96 144.428 128.96C143.937 128.96 143.553 129.088 143.276 129.344C142.999 129.6 142.849 129.947 142.828 130.384H141.036C141.079 129.573 141.388 128.912 141.964 128.4C142.551 127.888 143.372 127.632 144.428 127.632ZM146.012 132.544V132.144C145.319 132.187 144.695 132.256 144.14 132.352C143.553 132.448 143.137 132.592 142.892 132.784C142.657 132.976 142.54 133.259 142.54 133.632C142.54 133.995 142.663 134.288 142.908 134.512C143.164 134.725 143.521 134.832 143.98 134.832C144.599 134.832 145.089 134.651 145.452 134.288C145.665 134.064 145.809 133.829 145.884 133.584C145.969 133.328 146.012 132.981 146.012 132.544ZM153.213 127.632C154.301 127.632 155.128 127.899 155.693 128.432C156.269 128.965 156.557 129.76 156.557 130.816V133.856C156.557 134.731 156.626 135.445 156.765 136H155.117C155.042 135.669 155.005 135.291 155.005 134.864H154.973C154.376 135.739 153.464 136.176 152.237 136.176C151.405 136.176 150.738 135.952 150.237 135.504C149.736 135.045 149.485 134.464 149.485 133.76C149.485 133.067 149.72 132.512 150.189 132.096C150.669 131.68 151.474 131.381 152.605 131.2C153.288 131.083 154.018 131.003 154.797 130.96V130.64C154.797 129.52 154.269 128.96 153.213 128.96C152.722 128.96 152.338 129.088 152.061 129.344C151.784 129.6 151.634 129.947 151.613 130.384H149.821C149.864 129.573 150.173 128.912 150.749 128.4C151.336 127.888 152.157 127.632 153.213 127.632ZM154.797 132.544V132.144C154.104 132.187 153.48 132.256 152.925 132.352C152.338 132.448 151.922 132.592 151.677 132.784C151.442 132.976 151.325 133.259 151.325 133.632C151.325 133.995 151.448 134.288 151.693 134.512C151.949 134.725 152.306 134.832 152.765 134.832C153.384 134.832 153.874 134.651 154.237 134.288C154.45 134.064 154.594 133.829 154.669 133.584C154.754 133.328 154.797 132.981 154.797 132.544ZM161.758 127.632C162.803 127.632 163.609 127.872 164.174 128.352C164.75 128.821 165.043 129.504 165.054 130.4H163.294C163.294 129.44 162.777 128.96 161.742 128.96C161.315 128.96 160.985 129.045 160.75 129.216C160.515 129.387 160.398 129.621 160.398 129.92C160.398 130.24 160.521 130.469 160.766 130.608C161.011 130.747 161.502 130.907 162.238 131.088C162.537 131.163 162.723 131.211 162.798 131.232C162.883 131.253 163.059 131.307 163.326 131.392C163.603 131.467 163.785 131.536 163.87 131.6C163.966 131.653 164.115 131.733 164.318 131.84C164.521 131.947 164.659 132.059 164.734 132.176C164.819 132.283 164.915 132.416 165.022 132.576C165.139 132.736 165.214 132.917 165.246 133.12C165.289 133.312 165.31 133.525 165.31 133.76C165.31 134.507 165.001 135.109 164.382 135.568C163.763 136.016 162.937 136.24 161.902 136.24C160.793 136.24 159.929 135.995 159.31 135.504C158.702 135.003 158.393 134.277 158.382 133.328H160.238C160.238 133.829 160.382 134.213 160.67 134.48C160.969 134.747 161.39 134.88 161.934 134.88C162.393 134.88 162.75 134.789 163.006 134.608C163.273 134.427 163.406 134.181 163.406 133.872C163.406 133.488 163.267 133.221 162.99 133.072C162.713 132.912 162.169 132.731 161.358 132.528C161.059 132.453 160.857 132.405 160.75 132.384C160.654 132.352 160.478 132.299 160.222 132.224C159.966 132.139 159.785 132.064 159.678 132C159.571 131.925 159.427 131.824 159.246 131.696C159.075 131.568 158.953 131.435 158.878 131.296C158.803 131.147 158.734 130.971 158.67 130.768C158.606 130.555 158.574 130.32 158.574 130.064C158.574 129.339 158.867 128.752 159.454 128.304C160.041 127.856 160.809 127.632 161.758 127.632ZM178.098 124.608H180.002V131.696C180.002 133.168 179.623 134.293 178.866 135.072C178.119 135.851 177.042 136.24 175.634 136.24C174.226 136.24 173.143 135.851 172.386 135.072C171.629 134.293 171.25 133.168 171.25 131.696V124.608H173.17V131.632C173.17 132.581 173.383 133.301 173.81 133.792C174.237 134.283 174.845 134.528 175.634 134.528C176.423 134.528 177.031 134.283 177.458 133.792C177.885 133.301 178.098 132.581 178.098 131.632V124.608ZM186.849 127.68C187.787 127.68 188.513 127.963 189.025 128.528C189.547 129.093 189.809 129.925 189.809 131.024V136H187.985V131.184C187.985 129.829 187.435 129.152 186.337 129.152C185.793 129.152 185.345 129.355 184.993 129.76C184.651 130.165 184.481 130.741 184.481 131.488V136H182.657V127.872H184.385V128.928H184.417C184.993 128.096 185.803 127.68 186.849 127.68ZM194.047 127.872V136H192.223V127.872H194.047ZM194.047 124.608V126.352H192.223V124.608H194.047ZM199.931 127.632C200.955 127.632 201.798 127.931 202.459 128.528C203.131 129.115 203.51 129.877 203.595 130.816H201.691C201.649 130.283 201.467 129.861 201.147 129.552C200.827 129.232 200.422 129.072 199.931 129.072C199.291 129.072 198.79 129.328 198.427 129.84C198.075 130.341 197.899 131.04 197.899 131.936C197.899 132.832 198.075 133.536 198.427 134.048C198.79 134.549 199.291 134.8 199.931 134.8C200.422 134.8 200.822 134.624 201.131 134.272C201.451 133.92 201.633 133.467 201.675 132.912H203.595C203.51 133.904 203.137 134.709 202.475 135.328C201.814 135.936 200.966 136.24 199.931 136.24C198.726 136.24 197.766 135.851 197.051 135.072C196.337 134.293 195.979 133.248 195.979 131.936C195.979 130.624 196.337 129.579 197.051 128.8C197.766 128.021 198.726 127.632 199.931 127.632ZM208.505 127.632C209.593 127.632 210.42 127.899 210.985 128.432C211.561 128.965 211.849 129.76 211.849 130.816V133.856C211.849 134.731 211.918 135.445 212.057 136H210.409C210.334 135.669 210.297 135.291 210.297 134.864H210.265C209.668 135.739 208.756 136.176 207.529 136.176C206.697 136.176 206.03 135.952 205.529 135.504C205.028 135.045 204.777 134.464 204.777 133.76C204.777 133.067 205.012 132.512 205.481 132.096C205.961 131.68 206.766 131.381 207.897 131.2C208.58 131.083 209.31 131.003 210.089 130.96V130.64C210.089 129.52 209.561 128.96 208.505 128.96C208.014 128.96 207.63 129.088 207.353 129.344C207.076 129.6 206.926 129.947 206.905 130.384H205.113C205.156 129.573 205.465 128.912 206.041 128.4C206.628 127.888 207.449 127.632 208.505 127.632ZM210.089 132.544V132.144C209.396 132.187 208.772 132.256 208.217 132.352C207.63 132.448 207.214 132.592 206.969 132.784C206.734 132.976 206.617 133.259 206.617 133.632C206.617 133.995 206.74 134.288 206.985 134.512C207.241 134.725 207.598 134.832 208.057 134.832C208.676 134.832 209.166 134.651 209.529 134.288C209.742 134.064 209.886 133.829 209.961 133.584C210.046 133.328 210.089 132.981 210.089 132.544ZM230.865 124.608V136H229.009V130.272C229.009 128.672 229.031 127.232 229.073 125.952H229.041C228.668 127.2 228.209 128.629 227.665 130.24L225.697 136H223.505L221.537 130.24C220.993 128.629 220.535 127.2 220.161 125.952H220.129C220.172 127.232 220.193 128.672 220.193 130.272V136H218.337V124.608H221.425L223.265 130.032C223.767 131.493 224.204 132.923 224.577 134.32H224.609C225.025 132.837 225.468 131.408 225.937 130.032L227.777 124.608H230.865ZM236.977 134.896C237.489 134.896 237.905 134.773 238.225 134.528C238.556 134.283 238.764 133.957 238.849 133.552H240.721C240.561 134.32 240.15 134.96 239.489 135.472C238.828 135.984 237.99 136.24 236.977 136.24C235.75 136.24 234.785 135.84 234.081 135.04C233.388 134.24 233.041 133.173 233.041 131.84C233.041 130.613 233.388 129.605 234.081 128.816C234.785 128.027 235.74 127.632 236.945 127.632C237.862 127.632 238.641 127.883 239.281 128.384C239.932 128.875 240.369 129.547 240.593 130.4C240.742 130.88 240.817 131.515 240.817 132.304H234.849C234.881 133.179 235.089 133.829 235.473 134.256C235.868 134.683 236.369 134.896 236.977 134.896ZM238.337 129.52C237.974 129.157 237.51 128.976 236.945 128.976C236.38 128.976 235.91 129.157 235.537 129.52C235.174 129.883 234.956 130.411 234.881 131.104H238.993C238.929 130.411 238.71 129.883 238.337 129.52ZM249.958 124.608V136H248.182V134.88H248.15C247.915 135.296 247.579 135.621 247.142 135.856C246.715 136.08 246.246 136.192 245.734 136.192C244.699 136.192 243.872 135.808 243.254 135.04C242.646 134.261 242.342 133.227 242.342 131.936C242.342 130.635 242.646 129.6 243.254 128.832C243.862 128.053 244.683 127.664 245.718 127.664C246.23 127.664 246.694 127.776 247.11 128C247.536 128.224 247.867 128.533 248.102 128.928H248.134V124.608H249.958ZM246.262 129.088C245.643 129.088 245.152 129.349 244.79 129.872C244.427 130.384 244.246 131.072 244.246 131.936C244.246 132.8 244.427 133.493 244.79 134.016C245.152 134.528 245.643 134.784 246.262 134.784C246.859 134.784 247.334 134.528 247.686 134.016C248.048 133.504 248.23 132.811 248.23 131.936C248.23 131.051 248.048 130.357 247.686 129.856C247.334 129.344 246.859 129.088 246.262 129.088ZM254.276 127.872V136H252.452V127.872H254.276ZM254.276 124.608V126.352H252.452V124.608H254.276ZM259.649 136.192C258.71 136.192 257.979 135.909 257.457 135.344C256.945 134.779 256.689 133.947 256.689 132.848V127.872H258.513V132.688C258.513 134.043 259.062 134.72 260.161 134.72C260.705 134.72 261.147 134.517 261.489 134.112C261.841 133.707 262.017 133.131 262.017 132.384V127.872H263.841V136H262.113V134.944H262.081C261.505 135.776 260.694 136.192 259.649 136.192ZM275.375 127.68C276.25 127.68 276.932 127.963 277.423 128.528C277.914 129.093 278.159 129.915 278.159 130.992V136H276.335V131.168C276.335 129.824 275.844 129.152 274.863 129.152C274.33 129.152 273.908 129.371 273.599 129.808C273.3 130.235 273.151 130.837 273.151 131.616V136H271.327V130.976C271.327 130.4 271.199 129.952 270.943 129.632C270.698 129.312 270.34 129.152 269.871 129.152C269.327 129.152 268.906 129.371 268.607 129.808C268.308 130.245 268.159 130.859 268.159 131.648V136H266.335V127.872H268.079V128.848H268.111C268.687 128.069 269.439 127.68 270.367 127.68C271.54 127.68 272.34 128.171 272.767 129.152C273.396 128.171 274.266 127.68 275.375 127.68ZM289.253 125.216V136H287.365V128.416H284.853V127.04C285.727 127.04 286.373 126.901 286.789 126.624C287.215 126.336 287.477 125.867 287.573 125.216H289.253ZM297.701 124.976C298.715 124.976 299.525 125.253 300.133 125.808C300.741 126.352 301.083 127.109 301.157 128.08H299.237C299.088 127.067 298.549 126.56 297.621 126.56C296.917 126.56 296.352 126.864 295.925 127.472C295.509 128.069 295.285 128.981 295.253 130.208H295.285C295.936 129.376 296.789 128.96 297.845 128.96C298.88 128.96 299.717 129.291 300.357 129.952C300.997 130.603 301.317 131.451 301.317 132.496C301.317 133.616 300.96 134.523 300.245 135.216C299.531 135.899 298.597 136.24 297.445 136.24C296.155 136.24 295.168 135.797 294.485 134.912C293.803 134.027 293.461 132.715 293.461 130.976C293.461 129.045 293.829 127.563 294.565 126.528C295.312 125.493 296.357 124.976 297.701 124.976ZM297.477 130.448C296.901 130.448 296.437 130.645 296.085 131.04C295.744 131.424 295.573 131.936 295.573 132.576C295.573 133.216 295.739 133.723 296.069 134.096C296.411 134.469 296.869 134.656 297.445 134.656C298.021 134.656 298.48 134.469 298.821 134.096C299.173 133.712 299.349 133.195 299.349 132.544C299.349 131.915 299.179 131.408 298.837 131.024C298.496 130.64 298.043 130.448 297.477 130.448ZM308.918 124.08L304.15 137.424H302.646L307.414 124.08H308.918ZM314.529 124.976C315.627 124.976 316.502 125.253 317.153 125.808C317.814 126.363 318.145 127.099 318.145 128.016C318.145 128.485 318.081 128.907 317.953 129.28C317.825 129.643 317.617 129.973 317.329 130.272C317.051 130.571 316.763 130.827 316.465 131.04C316.166 131.253 315.777 131.499 315.297 131.776C314.305 132.363 313.643 132.837 313.313 133.2C312.993 133.563 312.822 133.973 312.801 134.432H318.401V136H310.625C310.614 135.915 310.609 135.803 310.609 135.664C310.609 134.565 310.817 133.669 311.233 132.976C311.659 132.283 312.497 131.573 313.745 130.848C314.641 130.325 315.27 129.883 315.633 129.52C315.995 129.147 316.177 128.672 316.177 128.096C316.177 127.637 316.027 127.269 315.729 126.992C315.441 126.715 315.041 126.576 314.529 126.576C313.334 126.576 312.71 127.211 312.657 128.48H310.753C310.785 127.36 311.131 126.496 311.793 125.888C312.465 125.28 313.377 124.976 314.529 124.976ZM328.29 131.888V133.408H326.642V136H324.754V133.408H319.618V131.776L324.114 125.216H326.642V131.888H328.29ZM322.53 130.256L321.394 131.888H324.802V130.496C324.802 129.376 324.828 128.112 324.882 126.704H324.85C324.327 127.557 323.554 128.741 322.53 130.256Z" fill="#003218"/>
<path d="M7.932 146.456V155H6.3L4.272 151.316C3.504 149.94 2.816 148.664 2.208 147.488H2.184C2.208 148.856 2.22 150.22 2.22 151.58V155H1.14V146.456H2.76L4.8 150.14C5.608 151.612 6.296 152.888 6.864 153.968H6.888C6.864 152.6 6.852 151.236 6.852 149.876V146.456H7.932ZM12.6586 154.352C13.0906 154.352 13.4466 154.244 13.7266 154.028C14.0146 153.812 14.1946 153.528 14.2666 153.176H15.3466C15.2346 153.744 14.9426 154.22 14.4706 154.604C14.0066 154.98 13.4026 155.168 12.6586 155.168C11.7706 155.168 11.0706 154.872 10.5586 154.28C10.0466 153.68 9.79059 152.876 9.79059 151.868C9.79059 150.948 10.0426 150.196 10.5466 149.612C11.0586 149.028 11.7506 148.736 12.6226 148.736C13.3026 148.736 13.8746 148.924 14.3386 149.3C14.8106 149.676 15.1266 150.196 15.2866 150.86C15.3666 151.188 15.4066 151.624 15.4066 152.168H10.8466C10.8706 152.888 11.0466 153.432 11.3746 153.8C11.7106 154.168 12.1386 154.352 12.6586 154.352ZM12.6226 149.552C12.1266 149.552 11.7226 149.712 11.4106 150.032C11.0986 150.344 10.9146 150.788 10.8586 151.364H14.3626C14.3066 150.78 14.1226 150.332 13.8106 150.02C13.4986 149.708 13.1026 149.552 12.6226 149.552ZM19.2082 155.132C18.5042 155.132 17.9602 154.92 17.5762 154.496C17.2002 154.072 17.0122 153.448 17.0122 152.624V148.904H18.0682V152.54C18.0682 153.156 18.1882 153.6 18.4282 153.872C18.6682 154.136 19.0162 154.268 19.4722 154.268C19.9202 154.268 20.2962 154.104 20.6002 153.776C20.9042 153.44 21.0562 152.98 21.0562 152.396V148.904H22.1122V155H21.0922V154.196H21.0682C20.8762 154.484 20.6162 154.712 20.2882 154.88C19.9682 155.048 19.6082 155.132 19.2082 155.132ZM26.6503 154.352C27.0823 154.352 27.4383 154.244 27.7183 154.028C28.0063 153.812 28.1863 153.528 28.2583 153.176H29.3383C29.2263 153.744 28.9343 154.22 28.4623 154.604C27.9983 154.98 27.3943 155.168 26.6503 155.168C25.7623 155.168 25.0623 154.872 24.5503 154.28C24.0383 153.68 23.7823 152.876 23.7823 151.868C23.7823 150.948 24.0343 150.196 24.5383 149.612C25.0503 149.028 25.7423 148.736 26.6143 148.736C27.2943 148.736 27.8663 148.924 28.3303 149.3C28.8023 149.676 29.1183 150.196 29.2783 150.86C29.3583 151.188 29.3983 151.624 29.3983 152.168H24.8383C24.8623 152.888 25.0383 153.432 25.3663 153.8C25.7023 154.168 26.1303 154.352 26.6503 154.352ZM26.6143 149.552C26.1183 149.552 25.7143 149.712 25.4023 150.032C25.0903 150.344 24.9063 150.788 24.8503 151.364H28.3543C28.2983 150.78 28.1143 150.332 27.8023 150.02C27.4903 149.708 27.0943 149.552 26.6143 149.552ZM40.8496 146.456V155H39.7336V151.052H35.3776V155H34.2736V146.456H35.3776V150.08H39.7336V146.456H40.8496ZM45.3292 148.736C46.0892 148.736 46.6772 148.936 47.0932 149.336C47.5172 149.728 47.7292 150.316 47.7292 151.1V153.44C47.7292 154.056 47.7772 154.576 47.8732 155H46.9132C46.8572 154.744 46.8292 154.448 46.8292 154.112H46.8052C46.3652 154.792 45.6612 155.132 44.6932 155.132C44.0692 155.132 43.5692 154.968 43.1932 154.64C42.8172 154.304 42.6292 153.872 42.6292 153.344C42.6292 152.816 42.8012 152.4 43.1452 152.096C43.4972 151.784 44.0972 151.56 44.9452 151.424C45.5372 151.328 46.1252 151.26 46.7092 151.22V150.98C46.7092 150.492 46.5852 150.132 46.3372 149.9C46.0972 149.668 45.7612 149.552 45.3292 149.552C44.8972 149.552 44.5612 149.664 44.3212 149.888C44.0812 150.104 43.9532 150.396 43.9372 150.764H42.8812C42.9132 150.164 43.1412 149.676 43.5652 149.3C43.9892 148.924 44.5772 148.736 45.3292 148.736ZM46.7092 152.396V152.024C46.0932 152.072 45.5612 152.136 45.1132 152.216C44.6012 152.296 44.2372 152.416 44.0212 152.576C43.8132 152.736 43.7092 152.968 43.7092 153.272C43.7092 153.592 43.8172 153.848 44.0332 154.04C44.2572 154.224 44.5652 154.316 44.9572 154.316C45.4932 154.316 45.9132 154.156 46.2172 153.836C46.4012 153.644 46.5292 153.448 46.6012 153.248C46.6732 153.04 46.7092 152.756 46.7092 152.396ZM51.9443 148.736C52.7043 148.736 53.2923 148.936 53.7083 149.336C54.1323 149.728 54.3443 150.316 54.3443 151.1V153.44C54.3443 154.056 54.3923 154.576 54.4883 155H53.5283C53.4723 154.744 53.4443 154.448 53.4443 154.112H53.4203C52.9803 154.792 52.2763 155.132 51.3083 155.132C50.6843 155.132 50.1843 154.968 49.8083 154.64C49.4323 154.304 49.2443 153.872 49.2443 153.344C49.2443 152.816 49.4163 152.4 49.7603 152.096C50.1123 151.784 50.7123 151.56 51.5603 151.424C52.1523 151.328 52.7403 151.26 53.3243 151.22V150.98C53.3243 150.492 53.2003 150.132 52.9523 149.9C52.7123 149.668 52.3763 149.552 51.9443 149.552C51.5123 149.552 51.1763 149.664 50.9363 149.888C50.6963 150.104 50.5683 150.396 50.5523 150.764H49.4963C49.5283 150.164 49.7563 149.676 50.1803 149.3C50.6043 148.924 51.1923 148.736 51.9443 148.736ZM53.3243 152.396V152.024C52.7083 152.072 52.1763 152.136 51.7283 152.216C51.2163 152.296 50.8523 152.416 50.6363 152.576C50.4283 152.736 50.3243 152.968 50.3243 153.272C50.3243 153.592 50.4323 153.848 50.6483 154.04C50.8723 154.224 51.1803 154.316 51.5723 154.316C52.1083 154.316 52.5283 154.156 52.8323 153.836C53.0163 153.644 53.1443 153.448 53.2163 153.248C53.2883 153.04 53.3243 152.756 53.3243 152.396ZM58.3192 148.736C59.0712 148.736 59.6552 148.916 60.0712 149.276C60.4872 149.636 60.6952 150.148 60.6952 150.812H59.6632C59.6632 150.404 59.5432 150.092 59.3032 149.876C59.0712 149.66 58.7392 149.552 58.3072 149.552C57.9392 149.552 57.6472 149.632 57.4312 149.792C57.2232 149.944 57.1192 150.152 57.1192 150.416C57.1192 150.712 57.2152 150.916 57.4072 151.028C57.6072 151.14 57.9992 151.264 58.5832 151.4C59.3672 151.592 59.8952 151.776 60.1672 151.952C60.6392 152.272 60.8792 152.736 60.8872 153.344C60.8872 153.896 60.6672 154.34 60.2272 154.676C59.7952 155.004 59.2112 155.168 58.4752 155.168C57.6672 155.168 57.0392 154.98 56.5912 154.604C56.1512 154.228 55.9272 153.684 55.9192 152.972H56.9872C56.9872 153.404 57.1152 153.74 57.3712 153.98C57.6352 154.212 58.0072 154.328 58.4872 154.328C58.8872 154.328 59.2072 154.244 59.4472 154.076C59.6872 153.908 59.8072 153.688 59.8072 153.416C59.8072 153.088 59.6912 152.86 59.4592 152.732C59.2352 152.596 58.7912 152.448 58.1272 152.288C57.4232 152.112 56.9512 151.948 56.7112 151.796C56.2792 151.524 56.0632 151.092 56.0632 150.5C56.0632 149.98 56.2712 149.556 56.6872 149.228C57.1112 148.9 57.6552 148.736 58.3192 148.736ZM70.9146 146.456H72.0306V151.796C72.0306 152.892 71.7586 153.728 71.2146 154.304C70.6706 154.88 69.8866 155.168 68.8626 155.168C67.8306 155.168 67.0426 154.884 66.4986 154.316C65.9626 153.74 65.6946 152.9 65.6946 151.796V146.456H66.7986V151.772C66.7986 152.556 66.9786 153.152 67.3386 153.56C67.6986 153.96 68.2066 154.16 68.8626 154.16C69.5186 154.16 70.0226 153.96 70.3746 153.56C70.7346 153.152 70.9146 152.556 70.9146 151.772V146.456ZM77.1555 148.772C77.8595 148.772 78.4035 148.984 78.7875 149.408C79.1715 149.832 79.3635 150.456 79.3635 151.28V155H78.3075V151.364C78.3075 150.748 78.1875 150.308 77.9475 150.044C77.7075 149.772 77.3595 149.636 76.9035 149.636C76.4475 149.636 76.0675 149.8 75.7635 150.128C75.4675 150.456 75.3195 150.916 75.3195 151.508V155H74.2635V148.904H75.2835V149.708H75.3075C75.7155 149.084 76.3315 148.772 77.1555 148.772ZM82.4736 148.904V155H81.4176V148.904H82.4736ZM82.4736 146.456V147.644H81.4176V146.456H82.4736ZM87.0113 148.736C87.7393 148.736 88.3393 148.952 88.8113 149.384C89.2833 149.816 89.5513 150.376 89.6153 151.064H88.5113C88.4713 150.632 88.3113 150.28 88.0313 150.008C87.7593 149.736 87.4153 149.6 86.9993 149.6C86.4633 149.6 86.0393 149.812 85.7273 150.236C85.4153 150.652 85.2593 151.224 85.2593 151.952C85.2593 152.68 85.4113 153.256 85.7153 153.68C86.0273 154.096 86.4553 154.304 86.9993 154.304C87.4153 154.304 87.7593 154.16 88.0313 153.872C88.3113 153.576 88.4713 153.204 88.5113 152.756H89.6153C89.5513 153.468 89.2833 154.048 88.8113 154.496C88.3393 154.944 87.7393 155.168 87.0113 155.168C86.1313 155.168 85.4313 154.88 84.9113 154.304C84.3993 153.728 84.1433 152.944 84.1433 151.952C84.1433 150.96 84.3993 150.176 84.9113 149.6C85.4313 149.024 86.1313 148.736 87.0113 148.736ZM93.4094 148.736C94.1694 148.736 94.7574 148.936 95.1734 149.336C95.5974 149.728 95.8094 150.316 95.8094 151.1V153.44C95.8094 154.056 95.8574 154.576 95.9534 155H94.9934C94.9374 154.744 94.9094 154.448 94.9094 154.112H94.8854C94.4454 154.792 93.7414 155.132 92.7734 155.132C92.1494 155.132 91.6494 154.968 91.2734 154.64C90.8974 154.304 90.7094 153.872 90.7094 153.344C90.7094 152.816 90.8814 152.4 91.2254 152.096C91.5774 151.784 92.1774 151.56 93.0254 151.424C93.6174 151.328 94.2054 151.26 94.7894 151.22V150.98C94.7894 150.492 94.6654 150.132 94.4174 149.9C94.1774 149.668 93.8414 149.552 93.4094 149.552C92.9774 149.552 92.6414 149.664 92.4014 149.888C92.1614 150.104 92.0334 150.396 92.0174 150.764H90.9614C90.9934 150.164 91.2214 149.676 91.6454 149.3C92.0694 148.924 92.6574 148.736 93.4094 148.736ZM94.7894 152.396V152.024C94.1734 152.072 93.6414 152.136 93.1934 152.216C92.6814 152.296 92.3174 152.416 92.1014 152.576C91.8934 152.736 91.7894 152.968 91.7894 153.272C91.7894 153.592 91.8974 153.848 92.1134 154.04C92.3374 154.224 92.6454 154.316 93.0374 154.316C93.5734 154.316 93.9934 154.156 94.2974 153.836C94.4814 153.644 94.6094 153.448 94.6814 153.248C94.7534 153.04 94.7894 152.756 94.7894 152.396ZM101.062 155V146.456H103.774C104.782 146.456 105.534 146.656 106.03 147.056C106.526 147.456 106.774 148.028 106.774 148.772C106.774 149.316 106.626 149.78 106.33 150.164C106.034 150.548 105.638 150.796 105.142 150.908V150.932C105.454 151.028 105.698 151.188 105.874 151.412C106.05 151.636 106.234 152.012 106.426 152.54L107.302 155H106.102L105.322 152.744C105.146 152.232 104.938 151.88 104.698 151.688C104.466 151.496 104.122 151.4 103.666 151.4H102.166V155H101.062ZM103.69 147.404H102.166V150.464H103.762C104.402 150.464 104.874 150.32 105.178 150.032C105.49 149.736 105.646 149.344 105.646 148.856C105.646 147.888 104.994 147.404 103.69 147.404ZM111.081 154.352C111.513 154.352 111.869 154.244 112.149 154.028C112.437 153.812 112.617 153.528 112.689 153.176H113.769C113.657 153.744 113.365 154.22 112.893 154.604C112.429 154.98 111.825 155.168 111.081 155.168C110.193 155.168 109.493 154.872 108.981 154.28C108.469 153.68 108.213 152.876 108.213 151.868C108.213 150.948 108.465 150.196 108.969 149.612C109.481 149.028 110.173 148.736 111.045 148.736C111.725 148.736 112.297 148.924 112.761 149.3C113.233 149.676 113.549 150.196 113.709 150.86C113.789 151.188 113.829 151.624 113.829 152.168H109.269C109.293 152.888 109.469 153.432 109.797 153.8C110.133 154.168 110.561 154.352 111.081 154.352ZM111.045 149.552C110.549 149.552 110.145 149.712 109.833 150.032C109.521 150.344 109.337 150.788 109.281 151.364H112.785C112.729 150.78 112.545 150.332 112.233 150.02C111.921 149.708 111.525 149.552 111.045 149.552ZM117.747 148.748C118.547 148.748 119.155 149.096 119.571 149.792H119.595V148.904H120.615V154.628C120.615 155.516 120.387 156.184 119.931 156.632C119.475 157.088 118.815 157.316 117.951 157.316C117.175 157.316 116.563 157.144 116.115 156.8C115.675 156.456 115.447 155.984 115.431 155.384H116.487C116.503 155.736 116.639 156.008 116.895 156.2C117.159 156.4 117.515 156.5 117.963 156.5C118.515 156.5 118.923 156.348 119.187 156.044C119.451 155.74 119.583 155.252 119.583 154.58V153.92H119.559C119.119 154.6 118.515 154.94 117.747 154.94C116.963 154.94 116.335 154.66 115.863 154.1C115.399 153.532 115.167 152.78 115.167 151.844C115.167 150.9 115.399 150.148 115.863 149.588C116.335 149.028 116.963 148.748 117.747 148.748ZM117.915 149.624C117.419 149.624 117.019 149.828 116.715 150.236C116.419 150.636 116.271 151.172 116.271 151.844C116.271 152.508 116.419 153.044 116.715 153.452C117.019 153.852 117.419 154.052 117.915 154.052C118.443 154.052 118.859 153.856 119.163 153.464C119.467 153.064 119.619 152.524 119.619 151.844C119.619 151.156 119.467 150.616 119.163 150.224C118.859 149.824 118.443 149.624 117.915 149.624ZM124.866 155.132C124.162 155.132 123.618 154.92 123.234 154.496C122.858 154.072 122.67 153.448 122.67 152.624V148.904H123.726V152.54C123.726 153.156 123.846 153.6 124.086 153.872C124.326 154.136 124.674 154.268 125.13 154.268C125.578 154.268 125.954 154.104 126.258 153.776C126.562 153.44 126.714 152.98 126.714 152.396V148.904H127.77V155H126.75V154.196H126.726C126.534 154.484 126.274 154.712 125.946 154.88C125.626 155.048 125.266 155.132 124.866 155.132ZM130.94 146.456V155H129.884V146.456H130.94ZM135.226 148.736C135.986 148.736 136.574 148.936 136.99 149.336C137.414 149.728 137.626 150.316 137.626 151.1V153.44C137.626 154.056 137.674 154.576 137.77 155H136.81C136.754 154.744 136.726 154.448 136.726 154.112H136.702C136.262 154.792 135.558 155.132 134.59 155.132C133.966 155.132 133.466 154.968 133.09 154.64C132.714 154.304 132.526 153.872 132.526 153.344C132.526 152.816 132.698 152.4 133.042 152.096C133.394 151.784 133.994 151.56 134.842 151.424C135.434 151.328 136.022 151.26 136.606 151.22V150.98C136.606 150.492 136.482 150.132 136.234 149.9C135.994 149.668 135.658 149.552 135.226 149.552C134.794 149.552 134.458 149.664 134.218 149.888C133.978 150.104 133.85 150.396 133.834 150.764H132.778C132.81 150.164 133.038 149.676 133.462 149.3C133.886 148.924 134.474 148.736 135.226 148.736ZM136.606 152.396V152.024C135.99 152.072 135.458 152.136 135.01 152.216C134.498 152.296 134.134 152.416 133.918 152.576C133.71 152.736 133.606 152.968 133.606 153.272C133.606 153.592 133.714 153.848 133.93 154.04C134.154 154.224 134.462 154.316 134.854 154.316C135.39 154.316 135.81 154.156 136.114 153.836C136.298 153.644 136.426 153.448 136.498 153.248C136.57 153.04 136.606 152.756 136.606 152.396ZM142.501 148.844C142.677 148.844 142.825 148.86 142.945 148.892V149.84C142.681 149.816 142.541 149.804 142.525 149.804C141.949 149.804 141.505 149.984 141.193 150.344C140.881 150.704 140.725 151.22 140.725 151.892V155H139.669V148.904H140.677V149.84H140.701C141.101 149.176 141.701 148.844 142.501 148.844ZM149.41 146.912V155H148.318V149.108H146.506V148.268C147.138 148.268 147.602 148.164 147.898 147.956C148.202 147.748 148.394 147.4 148.474 146.912H149.41ZM154.347 146.744C155.123 146.744 155.747 146.952 156.219 147.368C156.699 147.776 156.939 148.32 156.939 149C156.939 149.648 156.759 150.172 156.399 150.572C156.039 150.964 155.475 151.384 154.707 151.832C153.939 152.28 153.423 152.664 153.159 152.984C152.903 153.296 152.771 153.652 152.763 154.052H157.119V155H151.551C151.543 154.944 151.539 154.864 151.539 154.76C151.539 153.952 151.695 153.296 152.007 152.792C152.327 152.28 152.963 151.744 153.915 151.184C154.611 150.776 155.095 150.432 155.367 150.152C155.647 149.864 155.787 149.488 155.787 149.024C155.787 148.632 155.655 148.316 155.391 148.076C155.135 147.828 154.787 147.704 154.347 147.704C153.355 147.704 152.827 148.232 152.763 149.288H151.647C151.679 148.488 151.935 147.864 152.415 147.416C152.895 146.968 153.539 146.744 154.347 146.744ZM162.846 146.06L159.282 156.068H158.334L161.898 146.06H162.846ZM166.103 146.912V155H165.011V149.108H163.199V148.268C163.831 148.268 164.295 148.164 164.591 147.956C164.895 147.748 165.087 147.4 165.167 146.912H166.103ZM171.219 146.744C171.939 146.744 172.515 146.944 172.947 147.344C173.387 147.744 173.639 148.292 173.703 148.988H172.575C172.439 148.132 171.975 147.704 171.183 147.704C170.591 147.704 170.123 147.956 169.779 148.46C169.443 148.964 169.263 149.732 169.239 150.764H169.263C169.735 150.076 170.399 149.732 171.255 149.732C172.023 149.732 172.643 149.976 173.115 150.464C173.587 150.952 173.823 151.592 173.823 152.384C173.823 153.208 173.567 153.88 173.055 154.4C172.543 154.912 171.875 155.168 171.051 155.168C170.131 155.168 169.423 154.84 168.927 154.184C168.439 153.528 168.195 152.556 168.195 151.268C168.195 149.804 168.455 148.684 168.975 147.908C169.503 147.132 170.251 146.744 171.219 146.744ZM171.075 150.632C170.587 150.632 170.191 150.8 169.887 151.136C169.591 151.464 169.443 151.888 169.443 152.408C169.443 152.96 169.587 153.4 169.875 153.728C170.163 154.048 170.555 154.208 171.051 154.208C171.539 154.208 171.931 154.044 172.227 153.716C172.523 153.388 172.671 152.952 172.671 152.408C172.671 151.88 172.523 151.452 172.227 151.124C171.939 150.796 171.555 150.632 171.075 150.632Z" fill="#003218"/>
</svg>
