<svg width="800" height="500" viewBox="0 0 800 500" fill="none" xmlns="http://www.w3.org/2000/svg">
<rect width="800" height="500" fill="white"/>
<rect width="800" height="500" fill="#DEEEE1"/>
<g clip-path="url(#clip0)">
<path d="M92.6347 85.9336C109.719 85.9336 115 83.7115 115 85.8794C115 88.264 111.228 89.6189 92.5808 89.6189C73.988 89.6189 70 88.264 70 85.8794C70.0539 83.7115 75.5509 85.9336 92.6347 85.9336Z" fill="#9BB2DD"/>
<path d="M93.2814 92.1661C110.365 92.1661 115 89.2937 115 92.3287C115 95.5804 111.228 101.054 92.5808 101.054C73.988 101 70.0539 95.5262 70.0539 92.2745C70.0539 89.2937 76.1976 92.1661 93.2814 92.1661Z" fill="#9BB2DD"/>
<path d="M92.6347 83.3864C109.719 83.3864 115 81.7063 115 78.7255C115 75.4738 111.228 70 92.5808 70C73.9341 70 70 75.4738 70 78.7255C70 81.7063 75.5509 83.3864 92.6347 83.3864Z" fill="#9BB2DD"/>
</g>
<g clip-path="url(#clip1)">
<path d="M93.1377 167.448C110.601 167.448 116 165.154 116 167.392C116 169.853 112.144 171.252 93.0826 171.252C74.0766 171.252 70 169.853 70 167.392C70.0551 165.154 75.6743 167.448 93.1377 167.448Z" fill="#FAC0B5"/>
<path d="M93.7988 173.881C111.262 173.881 116 170.916 116 174.049C116 177.406 112.144 183.056 93.0826 183.056C74.0767 183 70.0551 177.35 70.0551 173.993C70.0551 170.916 76.3353 173.881 93.7988 173.881Z" fill="#FAC0B5"/>
<path d="M93.1377 164.818C110.601 164.818 116 163.084 116 160.007C116 156.65 112.144 151 93.0826 151C74.0216 151 70 156.65 70 160.007C70 163.084 75.6743 164.818 93.1377 164.818Z" fill="#FAC0B5"/>
</g>
<g clip-path="url(#clip2)">
<path d="M93.1377 249.448C110.601 249.448 116 247.154 116 249.392C116 251.853 112.144 253.252 93.0826 253.252C74.0766 253.252 70 251.853 70 249.392C70.0551 247.154 75.6743 249.448 93.1377 249.448Z" fill="#92D2C4"/>
<path d="M93.7988 255.881C111.262 255.881 116 252.916 116 256.049C116 259.406 112.144 265.056 93.0826 265.056C74.0767 265 70.0551 259.35 70.0551 255.993C70.0551 252.916 76.3353 255.881 93.7988 255.881Z" fill="#92D2C4"/>
<path d="M93.1377 246.818C110.601 246.818 116 245.084 116 242.007C116 238.65 112.144 233 93.0826 233C74.0216 233 70 238.65 70 242.007C70 245.084 75.6743 246.818 93.1377 246.818Z" fill="#92D2C4"/>
</g>
<g clip-path="url(#clip3)">
<path d="M93.1377 331.448C110.601 331.448 116 329.154 116 331.392C116 333.853 112.144 335.252 93.0826 335.252C74.0766 335.252 70 333.853 70 331.392C70.0551 329.154 75.6743 331.448 93.1377 331.448Z" fill="#A5D05C"/>
<path d="M93.7988 337.881C111.262 337.881 116 334.916 116 338.049C116 341.406 112.144 347.056 93.0826 347.056C74.0767 347 70.0551 341.35 70.0551 337.993C70.0551 334.916 76.3353 337.881 93.7988 337.881Z" fill="#A5D05C"/>
<path d="M93.1377 328.818C110.601 328.818 116 327.084 116 324.007C116 320.65 112.144 315 93.0826 315C74.0216 315 70 320.65 70 324.007C70 327.084 75.6743 328.818 93.1377 328.818Z" fill="#A5D05C"/>
</g>
<g clip-path="url(#clip4)">
<path d="M93.1377 413.448C110.601 413.448 116 411.154 116 413.392C116 415.853 112.144 417.252 93.0826 417.252C74.0766 417.252 70 415.853 70 413.392C70.0551 411.154 75.6743 413.448 93.1377 413.448Z" fill="#FFD675"/>
<path d="M93.7988 419.881C111.262 419.881 116 416.916 116 420.049C116 423.406 112.144 429.056 93.0826 429.056C74.0767 429 70.0551 423.35 70.0551 419.993C70.0551 416.916 76.3353 419.881 93.7988 419.881Z" fill="#FFD675"/>
<path d="M93.1377 410.818C110.601 410.818 116 409.084 116 406.007C116 402.65 112.144 397 93.0826 397C74.0216 397 70 402.65 70 406.007C70 409.084 75.6743 410.818 93.1377 410.818Z" fill="#FFD675"/>
</g>
<g clip-path="url(#clip5)">
<path d="M214.641 86.4476C232.484 86.4476 238 84.1538 238 86.3916C238 88.8531 234.06 90.2518 214.584 90.2518C195.165 90.2518 191 88.8531 191 86.3916C191.056 84.1538 196.798 86.4476 214.641 86.4476Z" fill="#FAC0B5"/>
<path d="M215.316 92.8811C233.159 92.8811 238 89.9161 238 93.049C238 96.4056 234.06 102.056 214.584 102.056C195.165 102 191.056 96.3497 191.056 92.993C191.056 89.9161 197.473 92.8811 215.316 92.8811Z" fill="#FAC0B5"/>
<path d="M214.641 83.8182C232.484 83.8182 238 82.0839 238 79.007C238 75.6503 234.06 70 214.584 70C195.109 70 191 75.6503 191 79.007C191 82.0839 196.798 83.8182 214.641 83.8182Z" fill="#FAC0B5"/>
</g>
<g clip-path="url(#clip6)">
<path d="M215.641 168.448C233.484 168.448 239 166.154 239 168.392C239 170.853 235.06 172.252 215.584 172.252C196.165 172.252 192 170.853 192 168.392C192.056 166.154 197.798 168.448 215.641 168.448Z" fill="#92D2C4"/>
<path d="M216.316 174.881C234.159 174.881 239 171.916 239 175.049C239 178.406 235.06 184.056 215.584 184.056C196.165 184 192.056 178.35 192.056 174.993C192.056 171.916 198.473 174.881 216.316 174.881Z" fill="#92D2C4"/>
<path d="M215.641 165.818C233.484 165.818 239 164.084 239 161.007C239 157.65 235.06 152 215.584 152C196.109 152 192 157.65 192 161.007C192 164.084 197.798 165.818 215.641 165.818Z" fill="#92D2C4"/>
</g>
<g clip-path="url(#clip7)">
<path d="M215.641 250.448C233.484 250.448 239 248.154 239 250.392C239 252.853 235.06 254.252 215.584 254.252C196.165 254.252 192 252.853 192 250.392C192.056 248.154 197.798 250.448 215.641 250.448Z" fill="#A5D05C"/>
<path d="M216.316 256.881C234.159 256.881 239 253.916 239 257.049C239 260.406 235.06 266.056 215.584 266.056C196.165 266 192.056 260.35 192.056 256.993C192.056 253.916 198.473 256.881 216.316 256.881Z" fill="#A5D05C"/>
<path d="M215.641 247.818C233.484 247.818 239 246.084 239 243.007C239 239.65 235.06 234 215.584 234C196.109 234 192 239.65 192 243.007C192 246.084 197.798 247.818 215.641 247.818Z" fill="#A5D05C"/>
</g>
<g clip-path="url(#clip8)">
<path d="M215.641 332.448C233.484 332.448 239 330.154 239 332.392C239 334.853 235.06 336.252 215.584 336.252C196.165 336.252 192 334.853 192 332.392C192.056 330.154 197.798 332.448 215.641 332.448Z" fill="#FFD675"/>
<path d="M216.316 338.881C234.159 338.881 239 335.916 239 339.049C239 342.406 235.06 348.056 215.584 348.056C196.165 348 192.056 342.35 192.056 338.993C192.056 335.916 198.473 338.881 216.316 338.881Z" fill="#FFD675"/>
<path d="M215.641 329.818C233.484 329.818 239 328.084 239 325.007C239 321.65 235.06 316 215.584 316C196.109 316 192 321.65 192 325.007C192 328.084 197.798 329.818 215.641 329.818Z" fill="#FFD675"/>
</g>
<g clip-path="url(#clip9)">
<path d="M215.641 414.448C233.484 414.448 239 412.154 239 414.392C239 416.853 235.06 418.252 215.584 418.252C196.165 418.252 192 416.853 192 414.392C192.056 412.154 197.798 414.448 215.641 414.448Z" fill="#9BB2DD"/>
<path d="M216.316 420.881C234.159 420.881 239 417.916 239 421.049C239 424.406 235.06 430.056 215.584 430.056C196.165 430 192.056 424.35 192.056 420.993C192.056 417.916 198.473 420.881 216.316 420.881Z" fill="#9BB2DD"/>
<path d="M215.641 411.818C233.484 411.818 239 410.084 239 407.007C239 403.65 235.06 398 215.584 398C196.109 398 192 403.65 192 407.007C192 410.084 197.798 411.818 215.641 411.818Z" fill="#9BB2DD"/>
</g>
<g clip-path="url(#clip10)">
<path d="M338.144 86.4476C356.366 86.4476 362 84.1538 362 86.3916C362 88.8531 357.976 90.2518 338.086 90.2518C318.254 90.2518 314 88.8531 314 86.3916C314.057 84.1538 319.921 86.4476 338.144 86.4476Z" fill="#92D2C4"/>
<path d="M338.834 92.8811C357.056 92.8811 362 89.9161 362 93.049C362 96.4056 357.976 102.056 338.086 102.056C318.254 102 314.057 96.3497 314.057 92.993C314.057 89.9161 320.611 92.8811 338.834 92.8811Z" fill="#92D2C4"/>
<path d="M338.144 83.8182C356.366 83.8182 362 82.0839 362 79.007C362 75.6503 357.976 70 338.086 70C318.196 70 314 75.6503 314 79.007C314 82.0839 319.921 83.8182 338.144 83.8182Z" fill="#92D2C4"/>
</g>
<g clip-path="url(#clip11)">
<path d="M339.144 168.448C357.366 168.448 363 166.154 363 168.392C363 170.853 358.976 172.252 339.086 172.252C319.254 172.252 315 170.853 315 168.392C315.057 166.154 320.921 168.448 339.144 168.448Z" fill="#A5D05C"/>
<path d="M339.834 174.881C358.056 174.881 363 171.916 363 175.049C363 178.406 358.976 184.056 339.086 184.056C319.254 184 315.057 178.35 315.057 174.993C315.057 171.916 321.611 174.881 339.834 174.881Z" fill="#A5D05C"/>
<path d="M339.144 165.818C357.366 165.818 363 164.084 363 161.007C363 157.65 358.976 152 339.086 152C319.196 152 315 157.65 315 161.007C315 164.084 320.921 165.818 339.144 165.818Z" fill="#A5D05C"/>
</g>
<g clip-path="url(#clip12)">
<path d="M339.144 332.448C357.366 332.448 363 330.154 363 332.392C363 334.853 358.976 336.252 339.086 336.252C319.254 336.252 315 334.853 315 332.392C315.057 330.154 320.921 332.448 339.144 332.448Z" fill="#9BB2DD"/>
<path d="M339.834 338.881C358.056 338.881 363 335.916 363 339.049C363 342.406 358.976 348.056 339.086 348.056C319.254 348 315.057 342.35 315.057 338.993C315.057 335.916 321.611 338.881 339.834 338.881Z" fill="#9BB2DD"/>
<path d="M339.144 329.818C357.366 329.818 363 328.084 363 325.007C363 321.65 358.976 316 339.086 316C319.196 316 315 321.65 315 325.007C315 328.084 320.921 329.818 339.144 329.818Z" fill="#9BB2DD"/>
</g>
<g clip-path="url(#clip13)">
<path d="M339.144 414.448C357.366 414.448 363 412.154 363 414.392C363 416.853 358.976 418.252 339.086 418.252C319.254 418.252 315 416.853 315 414.392C315.057 412.154 320.921 414.448 339.144 414.448Z" fill="#FAC0B5"/>
<path d="M339.834 420.881C358.056 420.881 363 417.916 363 421.049C363 424.406 358.976 430.056 339.086 430.056C319.254 430 315.057 424.35 315.057 420.993C315.057 417.916 321.611 420.881 339.834 420.881Z" fill="#FAC0B5"/>
<path d="M339.144 411.818C357.366 411.818 363 410.084 363 407.007C363 403.65 358.976 398 339.086 398C319.196 398 315 403.65 315 407.007C315 410.084 320.921 411.818 339.144 411.818Z" fill="#FAC0B5"/>
</g>
<g clip-path="url(#clip14)">
<path d="M460.144 86.4476C478.366 86.4476 484 84.1538 484 86.3916C484 88.8531 479.976 90.2518 460.086 90.2518C440.254 90.2518 436 88.8531 436 86.3916C436.057 84.1538 441.921 86.4476 460.144 86.4476Z" fill="#A5D05C"/>
<path d="M460.834 92.8811C479.056 92.8811 484 89.9161 484 93.049C484 96.4056 479.976 102.056 460.086 102.056C440.254 102 436.057 96.3497 436.057 92.993C436.057 89.9161 442.611 92.8811 460.834 92.8811Z" fill="#A5D05C"/>
<path d="M460.144 83.8182C478.366 83.8182 484 82.0839 484 79.007C484 75.6503 479.976 70 460.086 70C440.196 70 436 75.6503 436 79.007C436 82.0839 441.921 83.8182 460.144 83.8182Z" fill="#A5D05C"/>
</g>
<g clip-path="url(#clip15)">
<path d="M461.144 168.448C479.366 168.448 485 166.154 485 168.392C485 170.853 480.976 172.252 461.086 172.252C441.254 172.252 437 170.853 437 168.392C437.057 166.154 442.921 168.448 461.144 168.448Z" fill="#FFD675"/>
<path d="M461.834 174.881C480.056 174.881 485 171.916 485 175.049C485 178.406 480.976 184.056 461.086 184.056C441.254 184 437.057 178.35 437.057 174.993C437.057 171.916 443.611 174.881 461.834 174.881Z" fill="#FFD675"/>
<path d="M461.144 165.818C479.366 165.818 485 164.084 485 161.007C485 157.65 480.976 152 461.086 152C441.196 152 437 157.65 437 161.007C437 164.084 442.921 165.818 461.144 165.818Z" fill="#FFD675"/>
</g>
<g clip-path="url(#clip16)">
<path d="M461.144 332.448C479.366 332.448 485 330.154 485 332.392C485 334.853 480.976 336.252 461.086 336.252C441.254 336.252 437 334.853 437 332.392C437.057 330.154 442.921 332.448 461.144 332.448Z" fill="#FAC0B5"/>
<path d="M461.834 338.881C480.056 338.881 485 335.916 485 339.049C485 342.406 480.976 348.056 461.086 348.056C441.254 348 437.057 342.35 437.057 338.993C437.057 335.916 443.611 338.881 461.834 338.881Z" fill="#FAC0B5"/>
<path d="M461.144 329.818C479.366 329.818 485 328.084 485 325.007C485 321.65 480.976 316 461.086 316C441.196 316 437 321.65 437 325.007C437 328.084 442.921 329.818 461.144 329.818Z" fill="#FAC0B5"/>
</g>
<g clip-path="url(#clip17)">
<path d="M461.144 414.448C479.366 414.448 485 412.154 485 414.392C485 416.853 480.976 418.252 461.086 418.252C441.254 418.252 437 416.853 437 414.392C437.057 412.154 442.921 414.448 461.144 414.448Z" fill="#92D2C4"/>
<path d="M461.834 420.881C480.056 420.881 485 417.916 485 421.049C485 424.406 480.976 430.056 461.086 430.056C441.254 430 437.057 424.35 437.057 420.993C437.057 417.916 443.611 420.881 461.834 420.881Z" fill="#92D2C4"/>
<path d="M461.144 411.818C479.366 411.818 485 410.084 485 407.007C485 403.65 480.976 398 461.086 398C441.196 398 437 403.65 437 407.007C437 410.084 442.921 411.818 461.144 411.818Z" fill="#92D2C4"/>
</g>
<g clip-path="url(#clip18)">
<path d="M583.641 86.4476C601.484 86.4476 607 84.1538 607 86.3916C607 88.8531 603.06 90.2518 583.584 90.2518C564.165 90.2518 560 88.8531 560 86.3916C560.056 84.1538 565.798 86.4476 583.641 86.4476Z" fill="#FFD675"/>
<path d="M584.316 92.8811C602.159 92.8811 607 89.9161 607 93.049C607 96.4056 603.06 102.056 583.584 102.056C564.165 102 560.056 96.3497 560.056 92.993C560.056 89.9161 566.473 92.8811 584.316 92.8811Z" fill="#FFD675"/>
<path d="M583.641 83.8182C601.484 83.8182 607 82.0839 607 79.007C607 75.6503 603.06 70 583.584 70C564.109 70 560 75.6503 560 79.007C560 82.0839 565.798 83.8182 583.641 83.8182Z" fill="#FFD675"/>
</g>
<g clip-path="url(#clip19)">
<path d="M584.641 168.448C602.484 168.448 608 166.154 608 168.392C608 170.853 604.06 172.252 584.584 172.252C565.165 172.252 561 170.853 561 168.392C561.056 166.154 566.798 168.448 584.641 168.448Z" fill="#9BB2DD"/>
<path d="M585.316 174.881C603.159 174.881 608 171.916 608 175.049C608 178.406 604.06 184.056 584.584 184.056C565.165 184 561.056 178.35 561.056 174.993C561.056 171.916 567.473 174.881 585.316 174.881Z" fill="#9BB2DD"/>
<path d="M584.641 165.818C602.484 165.818 608 164.084 608 161.007C608 157.65 604.06 152 584.584 152C565.109 152 561 157.65 561 161.007C561 164.084 566.798 165.818 584.641 165.818Z" fill="#9BB2DD"/>
</g>
<g clip-path="url(#clip20)">
<path d="M584.641 250.448C602.484 250.448 608 248.154 608 250.392C608 252.853 604.06 254.252 584.584 254.252C565.165 254.252 561 252.853 561 250.392C561.056 248.154 566.798 250.448 584.641 250.448Z" fill="#FAC0B5"/>
<path d="M585.316 256.881C603.159 256.881 608 253.916 608 257.049C608 260.406 604.06 266.056 584.584 266.056C565.165 266 561.056 260.35 561.056 256.993C561.056 253.916 567.473 256.881 585.316 256.881Z" fill="#FAC0B5"/>
<path d="M584.641 247.818C602.484 247.818 608 246.084 608 243.007C608 239.65 604.06 234 584.584 234C565.109 234 561 239.65 561 243.007C561 246.084 566.798 247.818 584.641 247.818Z" fill="#FAC0B5"/>
</g>
<g clip-path="url(#clip21)">
<path d="M584.641 332.448C602.484 332.448 608 330.154 608 332.392C608 334.853 604.06 336.252 584.584 336.252C565.165 336.252 561 334.853 561 332.392C561.056 330.154 566.798 332.448 584.641 332.448Z" fill="#92D2C4"/>
<path d="M585.316 338.881C603.159 338.881 608 335.916 608 339.049C608 342.406 604.06 348.056 584.584 348.056C565.165 348 561.056 342.35 561.056 338.993C561.056 335.916 567.473 338.881 585.316 338.881Z" fill="#92D2C4"/>
<path d="M584.641 329.818C602.484 329.818 608 328.084 608 325.007C608 321.65 604.06 316 584.584 316C565.109 316 561 321.65 561 325.007C561 328.084 566.798 329.818 584.641 329.818Z" fill="#92D2C4"/>
</g>
<g clip-path="url(#clip22)">
<path d="M584.641 414.448C602.484 414.448 608 412.154 608 414.392C608 416.853 604.06 418.252 584.584 418.252C565.165 418.252 561 416.853 561 414.392C561.056 412.154 566.798 414.448 584.641 414.448Z" fill="#A5D05C"/>
<path d="M585.316 420.881C603.159 420.881 608 417.916 608 421.049C608 424.406 604.06 430.056 584.584 430.056C565.165 430 561.056 424.35 561.056 420.993C561.056 417.916 567.473 420.881 585.316 420.881Z" fill="#A5D05C"/>
<path d="M584.641 411.818C602.484 411.818 608 410.084 608 407.007C608 403.65 604.06 398 584.584 398C565.109 398 561 403.65 561 407.007C561 410.084 566.798 411.818 584.641 411.818Z" fill="#A5D05C"/>
</g>
<g clip-path="url(#clip23)">
<path d="M706.138 86.4476C723.601 86.4476 729 84.1538 729 86.3916C729 88.8531 725.144 90.2518 706.083 90.2518C687.077 90.2518 683 88.8531 683 86.3916C683.055 84.1538 688.674 86.4476 706.138 86.4476Z" fill="#9BB2DD"/>
<path d="M706.799 92.8811C724.262 92.8811 729 89.9161 729 93.049C729 96.4056 725.144 102.056 706.083 102.056C687.077 102 683.055 96.3497 683.055 92.993C683.055 89.9161 689.335 92.8811 706.799 92.8811Z" fill="#9BB2DD"/>
<path d="M706.138 83.8182C723.601 83.8182 729 82.0839 729 79.007C729 75.6503 725.144 70 706.083 70C687.022 70 683 75.6503 683 79.007C683 82.0839 688.674 83.8182 706.138 83.8182Z" fill="#9BB2DD"/>
</g>
<g clip-path="url(#clip24)">
<path d="M707.138 168.448C724.601 168.448 730 166.154 730 168.392C730 170.853 726.144 172.252 707.083 172.252C688.077 172.252 684 170.853 684 168.392C684.055 166.154 689.674 168.448 707.138 168.448Z" fill="#FAC0B5"/>
<path d="M707.799 174.881C725.262 174.881 730 171.916 730 175.049C730 178.406 726.144 184.056 707.083 184.056C688.077 184 684.055 178.35 684.055 174.993C684.055 171.916 690.335 174.881 707.799 174.881Z" fill="#FAC0B5"/>
<path d="M707.138 165.818C724.601 165.818 730 164.084 730 161.007C730 157.65 726.144 152 707.083 152C688.022 152 684 157.65 684 161.007C684 164.084 689.674 165.818 707.138 165.818Z" fill="#FAC0B5"/>
</g>
<g clip-path="url(#clip25)">
<path d="M707.138 250.448C724.601 250.448 730 248.154 730 250.392C730 252.853 726.144 254.252 707.083 254.252C688.077 254.252 684 252.853 684 250.392C684.055 248.154 689.674 250.448 707.138 250.448Z" fill="#92D2C4"/>
<path d="M707.799 256.881C725.262 256.881 730 253.916 730 257.049C730 260.406 726.144 266.056 707.083 266.056C688.077 266 684.055 260.35 684.055 256.993C684.055 253.916 690.335 256.881 707.799 256.881Z" fill="#92D2C4"/>
<path d="M707.138 247.818C724.601 247.818 730 246.084 730 243.007C730 239.65 726.144 234 707.083 234C688.022 234 684 239.65 684 243.007C684 246.084 689.674 247.818 707.138 247.818Z" fill="#92D2C4"/>
</g>
<g clip-path="url(#clip26)">
<path d="M707.138 332.448C724.601 332.448 730 330.154 730 332.392C730 334.853 726.144 336.252 707.083 336.252C688.077 336.252 684 334.853 684 332.392C684.055 330.154 689.674 332.448 707.138 332.448Z" fill="#A5D05C"/>
<path d="M707.799 338.881C725.262 338.881 730 335.916 730 339.049C730 342.406 726.144 348.056 707.083 348.056C688.077 348 684.055 342.35 684.055 338.993C684.055 335.916 690.335 338.881 707.799 338.881Z" fill="#A5D05C"/>
<path d="M707.138 329.818C724.601 329.818 730 328.084 730 325.007C730 321.65 726.144 316 707.083 316C688.022 316 684 321.65 684 325.007C684 328.084 689.674 329.818 707.138 329.818Z" fill="#A5D05C"/>
</g>
<g clip-path="url(#clip27)">
<path d="M707.138 414.448C724.601 414.448 730 412.154 730 414.392C730 416.853 726.144 418.252 707.083 418.252C688.077 418.252 684 416.853 684 414.392C684.055 412.154 689.674 414.448 707.138 414.448Z" fill="#FFD675"/>
<path d="M707.799 420.881C725.262 420.881 730 417.916 730 421.049C730 424.406 726.144 430.056 707.083 430.056C688.077 430 684.055 424.35 684.055 420.993C684.055 417.916 690.335 420.881 707.799 420.881Z" fill="#FFD675"/>
<path d="M707.138 411.818C724.601 411.818 730 410.084 730 407.007C730 403.65 726.144 398 707.083 398C688.022 398 684 403.65 684 407.007C684 410.084 689.674 411.818 707.138 411.818Z" fill="#FFD675"/>
</g>
<path d="M400.296 280V267.022H401.052V273.178H401.088C401.928 271.786 403.218 271.09 404.958 271.09C406.158 271.09 407.184 271.522 408.036 272.386C408.9 273.238 409.332 274.348 409.332 275.716C409.332 277.048 408.906 278.146 408.054 279.01C407.202 279.874 406.134 280.306 404.85 280.306C403.182 280.306 401.934 279.628 401.106 278.272H401.052V280H400.296ZM404.706 279.586C405.93 279.586 406.872 279.208 407.532 278.452C408.192 277.684 408.522 276.772 408.522 275.716C408.522 274.66 408.192 273.748 407.532 272.98C406.872 272.2 405.942 271.81 404.742 271.81C403.734 271.81 402.858 272.176 402.114 272.908C401.37 273.628 400.998 274.546 400.998 275.662C400.998 276.826 401.352 277.774 402.06 278.506C402.78 279.226 403.662 279.586 404.706 279.586ZM419.492 271.378V280H418.736V278.218H418.7C417.824 279.61 416.534 280.306 414.83 280.306C413.63 280.306 412.598 279.88 411.734 279.028C410.882 278.164 410.456 277.048 410.456 275.68C410.456 274.348 410.882 273.25 411.734 272.386C412.586 271.522 413.654 271.09 414.938 271.09C415.814 271.09 416.57 271.288 417.206 271.684C417.854 272.068 418.346 272.548 418.682 273.124H418.736V271.378H419.492ZM412.256 272.962C411.596 273.718 411.266 274.624 411.266 275.68C411.266 276.736 411.596 277.654 412.256 278.434C412.916 279.202 413.846 279.586 415.046 279.586C416.054 279.586 416.93 279.226 417.674 278.506C418.418 277.774 418.79 276.85 418.79 275.734C418.79 274.57 418.43 273.628 417.71 272.908C417.002 272.176 416.126 271.81 415.082 271.81C413.858 271.81 412.916 272.194 412.256 272.962ZM428.037 280L424.275 275.284L422.691 276.724V280H421.935V267.022H422.691V275.806L427.461 271.378H428.541L424.833 274.78L429.009 280H428.037ZM433.707 271.09C435.003 271.102 436.041 271.558 436.821 272.458C437.601 273.358 437.991 274.432 437.991 275.68V275.806H430.251C430.275 276.91 430.641 277.828 431.349 278.56C432.069 279.28 432.927 279.64 433.923 279.64C434.631 279.64 435.213 279.502 435.669 279.226C436.125 278.95 436.533 278.542 436.893 278.002H437.829C436.941 279.55 435.651 280.324 433.959 280.324C432.651 280.324 431.571 279.88 430.719 278.992C429.867 278.104 429.441 277 429.441 275.68C429.441 274.372 429.843 273.28 430.647 272.404C431.463 271.528 432.483 271.09 433.707 271.09ZM433.707 271.81C432.735 271.81 431.937 272.146 431.313 272.818C430.689 273.478 430.347 274.264 430.287 275.176H437.163C437.055 274.264 436.695 273.478 436.083 272.818C435.483 272.146 434.691 271.81 433.707 271.81ZM443.483 271.144V271.882C443.243 271.822 443.015 271.792 442.799 271.792C442.091 271.792 441.521 272.092 441.089 272.692C440.669 273.292 440.459 274.198 440.459 275.41V280H439.703V271.378H440.459V272.746H440.495C440.675 272.266 440.969 271.87 441.377 271.558C441.785 271.234 442.265 271.072 442.817 271.072C443.069 271.072 443.291 271.096 443.483 271.144ZM451.857 271.378L446.907 284.23H446.187L447.843 279.964L444.315 271.378H445.089L447.195 276.544C447.639 277.66 447.963 278.5 448.167 279.064H448.239C448.719 277.708 449.025 276.868 449.157 276.544L451.137 271.378H451.857Z" fill="#004621"/>
<path d="M347.12 224.296C347.12 224.248 347.072 224.248 346.928 224.248C346.784 224.248 346.736 224.248 346.688 224.296C346.208 225.304 345.2 225.784 343.712 225.784C342.992 225.784 341.84 225.496 340.256 224.968C338.672 224.44 337.424 224.152 336.56 224.152C333.248 224.152 329.984 225.256 326.864 227.416C323.744 229.624 321.2 232.504 319.28 236.056C317.312 239.656 316.352 243.304 316.352 247.048C316.352 250.936 317.456 254.056 319.664 256.36C321.872 258.712 324.704 259.864 328.208 259.864C333.392 259.864 338.048 256.936 342.176 251.032C342.176 251.032 342.176 250.984 342.128 250.936C341.984 250.792 341.936 250.744 341.888 250.792C337.808 256.6 333.248 259.48 328.208 259.48C325.808 259.48 323.888 258.904 322.448 257.704C320.96 256.552 320.24 254.776 320.24 252.424C320.24 249.784 321.104 245.8 322.88 240.424C324.608 235.096 326.096 231.448 327.296 229.528C329.36 226.216 332.48 224.536 336.56 224.536C338.864 224.536 340.832 225.496 342.416 227.416C344 229.384 344.432 231.496 343.712 233.8L343.76 233.848L344.096 233.8L347.12 224.296ZM363.289 241.528C363.289 240.52 363.001 239.704 362.377 239.08C361.753 238.456 360.937 238.168 359.929 238.168C358.729 238.168 357.625 238.744 356.521 239.944C355.417 241.144 354.265 243.112 353.065 245.752C353.977 243.112 354.265 241.192 353.929 239.944C353.593 238.744 352.681 238.12 351.193 238.12C350.281 238.12 349.369 238.456 348.409 239.176C347.449 239.896 346.633 241 345.961 242.488L346.345 242.68C347.353 240.472 348.457 239.368 349.657 239.368C350.137 239.368 350.473 239.56 350.713 239.992C350.905 240.424 350.905 241 350.665 241.672L345.145 259H348.937L352.585 247.384C355.033 242.344 356.953 239.848 358.249 239.848C359.065 239.848 359.449 240.232 359.449 240.952C359.449 241.192 359.353 241.432 359.161 241.768C358.921 242.104 358.825 242.44 358.825 242.824C358.825 243.304 359.017 243.688 359.449 244.024C359.833 244.36 360.361 244.504 361.033 244.504C361.657 244.504 362.185 244.216 362.617 243.592C363.049 242.968 363.289 242.296 363.289 241.528ZM375.514 228.376C375.514 227.704 375.273 227.128 374.794 226.648C374.314 226.216 373.738 225.976 373.066 225.976C372.394 225.976 371.818 226.216 371.338 226.648C370.858 227.128 370.618 227.704 370.618 228.376C370.618 229.096 370.858 229.672 371.338 230.104C371.818 230.584 372.394 230.824 373.066 230.824C373.738 230.824 374.314 230.584 374.794 230.104C375.273 229.672 375.514 229.096 375.514 228.376ZM373.882 254.296C372.49 256.792 371.002 258.04 369.37 258.04C368.41 258.04 367.93 257.416 367.93 256.216C367.93 255.304 368.746 253.096 370.378 249.496C371.962 245.944 372.778 243.304 372.778 241.576C372.778 239.32 371.674 238.168 369.466 238.168C367.546 238.168 365.914 239.608 364.618 242.488L364.954 242.68C366.058 240.472 367.162 239.368 368.314 239.368C368.746 239.368 369.082 239.464 369.226 239.656C369.37 239.896 369.466 240.232 369.466 240.76C369.466 242.248 368.65 244.888 367.018 248.584C365.386 252.28 364.57 254.776 364.57 256.024C364.57 257.032 364.906 257.848 365.578 258.472C366.202 259.096 367.162 259.432 368.362 259.432C369.322 259.432 370.33 259 371.434 258.184C372.49 257.368 373.402 256.12 374.218 254.488L373.882 254.296ZM393.843 238.648L393.075 240.76C392.979 239.944 392.643 239.272 392.019 238.84C391.395 238.408 390.627 238.168 389.715 238.168C386.163 238.168 383.043 239.608 380.307 242.536C377.571 245.464 376.227 248.584 376.227 251.848C376.227 254.008 376.755 255.784 377.763 257.224C378.771 258.712 380.403 259.432 382.563 259.432C383.763 259.432 385.011 258.904 386.211 257.8C387.411 256.696 388.371 255.208 389.139 253.24L382.659 273.784H386.451L397.635 238.216L393.843 238.648ZM389.715 251.32C387.747 256.36 385.491 258.856 382.995 258.856C380.691 258.856 379.539 257.416 379.539 254.584C379.539 252.376 380.163 249.688 381.363 246.568C382.563 243.448 384.003 241.24 385.635 239.992C386.931 239.032 388.275 238.552 389.667 238.552C390.723 238.552 391.539 238.84 392.067 239.416C392.595 239.992 392.787 240.808 392.739 241.816L389.715 251.32ZM417.064 238.6L413.416 250.216C410.584 255.016 407.896 257.416 405.352 257.416C404.776 257.416 404.248 257.176 403.816 256.744C403.336 256.312 403.096 255.784 403.096 255.208C403.096 253.72 403.816 251.368 405.304 248.2C406.744 245.032 407.464 242.824 407.464 241.576C407.464 239.32 406.36 238.168 404.2 238.168C402.28 238.168 400.648 239.608 399.352 242.488L399.688 242.68C400.792 240.472 401.896 239.368 403.048 239.368C403.768 239.368 404.152 239.848 404.152 240.76C404.152 241.72 403.384 243.976 401.848 247.528C400.312 251.08 399.544 253.576 399.544 254.968C399.544 256.36 399.928 257.416 400.648 258.232C401.368 259.048 402.28 259.432 403.48 259.432C404.968 259.432 406.552 258.712 408.328 257.32C410.056 255.928 411.592 254.056 412.984 251.608C412.024 254.344 411.736 256.312 412.072 257.56C412.408 258.808 413.32 259.432 414.808 259.432C415.816 259.432 416.872 259 418.072 258.184C419.224 257.368 420.184 256.12 421 254.536L420.664 254.296C419.224 256.84 417.736 258.088 416.152 258.088C415.72 258.088 415.384 257.944 415.24 257.656C415.048 257.368 415.048 256.984 415.192 256.552L420.952 238.312L417.064 238.6ZM440.671 242.056C440.671 241.048 440.239 240.136 439.375 239.32C438.511 238.552 437.167 238.168 435.343 238.168C432.127 238.168 429.295 239.512 426.799 242.2C424.303 244.888 423.055 247.96 423.055 251.368C423.055 253.72 423.775 255.688 425.215 257.176C426.655 258.664 428.479 259.432 430.639 259.432C432.223 259.432 433.567 259.096 434.767 258.472C435.919 257.848 437.071 256.888 438.223 255.496L437.935 255.256C436.879 256.552 435.823 257.464 434.719 258.088C433.615 258.712 432.223 259.048 430.447 259.048C427.615 259.048 426.175 257.512 426.175 254.392C426.175 253.288 426.559 251.272 427.375 248.344H430.735C433.663 248.344 436.015 247.768 437.887 246.616C439.759 245.464 440.671 243.928 440.671 242.056ZM437.695 240.808C437.695 242.632 437.071 244.264 435.823 245.752C434.527 247.24 432.559 247.96 429.919 247.96H427.519C428.431 244.648 429.439 242.2 430.543 240.712C431.599 239.224 433.183 238.504 435.295 238.504C436.879 238.504 437.695 239.272 437.695 240.808ZM451.96 238.504L454.216 231.112L450.376 231.4L448.168 238.504H444.664C444.52 238.696 444.472 238.792 444.52 238.84H448.023L443.416 253.576C442.216 257.464 443.128 259.432 446.2 259.432C447.16 259.432 448.168 259 449.224 258.184C450.28 257.368 451.24 256.12 452.056 254.488L451.72 254.296C450.328 256.792 448.792 258.04 447.16 258.04C446.728 258.04 446.44 257.896 446.296 257.608C446.104 257.368 446.104 256.984 446.248 256.552L451.768 238.84H455.368C455.416 238.84 455.416 238.84 455.464 238.792C455.608 238.6 455.656 238.504 455.512 238.504H451.96ZM464.288 238.504L466.544 231.112L462.704 231.4L460.496 238.504H456.992C456.848 238.696 456.8 238.792 456.848 238.84H460.352L455.744 253.576C454.544 257.464 455.456 259.432 458.528 259.432C459.488 259.432 460.496 259 461.552 258.184C462.608 257.368 463.568 256.12 464.384 254.488L464.048 254.296C462.656 256.792 461.12 258.04 459.488 258.04C459.056 258.04 458.768 257.896 458.624 257.608C458.432 257.368 458.432 256.984 458.576 256.552L464.096 238.84H467.696C467.744 238.84 467.744 238.84 467.792 238.792C467.936 238.6 467.984 238.504 467.84 238.504H464.288ZM484.968 242.056C484.968 241.048 484.536 240.136 483.672 239.32C482.808 238.552 481.464 238.168 479.64 238.168C476.424 238.168 473.592 239.512 471.096 242.2C468.6 244.888 467.352 247.96 467.352 251.368C467.352 253.72 468.072 255.688 469.512 257.176C470.952 258.664 472.776 259.432 474.936 259.432C476.52 259.432 477.864 259.096 479.064 258.472C480.216 257.848 481.368 256.888 482.52 255.496L482.232 255.256C481.176 256.552 480.12 257.464 479.016 258.088C477.912 258.712 476.52 259.048 474.744 259.048C471.912 259.048 470.472 257.512 470.472 254.392C470.472 253.288 470.856 251.272 471.672 248.344H475.032C477.96 248.344 480.312 247.768 482.184 246.616C484.056 245.464 484.968 243.928 484.968 242.056ZM481.992 240.808C481.992 242.632 481.368 244.264 480.12 245.752C478.824 247.24 476.856 247.96 474.216 247.96H471.816C472.728 244.648 473.736 242.2 474.84 240.712C475.896 239.224 477.48 238.504 479.592 238.504C481.176 238.504 481.992 239.272 481.992 240.808Z" fill="#004621"/>
<defs>
<clipPath id="clip0">
<rect width="45" height="31" fill="white" transform="translate(70 70)"/>
</clipPath>
<clipPath id="clip1">
<rect width="46" height="32" fill="white" transform="translate(70 151)"/>
</clipPath>
<clipPath id="clip2">
<rect width="46" height="32" fill="white" transform="translate(70 233)"/>
</clipPath>
<clipPath id="clip3">
<rect width="46" height="32" fill="white" transform="translate(70 315)"/>
</clipPath>
<clipPath id="clip4">
<rect width="46" height="32" fill="white" transform="translate(70 397)"/>
</clipPath>
<clipPath id="clip5">
<rect width="47" height="32" fill="white" transform="translate(191 70)"/>
</clipPath>
<clipPath id="clip6">
<rect width="47" height="32" fill="white" transform="translate(192 152)"/>
</clipPath>
<clipPath id="clip7">
<rect width="47" height="32" fill="white" transform="translate(192 234)"/>
</clipPath>
<clipPath id="clip8">
<rect width="47" height="32" fill="white" transform="translate(192 316)"/>
</clipPath>
<clipPath id="clip9">
<rect width="47" height="32" fill="white" transform="translate(192 398)"/>
</clipPath>
<clipPath id="clip10">
<rect width="48" height="32" fill="white" transform="translate(314 70)"/>
</clipPath>
<clipPath id="clip11">
<rect width="48" height="32" fill="white" transform="translate(315 152)"/>
</clipPath>
<clipPath id="clip12">
<rect width="48" height="32" fill="white" transform="translate(315 316)"/>
</clipPath>
<clipPath id="clip13">
<rect width="48" height="32" fill="white" transform="translate(315 398)"/>
</clipPath>
<clipPath id="clip14">
<rect width="48" height="32" fill="white" transform="translate(436 70)"/>
</clipPath>
<clipPath id="clip15">
<rect width="48" height="32" fill="white" transform="translate(437 152)"/>
</clipPath>
<clipPath id="clip16">
<rect width="48" height="32" fill="white" transform="translate(437 316)"/>
</clipPath>
<clipPath id="clip17">
<rect width="48" height="32" fill="white" transform="translate(437 398)"/>
</clipPath>
<clipPath id="clip18">
<rect width="47" height="32" fill="white" transform="translate(560 70)"/>
</clipPath>
<clipPath id="clip19">
<rect width="47" height="32" fill="white" transform="translate(561 152)"/>
</clipPath>
<clipPath id="clip20">
<rect width="47" height="32" fill="white" transform="translate(561 234)"/>
</clipPath>
<clipPath id="clip21">
<rect width="47" height="32" fill="white" transform="translate(561 316)"/>
</clipPath>
<clipPath id="clip22">
<rect width="47" height="32" fill="white" transform="translate(561 398)"/>
</clipPath>
<clipPath id="clip23">
<rect width="46" height="32" fill="white" transform="translate(683 70)"/>
</clipPath>
<clipPath id="clip24">
<rect width="46" height="32" fill="white" transform="translate(684 152)"/>
</clipPath>
<clipPath id="clip25">
<rect width="46" height="32" fill="white" transform="translate(684 234)"/>
</clipPath>
<clipPath id="clip26">
<rect width="46" height="32" fill="white" transform="translate(684 316)"/>
</clipPath>
<clipPath id="clip27">
<rect width="46" height="32" fill="white" transform="translate(684 398)"/>
</clipPath>
</defs>
</svg>
