<svg width="800" height="457" viewBox="0 0 800 457" fill="none" xmlns="http://www.w3.org/2000/svg">
<rect width="800" height="457" fill="#DEEEE1"/>
<path d="M238.388 263.45C231.079 263.45 225.003 261.006 220.161 256.117C215.366 251.276 212.969 245.247 212.969 238.031C212.969 230.768 215.366 224.739 220.161 219.944C225.003 215.055 231.079 212.611 238.388 212.611C242.811 212.611 246.884 213.659 250.609 215.754C254.38 217.802 257.313 220.596 259.408 224.134L251.098 228.952C249.887 226.764 248.165 225.065 245.93 223.854C243.695 222.597 241.181 221.969 238.388 221.969C233.639 221.969 229.798 223.459 226.865 226.438C223.979 229.464 222.536 233.328 222.536 238.031C222.536 242.686 223.979 246.527 226.865 249.553C229.798 252.533 233.639 254.022 238.388 254.022C241.181 254.022 243.695 253.417 245.93 252.207C248.211 250.95 249.934 249.25 251.098 247.109L259.408 251.927C257.313 255.466 254.38 258.282 250.609 260.377C246.884 262.426 242.811 263.45 238.388 263.45ZM304.491 262.472H294.086L284.24 245.503H276.907V262.472H267.27V213.589H286.823C291.339 213.589 295.18 215.172 298.346 218.338C301.512 221.503 303.095 225.321 303.095 229.79C303.095 232.816 302.233 235.633 300.511 238.24C298.788 240.801 296.507 242.733 293.667 244.036L304.491 262.472ZM286.823 222.597H276.907V237.053H286.823C288.639 237.053 290.199 236.355 291.502 234.958C292.806 233.515 293.458 231.792 293.458 229.79C293.458 227.788 292.806 226.089 291.502 224.692C290.199 223.296 288.639 222.597 286.823 222.597ZM312.261 262.472V213.589H321.898V262.472H312.261ZM380.877 238.031C380.877 244.316 378.875 249.809 374.872 254.511L379.9 259.749L373.056 265.824L367.749 260.307C363.978 262.402 359.881 263.45 355.458 263.45C348.475 263.45 342.492 261.006 337.511 256.117C332.576 251.183 330.109 245.154 330.109 238.031C330.109 230.908 332.576 224.902 337.511 220.014C342.446 215.079 348.428 212.611 355.458 212.611C362.488 212.611 368.47 215.079 373.405 220.014C378.387 224.902 380.877 230.908 380.877 238.031ZM355.458 254.022C357.32 254.022 359.136 253.72 360.905 253.115L352.874 244.735L359.718 238.659L368.307 247.598C370.263 244.804 371.24 241.615 371.24 238.031C371.24 233.375 369.727 229.534 366.701 226.508C363.675 223.482 359.927 221.969 355.458 221.969C350.989 221.969 347.241 223.482 344.215 226.508C341.189 229.534 339.676 233.375 339.676 238.031C339.676 242.64 341.189 246.457 344.215 249.483C347.241 252.509 350.989 254.022 355.458 254.022ZM407.274 263.45C401.827 263.45 397.358 261.914 393.866 258.841C390.374 255.768 388.628 251.648 388.628 246.48V213.589H398.196V245.712C398.196 248.319 398.94 250.368 400.43 251.858C401.967 253.301 404.248 254.022 407.274 254.022C410.3 254.022 412.558 253.301 414.048 251.858C415.584 250.368 416.352 248.319 416.352 245.712V213.589H425.989V246.48C425.989 251.648 424.243 255.768 420.752 258.841C417.26 261.914 412.767 263.45 407.274 263.45ZM445.705 242.29V253.254H466.305V262.472H436.068V213.589H465.956V222.807H445.705V233.212H464.21V242.29H445.705ZM472.26 213.589H508.224V222.807H495.026V262.472H485.389V222.807H472.26V213.589ZM514.163 213.589H550.127V222.807H536.929V262.472H527.292V222.807H514.163V213.589ZM565.842 242.29V253.254H586.443V262.472H556.205V213.589H586.094V222.807H565.842V233.212H584.348V242.29H565.842Z" fill="#003218"/>
<path d="M346.465 300.631C348.467 301.934 349.468 303.773 349.468 306.148C349.468 308.266 348.712 309.988 347.199 311.315C345.685 312.642 343.812 313.306 341.577 313.306H331.311V288.864H340.879C343.043 288.864 344.871 289.516 346.361 290.819C347.85 292.099 348.595 293.775 348.595 295.847C348.595 297.826 347.885 299.42 346.465 300.631ZM340.879 294.101H336.898V298.431H340.879C341.507 298.431 342.019 298.233 342.415 297.837C342.811 297.418 343.009 296.895 343.009 296.266C343.009 295.638 342.811 295.126 342.415 294.73C342.019 294.311 341.507 294.101 340.879 294.101ZM336.898 308.068H341.577C342.275 308.068 342.834 307.859 343.253 307.44C343.672 306.997 343.881 306.427 343.881 305.729C343.881 305.03 343.672 304.472 343.253 304.053C342.834 303.61 342.275 303.389 341.577 303.389H336.898V308.068ZM376.515 313.306H370.404L369.182 309.465H360.104L358.882 313.306H352.772L361.082 288.864H368.205L376.515 313.306ZM364.643 295.254L361.78 304.227H367.506L364.643 295.254ZM392.391 300.77L400.981 313.306H394.626L386.804 301.993V313.306H381.218V288.864H386.804V299.479L394.277 288.864H400.631L392.391 300.77ZM411.28 303.599V307.928H421.057V313.306H405.693V288.864H420.882V294.241H411.28V298.291H420.009V303.599H411.28ZM445.683 313.306H439.677L435.068 305.275H432.414V313.306H426.828V288.864H436.604C438.932 288.864 440.911 289.679 442.54 291.308C444.17 292.937 444.984 294.916 444.984 297.244C444.984 298.71 444.565 300.084 443.727 301.364C442.913 302.644 441.83 303.634 440.48 304.332L445.683 313.306ZM436.604 294.101H432.414V300.386H436.604C437.372 300.386 438.024 300.084 438.56 299.479C439.118 298.873 439.398 298.128 439.398 297.244C439.398 296.359 439.118 295.614 438.56 295.009C438.024 294.404 437.372 294.101 436.604 294.101ZM463.794 288.864H470.149L461.943 303.913V313.306H456.357V303.913L448.151 288.864H454.506L459.15 298.291L463.794 288.864Z" fill="#003218"/>
<path d="M431.951 142.087L374.948 179.42C388.638 191.68 411.199 187.978 425.299 171.103C432.048 163.049 435.639 153.434 436.049 144.25C436.145 141.967 433.928 140.789 431.951 142.087Z" fill="#003218"/>
<path d="M402.842 133.142L374.73 179.265C388.699 183.42 403.589 173.112 407.945 156.22C410.038 148.152 409.34 140.033 406.511 133.304C405.803 131.633 403.815 131.54 402.842 133.142Z" fill="#003218"/>
<rect x="20" y="20" width="760" height="416" stroke="#003218" stroke-width="8"/>
</svg>
