<svg width="320" height="392" viewBox="0 0 320 392" fill="none" xmlns="http://www.w3.org/2000/svg">
<path d="M106.408 16V4.608H110.52C111.832 4.608 112.84 4.928 113.544 5.568C114.248 6.208 114.6 7.072 114.6 8.16C114.6 9.25867 114.248 10.128 113.544 10.768C112.84 11.408 111.832 11.728 110.52 11.728H108.328V16H106.408ZM110.296 6.224H108.328V10.112H110.296C111.853 10.112 112.632 9.46133 112.632 8.16C112.632 6.86933 111.853 6.224 110.296 6.224ZM120.392 7.76C120.605 7.76 120.829 7.78667 121.064 7.84V9.456C120.861 9.41333 120.648 9.392 120.424 9.392C119.698 9.392 119.138 9.62133 118.744 10.08C118.36 10.528 118.168 11.1733 118.168 12.016V16H116.344V7.872H118.04V9.072H118.072C118.616 8.19733 119.389 7.76 120.392 7.76ZM124.359 7.872V16H122.535V7.872H124.359ZM124.359 4.608V6.352H122.535V4.608H124.359ZM135.891 7.68C136.766 7.68 137.448 7.96267 137.939 8.528C138.43 9.09333 138.675 9.91467 138.675 10.992V16H136.851V11.168C136.851 9.824 136.36 9.152 135.379 9.152C134.846 9.152 134.424 9.37067 134.115 9.808C133.816 10.2347 133.667 10.8373 133.667 11.616V16H131.843V10.976C131.843 10.4 131.715 9.952 131.459 9.632C131.214 9.312 130.856 9.152 130.387 9.152C129.843 9.152 129.422 9.37067 129.123 9.808C128.824 10.2453 128.675 10.8587 128.675 11.648V16H126.851V7.872H128.595V8.848H128.627C129.203 8.06933 129.955 7.68 130.883 7.68C132.056 7.68 132.856 8.17067 133.283 9.152C133.912 8.17067 134.782 7.68 135.891 7.68ZM144.129 7.632C145.217 7.632 146.044 7.89867 146.609 8.432C147.185 8.96533 147.473 9.76 147.473 10.816V13.856C147.473 14.7307 147.543 15.4453 147.681 16H146.033C145.959 15.6693 145.921 15.2907 145.921 14.864H145.889C145.292 15.7387 144.38 16.176 143.153 16.176C142.321 16.176 141.655 15.952 141.153 15.504C140.652 15.0453 140.401 14.464 140.401 13.76C140.401 13.0667 140.636 12.512 141.105 12.096C141.585 11.68 142.391 11.3813 143.521 11.2C144.204 11.0827 144.935 11.0027 145.713 10.96V10.64C145.713 9.52 145.185 8.96 144.129 8.96C143.639 8.96 143.255 9.088 142.977 9.344C142.7 9.6 142.551 9.94667 142.529 10.384H140.737C140.78 9.57333 141.089 8.912 141.665 8.4C142.252 7.888 143.073 7.632 144.129 7.632ZM145.713 12.544V12.144C145.02 12.1867 144.396 12.256 143.841 12.352C143.255 12.448 142.839 12.592 142.593 12.784C142.359 12.976 142.241 13.2587 142.241 13.632C142.241 13.9947 142.364 14.288 142.609 14.512C142.865 14.7253 143.223 14.832 143.681 14.832C144.3 14.832 144.791 14.6507 145.153 14.288C145.367 14.064 145.511 13.8293 145.585 13.584C145.671 13.328 145.713 12.9813 145.713 12.544ZM153.922 7.76C154.136 7.76 154.36 7.78667 154.594 7.84V9.456C154.392 9.41333 154.178 9.392 153.954 9.392C153.229 9.392 152.669 9.62133 152.274 10.08C151.89 10.528 151.698 11.1733 151.698 12.016V16H149.874V7.872H151.57V9.072H151.602C152.146 8.19733 152.92 7.76 153.922 7.76ZM160.913 7.872H162.801L159.665 16.352C159.281 17.376 158.828 18.08 158.305 18.464C157.793 18.848 157.063 19.04 156.113 19.04C155.783 19.04 155.479 19.0027 155.201 18.928V17.44C155.447 17.5147 155.703 17.552 155.969 17.552C156.46 17.552 156.833 17.4453 157.089 17.232C157.356 17.0187 157.585 16.6293 157.777 16.064L154.801 7.872H156.753L158.785 13.92H158.817L160.913 7.872ZM172.461 4.368C173.827 4.368 174.925 4.752 175.757 5.52C176.589 6.288 177.032 7.28533 177.085 8.512H175.149C175.064 7.75467 174.781 7.16267 174.301 6.736C173.832 6.29867 173.219 6.08 172.461 6.08C171.491 6.08 170.728 6.45867 170.173 7.216C169.619 7.96267 169.341 8.992 169.341 10.304C169.341 11.616 169.613 12.6507 170.157 13.408C170.712 14.1547 171.464 14.528 172.413 14.528C173.171 14.528 173.789 14.3093 174.269 13.872C174.76 13.4347 175.059 12.8267 175.165 12.048H177.133C177.016 13.36 176.541 14.3893 175.709 15.136C174.877 15.872 173.779 16.24 172.413 16.24C170.845 16.24 169.608 15.712 168.701 14.656C167.805 13.6 167.357 12.1493 167.357 10.304C167.357 8.45867 167.811 7.008 168.717 5.952C169.635 4.896 170.883 4.368 172.461 4.368ZM179.699 8.8C180.424 8.02133 181.4 7.632 182.627 7.632C183.853 7.632 184.824 8.02133 185.539 8.8C186.264 9.568 186.627 10.6133 186.627 11.936C186.627 13.2587 186.264 14.3093 185.539 15.088C184.824 15.856 183.853 16.24 182.627 16.24C181.4 16.24 180.424 15.856 179.699 15.088C178.973 14.3093 178.611 13.2587 178.611 11.936C178.611 10.6133 178.973 9.568 179.699 8.8ZM184.163 9.84C183.789 9.328 183.277 9.072 182.627 9.072C181.976 9.072 181.464 9.328 181.091 9.84C180.717 10.352 180.531 11.0507 180.531 11.936C180.531 12.8213 180.717 13.52 181.091 14.032C181.464 14.544 181.976 14.8 182.627 14.8C183.277 14.8 183.789 14.544 184.163 14.032C184.536 13.52 184.723 12.8213 184.723 11.936C184.723 11.0507 184.536 10.352 184.163 9.84ZM190.389 4.608V16H188.565V4.608H190.389ZM193.409 8.8C194.134 8.02133 195.11 7.632 196.337 7.632C197.564 7.632 198.534 8.02133 199.249 8.8C199.974 9.568 200.337 10.6133 200.337 11.936C200.337 13.2587 199.974 14.3093 199.249 15.088C198.534 15.856 197.564 16.24 196.337 16.24C195.11 16.24 194.134 15.856 193.409 15.088C192.684 14.3093 192.321 13.2587 192.321 11.936C192.321 10.6133 192.684 9.568 193.409 8.8ZM197.873 9.84C197.5 9.328 196.988 9.072 196.337 9.072C195.686 9.072 195.174 9.328 194.801 9.84C194.428 10.352 194.241 11.0507 194.241 11.936C194.241 12.8213 194.428 13.52 194.801 14.032C195.174 14.544 195.686 14.8 196.337 14.8C196.988 14.8 197.5 14.544 197.873 14.032C198.246 13.52 198.433 12.8213 198.433 11.936C198.433 11.0507 198.246 10.352 197.873 9.84ZM206.323 7.76C206.537 7.76 206.761 7.78667 206.995 7.84V9.456C206.793 9.41333 206.579 9.392 206.355 9.392C205.63 9.392 205.07 9.62133 204.675 10.08C204.291 10.528 204.099 11.1733 204.099 12.016V16H202.275V7.872H203.971V9.072H204.003C204.547 8.19733 205.321 7.76 206.323 7.76ZM211.111 7.632C212.156 7.632 212.961 7.872 213.527 8.352C214.103 8.82133 214.396 9.504 214.407 10.4H212.647C212.647 9.44 212.129 8.96 211.095 8.96C210.668 8.96 210.337 9.04533 210.103 9.216C209.868 9.38667 209.751 9.62133 209.751 9.92C209.751 10.24 209.873 10.4693 210.119 10.608C210.364 10.7467 210.855 10.9067 211.591 11.088C211.889 11.1627 212.076 11.2107 212.151 11.232C212.236 11.2533 212.412 11.3067 212.679 11.392C212.956 11.4667 213.137 11.536 213.223 11.6C213.319 11.6533 213.468 11.7333 213.671 11.84C213.873 11.9467 214.012 12.0587 214.087 12.176C214.172 12.2827 214.268 12.416 214.375 12.576C214.492 12.736 214.567 12.9173 214.599 13.12C214.641 13.312 214.663 13.5253 214.663 13.76C214.663 14.5067 214.353 15.1093 213.735 15.568C213.116 16.016 212.289 16.24 211.255 16.24C210.145 16.24 209.281 15.9947 208.663 15.504C208.055 15.0027 207.745 14.2773 207.735 13.328H209.591C209.591 13.8293 209.735 14.2133 210.023 14.48C210.321 14.7467 210.743 14.88 211.287 14.88C211.745 14.88 212.103 14.7893 212.359 14.608C212.625 14.4267 212.759 14.1813 212.759 13.872C212.759 13.488 212.62 13.2213 212.343 13.072C212.065 12.912 211.521 12.7307 210.711 12.528C210.412 12.4533 210.209 12.4053 210.103 12.384C210.007 12.352 209.831 12.2987 209.575 12.224C209.319 12.1387 209.137 12.064 209.031 12C208.924 11.9253 208.78 11.824 208.599 11.696C208.428 11.568 208.305 11.4347 208.231 11.296C208.156 11.1467 208.087 10.9707 208.023 10.768C207.959 10.5547 207.927 10.32 207.927 10.064C207.927 9.33867 208.22 8.752 208.807 8.304C209.393 7.856 210.161 7.632 211.111 7.632Z" fill="#003218"/>
<path d="M98.72 156.368C100.096 156.368 101.136 156.688 101.84 157.328C102.555 157.957 102.912 158.885 102.912 160.112H100.976C100.976 159.397 100.779 158.859 100.384 158.496C99.9893 158.123 99.424 157.936 98.688 157.936C98.0693 157.936 97.5787 158.075 97.216 158.352C96.864 158.619 96.688 158.987 96.688 159.456C96.688 159.947 96.8747 160.309 97.248 160.544C97.6213 160.779 98.304 161.019 99.296 161.264C99.808 161.392 100.224 161.504 100.544 161.6C100.864 161.696 101.211 161.84 101.584 162.032C101.968 162.213 102.267 162.416 102.48 162.64C102.693 162.864 102.869 163.157 103.008 163.52C103.157 163.872 103.232 164.283 103.232 164.752C103.232 165.808 102.843 166.656 102.064 167.296C101.285 167.925 100.256 168.24 98.976 168.24C97.5787 168.24 96.4907 167.899 95.712 167.216C94.9333 166.523 94.544 165.531 94.544 164.24H96.512C96.512 165.851 97.3387 166.656 98.992 166.656C99.696 166.656 100.245 166.501 100.64 166.192C101.045 165.883 101.248 165.461 101.248 164.928C101.248 164.395 101.067 164.016 100.704 163.792C100.341 163.568 99.664 163.333 98.672 163.088C98.1387 162.949 97.7173 162.837 97.408 162.752C97.1093 162.656 96.7627 162.517 96.368 162.336C95.9733 162.144 95.6747 161.941 95.472 161.728C95.2693 161.504 95.0933 161.216 94.944 160.864C94.7947 160.501 94.72 160.091 94.72 159.632C94.72 158.661 95.0827 157.877 95.808 157.28C96.544 156.672 97.5147 156.368 98.72 156.368ZM108.626 166.896C109.138 166.896 109.554 166.773 109.874 166.528C110.205 166.283 110.413 165.957 110.498 165.552H112.37C112.21 166.32 111.799 166.96 111.138 167.472C110.477 167.984 109.639 168.24 108.626 168.24C107.399 168.24 106.434 167.84 105.73 167.04C105.037 166.24 104.69 165.173 104.69 163.84C104.69 162.613 105.037 161.605 105.73 160.816C106.434 160.027 107.389 159.632 108.594 159.632C109.511 159.632 110.29 159.883 110.93 160.384C111.581 160.875 112.018 161.547 112.242 162.4C112.391 162.88 112.466 163.515 112.466 164.304H106.498C106.53 165.179 106.738 165.829 107.122 166.256C107.517 166.683 108.018 166.896 108.626 166.896ZM109.986 161.52C109.623 161.157 109.159 160.976 108.594 160.976C108.029 160.976 107.559 161.157 107.186 161.52C106.823 161.883 106.605 162.411 106.53 163.104H110.642C110.578 162.411 110.359 161.883 109.986 161.52ZM117.943 159.632C118.966 159.632 119.809 159.931 120.47 160.528C121.143 161.115 121.521 161.877 121.606 162.816H119.702C119.66 162.283 119.479 161.861 119.159 161.552C118.839 161.232 118.433 161.072 117.943 161.072C117.302 161.072 116.801 161.328 116.438 161.84C116.086 162.341 115.91 163.04 115.91 163.936C115.91 164.832 116.086 165.536 116.438 166.048C116.801 166.549 117.302 166.8 117.943 166.8C118.433 166.8 118.833 166.624 119.142 166.272C119.462 165.92 119.644 165.467 119.687 164.912H121.606C121.521 165.904 121.148 166.709 120.487 167.328C119.825 167.936 118.977 168.24 117.943 168.24C116.737 168.24 115.777 167.851 115.062 167.072C114.348 166.293 113.99 165.248 113.99 163.936C113.99 162.624 114.348 161.579 115.062 160.8C115.777 160.021 116.737 159.632 117.943 159.632ZM124.098 160.8C124.823 160.021 125.799 159.632 127.026 159.632C128.253 159.632 129.223 160.021 129.938 160.8C130.663 161.568 131.026 162.613 131.026 163.936C131.026 165.259 130.663 166.309 129.938 167.088C129.223 167.856 128.253 168.24 127.026 168.24C125.799 168.24 124.823 167.856 124.098 167.088C123.373 166.309 123.01 165.259 123.01 163.936C123.01 162.613 123.373 161.568 124.098 160.8ZM128.562 161.84C128.189 161.328 127.677 161.072 127.026 161.072C126.375 161.072 125.863 161.328 125.49 161.84C125.117 162.352 124.93 163.051 124.93 163.936C124.93 164.821 125.117 165.52 125.49 166.032C125.863 166.544 126.375 166.8 127.026 166.8C127.677 166.8 128.189 166.544 128.562 166.032C128.935 165.52 129.122 164.821 129.122 163.936C129.122 163.051 128.935 162.352 128.562 161.84ZM137.156 159.68C138.095 159.68 138.82 159.963 139.332 160.528C139.855 161.093 140.116 161.925 140.116 163.024V168H138.292V163.184C138.292 161.829 137.743 161.152 136.644 161.152C136.1 161.152 135.652 161.355 135.3 161.76C134.959 162.165 134.788 162.741 134.788 163.488V168H132.964V159.872H134.692V160.928H134.724C135.3 160.096 136.111 159.68 137.156 159.68ZM149.586 156.608V168H147.81V166.88H147.778C147.544 167.296 147.208 167.621 146.77 167.856C146.344 168.08 145.874 168.192 145.362 168.192C144.328 168.192 143.501 167.808 142.882 167.04C142.274 166.261 141.97 165.227 141.97 163.936C141.97 162.635 142.274 161.6 142.882 160.832C143.49 160.053 144.312 159.664 145.346 159.664C145.858 159.664 146.322 159.776 146.738 160C147.165 160.224 147.496 160.533 147.73 160.928H147.762V156.608H149.586ZM145.89 161.088C145.272 161.088 144.781 161.349 144.418 161.872C144.056 162.384 143.874 163.072 143.874 163.936C143.874 164.8 144.056 165.493 144.418 166.016C144.781 166.528 145.272 166.784 145.89 166.784C146.488 166.784 146.962 166.528 147.314 166.016C147.677 165.504 147.858 164.811 147.858 163.936C147.858 163.051 147.677 162.357 147.314 161.856C146.962 161.344 146.488 161.088 145.89 161.088ZM155.121 159.632C156.209 159.632 157.036 159.899 157.601 160.432C158.177 160.965 158.465 161.76 158.465 162.816V165.856C158.465 166.731 158.534 167.445 158.673 168H157.025C156.95 167.669 156.913 167.291 156.913 166.864H156.881C156.284 167.739 155.372 168.176 154.145 168.176C153.313 168.176 152.646 167.952 152.145 167.504C151.644 167.045 151.393 166.464 151.393 165.76C151.393 165.067 151.628 164.512 152.097 164.096C152.577 163.68 153.382 163.381 154.513 163.2C155.196 163.083 155.926 163.003 156.705 162.96V162.64C156.705 161.52 156.177 160.96 155.121 160.96C154.63 160.96 154.246 161.088 153.969 161.344C153.692 161.6 153.542 161.947 153.521 162.384H151.729C151.772 161.573 152.081 160.912 152.657 160.4C153.244 159.888 154.065 159.632 155.121 159.632ZM156.705 164.544V164.144C156.012 164.187 155.388 164.256 154.833 164.352C154.246 164.448 153.83 164.592 153.585 164.784C153.35 164.976 153.233 165.259 153.233 165.632C153.233 165.995 153.356 166.288 153.601 166.512C153.857 166.725 154.214 166.832 154.673 166.832C155.292 166.832 155.782 166.651 156.145 166.288C156.358 166.064 156.502 165.829 156.577 165.584C156.662 165.328 156.705 164.981 156.705 164.544ZM164.914 159.76C165.127 159.76 165.351 159.787 165.586 159.84V161.456C165.383 161.413 165.17 161.392 164.946 161.392C164.221 161.392 163.661 161.621 163.266 162.08C162.882 162.528 162.69 163.173 162.69 164.016V168H160.866V159.872H162.562V161.072H162.594C163.138 160.197 163.911 159.76 164.914 159.76ZM171.905 159.872H173.793L170.657 168.352C170.273 169.376 169.82 170.08 169.297 170.464C168.785 170.848 168.055 171.04 167.105 171.04C166.775 171.04 166.471 171.003 166.193 170.928V169.44C166.439 169.515 166.695 169.552 166.961 169.552C167.452 169.552 167.825 169.445 168.081 169.232C168.348 169.019 168.577 168.629 168.769 168.064L165.793 159.872H167.745L169.777 165.92H169.809L171.905 159.872ZM183.453 156.368C184.819 156.368 185.917 156.752 186.749 157.52C187.581 158.288 188.024 159.285 188.077 160.512H186.141C186.056 159.755 185.773 159.163 185.293 158.736C184.824 158.299 184.211 158.08 183.453 158.08C182.483 158.08 181.72 158.459 181.165 159.216C180.611 159.963 180.333 160.992 180.333 162.304C180.333 163.616 180.605 164.651 181.149 165.408C181.704 166.155 182.456 166.528 183.405 166.528C184.163 166.528 184.781 166.309 185.261 165.872C185.752 165.435 186.051 164.827 186.157 164.048H188.125C188.008 165.36 187.533 166.389 186.701 167.136C185.869 167.872 184.771 168.24 183.405 168.24C181.837 168.24 180.6 167.712 179.693 166.656C178.797 165.6 178.349 164.149 178.349 162.304C178.349 160.459 178.803 159.008 179.709 157.952C180.627 156.896 181.875 156.368 183.453 156.368ZM190.69 160.8C191.416 160.021 192.392 159.632 193.618 159.632C194.845 159.632 195.816 160.021 196.53 160.8C197.256 161.568 197.618 162.613 197.618 163.936C197.618 165.259 197.256 166.309 196.53 167.088C195.816 167.856 194.845 168.24 193.618 168.24C192.392 168.24 191.416 167.856 190.69 167.088C189.965 166.309 189.602 165.259 189.602 163.936C189.602 162.613 189.965 161.568 190.69 160.8ZM195.154 161.84C194.781 161.328 194.269 161.072 193.618 161.072C192.968 161.072 192.456 161.328 192.082 161.84C191.709 162.352 191.522 163.051 191.522 163.936C191.522 164.821 191.709 165.52 192.082 166.032C192.456 166.544 192.968 166.8 193.618 166.8C194.269 166.8 194.781 166.544 195.154 166.032C195.528 165.52 195.714 164.821 195.714 163.936C195.714 163.051 195.528 162.352 195.154 161.84ZM201.381 156.608V168H199.557V156.608H201.381ZM204.401 160.8C205.126 160.021 206.102 159.632 207.329 159.632C208.556 159.632 209.526 160.021 210.241 160.8C210.966 161.568 211.329 162.613 211.329 163.936C211.329 165.259 210.966 166.309 210.241 167.088C209.526 167.856 208.556 168.24 207.329 168.24C206.102 168.24 205.126 167.856 204.401 167.088C203.676 166.309 203.313 165.259 203.313 163.936C203.313 162.613 203.676 161.568 204.401 160.8ZM208.865 161.84C208.492 161.328 207.98 161.072 207.329 161.072C206.678 161.072 206.166 161.328 205.793 161.84C205.42 162.352 205.233 163.051 205.233 163.936C205.233 164.821 205.42 165.52 205.793 166.032C206.166 166.544 206.678 166.8 207.329 166.8C207.98 166.8 208.492 166.544 208.865 166.032C209.238 165.52 209.425 164.821 209.425 163.936C209.425 163.051 209.238 162.352 208.865 161.84ZM217.315 159.76C217.529 159.76 217.753 159.787 217.987 159.84V161.456C217.785 161.413 217.571 161.392 217.347 161.392C216.622 161.392 216.062 161.621 215.667 162.08C215.283 162.528 215.091 163.173 215.091 164.016V168H213.267V159.872H214.963V161.072H214.995C215.539 160.197 216.313 159.76 217.315 159.76ZM222.102 159.632C223.148 159.632 223.953 159.872 224.518 160.352C225.094 160.821 225.388 161.504 225.398 162.4H223.638C223.638 161.44 223.121 160.96 222.086 160.96C221.66 160.96 221.329 161.045 221.094 161.216C220.86 161.387 220.742 161.621 220.742 161.92C220.742 162.24 220.865 162.469 221.11 162.608C221.356 162.747 221.846 162.907 222.582 163.088C222.881 163.163 223.068 163.211 223.142 163.232C223.228 163.253 223.404 163.307 223.67 163.392C223.948 163.467 224.129 163.536 224.214 163.6C224.31 163.653 224.46 163.733 224.662 163.84C224.865 163.947 225.004 164.059 225.078 164.176C225.164 164.283 225.26 164.416 225.366 164.576C225.484 164.736 225.558 164.917 225.59 165.12C225.633 165.312 225.654 165.525 225.654 165.76C225.654 166.507 225.345 167.109 224.726 167.568C224.108 168.016 223.281 168.24 222.246 168.24C221.137 168.24 220.273 167.995 219.654 167.504C219.046 167.003 218.737 166.277 218.726 165.328H220.582C220.582 165.829 220.726 166.213 221.014 166.48C221.313 166.747 221.734 166.88 222.278 166.88C222.737 166.88 223.094 166.789 223.35 166.608C223.617 166.427 223.75 166.181 223.75 165.872C223.75 165.488 223.612 165.221 223.334 165.072C223.057 164.912 222.513 164.731 221.702 164.528C221.404 164.453 221.201 164.405 221.094 164.384C220.998 164.352 220.822 164.299 220.566 164.224C220.31 164.139 220.129 164.064 220.022 164C219.916 163.925 219.772 163.824 219.59 163.696C219.42 163.568 219.297 163.435 219.222 163.296C219.148 163.147 219.078 162.971 219.014 162.768C218.95 162.555 218.918 162.32 218.918 162.064C218.918 161.339 219.212 160.752 219.798 160.304C220.385 159.856 221.153 159.632 222.102 159.632Z" fill="#003218"/>
<rect x="168" y="32" width="96" height="96" fill="#DEEEE1"/>
<path d="M211.103 68.772C211.759 68.772 212.263 68.98 212.615 69.396C212.975 69.812 213.155 70.424 213.155 71.232V75H212.099V71.316C212.099 70.196 211.683 69.636 210.851 69.636C210.411 69.636 210.059 69.808 209.795 70.152C209.539 70.496 209.411 70.96 209.411 71.544V75H208.355V71.16C208.355 70.68 208.247 70.308 208.031 70.044C207.815 69.772 207.511 69.636 207.119 69.636C206.671 69.636 206.315 69.812 206.051 70.164C205.795 70.516 205.667 71 205.667 71.616V75H204.611V68.904H205.631V69.66H205.655C206.087 69.068 206.655 68.772 207.359 68.772C208.239 68.772 208.843 69.156 209.171 69.924C209.603 69.156 210.247 68.772 211.103 68.772ZM216.267 68.904V75H215.211V68.904H216.267ZM216.267 66.456V67.644H215.211V66.456H216.267ZM221.272 68.772C221.976 68.772 222.52 68.984 222.904 69.408C223.288 69.832 223.48 70.456 223.48 71.28V75H222.424V71.364C222.424 70.748 222.304 70.308 222.064 70.044C221.824 69.772 221.476 69.636 221.02 69.636C220.564 69.636 220.184 69.8 219.88 70.128C219.584 70.456 219.436 70.916 219.436 71.508V75H218.38V68.904H219.4V69.708H219.424C219.832 69.084 220.448 68.772 221.272 68.772ZM227.565 74.172C227.733 74.172 227.877 74.152 227.997 74.112V74.976C227.813 75.024 227.589 75.048 227.325 75.048C226.741 75.048 226.317 74.912 226.053 74.64C225.797 74.368 225.669 73.92 225.669 73.296V69.744H224.613V68.904H225.669V67.428H226.725V68.904H227.937V69.744H226.725V73.188C226.725 73.54 226.789 73.792 226.917 73.944C227.045 74.096 227.261 74.172 227.565 74.172ZM197.286 85.96H195.882L195.57 87.928H196.986L196.854 88.708H195.438L195.078 91H194.166L194.526 88.708H192.798L192.438 91H191.526L191.886 88.708H190.47L190.59 87.928H192.018L192.33 85.96H190.902L191.022 85.168H192.45L192.81 82.912H193.722L193.362 85.168H195.09L195.45 82.912H196.362L196.002 85.168H197.418L197.286 85.96ZM194.658 87.928L194.97 85.96H193.242L192.93 87.928H194.658ZM199.223 91V82.456H201.827C203.243 82.456 204.335 82.828 205.103 83.572C205.871 84.308 206.255 85.36 206.255 86.728C206.255 88.096 205.871 89.152 205.103 89.896C204.335 90.632 203.243 91 201.827 91H199.223ZM201.815 83.44H200.327V90.016H201.815C202.879 90.016 203.691 89.736 204.251 89.176C204.811 88.616 205.091 87.8 205.091 86.728C205.091 85.656 204.811 84.84 204.251 84.28C203.691 83.72 202.879 83.44 201.815 83.44ZM213.642 82.456V83.44H209.238V86.14H213.39V87.112H209.238V90.016H213.774V91H208.134V82.456H213.642ZM221.3 82.456V83.44H216.896V86.14H221.048V87.112H216.896V90.016H221.432V91H215.792V82.456H221.3ZM228.958 82.456V83.44H224.554V86.14H228.706V87.112H224.554V90.016H229.09V91H223.45V82.456H228.958ZM236.616 82.456V83.44H232.212V86.14H236.364V87.112H232.212V90.016H236.748V91H231.108V82.456H236.616ZM240.71 82.912V91H239.618V85.108H237.806V84.268C238.438 84.268 238.902 84.164 239.198 83.956C239.502 83.748 239.694 83.4 239.774 82.912H240.71Z" fill="#003218"/>
<rect y="184" width="96" height="96" fill="#9BB2DD"/>
<path d="M23.0867 220.748C23.8627 220.748 24.4827 221.036 24.9467 221.612C25.4107 222.188 25.6427 222.964 25.6427 223.94C25.6427 224.916 25.4107 225.696 24.9467 226.28C24.4907 226.856 23.8747 227.144 23.0987 227.144C22.6907 227.144 22.3187 227.056 21.9827 226.88C21.6547 226.696 21.4067 226.448 21.2387 226.136H21.2147V229.22H20.1587V220.904H21.2027V221.78H21.2267C21.3867 221.46 21.6347 221.208 21.9707 221.024C22.3067 220.84 22.6787 220.748 23.0867 220.748ZM22.8227 221.6C22.3187 221.6 21.9147 221.812 21.6107 222.236C21.3147 222.652 21.1667 223.22 21.1667 223.94C21.1667 224.66 21.3147 225.232 21.6107 225.656C21.9147 226.08 22.3187 226.292 22.8227 226.292C23.3427 226.292 23.7587 226.08 24.0707 225.656C24.3827 225.224 24.5387 224.652 24.5387 223.94C24.5387 223.228 24.3827 222.66 24.0707 222.236C23.7587 221.812 23.3427 221.6 22.8227 221.6ZM29.854 226.352C30.286 226.352 30.642 226.244 30.922 226.028C31.21 225.812 31.39 225.528 31.462 225.176H32.542C32.43 225.744 32.138 226.22 31.666 226.604C31.202 226.98 30.598 227.168 29.854 227.168C28.966 227.168 28.266 226.872 27.754 226.28C27.242 225.68 26.986 224.876 26.986 223.868C26.986 222.948 27.238 222.196 27.742 221.612C28.254 221.028 28.946 220.736 29.818 220.736C30.498 220.736 31.07 220.924 31.534 221.3C32.006 221.676 32.322 222.196 32.482 222.86C32.562 223.188 32.602 223.624 32.602 224.168H28.042C28.066 224.888 28.242 225.432 28.57 225.8C28.906 226.168 29.334 226.352 29.854 226.352ZM29.818 221.552C29.322 221.552 28.918 221.712 28.606 222.032C28.294 222.344 28.11 222.788 28.054 223.364H31.558C31.502 222.78 31.318 222.332 31.006 222.02C30.694 221.708 30.298 221.552 29.818 221.552ZM37.0996 220.844C37.2756 220.844 37.4236 220.86 37.5436 220.892V221.84C37.2796 221.816 37.1396 221.804 37.1236 221.804C36.5476 221.804 36.1036 221.984 35.7916 222.344C35.4796 222.704 35.3236 223.22 35.3236 223.892V227H34.2676V220.904H35.2756V221.84H35.2996C35.6996 221.176 36.2996 220.844 37.0996 220.844ZM39.9113 220.904V227H38.8553V220.904H39.9113ZM39.9113 218.456V219.644H38.8553V218.456H39.9113ZM50.245 220.904L48.625 227H47.113L46.393 224.36C46.017 222.888 45.793 222.008 45.721 221.72H45.697C45.625 222.008 45.401 222.888 45.025 224.36L44.305 227H42.793L41.173 220.904H42.241L42.889 223.448C43.081 224.216 43.305 225.128 43.561 226.184H43.585C43.801 225.272 44.025 224.38 44.257 223.508L44.953 220.904H46.465L47.161 223.508C47.369 224.308 47.593 225.2 47.833 226.184H47.857C48.113 225.128 48.337 224.216 48.529 223.448L49.177 220.904H50.245ZM52.5554 220.904V227H51.4994V220.904H52.5554ZM52.5554 218.456V219.644H51.4994V218.456H52.5554ZM57.561 220.772C58.265 220.772 58.809 220.984 59.193 221.408C59.577 221.832 59.769 222.456 59.769 223.28V227H58.713V223.364C58.713 222.748 58.593 222.308 58.353 222.044C58.113 221.772 57.765 221.636 57.309 221.636C56.853 221.636 56.473 221.8 56.169 222.128C55.873 222.456 55.725 222.916 55.725 223.508V227H54.669V220.904H55.689V221.708H55.713C56.121 221.084 56.737 220.772 57.561 220.772ZM63.9351 223.664L66.9951 227H65.6031L62.9031 223.952H62.8791V227H61.8231V218.456H62.8791V223.436H62.9031L65.3631 220.904H66.6711L63.9351 223.664ZM69.0019 218.456V227H67.9459V218.456H69.0019ZM73.5396 226.352C73.9716 226.352 74.3276 226.244 74.6076 226.028C74.8956 225.812 75.0756 225.528 75.1476 225.176H76.2276C76.1156 225.744 75.8236 226.22 75.3516 226.604C74.8876 226.98 74.2836 227.168 73.5396 227.168C72.6516 227.168 71.9516 226.872 71.4396 226.28C70.9276 225.68 70.6716 224.876 70.6716 223.868C70.6716 222.948 70.9236 222.196 71.4276 221.612C71.9396 221.028 72.6316 220.736 73.5036 220.736C74.1836 220.736 74.7556 220.924 75.2196 221.3C75.6916 221.676 76.0076 222.196 76.1676 222.86C76.2476 223.188 76.2876 223.624 76.2876 224.168H71.7276C71.7516 224.888 71.9276 225.432 72.2556 225.8C72.5916 226.168 73.0196 226.352 73.5396 226.352ZM73.5036 221.552C73.0076 221.552 72.6036 221.712 72.2916 222.032C71.9796 222.344 71.7956 222.788 71.7396 223.364H75.2436C75.1876 222.78 75.0036 222.332 74.6916 222.02C74.3796 221.708 73.9836 221.552 73.5036 221.552ZM27.6039 237.96H26.1999L25.8879 239.928H27.3039L27.1719 240.708H25.7559L25.3959 243H24.4839L24.8439 240.708H23.1159L22.7559 243H21.8439L22.2039 240.708H20.7879L20.9079 239.928H22.3359L22.6479 237.96H21.2199L21.3399 237.168H22.7679L23.1279 234.912H24.0399L23.6799 237.168H25.4079L25.7679 234.912H26.6799L26.3199 237.168H27.7359L27.6039 237.96ZM24.9759 239.928L25.2879 237.96H23.5599L23.2479 239.928H24.9759ZM31.5569 243.168C30.8369 243.168 30.2569 242.968 29.8169 242.568C29.3849 242.168 29.1369 241.62 29.0729 240.924H30.2009C30.3369 241.78 30.8009 242.208 31.5929 242.208C32.1849 242.208 32.6489 241.956 32.9849 241.452C33.3289 240.948 33.5129 240.18 33.5369 239.148H33.5129C33.0409 239.836 32.3769 240.18 31.5209 240.18C30.7529 240.18 30.1329 239.936 29.6609 239.448C29.1889 238.96 28.9529 238.32 28.9529 237.528C28.9529 236.704 29.2089 236.036 29.7209 235.524C30.2329 235.004 30.9009 234.744 31.7249 234.744C32.6449 234.744 33.3489 235.072 33.8369 235.728C34.3329 236.384 34.5809 237.356 34.5809 238.644C34.5809 240.108 34.3169 241.228 33.7889 242.004C33.2609 242.78 32.5169 243.168 31.5569 243.168ZM31.7009 239.28C32.1889 239.28 32.5809 239.116 32.8769 238.788C33.1809 238.452 33.3329 238.024 33.3329 237.504C33.3329 236.952 33.1889 236.516 32.9009 236.196C32.6129 235.868 32.2209 235.704 31.7249 235.704C31.2369 235.704 30.8449 235.868 30.5489 236.196C30.2529 236.524 30.1049 236.96 30.1049 237.504C30.1049 238.032 30.2489 238.46 30.5369 238.788C30.8329 239.116 31.2209 239.28 31.7009 239.28ZM36.5777 243V234.456H39.3617C40.3137 234.456 41.0297 234.652 41.5097 235.044C41.9977 235.428 42.2417 235.956 42.2417 236.628C42.2417 237.612 41.7697 238.276 40.8257 238.62V238.644C41.3377 238.764 41.7337 239 42.0137 239.352C42.2937 239.696 42.4337 240.128 42.4337 240.648C42.4337 241.368 42.1817 241.94 41.6777 242.364C41.1737 242.788 40.4777 243 39.5897 243H36.5777ZM39.2777 239.112H37.6817V242.064H39.4337C40.6737 242.064 41.2937 241.572 41.2937 240.588C41.2937 239.604 40.6217 239.112 39.2777 239.112ZM39.3257 235.392H37.6817V238.188H39.2777C40.5257 238.188 41.1497 237.72 41.1497 236.784C41.1497 235.856 40.5417 235.392 39.3257 235.392ZM44.3412 243V234.456H47.1252C48.0772 234.456 48.7932 234.652 49.2732 235.044C49.7612 235.428 50.0052 235.956 50.0052 236.628C50.0052 237.612 49.5332 238.276 48.5892 238.62V238.644C49.1012 238.764 49.4972 239 49.7772 239.352C50.0572 239.696 50.1972 240.128 50.1972 240.648C50.1972 241.368 49.9452 241.94 49.4412 242.364C48.9372 242.788 48.2412 243 47.3532 243H44.3412ZM47.0412 239.112H45.4452V242.064H47.1972C48.4372 242.064 49.0572 241.572 49.0572 240.588C49.0572 239.604 48.3852 239.112 47.0412 239.112ZM47.0892 235.392H45.4452V238.188H47.0412C48.2892 238.188 48.9132 237.72 48.9132 236.784C48.9132 235.856 48.3052 235.392 47.0892 235.392ZM54.4206 234.744C55.1966 234.744 55.8206 234.952 56.2926 235.368C56.7726 235.776 57.0126 236.32 57.0126 237C57.0126 237.648 56.8326 238.172 56.4726 238.572C56.1126 238.964 55.5486 239.384 54.7806 239.832C54.0126 240.28 53.4966 240.664 53.2326 240.984C52.9766 241.296 52.8446 241.652 52.8366 242.052H57.1926V243H51.6246C51.6166 242.944 51.6126 242.864 51.6126 242.76C51.6126 241.952 51.7686 241.296 52.0806 240.792C52.4006 240.28 53.0366 239.744 53.9886 239.184C54.6846 238.776 55.1686 238.432 55.4406 238.152C55.7206 237.864 55.8606 237.488 55.8606 237.024C55.8606 236.632 55.7286 236.316 55.4646 236.076C55.2086 235.828 54.8606 235.704 54.4206 235.704C53.4286 235.704 52.9006 236.232 52.8366 237.288H51.7206C51.7526 236.488 52.0086 235.864 52.4886 235.416C52.9686 234.968 53.6126 234.744 54.4206 234.744ZM59.1884 243V234.456H61.7924C63.2084 234.456 64.3004 234.828 65.0684 235.572C65.8364 236.308 66.2204 237.36 66.2204 238.728C66.2204 240.096 65.8364 241.152 65.0684 241.896C64.3004 242.632 63.2084 243 61.7924 243H59.1884ZM61.7804 235.44H60.2924V242.016H61.7804C62.8444 242.016 63.6564 241.736 64.2164 241.176C64.7764 240.616 65.0564 239.8 65.0564 238.728C65.0564 237.656 64.7764 236.84 64.2164 236.28C63.6564 235.72 62.8444 235.44 61.7804 235.44ZM68.1002 243V234.456H70.7042C72.1202 234.456 73.2122 234.828 73.9802 235.572C74.7482 236.308 75.1322 237.36 75.1322 238.728C75.1322 240.096 74.7482 241.152 73.9802 241.896C73.2122 242.632 72.1202 243 70.7042 243H68.1002ZM70.6922 235.44H69.2042V242.016H70.6922C71.7562 242.016 72.5682 241.736 73.1282 241.176C73.6882 240.616 73.9682 239.8 73.9682 238.728C73.9682 237.656 73.6882 236.84 73.1282 236.28C72.5682 235.72 71.7562 235.44 70.6922 235.44Z" fill="#003218"/>
<rect x="112" y="184" width="96" height="96" fill="#FAC0B5"/>
<path d="M152.119 220.844C152.295 220.844 152.443 220.86 152.563 220.892V221.84C152.299 221.816 152.159 221.804 152.143 221.804C151.567 221.804 151.123 221.984 150.811 222.344C150.499 222.704 150.343 223.22 150.343 223.892V227H149.287V220.904H150.295V221.84H150.319C150.719 221.176 151.319 220.844 152.119 220.844ZM153.976 221.6C154.496 221.024 155.204 220.736 156.1 220.736C156.996 220.736 157.704 221.024 158.224 221.6C158.744 222.176 159.004 222.96 159.004 223.952C159.004 224.944 158.744 225.728 158.224 226.304C157.704 226.88 156.996 227.168 156.1 227.168C155.204 227.168 154.496 226.88 153.976 226.304C153.464 225.728 153.208 224.944 153.208 223.952C153.208 222.96 153.464 222.176 153.976 221.6ZM156.1 221.6C155.548 221.6 155.112 221.812 154.792 222.236C154.472 222.652 154.312 223.224 154.312 223.952C154.312 224.68 154.472 225.256 154.792 225.68C155.112 226.096 155.548 226.304 156.1 226.304C156.66 226.304 157.1 226.096 157.42 225.68C157.74 225.256 157.9 224.68 157.9 223.952C157.9 223.224 157.74 222.652 157.42 222.236C157.1 221.812 156.66 221.6 156.1 221.6ZM162.679 220.736C163.431 220.736 164.015 220.916 164.431 221.276C164.847 221.636 165.055 222.148 165.055 222.812H164.023C164.023 222.404 163.903 222.092 163.663 221.876C163.431 221.66 163.099 221.552 162.667 221.552C162.299 221.552 162.007 221.632 161.791 221.792C161.583 221.944 161.479 222.152 161.479 222.416C161.479 222.712 161.575 222.916 161.767 223.028C161.967 223.14 162.359 223.264 162.943 223.4C163.727 223.592 164.255 223.776 164.527 223.952C164.999 224.272 165.239 224.736 165.247 225.344C165.247 225.896 165.027 226.34 164.587 226.676C164.155 227.004 163.571 227.168 162.835 227.168C162.027 227.168 161.399 226.98 160.951 226.604C160.511 226.228 160.287 225.684 160.279 224.972H161.347C161.347 225.404 161.475 225.74 161.731 225.98C161.995 226.212 162.367 226.328 162.847 226.328C163.247 226.328 163.567 226.244 163.807 226.076C164.047 225.908 164.167 225.688 164.167 225.416C164.167 225.088 164.051 224.86 163.819 224.732C163.595 224.596 163.151 224.448 162.487 224.288C161.783 224.112 161.311 223.948 161.071 223.796C160.639 223.524 160.423 223.092 160.423 222.5C160.423 221.98 160.631 221.556 161.047 221.228C161.471 220.9 162.015 220.736 162.679 220.736ZM169.411 226.352C169.843 226.352 170.199 226.244 170.479 226.028C170.767 225.812 170.947 225.528 171.019 225.176H172.099C171.987 225.744 171.695 226.22 171.223 226.604C170.759 226.98 170.155 227.168 169.411 227.168C168.523 227.168 167.823 226.872 167.311 226.28C166.799 225.68 166.543 224.876 166.543 223.868C166.543 222.948 166.795 222.196 167.299 221.612C167.811 221.028 168.503 220.736 169.375 220.736C170.055 220.736 170.627 220.924 171.091 221.3C171.563 221.676 171.879 222.196 172.039 222.86C172.119 223.188 172.159 223.624 172.159 224.168H167.599C167.623 224.888 167.799 225.432 168.127 225.8C168.463 226.168 168.891 226.352 169.411 226.352ZM169.375 221.552C168.879 221.552 168.475 221.712 168.163 222.032C167.851 222.344 167.667 222.788 167.611 223.364H171.115C171.059 222.78 170.875 222.332 170.563 222.02C170.251 221.708 169.855 221.552 169.375 221.552ZM141.311 237.96H139.907L139.595 239.928H141.011L140.879 240.708H139.463L139.103 243H138.191L138.551 240.708H136.823L136.463 243H135.551L135.911 240.708H134.495L134.615 239.928H136.043L136.355 237.96H134.927L135.047 237.168H136.475L136.835 234.912H137.747L137.387 237.168H139.115L139.475 234.912H140.387L140.027 237.168H141.443L141.311 237.96ZM138.683 239.928L138.995 237.96H137.267L136.955 239.928H138.683ZM148.6 234.456V235.44H144.352V238.356H148.336V239.34H144.352V243H143.248V234.456H148.6ZM155.388 243L154.464 240.456H150.696L149.76 243H148.584L151.824 234.456H153.324L156.576 243H155.388ZM151.044 239.484H154.104L153.828 238.704C153.34 237.352 152.928 236.192 152.592 235.224H152.568C152.232 236.192 151.82 237.352 151.332 238.704L151.044 239.484ZM160.852 234.288C161.852 234.288 162.656 234.572 163.264 235.14C163.872 235.708 164.2 236.444 164.248 237.348H163.108C163.052 236.716 162.82 236.216 162.412 235.848C162.012 235.48 161.492 235.296 160.852 235.296C160.044 235.296 159.408 235.604 158.944 236.22C158.488 236.828 158.26 237.664 158.26 238.728C158.26 239.792 158.488 240.632 158.944 241.248C159.4 241.856 160.024 242.16 160.816 242.16C161.448 242.16 161.972 241.972 162.388 241.596C162.804 241.22 163.056 240.708 163.144 240.06H164.296C164.208 241.02 163.856 241.78 163.24 242.34C162.624 242.892 161.816 243.168 160.816 243.168C159.672 243.168 158.768 242.772 158.104 241.98C157.44 241.188 157.108 240.104 157.108 238.728C157.108 237.352 157.44 236.268 158.104 235.476C158.776 234.684 159.692 234.288 160.852 234.288ZM166.473 235.836C166.977 235.108 167.701 234.744 168.645 234.744C169.589 234.744 170.313 235.108 170.817 235.836C171.321 236.556 171.573 237.596 171.573 238.956C171.573 240.316 171.321 241.36 170.817 242.088C170.313 242.808 169.589 243.168 168.645 243.168C167.701 243.168 166.977 242.808 166.473 242.088C165.969 241.36 165.717 240.316 165.717 238.956C165.717 237.596 165.969 236.556 166.473 235.836ZM168.645 235.716C168.061 235.716 167.617 235.992 167.313 236.544C167.009 237.096 166.857 237.9 166.857 238.956C166.857 240.02 167.009 240.832 167.313 241.392C167.617 241.944 168.061 242.22 168.645 242.22C169.221 242.22 169.661 241.944 169.965 241.392C170.269 240.832 170.421 240.02 170.421 238.956C170.421 237.9 170.269 237.096 169.965 236.544C169.661 235.992 169.221 235.716 168.645 235.716ZM173.563 243V234.456H176.347C177.299 234.456 178.015 234.652 178.495 235.044C178.983 235.428 179.227 235.956 179.227 236.628C179.227 237.612 178.755 238.276 177.811 238.62V238.644C178.323 238.764 178.719 239 178.999 239.352C179.279 239.696 179.419 240.128 179.419 240.648C179.419 241.368 179.167 241.94 178.663 242.364C178.159 242.788 177.463 243 176.575 243H173.563ZM176.263 239.112H174.667V242.064H176.419C177.659 242.064 178.279 241.572 178.279 240.588C178.279 239.604 177.607 239.112 176.263 239.112ZM176.311 235.392H174.667V238.188H176.263C177.511 238.188 178.135 237.72 178.135 236.784C178.135 235.856 177.527 235.392 176.311 235.392ZM185.923 234.912V235.848H182.263L182.023 238.356H182.047C182.431 237.908 182.975 237.684 183.679 237.684C184.471 237.684 185.103 237.928 185.575 238.416C186.055 238.896 186.295 239.54 186.295 240.348C186.295 241.204 186.035 241.888 185.515 242.4C185.003 242.912 184.319 243.168 183.463 243.168C182.663 243.168 182.023 242.96 181.543 242.544C181.071 242.128 180.835 241.564 180.835 240.852H181.963C181.971 241.276 182.111 241.608 182.383 241.848C182.663 242.088 183.023 242.208 183.463 242.208C183.983 242.208 184.395 242.048 184.699 241.728C185.003 241.4 185.155 240.952 185.155 240.384C185.155 239.832 185.007 239.4 184.711 239.088C184.423 238.776 184.027 238.62 183.523 238.62C182.699 238.62 182.187 239 181.987 239.76L180.895 239.688L181.339 234.912H185.923Z" fill="#003218"/>
<rect x="224" y="184" width="96" height="96" fill="#92D2C4"/>
<path d="M248.612 226.172C248.78 226.172 248.924 226.152 249.044 226.112V226.976C248.86 227.024 248.636 227.048 248.372 227.048C247.788 227.048 247.364 226.912 247.1 226.64C246.844 226.368 246.716 225.92 246.716 225.296V221.744H245.66V220.904H246.716V219.428H247.772V220.904H248.984V221.744H247.772V225.188C247.772 225.54 247.836 225.792 247.964 225.944C248.092 226.096 248.308 226.172 248.612 226.172ZM252.684 227.132C251.98 227.132 251.436 226.92 251.052 226.496C250.676 226.072 250.488 225.448 250.488 224.624V220.904H251.544V224.54C251.544 225.156 251.664 225.6 251.904 225.872C252.144 226.136 252.492 226.268 252.948 226.268C253.396 226.268 253.772 226.104 254.076 225.776C254.38 225.44 254.532 224.98 254.532 224.396V220.904H255.588V227H254.568V226.196H254.544C254.352 226.484 254.092 226.712 253.764 226.88C253.444 227.048 253.084 227.132 252.684 227.132ZM260.534 220.844C260.71 220.844 260.858 220.86 260.978 220.892V221.84C260.714 221.816 260.574 221.804 260.558 221.804C259.982 221.804 259.538 221.984 259.226 222.344C258.914 222.704 258.758 223.22 258.758 223.892V227H257.702V220.904H258.71V221.84H258.734C259.134 221.176 259.734 220.844 260.534 220.844ZM264.179 220.748C264.595 220.748 264.967 220.84 265.295 221.024C265.631 221.208 265.883 221.46 266.051 221.78H266.075V220.904H267.107V229.22H266.051V226.136H266.027C265.859 226.448 265.607 226.696 265.271 226.88C264.943 227.056 264.575 227.144 264.167 227.144C263.391 227.144 262.771 226.856 262.307 226.28C261.851 225.696 261.623 224.916 261.623 223.94C261.623 222.964 261.855 222.188 262.319 221.612C262.783 221.036 263.403 220.748 264.179 220.748ZM264.443 221.6C263.923 221.6 263.507 221.812 263.195 222.236C262.883 222.66 262.727 223.228 262.727 223.94C262.727 224.652 262.883 225.224 263.195 225.656C263.507 226.08 263.923 226.292 264.443 226.292C264.947 226.292 265.351 226.08 265.655 225.656C265.959 225.232 266.111 224.66 266.111 223.94C266.111 223.22 265.959 222.652 265.655 222.236C265.351 221.812 264.947 221.6 264.443 221.6ZM271.357 227.132C270.653 227.132 270.109 226.92 269.725 226.496C269.349 226.072 269.161 225.448 269.161 224.624V220.904H270.217V224.54C270.217 225.156 270.337 225.6 270.577 225.872C270.817 226.136 271.165 226.268 271.621 226.268C272.069 226.268 272.445 226.104 272.749 225.776C273.053 225.44 273.205 224.98 273.205 224.396V220.904H274.261V227H273.241V226.196H273.217C273.025 226.484 272.765 226.712 272.437 226.88C272.117 227.048 271.757 227.132 271.357 227.132ZM276.699 221.6C277.219 221.024 277.927 220.736 278.823 220.736C279.719 220.736 280.427 221.024 280.947 221.6C281.467 222.176 281.727 222.96 281.727 223.952C281.727 224.944 281.467 225.728 280.947 226.304C280.427 226.88 279.719 227.168 278.823 227.168C277.927 227.168 277.219 226.88 276.699 226.304C276.187 225.728 275.931 224.944 275.931 223.952C275.931 222.96 276.187 222.176 276.699 221.6ZM278.823 221.6C278.271 221.6 277.835 221.812 277.515 222.236C277.195 222.652 277.035 223.224 277.035 223.952C277.035 224.68 277.195 225.256 277.515 225.68C277.835 226.096 278.271 226.304 278.823 226.304C279.383 226.304 279.823 226.096 280.143 225.68C280.463 225.256 280.623 224.68 280.623 223.952C280.623 223.224 280.463 222.652 280.143 222.236C279.823 221.812 279.383 221.6 278.823 221.6ZM284.456 220.904V227H283.4V220.904H284.456ZM284.456 218.456V219.644H283.4V218.456H284.456ZM288.502 220.736C289.254 220.736 289.838 220.916 290.254 221.276C290.67 221.636 290.878 222.148 290.878 222.812H289.846C289.846 222.404 289.726 222.092 289.486 221.876C289.254 221.66 288.922 221.552 288.49 221.552C288.122 221.552 287.83 221.632 287.614 221.792C287.406 221.944 287.302 222.152 287.302 222.416C287.302 222.712 287.398 222.916 287.59 223.028C287.79 223.14 288.182 223.264 288.766 223.4C289.55 223.592 290.078 223.776 290.35 223.952C290.822 224.272 291.062 224.736 291.07 225.344C291.07 225.896 290.85 226.34 290.41 226.676C289.978 227.004 289.394 227.168 288.658 227.168C287.85 227.168 287.222 226.98 286.774 226.604C286.334 226.228 286.11 225.684 286.102 224.972H287.17C287.17 225.404 287.298 225.74 287.554 225.98C287.818 226.212 288.19 226.328 288.67 226.328C289.07 226.328 289.39 226.244 289.63 226.076C289.87 225.908 289.99 225.688 289.99 225.416C289.99 225.088 289.874 224.86 289.642 224.732C289.418 224.596 288.974 224.448 288.31 224.288C287.606 224.112 287.134 223.948 286.894 223.796C286.462 223.524 286.246 223.092 286.246 222.5C286.246 221.98 286.454 221.556 286.87 221.228C287.294 220.9 287.838 220.736 288.502 220.736ZM295.234 226.352C295.666 226.352 296.022 226.244 296.302 226.028C296.59 225.812 296.77 225.528 296.842 225.176H297.922C297.81 225.744 297.518 226.22 297.046 226.604C296.582 226.98 295.978 227.168 295.234 227.168C294.346 227.168 293.646 226.872 293.134 226.28C292.622 225.68 292.366 224.876 292.366 223.868C292.366 222.948 292.618 222.196 293.122 221.612C293.634 221.028 294.326 220.736 295.198 220.736C295.878 220.736 296.45 220.924 296.914 221.3C297.386 221.676 297.702 222.196 297.862 222.86C297.942 223.188 297.982 223.624 297.982 224.168H293.422C293.446 224.888 293.622 225.432 293.95 225.8C294.286 226.168 294.714 226.352 295.234 226.352ZM295.198 221.552C294.702 221.552 294.298 221.712 293.986 222.032C293.674 222.344 293.49 222.788 293.434 223.364H296.938C296.882 222.78 296.698 222.332 296.386 222.02C296.074 221.708 295.678 221.552 295.198 221.552ZM252.723 237.96H251.319L251.007 239.928H252.423L252.291 240.708H250.875L250.515 243H249.603L249.963 240.708H248.235L247.875 243H246.963L247.323 240.708H245.907L246.027 239.928H247.455L247.767 237.96H246.339L246.459 237.168H247.887L248.247 234.912H249.159L248.799 237.168H250.527L250.887 234.912H251.799L251.439 237.168H252.855L252.723 237.96ZM250.095 239.928L250.407 237.96H248.679L248.367 239.928H250.095ZM256.676 243.168C255.956 243.168 255.376 242.968 254.936 242.568C254.504 242.168 254.256 241.62 254.192 240.924H255.32C255.456 241.78 255.92 242.208 256.712 242.208C257.304 242.208 257.768 241.956 258.104 241.452C258.448 240.948 258.632 240.18 258.656 239.148H258.632C258.16 239.836 257.496 240.18 256.64 240.18C255.872 240.18 255.252 239.936 254.78 239.448C254.308 238.96 254.072 238.32 254.072 237.528C254.072 236.704 254.328 236.036 254.84 235.524C255.352 235.004 256.02 234.744 256.844 234.744C257.764 234.744 258.468 235.072 258.956 235.728C259.452 236.384 259.7 237.356 259.7 238.644C259.7 240.108 259.436 241.228 258.908 242.004C258.38 242.78 257.636 243.168 256.676 243.168ZM256.82 239.28C257.308 239.28 257.7 239.116 257.996 238.788C258.3 238.452 258.452 238.024 258.452 237.504C258.452 236.952 258.308 236.516 258.02 236.196C257.732 235.868 257.34 235.704 256.844 235.704C256.356 235.704 255.964 235.868 255.668 236.196C255.372 236.524 255.224 236.96 255.224 237.504C255.224 238.032 255.368 238.46 255.656 238.788C255.952 239.116 256.34 239.28 256.82 239.28ZM263.779 234.744C264.555 234.744 265.179 234.952 265.651 235.368C266.131 235.776 266.371 236.32 266.371 237C266.371 237.648 266.191 238.172 265.831 238.572C265.471 238.964 264.907 239.384 264.139 239.832C263.371 240.28 262.855 240.664 262.591 240.984C262.335 241.296 262.203 241.652 262.195 242.052H266.551V243H260.983C260.975 242.944 260.971 242.864 260.971 242.76C260.971 241.952 261.127 241.296 261.439 240.792C261.759 240.28 262.395 239.744 263.347 239.184C264.043 238.776 264.527 238.432 264.799 238.152C265.079 237.864 265.219 237.488 265.219 237.024C265.219 236.632 265.087 236.316 264.823 236.076C264.567 235.828 264.219 235.704 263.779 235.704C262.787 235.704 262.259 236.232 262.195 237.288H261.079C261.111 236.488 261.367 235.864 261.847 235.416C262.327 234.968 262.971 234.744 263.779 234.744ZM268.546 243V234.456H271.15C272.566 234.456 273.658 234.828 274.426 235.572C275.194 236.308 275.578 237.36 275.578 238.728C275.578 240.096 275.194 241.152 274.426 241.896C273.658 242.632 272.566 243 271.15 243H268.546ZM271.138 235.44H269.65V242.016H271.138C272.202 242.016 273.014 241.736 273.574 241.176C274.134 240.616 274.414 239.8 274.414 238.728C274.414 237.656 274.134 236.84 273.574 236.28C273.014 235.72 272.202 235.44 271.138 235.44ZM279.774 234.744C280.55 234.744 281.174 234.952 281.646 235.368C282.126 235.776 282.366 236.32 282.366 237C282.366 237.648 282.186 238.172 281.826 238.572C281.466 238.964 280.902 239.384 280.134 239.832C279.366 240.28 278.85 240.664 278.586 240.984C278.33 241.296 278.198 241.652 278.19 242.052H282.546V243H276.978C276.97 242.944 276.966 242.864 276.966 242.76C276.966 241.952 277.122 241.296 277.434 240.792C277.754 240.28 278.39 239.744 279.342 239.184C280.038 238.776 280.522 238.432 280.794 238.152C281.074 237.864 281.214 237.488 281.214 237.024C281.214 236.632 281.082 236.316 280.818 236.076C280.562 235.828 280.214 235.704 279.774 235.704C278.782 235.704 278.254 236.232 278.19 237.288H277.074C277.106 236.488 277.362 235.864 277.842 235.416C278.322 234.968 278.966 234.744 279.774 234.744ZM287.662 234.288C288.662 234.288 289.466 234.572 290.074 235.14C290.682 235.708 291.01 236.444 291.058 237.348H289.918C289.862 236.716 289.63 236.216 289.222 235.848C288.822 235.48 288.302 235.296 287.662 235.296C286.854 235.296 286.218 235.604 285.754 236.22C285.298 236.828 285.07 237.664 285.07 238.728C285.07 239.792 285.298 240.632 285.754 241.248C286.21 241.856 286.834 242.16 287.626 242.16C288.258 242.16 288.782 241.972 289.198 241.596C289.614 241.22 289.866 240.708 289.954 240.06H291.106C291.018 241.02 290.666 241.78 290.05 242.34C289.434 242.892 288.626 243.168 287.626 243.168C286.482 243.168 285.578 242.772 284.914 241.98C284.25 241.188 283.918 240.104 283.918 238.728C283.918 237.352 284.25 236.268 284.914 235.476C285.586 234.684 286.502 234.288 287.662 234.288ZM298.323 240V240.912H297.003V243H295.911V240.912H292.095V239.916L295.527 234.912H297.003V240H298.323ZM294.075 238.668L293.151 240H295.923V238.896C295.923 237.896 295.935 236.892 295.959 235.884H295.935C295.367 236.764 294.747 237.692 294.075 238.668Z" fill="#003218"/>
<rect x="56" y="296" width="96" height="96" fill="#A5D05C"/>
<path d="M92.0022 332.748C92.8022 332.748 93.4102 333.096 93.8262 333.792H93.8502V332.904H94.8702V338.628C94.8702 339.516 94.6422 340.184 94.1862 340.632C93.7302 341.088 93.0702 341.316 92.2062 341.316C91.4302 341.316 90.8182 341.144 90.3702 340.8C89.9302 340.456 89.7022 339.984 89.6862 339.384H90.7422C90.7582 339.736 90.8942 340.008 91.1502 340.2C91.4142 340.4 91.7702 340.5 92.2182 340.5C92.7702 340.5 93.1782 340.348 93.4422 340.044C93.7062 339.74 93.8382 339.252 93.8382 338.58V337.92H93.8142C93.3742 338.6 92.7702 338.94 92.0022 338.94C91.2182 338.94 90.5902 338.66 90.1182 338.1C89.6542 337.532 89.4222 336.78 89.4222 335.844C89.4222 334.9 89.6542 334.148 90.1182 333.588C90.5902 333.028 91.2182 332.748 92.0022 332.748ZM92.1702 333.624C91.6742 333.624 91.2742 333.828 90.9702 334.236C90.6742 334.636 90.5262 335.172 90.5262 335.844C90.5262 336.508 90.6742 337.044 90.9702 337.452C91.2742 337.852 91.6742 338.052 92.1702 338.052C92.6982 338.052 93.1142 337.856 93.4182 337.464C93.7222 337.064 93.8742 336.524 93.8742 335.844C93.8742 335.156 93.7222 334.616 93.4182 334.224C93.1142 333.824 92.6982 333.624 92.1702 333.624ZM99.8171 332.844C99.9931 332.844 100.141 332.86 100.261 332.892V333.84C99.9971 333.816 99.8571 333.804 99.8411 333.804C99.2651 333.804 98.8211 333.984 98.5091 334.344C98.1971 334.704 98.0411 335.22 98.0411 335.892V339H96.9851V332.904H97.9931V333.84H98.0171C98.4171 333.176 99.0171 332.844 99.8171 332.844ZM103.463 332.736C104.223 332.736 104.811 332.936 105.227 333.336C105.651 333.728 105.863 334.316 105.863 335.1V337.44C105.863 338.056 105.911 338.576 106.007 339H105.047C104.991 338.744 104.963 338.448 104.963 338.112H104.939C104.499 338.792 103.795 339.132 102.827 339.132C102.203 339.132 101.703 338.968 101.327 338.64C100.951 338.304 100.763 337.872 100.763 337.344C100.763 336.816 100.935 336.4 101.279 336.096C101.631 335.784 102.231 335.56 103.079 335.424C103.671 335.328 104.259 335.26 104.843 335.22V334.98C104.843 334.492 104.719 334.132 104.471 333.9C104.231 333.668 103.895 333.552 103.463 333.552C103.031 333.552 102.695 333.664 102.455 333.888C102.215 334.104 102.087 334.396 102.071 334.764H101.015C101.047 334.164 101.275 333.676 101.699 333.3C102.123 332.924 102.711 332.736 103.463 332.736ZM104.843 336.396V336.024C104.227 336.072 103.695 336.136 103.247 336.216C102.735 336.296 102.371 336.416 102.155 336.576C101.947 336.736 101.843 336.968 101.843 337.272C101.843 337.592 101.951 337.848 102.167 338.04C102.391 338.224 102.699 338.316 103.091 338.316C103.627 338.316 104.047 338.156 104.351 337.836C104.535 337.644 104.663 337.448 104.735 337.248C104.807 337.04 104.843 336.756 104.843 336.396ZM109.838 332.736C110.59 332.736 111.174 332.916 111.59 333.276C112.006 333.636 112.214 334.148 112.214 334.812H111.182C111.182 334.404 111.062 334.092 110.822 333.876C110.59 333.66 110.258 333.552 109.826 333.552C109.458 333.552 109.166 333.632 108.95 333.792C108.742 333.944 108.638 334.152 108.638 334.416C108.638 334.712 108.734 334.916 108.926 335.028C109.126 335.14 109.518 335.264 110.102 335.4C110.886 335.592 111.414 335.776 111.686 335.952C112.158 336.272 112.398 336.736 112.406 337.344C112.406 337.896 112.186 338.34 111.746 338.676C111.314 339.004 110.73 339.168 109.994 339.168C109.186 339.168 108.558 338.98 108.11 338.604C107.67 338.228 107.446 337.684 107.438 336.972H108.506C108.506 337.404 108.634 337.74 108.89 337.98C109.154 338.212 109.526 338.328 110.006 338.328C110.406 338.328 110.726 338.244 110.966 338.076C111.206 337.908 111.326 337.688 111.326 337.416C111.326 337.088 111.21 336.86 110.978 336.732C110.754 336.596 110.31 336.448 109.646 336.288C108.942 336.112 108.47 335.948 108.23 335.796C107.798 335.524 107.582 335.092 107.582 334.5C107.582 333.98 107.79 333.556 108.206 333.228C108.63 332.9 109.174 332.736 109.838 332.736ZM116.008 332.736C116.76 332.736 117.344 332.916 117.76 333.276C118.176 333.636 118.384 334.148 118.384 334.812H117.352C117.352 334.404 117.232 334.092 116.992 333.876C116.76 333.66 116.428 333.552 115.996 333.552C115.628 333.552 115.336 333.632 115.12 333.792C114.912 333.944 114.808 334.152 114.808 334.416C114.808 334.712 114.904 334.916 115.096 335.028C115.296 335.14 115.688 335.264 116.272 335.4C117.056 335.592 117.584 335.776 117.856 335.952C118.328 336.272 118.568 336.736 118.576 337.344C118.576 337.896 118.356 338.34 117.916 338.676C117.484 339.004 116.9 339.168 116.164 339.168C115.356 339.168 114.728 338.98 114.28 338.604C113.84 338.228 113.616 337.684 113.608 336.972H114.676C114.676 337.404 114.804 337.74 115.06 337.98C115.324 338.212 115.696 338.328 116.176 338.328C116.576 338.328 116.896 338.244 117.136 338.076C117.376 337.908 117.496 337.688 117.496 337.416C117.496 337.088 117.38 336.86 117.148 336.732C116.924 336.596 116.48 336.448 115.816 336.288C115.112 336.112 114.64 335.948 114.4 335.796C113.968 335.524 113.752 335.092 113.752 334.5C113.752 333.98 113.96 333.556 114.376 333.228C114.8 332.9 115.344 332.736 116.008 332.736ZM83.7035 349.96H82.2995L81.9875 351.928H83.4035L83.2715 352.708H81.8555L81.4955 355H80.5835L80.9435 352.708H79.2155L78.8555 355H77.9435L78.3035 352.708H76.8875L77.0075 351.928H78.4355L78.7475 349.96H77.3195L77.4395 349.168H78.8675L79.2275 346.912H80.1395L79.7795 349.168H81.5075L81.8675 346.912H82.7795L82.4195 349.168H83.8355L83.7035 349.96ZM81.0755 351.928L81.3875 349.96H79.6595L79.3475 351.928H81.0755ZM91.3645 355L90.4405 352.456H86.6725L85.7365 355H84.5605L87.8005 346.456H89.3005L92.5525 355H91.3645ZM87.0205 351.484H90.0805L89.8045 350.704C89.3165 349.352 88.9045 348.192 88.5685 347.224H88.5445C88.2085 348.192 87.7965 349.352 87.3085 350.704L87.0205 351.484ZM98.5741 346.912V347.848H94.9141L94.6741 350.356H94.6981C95.0821 349.908 95.6261 349.684 96.3301 349.684C97.1221 349.684 97.7541 349.928 98.2261 350.416C98.7061 350.896 98.9461 351.54 98.9461 352.348C98.9461 353.204 98.6861 353.888 98.1661 354.4C97.6541 354.912 96.9701 355.168 96.1141 355.168C95.3141 355.168 94.6741 354.96 94.1941 354.544C93.7221 354.128 93.4861 353.564 93.4861 352.852H94.6141C94.6221 353.276 94.7621 353.608 95.0341 353.848C95.3141 354.088 95.6741 354.208 96.1141 354.208C96.6341 354.208 97.0461 354.048 97.3501 353.728C97.6541 353.4 97.8061 352.952 97.8061 352.384C97.8061 351.832 97.6581 351.4 97.3621 351.088C97.0741 350.776 96.6781 350.62 96.1741 350.62C95.3501 350.62 94.8381 351 94.6381 351.76L93.5461 351.688L93.9901 346.912H98.5741ZM100.956 355V346.456H103.56C104.976 346.456 106.068 346.828 106.836 347.572C107.604 348.308 107.988 349.36 107.988 350.728C107.988 352.096 107.604 353.152 106.836 353.896C106.068 354.632 104.976 355 103.56 355H100.956ZM103.548 347.44H102.06V354.016H103.548C104.612 354.016 105.424 353.736 105.984 353.176C106.544 352.616 106.824 351.8 106.824 350.728C106.824 349.656 106.544 348.84 105.984 348.28C105.424 347.72 104.612 347.44 103.548 347.44ZM110.331 347.836C110.835 347.108 111.559 346.744 112.503 346.744C113.447 346.744 114.171 347.108 114.675 347.836C115.179 348.556 115.431 349.596 115.431 350.956C115.431 352.316 115.179 353.36 114.675 354.088C114.171 354.808 113.447 355.168 112.503 355.168C111.559 355.168 110.835 354.808 110.331 354.088C109.827 353.36 109.575 352.316 109.575 350.956C109.575 349.596 109.827 348.556 110.331 347.836ZM112.503 347.716C111.919 347.716 111.475 347.992 111.171 348.544C110.867 349.096 110.715 349.9 110.715 350.956C110.715 352.02 110.867 352.832 111.171 353.392C111.475 353.944 111.919 354.22 112.503 354.22C113.079 354.22 113.519 353.944 113.823 353.392C114.127 352.832 114.279 352.02 114.279 350.956C114.279 349.9 114.127 349.096 113.823 348.544C113.519 347.992 113.079 347.716 112.503 347.716ZM122.017 346.912V347.848H118.357L118.117 350.356H118.141C118.525 349.908 119.069 349.684 119.773 349.684C120.565 349.684 121.197 349.928 121.669 350.416C122.149 350.896 122.389 351.54 122.389 352.348C122.389 353.204 122.129 353.888 121.609 354.4C121.097 354.912 120.413 355.168 119.557 355.168C118.757 355.168 118.117 354.96 117.637 354.544C117.165 354.128 116.929 353.564 116.929 352.852H118.057C118.065 353.276 118.205 353.608 118.477 353.848C118.757 354.088 119.117 354.208 119.557 354.208C120.077 354.208 120.489 354.048 120.793 353.728C121.097 353.4 121.249 352.952 121.249 352.384C121.249 351.832 121.101 351.4 120.805 351.088C120.517 350.776 120.121 350.62 119.617 350.62C118.793 350.62 118.281 351 118.081 351.76L116.989 351.688L117.433 346.912H122.017ZM127.519 346.288C128.519 346.288 129.323 346.572 129.931 347.14C130.539 347.708 130.867 348.444 130.915 349.348H129.775C129.719 348.716 129.487 348.216 129.079 347.848C128.679 347.48 128.159 347.296 127.519 347.296C126.711 347.296 126.075 347.604 125.611 348.22C125.155 348.828 124.927 349.664 124.927 350.728C124.927 351.792 125.155 352.632 125.611 353.248C126.067 353.856 126.691 354.16 127.483 354.16C128.115 354.16 128.639 353.972 129.055 353.596C129.471 353.22 129.723 352.708 129.811 352.06H130.963C130.875 353.02 130.523 353.78 129.907 354.34C129.291 354.892 128.483 355.168 127.483 355.168C126.339 355.168 125.435 354.772 124.771 353.98C124.107 353.188 123.775 352.104 123.775 350.728C123.775 349.352 124.107 348.268 124.771 347.476C125.443 346.684 126.359 346.288 127.519 346.288Z" fill="#003218"/>
<rect x="168" y="296" width="96" height="96" fill="#FFD675"/>
<path d="M210.09 332.904H211.206L208.758 339.276C208.462 340.044 208.134 340.568 207.774 340.848C207.422 341.128 206.914 341.268 206.25 341.268C206.01 341.268 205.826 341.248 205.698 341.208V340.32C205.842 340.368 206.01 340.392 206.202 340.392C206.602 340.392 206.902 340.3 207.102 340.116C207.31 339.932 207.514 339.568 207.714 339.024L205.398 332.904H206.538L208.29 337.752H208.314L210.09 332.904ZM212.595 333.6C213.115 333.024 213.823 332.736 214.719 332.736C215.615 332.736 216.323 333.024 216.843 333.6C217.363 334.176 217.623 334.96 217.623 335.952C217.623 336.944 217.363 337.728 216.843 338.304C216.323 338.88 215.615 339.168 214.719 339.168C213.823 339.168 213.115 338.88 212.595 338.304C212.083 337.728 211.827 336.944 211.827 335.952C211.827 334.96 212.083 334.176 212.595 333.6ZM214.719 333.6C214.167 333.6 213.731 333.812 213.411 334.236C213.091 334.652 212.931 335.224 212.931 335.952C212.931 336.68 213.091 337.256 213.411 337.68C213.731 338.096 214.167 338.304 214.719 338.304C215.279 338.304 215.719 338.096 216.039 337.68C216.359 337.256 216.519 336.68 216.519 335.952C216.519 335.224 216.359 334.652 216.039 334.236C215.719 333.812 215.279 333.6 214.719 333.6ZM220.352 330.456V339H219.296V330.456H220.352ZM224.578 335.664L227.638 339H226.246L223.546 335.952H223.522V339H222.466V330.456H223.522V335.436H223.546L226.006 332.904H227.314L224.578 335.664ZM198.436 349.96H197.032L196.72 351.928H198.136L198.004 352.708H196.588L196.228 355H195.316L195.676 352.708H193.948L193.588 355H192.676L193.036 352.708H191.62L191.74 351.928H193.168L193.48 349.96H192.052L192.172 349.168H193.6L193.96 346.912H194.872L194.512 349.168H196.24L196.6 346.912H197.512L197.152 349.168H198.568L198.436 349.96ZM195.808 351.928L196.12 349.96H194.392L194.08 351.928H195.808ZM205.725 346.456V347.44H201.477V350.356H205.461V351.34H201.477V355H200.373V346.456H205.725ZM212.844 346.456V347.44H208.596V350.356H212.58V351.34H208.596V355H207.492V346.456H212.844ZM214.611 355V346.456H217.215C218.631 346.456 219.723 346.828 220.491 347.572C221.259 348.308 221.643 349.36 221.643 350.728C221.643 352.096 221.259 353.152 220.491 353.896C219.723 354.632 218.631 355 217.215 355H214.611ZM217.203 347.44H215.715V354.016H217.203C218.267 354.016 219.079 353.736 219.639 353.176C220.199 352.616 220.479 351.8 220.479 350.728C220.479 349.656 220.199 348.84 219.639 348.28C219.079 347.72 218.267 347.44 217.203 347.44ZM226.253 346.744C226.973 346.744 227.549 346.944 227.981 347.344C228.421 347.744 228.673 348.292 228.737 348.988H227.609C227.473 348.132 227.009 347.704 226.217 347.704C225.625 347.704 225.157 347.956 224.813 348.46C224.477 348.964 224.297 349.732 224.273 350.764H224.297C224.769 350.076 225.433 349.732 226.289 349.732C227.057 349.732 227.677 349.976 228.149 350.464C228.621 350.952 228.857 351.592 228.857 352.384C228.857 353.208 228.601 353.88 228.089 354.4C227.577 354.912 226.909 355.168 226.085 355.168C225.165 355.168 224.457 354.84 223.961 354.184C223.473 353.528 223.229 352.556 223.229 351.268C223.229 349.804 223.489 348.684 224.009 347.908C224.537 347.132 225.285 346.744 226.253 346.744ZM226.109 350.632C225.621 350.632 225.225 350.8 224.921 351.136C224.625 351.464 224.477 351.888 224.477 352.408C224.477 352.96 224.621 353.4 224.909 353.728C225.197 354.048 225.589 354.208 226.085 354.208C226.573 354.208 226.965 354.044 227.261 353.716C227.557 353.388 227.705 352.952 227.705 352.408C227.705 351.88 227.557 351.452 227.261 351.124C226.973 350.796 226.589 350.632 226.109 350.632ZM229.599 346.912H234.867V347.884C233.515 349.868 232.575 352.24 232.047 355H230.835C231.459 352.168 232.427 349.792 233.739 347.872H229.599V346.912ZM240.798 346.912V347.848H237.138L236.898 350.356H236.922C237.306 349.908 237.85 349.684 238.554 349.684C239.346 349.684 239.978 349.928 240.45 350.416C240.93 350.896 241.17 351.54 241.17 352.348C241.17 353.204 240.91 353.888 240.39 354.4C239.878 354.912 239.194 355.168 238.338 355.168C237.538 355.168 236.898 354.96 236.418 354.544C235.946 354.128 235.71 353.564 235.71 352.852H236.838C236.846 353.276 236.986 353.608 237.258 353.848C237.538 354.088 237.898 354.208 238.338 354.208C238.858 354.208 239.27 354.048 239.574 353.728C239.878 353.4 240.03 352.952 240.03 352.384C240.03 351.832 239.882 351.4 239.586 351.088C239.298 350.776 238.902 350.62 238.398 350.62C237.574 350.62 237.062 351 236.862 351.76L235.77 351.688L236.214 346.912H240.798Z" fill="#003218"/>
<rect x="56" y="32" width="96" height="96" fill="#003218"/>
<path d="M96.5309 68.772C97.1869 68.772 97.6909 68.98 98.0429 69.396C98.4029 69.812 98.5829 70.424 98.5829 71.232V75H97.5269V71.316C97.5269 70.196 97.1109 69.636 96.2789 69.636C95.8389 69.636 95.4869 69.808 95.2229 70.152C94.9669 70.496 94.8389 70.96 94.8389 71.544V75H93.7829V71.16C93.7829 70.68 93.6749 70.308 93.4589 70.044C93.2429 69.772 92.9389 69.636 92.5469 69.636C92.0989 69.636 91.7429 69.812 91.4789 70.164C91.2229 70.516 91.0949 71 91.0949 71.616V75H90.0389V68.904H91.0589V69.66H91.0829C91.5149 69.068 92.0829 68.772 92.7869 68.772C93.6669 68.772 94.2709 69.156 94.5989 69.924C95.0309 69.156 95.6749 68.772 96.5309 68.772ZM100.962 69.6C101.482 69.024 102.19 68.736 103.086 68.736C103.982 68.736 104.69 69.024 105.21 69.6C105.73 70.176 105.99 70.96 105.99 71.952C105.99 72.944 105.73 73.728 105.21 74.304C104.69 74.88 103.982 75.168 103.086 75.168C102.19 75.168 101.482 74.88 100.962 74.304C100.45 73.728 100.194 72.944 100.194 71.952C100.194 70.96 100.45 70.176 100.962 69.6ZM103.086 69.6C102.534 69.6 102.098 69.812 101.778 70.236C101.458 70.652 101.298 71.224 101.298 71.952C101.298 72.68 101.458 73.256 101.778 73.68C102.098 74.096 102.534 74.304 103.086 74.304C103.646 74.304 104.086 74.096 104.406 73.68C104.726 73.256 104.886 72.68 104.886 71.952C104.886 71.224 104.726 70.652 104.406 70.236C104.086 69.812 103.646 69.6 103.086 69.6ZM109.666 68.736C110.418 68.736 111.002 68.916 111.418 69.276C111.834 69.636 112.042 70.148 112.042 70.812H111.01C111.01 70.404 110.89 70.092 110.65 69.876C110.418 69.66 110.086 69.552 109.654 69.552C109.286 69.552 108.994 69.632 108.778 69.792C108.57 69.944 108.466 70.152 108.466 70.416C108.466 70.712 108.562 70.916 108.754 71.028C108.954 71.14 109.346 71.264 109.93 71.4C110.714 71.592 111.242 71.776 111.514 71.952C111.986 72.272 112.226 72.736 112.234 73.344C112.234 73.896 112.014 74.34 111.574 74.676C111.142 75.004 110.558 75.168 109.822 75.168C109.014 75.168 108.386 74.98 107.938 74.604C107.498 74.228 107.274 73.684 107.266 72.972H108.334C108.334 73.404 108.462 73.74 108.718 73.98C108.982 74.212 109.354 74.328 109.834 74.328C110.234 74.328 110.554 74.244 110.794 74.076C111.034 73.908 111.154 73.688 111.154 73.416C111.154 73.088 111.038 72.86 110.806 72.732C110.582 72.596 110.138 72.448 109.474 72.288C108.77 72.112 108.298 71.948 108.058 71.796C107.626 71.524 107.41 71.092 107.41 70.5C107.41 69.98 107.618 69.556 108.034 69.228C108.458 68.9 109.002 68.736 109.666 68.736ZM115.835 68.736C116.587 68.736 117.171 68.916 117.587 69.276C118.003 69.636 118.211 70.148 118.211 70.812H117.179C117.179 70.404 117.059 70.092 116.819 69.876C116.587 69.66 116.255 69.552 115.823 69.552C115.455 69.552 115.163 69.632 114.947 69.792C114.739 69.944 114.635 70.152 114.635 70.416C114.635 70.712 114.731 70.916 114.923 71.028C115.123 71.14 115.515 71.264 116.099 71.4C116.883 71.592 117.411 71.776 117.683 71.952C118.155 72.272 118.395 72.736 118.403 73.344C118.403 73.896 118.183 74.34 117.743 74.676C117.311 75.004 116.727 75.168 115.991 75.168C115.183 75.168 114.555 74.98 114.107 74.604C113.667 74.228 113.443 73.684 113.435 72.972H114.503C114.503 73.404 114.631 73.74 114.887 73.98C115.151 74.212 115.523 74.328 116.003 74.328C116.403 74.328 116.723 74.244 116.963 74.076C117.203 73.908 117.323 73.688 117.323 73.416C117.323 73.088 117.207 72.86 116.975 72.732C116.751 72.596 116.307 72.448 115.643 72.288C114.939 72.112 114.467 71.948 114.227 71.796C113.795 71.524 113.579 71.092 113.579 70.5C113.579 69.98 113.787 69.556 114.203 69.228C114.627 68.9 115.171 68.736 115.835 68.736ZM87.2543 85.96H85.8503L85.5383 87.928H86.9543L86.8223 88.708H85.4063L85.0463 91H84.1343L84.4943 88.708H82.7663L82.4063 91H81.4943L81.8543 88.708H80.4383L80.5583 87.928H81.9863L82.2983 85.96H80.8703L80.9903 85.168H82.4183L82.7783 82.912H83.6903L83.3303 85.168H85.0583L85.4183 82.912H86.3303L85.9703 85.168H87.3863L87.2543 85.96ZM84.6263 87.928L84.9383 85.96H83.2103L82.8983 87.928H84.6263ZM89.4193 83.836C89.9233 83.108 90.6473 82.744 91.5913 82.744C92.5353 82.744 93.2593 83.108 93.7633 83.836C94.2673 84.556 94.5193 85.596 94.5193 86.956C94.5193 88.316 94.2673 89.36 93.7633 90.088C93.2593 90.808 92.5353 91.168 91.5913 91.168C90.6473 91.168 89.9233 90.808 89.4193 90.088C88.9153 89.36 88.6633 88.316 88.6633 86.956C88.6633 85.596 88.9153 84.556 89.4193 83.836ZM91.5913 83.716C91.0073 83.716 90.5633 83.992 90.2593 84.544C89.9553 85.096 89.8033 85.9 89.8033 86.956C89.8033 88.02 89.9553 88.832 90.2593 89.392C90.5633 89.944 91.0073 90.22 91.5913 90.22C92.1673 90.22 92.6073 89.944 92.9113 89.392C93.2153 88.832 93.3673 88.02 93.3673 86.956C93.3673 85.9 93.2153 85.096 92.9113 84.544C92.6073 83.992 92.1673 83.716 91.5913 83.716ZM96.8546 83.836C97.3586 83.108 98.0826 82.744 99.0266 82.744C99.9706 82.744 100.695 83.108 101.199 83.836C101.703 84.556 101.955 85.596 101.955 86.956C101.955 88.316 101.703 89.36 101.199 90.088C100.695 90.808 99.9706 91.168 99.0266 91.168C98.0826 91.168 97.3586 90.808 96.8546 90.088C96.3506 89.36 96.0986 88.316 96.0986 86.956C96.0986 85.596 96.3506 84.556 96.8546 83.836ZM99.0266 83.716C98.4426 83.716 97.9986 83.992 97.6946 84.544C97.3906 85.096 97.2386 85.9 97.2386 86.956C97.2386 88.02 97.3906 88.832 97.6946 89.392C97.9986 89.944 98.4426 90.22 99.0266 90.22C99.6026 90.22 100.043 89.944 100.347 89.392C100.651 88.832 100.803 88.02 100.803 86.956C100.803 85.9 100.651 85.096 100.347 84.544C100.043 83.992 99.6026 83.716 99.0266 83.716ZM106.026 82.744C106.802 82.744 107.426 82.952 107.898 83.368C108.378 83.776 108.618 84.32 108.618 85C108.618 85.648 108.438 86.172 108.078 86.572C107.718 86.964 107.154 87.384 106.386 87.832C105.618 88.28 105.102 88.664 104.838 88.984C104.582 89.296 104.45 89.652 104.442 90.052H108.798V91H103.23C103.222 90.944 103.218 90.864 103.218 90.76C103.218 89.952 103.374 89.296 103.686 88.792C104.006 88.28 104.642 87.744 105.594 87.184C106.29 86.776 106.774 86.432 107.046 86.152C107.326 85.864 107.466 85.488 107.466 85.024C107.466 84.632 107.334 84.316 107.07 84.076C106.814 83.828 106.466 83.704 106.026 83.704C105.034 83.704 104.506 84.232 104.442 85.288H103.326C103.358 84.488 103.614 83.864 104.094 83.416C104.574 82.968 105.218 82.744 106.026 82.744ZM113.173 82.744C113.893 82.744 114.469 82.944 114.901 83.344C115.341 83.744 115.593 84.292 115.657 84.988H114.529C114.393 84.132 113.929 83.704 113.137 83.704C112.545 83.704 112.077 83.956 111.733 84.46C111.397 84.964 111.217 85.732 111.193 86.764H111.217C111.689 86.076 112.353 85.732 113.209 85.732C113.977 85.732 114.597 85.976 115.069 86.464C115.541 86.952 115.777 87.592 115.777 88.384C115.777 89.208 115.521 89.88 115.009 90.4C114.497 90.912 113.829 91.168 113.005 91.168C112.085 91.168 111.377 90.84 110.881 90.184C110.393 89.528 110.149 88.556 110.149 87.268C110.149 85.804 110.409 84.684 110.929 83.908C111.457 83.132 112.205 82.744 113.173 82.744ZM113.029 86.632C112.541 86.632 112.145 86.8 111.841 87.136C111.545 87.464 111.397 87.888 111.397 88.408C111.397 88.96 111.541 89.4 111.829 89.728C112.117 90.048 112.509 90.208 113.005 90.208C113.493 90.208 113.885 90.044 114.181 89.716C114.477 89.388 114.625 88.952 114.625 88.408C114.625 87.88 114.477 87.452 114.181 87.124C113.893 86.796 113.509 86.632 113.029 86.632ZM119.658 82.912V91H118.566V85.108H116.754V84.268C117.386 84.268 117.85 84.164 118.146 83.956C118.45 83.748 118.642 83.4 118.722 82.912H119.658ZM124.594 82.744C125.37 82.744 125.994 82.952 126.466 83.368C126.946 83.776 127.186 84.32 127.186 85C127.186 85.648 127.006 86.172 126.646 86.572C126.286 86.964 125.722 87.384 124.954 87.832C124.186 88.28 123.67 88.664 123.406 88.984C123.15 89.296 123.018 89.652 123.01 90.052H127.366V91H121.798C121.79 90.944 121.786 90.864 121.786 90.76C121.786 89.952 121.942 89.296 122.254 88.792C122.574 88.28 123.21 87.744 124.162 87.184C124.858 86.776 125.342 86.432 125.614 86.152C125.894 85.864 126.034 85.488 126.034 85.024C126.034 84.632 125.902 84.316 125.638 84.076C125.382 83.828 125.034 83.704 124.594 83.704C123.602 83.704 123.074 84.232 123.01 85.288H121.894C121.926 84.488 122.182 83.864 122.662 83.416C123.142 82.968 123.786 82.744 124.594 82.744Z" fill="#DEEEE1"/>
</svg>
