<svg width="320" height="208" viewBox="0 0 320 208" fill="none" xmlns="http://www.w3.org/2000/svg">
<rect x="112" width="96" height="96" fill="#DEEEE1"/>
<path d="M155.103 36.772C155.759 36.772 156.263 36.98 156.615 37.396C156.975 37.812 157.155 38.424 157.155 39.232V43H156.099V39.316C156.099 38.196 155.683 37.636 154.851 37.636C154.411 37.636 154.059 37.808 153.795 38.152C153.539 38.496 153.411 38.96 153.411 39.544V43H152.355V39.16C152.355 38.68 152.247 38.308 152.031 38.044C151.815 37.772 151.511 37.636 151.119 37.636C150.671 37.636 150.315 37.812 150.051 38.164C149.795 38.516 149.667 39 149.667 39.616V43H148.611V36.904H149.631V37.66H149.655C150.087 37.068 150.655 36.772 151.359 36.772C152.239 36.772 152.843 37.156 153.171 37.924C153.603 37.156 154.247 36.772 155.103 36.772ZM160.267 36.904V43H159.211V36.904H160.267ZM160.267 34.456V35.644H159.211V34.456H160.267ZM165.272 36.772C165.976 36.772 166.52 36.984 166.904 37.408C167.288 37.832 167.48 38.456 167.48 39.28V43H166.424V39.364C166.424 38.748 166.304 38.308 166.064 38.044C165.824 37.772 165.476 37.636 165.02 37.636C164.564 37.636 164.184 37.8 163.88 38.128C163.584 38.456 163.436 38.916 163.436 39.508V43H162.38V36.904H163.4V37.708H163.424C163.832 37.084 164.448 36.772 165.272 36.772ZM171.565 42.172C171.733 42.172 171.877 42.152 171.997 42.112V42.976C171.813 43.024 171.589 43.048 171.325 43.048C170.741 43.048 170.317 42.912 170.053 42.64C169.797 42.368 169.669 41.92 169.669 41.296V37.744H168.613V36.904H169.669V35.428H170.725V36.904H171.937V37.744H170.725V41.188C170.725 41.54 170.789 41.792 170.917 41.944C171.045 42.096 171.261 42.172 171.565 42.172ZM141.286 53.96H139.882L139.57 55.928H140.986L140.854 56.708H139.438L139.078 59H138.166L138.526 56.708H136.798L136.438 59H135.526L135.886 56.708H134.47L134.59 55.928H136.018L136.33 53.96H134.902L135.022 53.168H136.45L136.81 50.912H137.722L137.362 53.168H139.09L139.45 50.912H140.362L140.002 53.168H141.418L141.286 53.96ZM138.658 55.928L138.97 53.96H137.242L136.93 55.928H138.658ZM143.223 59V50.456H145.827C147.243 50.456 148.335 50.828 149.103 51.572C149.871 52.308 150.255 53.36 150.255 54.728C150.255 56.096 149.871 57.152 149.103 57.896C148.335 58.632 147.243 59 145.827 59H143.223ZM145.815 51.44H144.327V58.016H145.815C146.879 58.016 147.691 57.736 148.251 57.176C148.811 56.616 149.091 55.8 149.091 54.728C149.091 53.656 148.811 52.84 148.251 52.28C147.691 51.72 146.879 51.44 145.815 51.44ZM157.642 50.456V51.44H153.238V54.14H157.39V55.112H153.238V58.016H157.774V59H152.134V50.456H157.642ZM165.3 50.456V51.44H160.896V54.14H165.048V55.112H160.896V58.016H165.432V59H159.792V50.456H165.3ZM172.958 50.456V51.44H168.554V54.14H172.706V55.112H168.554V58.016H173.09V59H167.45V50.456H172.958ZM180.616 50.456V51.44H176.212V54.14H180.364V55.112H176.212V58.016H180.748V59H175.108V50.456H180.616ZM184.71 50.912V59H183.618V53.108H181.806V52.268C182.438 52.268 182.902 52.164 183.198 51.956C183.502 51.748 183.694 51.4 183.774 50.912H184.71Z" fill="#003218"/>
<rect y="112" width="96" height="96" fill="#9BB2DD"/>
<path d="M23.0867 148.748C23.8627 148.748 24.4827 149.036 24.9467 149.612C25.4107 150.188 25.6427 150.964 25.6427 151.94C25.6427 152.916 25.4107 153.696 24.9467 154.28C24.4907 154.856 23.8747 155.144 23.0987 155.144C22.6907 155.144 22.3187 155.056 21.9827 154.88C21.6547 154.696 21.4067 154.448 21.2387 154.136H21.2147V157.22H20.1587V148.904H21.2027V149.78H21.2267C21.3867 149.46 21.6347 149.208 21.9707 149.024C22.3067 148.84 22.6787 148.748 23.0867 148.748ZM22.8227 149.6C22.3187 149.6 21.9147 149.812 21.6107 150.236C21.3147 150.652 21.1667 151.22 21.1667 151.94C21.1667 152.66 21.3147 153.232 21.6107 153.656C21.9147 154.08 22.3187 154.292 22.8227 154.292C23.3427 154.292 23.7587 154.08 24.0707 153.656C24.3827 153.224 24.5387 152.652 24.5387 151.94C24.5387 151.228 24.3827 150.66 24.0707 150.236C23.7587 149.812 23.3427 149.6 22.8227 149.6ZM29.854 154.352C30.286 154.352 30.642 154.244 30.922 154.028C31.21 153.812 31.39 153.528 31.462 153.176H32.542C32.43 153.744 32.138 154.22 31.666 154.604C31.202 154.98 30.598 155.168 29.854 155.168C28.966 155.168 28.266 154.872 27.754 154.28C27.242 153.68 26.986 152.876 26.986 151.868C26.986 150.948 27.238 150.196 27.742 149.612C28.254 149.028 28.946 148.736 29.818 148.736C30.498 148.736 31.07 148.924 31.534 149.3C32.006 149.676 32.322 150.196 32.482 150.86C32.562 151.188 32.602 151.624 32.602 152.168H28.042C28.066 152.888 28.242 153.432 28.57 153.8C28.906 154.168 29.334 154.352 29.854 154.352ZM29.818 149.552C29.322 149.552 28.918 149.712 28.606 150.032C28.294 150.344 28.11 150.788 28.054 151.364H31.558C31.502 150.78 31.318 150.332 31.006 150.02C30.694 149.708 30.298 149.552 29.818 149.552ZM37.0996 148.844C37.2756 148.844 37.4236 148.86 37.5436 148.892V149.84C37.2796 149.816 37.1396 149.804 37.1236 149.804C36.5476 149.804 36.1036 149.984 35.7916 150.344C35.4796 150.704 35.3236 151.22 35.3236 151.892V155H34.2676V148.904H35.2756V149.84H35.2996C35.6996 149.176 36.2996 148.844 37.0996 148.844ZM39.9113 148.904V155H38.8553V148.904H39.9113ZM39.9113 146.456V147.644H38.8553V146.456H39.9113ZM50.245 148.904L48.625 155H47.113L46.393 152.36C46.017 150.888 45.793 150.008 45.721 149.72H45.697C45.625 150.008 45.401 150.888 45.025 152.36L44.305 155H42.793L41.173 148.904H42.241L42.889 151.448C43.081 152.216 43.305 153.128 43.561 154.184H43.585C43.801 153.272 44.025 152.38 44.257 151.508L44.953 148.904H46.465L47.161 151.508C47.369 152.308 47.593 153.2 47.833 154.184H47.857C48.113 153.128 48.337 152.216 48.529 151.448L49.177 148.904H50.245ZM52.5554 148.904V155H51.4994V148.904H52.5554ZM52.5554 146.456V147.644H51.4994V146.456H52.5554ZM57.561 148.772C58.265 148.772 58.809 148.984 59.193 149.408C59.577 149.832 59.769 150.456 59.769 151.28V155H58.713V151.364C58.713 150.748 58.593 150.308 58.353 150.044C58.113 149.772 57.765 149.636 57.309 149.636C56.853 149.636 56.473 149.8 56.169 150.128C55.873 150.456 55.725 150.916 55.725 151.508V155H54.669V148.904H55.689V149.708H55.713C56.121 149.084 56.737 148.772 57.561 148.772ZM63.9351 151.664L66.9951 155H65.6031L62.9031 151.952H62.8791V155H61.8231V146.456H62.8791V151.436H62.9031L65.3631 148.904H66.6711L63.9351 151.664ZM69.0019 146.456V155H67.9459V146.456H69.0019ZM73.5396 154.352C73.9716 154.352 74.3276 154.244 74.6076 154.028C74.8956 153.812 75.0756 153.528 75.1476 153.176H76.2276C76.1156 153.744 75.8236 154.22 75.3516 154.604C74.8876 154.98 74.2836 155.168 73.5396 155.168C72.6516 155.168 71.9516 154.872 71.4396 154.28C70.9276 153.68 70.6716 152.876 70.6716 151.868C70.6716 150.948 70.9236 150.196 71.4276 149.612C71.9396 149.028 72.6316 148.736 73.5036 148.736C74.1836 148.736 74.7556 148.924 75.2196 149.3C75.6916 149.676 76.0076 150.196 76.1676 150.86C76.2476 151.188 76.2876 151.624 76.2876 152.168H71.7276C71.7516 152.888 71.9276 153.432 72.2556 153.8C72.5916 154.168 73.0196 154.352 73.5396 154.352ZM73.5036 149.552C73.0076 149.552 72.6036 149.712 72.2916 150.032C71.9796 150.344 71.7956 150.788 71.7396 151.364H75.2436C75.1876 150.78 75.0036 150.332 74.6916 150.02C74.3796 149.708 73.9836 149.552 73.5036 149.552ZM27.6039 165.96H26.1999L25.8879 167.928H27.3039L27.1719 168.708H25.7559L25.3959 171H24.4839L24.8439 168.708H23.1159L22.7559 171H21.8439L22.2039 168.708H20.7879L20.9079 167.928H22.3359L22.6479 165.96H21.2199L21.3399 165.168H22.7679L23.1279 162.912H24.0399L23.6799 165.168H25.4079L25.7679 162.912H26.6799L26.3199 165.168H27.7359L27.6039 165.96ZM24.9759 167.928L25.2879 165.96H23.5599L23.2479 167.928H24.9759ZM31.5569 171.168C30.8369 171.168 30.2569 170.968 29.8169 170.568C29.3849 170.168 29.1369 169.62 29.0729 168.924H30.2009C30.3369 169.78 30.8009 170.208 31.5929 170.208C32.1849 170.208 32.6489 169.956 32.9849 169.452C33.3289 168.948 33.5129 168.18 33.5369 167.148H33.5129C33.0409 167.836 32.3769 168.18 31.5209 168.18C30.7529 168.18 30.1329 167.936 29.6609 167.448C29.1889 166.96 28.9529 166.32 28.9529 165.528C28.9529 164.704 29.2089 164.036 29.7209 163.524C30.2329 163.004 30.9009 162.744 31.7249 162.744C32.6449 162.744 33.3489 163.072 33.8369 163.728C34.3329 164.384 34.5809 165.356 34.5809 166.644C34.5809 168.108 34.3169 169.228 33.7889 170.004C33.2609 170.78 32.5169 171.168 31.5569 171.168ZM31.7009 167.28C32.1889 167.28 32.5809 167.116 32.8769 166.788C33.1809 166.452 33.3329 166.024 33.3329 165.504C33.3329 164.952 33.1889 164.516 32.9009 164.196C32.6129 163.868 32.2209 163.704 31.7249 163.704C31.2369 163.704 30.8449 163.868 30.5489 164.196C30.2529 164.524 30.1049 164.96 30.1049 165.504C30.1049 166.032 30.2489 166.46 30.5369 166.788C30.8329 167.116 31.2209 167.28 31.7009 167.28ZM36.5777 171V162.456H39.3617C40.3137 162.456 41.0297 162.652 41.5097 163.044C41.9977 163.428 42.2417 163.956 42.2417 164.628C42.2417 165.612 41.7697 166.276 40.8257 166.62V166.644C41.3377 166.764 41.7337 167 42.0137 167.352C42.2937 167.696 42.4337 168.128 42.4337 168.648C42.4337 169.368 42.1817 169.94 41.6777 170.364C41.1737 170.788 40.4777 171 39.5897 171H36.5777ZM39.2777 167.112H37.6817V170.064H39.4337C40.6737 170.064 41.2937 169.572 41.2937 168.588C41.2937 167.604 40.6217 167.112 39.2777 167.112ZM39.3257 163.392H37.6817V166.188H39.2777C40.5257 166.188 41.1497 165.72 41.1497 164.784C41.1497 163.856 40.5417 163.392 39.3257 163.392ZM44.3412 171V162.456H47.1252C48.0772 162.456 48.7932 162.652 49.2732 163.044C49.7612 163.428 50.0052 163.956 50.0052 164.628C50.0052 165.612 49.5332 166.276 48.5892 166.62V166.644C49.1012 166.764 49.4972 167 49.7772 167.352C50.0572 167.696 50.1972 168.128 50.1972 168.648C50.1972 169.368 49.9452 169.94 49.4412 170.364C48.9372 170.788 48.2412 171 47.3532 171H44.3412ZM47.0412 167.112H45.4452V170.064H47.1972C48.4372 170.064 49.0572 169.572 49.0572 168.588C49.0572 167.604 48.3852 167.112 47.0412 167.112ZM47.0892 163.392H45.4452V166.188H47.0412C48.2892 166.188 48.9132 165.72 48.9132 164.784C48.9132 163.856 48.3052 163.392 47.0892 163.392ZM54.4206 162.744C55.1966 162.744 55.8206 162.952 56.2926 163.368C56.7726 163.776 57.0126 164.32 57.0126 165C57.0126 165.648 56.8326 166.172 56.4726 166.572C56.1126 166.964 55.5486 167.384 54.7806 167.832C54.0126 168.28 53.4966 168.664 53.2326 168.984C52.9766 169.296 52.8446 169.652 52.8366 170.052H57.1926V171H51.6246C51.6166 170.944 51.6126 170.864 51.6126 170.76C51.6126 169.952 51.7686 169.296 52.0806 168.792C52.4006 168.28 53.0366 167.744 53.9886 167.184C54.6846 166.776 55.1686 166.432 55.4406 166.152C55.7206 165.864 55.8606 165.488 55.8606 165.024C55.8606 164.632 55.7286 164.316 55.4646 164.076C55.2086 163.828 54.8606 163.704 54.4206 163.704C53.4286 163.704 52.9006 164.232 52.8366 165.288H51.7206C51.7526 164.488 52.0086 163.864 52.4886 163.416C52.9686 162.968 53.6126 162.744 54.4206 162.744ZM59.1884 171V162.456H61.7924C63.2084 162.456 64.3004 162.828 65.0684 163.572C65.8364 164.308 66.2204 165.36 66.2204 166.728C66.2204 168.096 65.8364 169.152 65.0684 169.896C64.3004 170.632 63.2084 171 61.7924 171H59.1884ZM61.7804 163.44H60.2924V170.016H61.7804C62.8444 170.016 63.6564 169.736 64.2164 169.176C64.7764 168.616 65.0564 167.8 65.0564 166.728C65.0564 165.656 64.7764 164.84 64.2164 164.28C63.6564 163.72 62.8444 163.44 61.7804 163.44ZM68.1002 171V162.456H70.7042C72.1202 162.456 73.2122 162.828 73.9802 163.572C74.7482 164.308 75.1322 165.36 75.1322 166.728C75.1322 168.096 74.7482 169.152 73.9802 169.896C73.2122 170.632 72.1202 171 70.7042 171H68.1002ZM70.6922 163.44H69.2042V170.016H70.6922C71.7562 170.016 72.5682 169.736 73.1282 169.176C73.6882 168.616 73.9682 167.8 73.9682 166.728C73.9682 165.656 73.6882 164.84 73.1282 164.28C72.5682 163.72 71.7562 163.44 70.6922 163.44Z" fill="#003218"/>
<rect x="112" y="112" width="96" height="96" fill="#FAC0B5"/>
<path d="M152.119 148.844C152.295 148.844 152.443 148.86 152.563 148.892V149.84C152.299 149.816 152.159 149.804 152.143 149.804C151.567 149.804 151.123 149.984 150.811 150.344C150.499 150.704 150.343 151.22 150.343 151.892V155H149.287V148.904H150.295V149.84H150.319C150.719 149.176 151.319 148.844 152.119 148.844ZM153.976 149.6C154.496 149.024 155.204 148.736 156.1 148.736C156.996 148.736 157.704 149.024 158.224 149.6C158.744 150.176 159.004 150.96 159.004 151.952C159.004 152.944 158.744 153.728 158.224 154.304C157.704 154.88 156.996 155.168 156.1 155.168C155.204 155.168 154.496 154.88 153.976 154.304C153.464 153.728 153.208 152.944 153.208 151.952C153.208 150.96 153.464 150.176 153.976 149.6ZM156.1 149.6C155.548 149.6 155.112 149.812 154.792 150.236C154.472 150.652 154.312 151.224 154.312 151.952C154.312 152.68 154.472 153.256 154.792 153.68C155.112 154.096 155.548 154.304 156.1 154.304C156.66 154.304 157.1 154.096 157.42 153.68C157.74 153.256 157.9 152.68 157.9 151.952C157.9 151.224 157.74 150.652 157.42 150.236C157.1 149.812 156.66 149.6 156.1 149.6ZM162.679 148.736C163.431 148.736 164.015 148.916 164.431 149.276C164.847 149.636 165.055 150.148 165.055 150.812H164.023C164.023 150.404 163.903 150.092 163.663 149.876C163.431 149.66 163.099 149.552 162.667 149.552C162.299 149.552 162.007 149.632 161.791 149.792C161.583 149.944 161.479 150.152 161.479 150.416C161.479 150.712 161.575 150.916 161.767 151.028C161.967 151.14 162.359 151.264 162.943 151.4C163.727 151.592 164.255 151.776 164.527 151.952C164.999 152.272 165.239 152.736 165.247 153.344C165.247 153.896 165.027 154.34 164.587 154.676C164.155 155.004 163.571 155.168 162.835 155.168C162.027 155.168 161.399 154.98 160.951 154.604C160.511 154.228 160.287 153.684 160.279 152.972H161.347C161.347 153.404 161.475 153.74 161.731 153.98C161.995 154.212 162.367 154.328 162.847 154.328C163.247 154.328 163.567 154.244 163.807 154.076C164.047 153.908 164.167 153.688 164.167 153.416C164.167 153.088 164.051 152.86 163.819 152.732C163.595 152.596 163.151 152.448 162.487 152.288C161.783 152.112 161.311 151.948 161.071 151.796C160.639 151.524 160.423 151.092 160.423 150.5C160.423 149.98 160.631 149.556 161.047 149.228C161.471 148.9 162.015 148.736 162.679 148.736ZM169.411 154.352C169.843 154.352 170.199 154.244 170.479 154.028C170.767 153.812 170.947 153.528 171.019 153.176H172.099C171.987 153.744 171.695 154.22 171.223 154.604C170.759 154.98 170.155 155.168 169.411 155.168C168.523 155.168 167.823 154.872 167.311 154.28C166.799 153.68 166.543 152.876 166.543 151.868C166.543 150.948 166.795 150.196 167.299 149.612C167.811 149.028 168.503 148.736 169.375 148.736C170.055 148.736 170.627 148.924 171.091 149.3C171.563 149.676 171.879 150.196 172.039 150.86C172.119 151.188 172.159 151.624 172.159 152.168H167.599C167.623 152.888 167.799 153.432 168.127 153.8C168.463 154.168 168.891 154.352 169.411 154.352ZM169.375 149.552C168.879 149.552 168.475 149.712 168.163 150.032C167.851 150.344 167.667 150.788 167.611 151.364H171.115C171.059 150.78 170.875 150.332 170.563 150.02C170.251 149.708 169.855 149.552 169.375 149.552ZM141.311 165.96H139.907L139.595 167.928H141.011L140.879 168.708H139.463L139.103 171H138.191L138.551 168.708H136.823L136.463 171H135.551L135.911 168.708H134.495L134.615 167.928H136.043L136.355 165.96H134.927L135.047 165.168H136.475L136.835 162.912H137.747L137.387 165.168H139.115L139.475 162.912H140.387L140.027 165.168H141.443L141.311 165.96ZM138.683 167.928L138.995 165.96H137.267L136.955 167.928H138.683ZM148.6 162.456V163.44H144.352V166.356H148.336V167.34H144.352V171H143.248V162.456H148.6ZM155.388 171L154.464 168.456H150.696L149.76 171H148.584L151.824 162.456H153.324L156.576 171H155.388ZM151.044 167.484H154.104L153.828 166.704C153.34 165.352 152.928 164.192 152.592 163.224H152.568C152.232 164.192 151.82 165.352 151.332 166.704L151.044 167.484ZM160.852 162.288C161.852 162.288 162.656 162.572 163.264 163.14C163.872 163.708 164.2 164.444 164.248 165.348H163.108C163.052 164.716 162.82 164.216 162.412 163.848C162.012 163.48 161.492 163.296 160.852 163.296C160.044 163.296 159.408 163.604 158.944 164.22C158.488 164.828 158.26 165.664 158.26 166.728C158.26 167.792 158.488 168.632 158.944 169.248C159.4 169.856 160.024 170.16 160.816 170.16C161.448 170.16 161.972 169.972 162.388 169.596C162.804 169.22 163.056 168.708 163.144 168.06H164.296C164.208 169.02 163.856 169.78 163.24 170.34C162.624 170.892 161.816 171.168 160.816 171.168C159.672 171.168 158.768 170.772 158.104 169.98C157.44 169.188 157.108 168.104 157.108 166.728C157.108 165.352 157.44 164.268 158.104 163.476C158.776 162.684 159.692 162.288 160.852 162.288ZM166.473 163.836C166.977 163.108 167.701 162.744 168.645 162.744C169.589 162.744 170.313 163.108 170.817 163.836C171.321 164.556 171.573 165.596 171.573 166.956C171.573 168.316 171.321 169.36 170.817 170.088C170.313 170.808 169.589 171.168 168.645 171.168C167.701 171.168 166.977 170.808 166.473 170.088C165.969 169.36 165.717 168.316 165.717 166.956C165.717 165.596 165.969 164.556 166.473 163.836ZM168.645 163.716C168.061 163.716 167.617 163.992 167.313 164.544C167.009 165.096 166.857 165.9 166.857 166.956C166.857 168.02 167.009 168.832 167.313 169.392C167.617 169.944 168.061 170.22 168.645 170.22C169.221 170.22 169.661 169.944 169.965 169.392C170.269 168.832 170.421 168.02 170.421 166.956C170.421 165.9 170.269 165.096 169.965 164.544C169.661 163.992 169.221 163.716 168.645 163.716ZM173.563 171V162.456H176.347C177.299 162.456 178.015 162.652 178.495 163.044C178.983 163.428 179.227 163.956 179.227 164.628C179.227 165.612 178.755 166.276 177.811 166.62V166.644C178.323 166.764 178.719 167 178.999 167.352C179.279 167.696 179.419 168.128 179.419 168.648C179.419 169.368 179.167 169.94 178.663 170.364C178.159 170.788 177.463 171 176.575 171H173.563ZM176.263 167.112H174.667V170.064H176.419C177.659 170.064 178.279 169.572 178.279 168.588C178.279 167.604 177.607 167.112 176.263 167.112ZM176.311 163.392H174.667V166.188H176.263C177.511 166.188 178.135 165.72 178.135 164.784C178.135 163.856 177.527 163.392 176.311 163.392ZM185.923 162.912V163.848H182.263L182.023 166.356H182.047C182.431 165.908 182.975 165.684 183.679 165.684C184.471 165.684 185.103 165.928 185.575 166.416C186.055 166.896 186.295 167.54 186.295 168.348C186.295 169.204 186.035 169.888 185.515 170.4C185.003 170.912 184.319 171.168 183.463 171.168C182.663 171.168 182.023 170.96 181.543 170.544C181.071 170.128 180.835 169.564 180.835 168.852H181.963C181.971 169.276 182.111 169.608 182.383 169.848C182.663 170.088 183.023 170.208 183.463 170.208C183.983 170.208 184.395 170.048 184.699 169.728C185.003 169.4 185.155 168.952 185.155 168.384C185.155 167.832 185.007 167.4 184.711 167.088C184.423 166.776 184.027 166.62 183.523 166.62C182.699 166.62 182.187 167 181.987 167.76L180.895 167.688L181.339 162.912H185.923Z" fill="#003218"/>
<rect x="224" y="112" width="96" height="96" fill="#92D2C4"/>
<path d="M248.612 154.172C248.78 154.172 248.924 154.152 249.044 154.112V154.976C248.86 155.024 248.636 155.048 248.372 155.048C247.788 155.048 247.364 154.912 247.1 154.64C246.844 154.368 246.716 153.92 246.716 153.296V149.744H245.66V148.904H246.716V147.428H247.772V148.904H248.984V149.744H247.772V153.188C247.772 153.54 247.836 153.792 247.964 153.944C248.092 154.096 248.308 154.172 248.612 154.172ZM252.684 155.132C251.98 155.132 251.436 154.92 251.052 154.496C250.676 154.072 250.488 153.448 250.488 152.624V148.904H251.544V152.54C251.544 153.156 251.664 153.6 251.904 153.872C252.144 154.136 252.492 154.268 252.948 154.268C253.396 154.268 253.772 154.104 254.076 153.776C254.38 153.44 254.532 152.98 254.532 152.396V148.904H255.588V155H254.568V154.196H254.544C254.352 154.484 254.092 154.712 253.764 154.88C253.444 155.048 253.084 155.132 252.684 155.132ZM260.534 148.844C260.71 148.844 260.858 148.86 260.978 148.892V149.84C260.714 149.816 260.574 149.804 260.558 149.804C259.982 149.804 259.538 149.984 259.226 150.344C258.914 150.704 258.758 151.22 258.758 151.892V155H257.702V148.904H258.71V149.84H258.734C259.134 149.176 259.734 148.844 260.534 148.844ZM264.179 148.748C264.595 148.748 264.967 148.84 265.295 149.024C265.631 149.208 265.883 149.46 266.051 149.78H266.075V148.904H267.107V157.22H266.051V154.136H266.027C265.859 154.448 265.607 154.696 265.271 154.88C264.943 155.056 264.575 155.144 264.167 155.144C263.391 155.144 262.771 154.856 262.307 154.28C261.851 153.696 261.623 152.916 261.623 151.94C261.623 150.964 261.855 150.188 262.319 149.612C262.783 149.036 263.403 148.748 264.179 148.748ZM264.443 149.6C263.923 149.6 263.507 149.812 263.195 150.236C262.883 150.66 262.727 151.228 262.727 151.94C262.727 152.652 262.883 153.224 263.195 153.656C263.507 154.08 263.923 154.292 264.443 154.292C264.947 154.292 265.351 154.08 265.655 153.656C265.959 153.232 266.111 152.66 266.111 151.94C266.111 151.22 265.959 150.652 265.655 150.236C265.351 149.812 264.947 149.6 264.443 149.6ZM271.357 155.132C270.653 155.132 270.109 154.92 269.725 154.496C269.349 154.072 269.161 153.448 269.161 152.624V148.904H270.217V152.54C270.217 153.156 270.337 153.6 270.577 153.872C270.817 154.136 271.165 154.268 271.621 154.268C272.069 154.268 272.445 154.104 272.749 153.776C273.053 153.44 273.205 152.98 273.205 152.396V148.904H274.261V155H273.241V154.196H273.217C273.025 154.484 272.765 154.712 272.437 154.88C272.117 155.048 271.757 155.132 271.357 155.132ZM276.699 149.6C277.219 149.024 277.927 148.736 278.823 148.736C279.719 148.736 280.427 149.024 280.947 149.6C281.467 150.176 281.727 150.96 281.727 151.952C281.727 152.944 281.467 153.728 280.947 154.304C280.427 154.88 279.719 155.168 278.823 155.168C277.927 155.168 277.219 154.88 276.699 154.304C276.187 153.728 275.931 152.944 275.931 151.952C275.931 150.96 276.187 150.176 276.699 149.6ZM278.823 149.6C278.271 149.6 277.835 149.812 277.515 150.236C277.195 150.652 277.035 151.224 277.035 151.952C277.035 152.68 277.195 153.256 277.515 153.68C277.835 154.096 278.271 154.304 278.823 154.304C279.383 154.304 279.823 154.096 280.143 153.68C280.463 153.256 280.623 152.68 280.623 151.952C280.623 151.224 280.463 150.652 280.143 150.236C279.823 149.812 279.383 149.6 278.823 149.6ZM284.456 148.904V155H283.4V148.904H284.456ZM284.456 146.456V147.644H283.4V146.456H284.456ZM288.502 148.736C289.254 148.736 289.838 148.916 290.254 149.276C290.67 149.636 290.878 150.148 290.878 150.812H289.846C289.846 150.404 289.726 150.092 289.486 149.876C289.254 149.66 288.922 149.552 288.49 149.552C288.122 149.552 287.83 149.632 287.614 149.792C287.406 149.944 287.302 150.152 287.302 150.416C287.302 150.712 287.398 150.916 287.59 151.028C287.79 151.14 288.182 151.264 288.766 151.4C289.55 151.592 290.078 151.776 290.35 151.952C290.822 152.272 291.062 152.736 291.07 153.344C291.07 153.896 290.85 154.34 290.41 154.676C289.978 155.004 289.394 155.168 288.658 155.168C287.85 155.168 287.222 154.98 286.774 154.604C286.334 154.228 286.11 153.684 286.102 152.972H287.17C287.17 153.404 287.298 153.74 287.554 153.98C287.818 154.212 288.19 154.328 288.67 154.328C289.07 154.328 289.39 154.244 289.63 154.076C289.87 153.908 289.99 153.688 289.99 153.416C289.99 153.088 289.874 152.86 289.642 152.732C289.418 152.596 288.974 152.448 288.31 152.288C287.606 152.112 287.134 151.948 286.894 151.796C286.462 151.524 286.246 151.092 286.246 150.5C286.246 149.98 286.454 149.556 286.87 149.228C287.294 148.9 287.838 148.736 288.502 148.736ZM295.234 154.352C295.666 154.352 296.022 154.244 296.302 154.028C296.59 153.812 296.77 153.528 296.842 153.176H297.922C297.81 153.744 297.518 154.22 297.046 154.604C296.582 154.98 295.978 155.168 295.234 155.168C294.346 155.168 293.646 154.872 293.134 154.28C292.622 153.68 292.366 152.876 292.366 151.868C292.366 150.948 292.618 150.196 293.122 149.612C293.634 149.028 294.326 148.736 295.198 148.736C295.878 148.736 296.45 148.924 296.914 149.3C297.386 149.676 297.702 150.196 297.862 150.86C297.942 151.188 297.982 151.624 297.982 152.168H293.422C293.446 152.888 293.622 153.432 293.95 153.8C294.286 154.168 294.714 154.352 295.234 154.352ZM295.198 149.552C294.702 149.552 294.298 149.712 293.986 150.032C293.674 150.344 293.49 150.788 293.434 151.364H296.938C296.882 150.78 296.698 150.332 296.386 150.02C296.074 149.708 295.678 149.552 295.198 149.552ZM252.723 165.96H251.319L251.007 167.928H252.423L252.291 168.708H250.875L250.515 171H249.603L249.963 168.708H248.235L247.875 171H246.963L247.323 168.708H245.907L246.027 167.928H247.455L247.767 165.96H246.339L246.459 165.168H247.887L248.247 162.912H249.159L248.799 165.168H250.527L250.887 162.912H251.799L251.439 165.168H252.855L252.723 165.96ZM250.095 167.928L250.407 165.96H248.679L248.367 167.928H250.095ZM256.676 171.168C255.956 171.168 255.376 170.968 254.936 170.568C254.504 170.168 254.256 169.62 254.192 168.924H255.32C255.456 169.78 255.92 170.208 256.712 170.208C257.304 170.208 257.768 169.956 258.104 169.452C258.448 168.948 258.632 168.18 258.656 167.148H258.632C258.16 167.836 257.496 168.18 256.64 168.18C255.872 168.18 255.252 167.936 254.78 167.448C254.308 166.96 254.072 166.32 254.072 165.528C254.072 164.704 254.328 164.036 254.84 163.524C255.352 163.004 256.02 162.744 256.844 162.744C257.764 162.744 258.468 163.072 258.956 163.728C259.452 164.384 259.7 165.356 259.7 166.644C259.7 168.108 259.436 169.228 258.908 170.004C258.38 170.78 257.636 171.168 256.676 171.168ZM256.82 167.28C257.308 167.28 257.7 167.116 257.996 166.788C258.3 166.452 258.452 166.024 258.452 165.504C258.452 164.952 258.308 164.516 258.02 164.196C257.732 163.868 257.34 163.704 256.844 163.704C256.356 163.704 255.964 163.868 255.668 164.196C255.372 164.524 255.224 164.96 255.224 165.504C255.224 166.032 255.368 166.46 255.656 166.788C255.952 167.116 256.34 167.28 256.82 167.28ZM263.779 162.744C264.555 162.744 265.179 162.952 265.651 163.368C266.131 163.776 266.371 164.32 266.371 165C266.371 165.648 266.191 166.172 265.831 166.572C265.471 166.964 264.907 167.384 264.139 167.832C263.371 168.28 262.855 168.664 262.591 168.984C262.335 169.296 262.203 169.652 262.195 170.052H266.551V171H260.983C260.975 170.944 260.971 170.864 260.971 170.76C260.971 169.952 261.127 169.296 261.439 168.792C261.759 168.28 262.395 167.744 263.347 167.184C264.043 166.776 264.527 166.432 264.799 166.152C265.079 165.864 265.219 165.488 265.219 165.024C265.219 164.632 265.087 164.316 264.823 164.076C264.567 163.828 264.219 163.704 263.779 163.704C262.787 163.704 262.259 164.232 262.195 165.288H261.079C261.111 164.488 261.367 163.864 261.847 163.416C262.327 162.968 262.971 162.744 263.779 162.744ZM268.546 171V162.456H271.15C272.566 162.456 273.658 162.828 274.426 163.572C275.194 164.308 275.578 165.36 275.578 166.728C275.578 168.096 275.194 169.152 274.426 169.896C273.658 170.632 272.566 171 271.15 171H268.546ZM271.138 163.44H269.65V170.016H271.138C272.202 170.016 273.014 169.736 273.574 169.176C274.134 168.616 274.414 167.8 274.414 166.728C274.414 165.656 274.134 164.84 273.574 164.28C273.014 163.72 272.202 163.44 271.138 163.44ZM279.774 162.744C280.55 162.744 281.174 162.952 281.646 163.368C282.126 163.776 282.366 164.32 282.366 165C282.366 165.648 282.186 166.172 281.826 166.572C281.466 166.964 280.902 167.384 280.134 167.832C279.366 168.28 278.85 168.664 278.586 168.984C278.33 169.296 278.198 169.652 278.19 170.052H282.546V171H276.978C276.97 170.944 276.966 170.864 276.966 170.76C276.966 169.952 277.122 169.296 277.434 168.792C277.754 168.28 278.39 167.744 279.342 167.184C280.038 166.776 280.522 166.432 280.794 166.152C281.074 165.864 281.214 165.488 281.214 165.024C281.214 164.632 281.082 164.316 280.818 164.076C280.562 163.828 280.214 163.704 279.774 163.704C278.782 163.704 278.254 164.232 278.19 165.288H277.074C277.106 164.488 277.362 163.864 277.842 163.416C278.322 162.968 278.966 162.744 279.774 162.744ZM287.662 162.288C288.662 162.288 289.466 162.572 290.074 163.14C290.682 163.708 291.01 164.444 291.058 165.348H289.918C289.862 164.716 289.63 164.216 289.222 163.848C288.822 163.48 288.302 163.296 287.662 163.296C286.854 163.296 286.218 163.604 285.754 164.22C285.298 164.828 285.07 165.664 285.07 166.728C285.07 167.792 285.298 168.632 285.754 169.248C286.21 169.856 286.834 170.16 287.626 170.16C288.258 170.16 288.782 169.972 289.198 169.596C289.614 169.22 289.866 168.708 289.954 168.06H291.106C291.018 169.02 290.666 169.78 290.05 170.34C289.434 170.892 288.626 171.168 287.626 171.168C286.482 171.168 285.578 170.772 284.914 169.98C284.25 169.188 283.918 168.104 283.918 166.728C283.918 165.352 284.25 164.268 284.914 163.476C285.586 162.684 286.502 162.288 287.662 162.288ZM298.323 168V168.912H297.003V171H295.911V168.912H292.095V167.916L295.527 162.912H297.003V168H298.323ZM294.075 166.668L293.151 168H295.923V166.896C295.923 165.896 295.935 164.892 295.959 163.884H295.935C295.367 164.764 294.747 165.692 294.075 166.668Z" fill="#003218"/>
<rect x="224" width="96" height="96" fill="#FFD675"/>
<path d="M266.09 36.904H267.206L264.758 43.276C264.462 44.044 264.134 44.568 263.774 44.848C263.422 45.128 262.914 45.268 262.25 45.268C262.01 45.268 261.826 45.248 261.698 45.208V44.32C261.842 44.368 262.01 44.392 262.202 44.392C262.602 44.392 262.902 44.3 263.102 44.116C263.31 43.932 263.514 43.568 263.714 43.024L261.398 36.904H262.538L264.29 41.752H264.314L266.09 36.904ZM268.595 37.6C269.115 37.024 269.823 36.736 270.719 36.736C271.615 36.736 272.323 37.024 272.843 37.6C273.363 38.176 273.623 38.96 273.623 39.952C273.623 40.944 273.363 41.728 272.843 42.304C272.323 42.88 271.615 43.168 270.719 43.168C269.823 43.168 269.115 42.88 268.595 42.304C268.083 41.728 267.827 40.944 267.827 39.952C267.827 38.96 268.083 38.176 268.595 37.6ZM270.719 37.6C270.167 37.6 269.731 37.812 269.411 38.236C269.091 38.652 268.931 39.224 268.931 39.952C268.931 40.68 269.091 41.256 269.411 41.68C269.731 42.096 270.167 42.304 270.719 42.304C271.279 42.304 271.719 42.096 272.039 41.68C272.359 41.256 272.519 40.68 272.519 39.952C272.519 39.224 272.359 38.652 272.039 38.236C271.719 37.812 271.279 37.6 270.719 37.6ZM276.352 34.456V43H275.296V34.456H276.352ZM280.578 39.664L283.638 43H282.246L279.546 39.952H279.522V43H278.466V34.456H279.522V39.436H279.546L282.006 36.904H283.314L280.578 39.664ZM254.436 53.96H253.032L252.72 55.928H254.136L254.004 56.708H252.588L252.228 59H251.316L251.676 56.708H249.948L249.588 59H248.676L249.036 56.708H247.62L247.74 55.928H249.168L249.48 53.96H248.052L248.172 53.168H249.6L249.96 50.912H250.872L250.512 53.168H252.24L252.6 50.912H253.512L253.152 53.168H254.568L254.436 53.96ZM251.808 55.928L252.12 53.96H250.392L250.08 55.928H251.808ZM261.725 50.456V51.44H257.477V54.356H261.461V55.34H257.477V59H256.373V50.456H261.725ZM268.844 50.456V51.44H264.596V54.356H268.58V55.34H264.596V59H263.492V50.456H268.844ZM270.611 59V50.456H273.215C274.631 50.456 275.723 50.828 276.491 51.572C277.259 52.308 277.643 53.36 277.643 54.728C277.643 56.096 277.259 57.152 276.491 57.896C275.723 58.632 274.631 59 273.215 59H270.611ZM273.203 51.44H271.715V58.016H273.203C274.267 58.016 275.079 57.736 275.639 57.176C276.199 56.616 276.479 55.8 276.479 54.728C276.479 53.656 276.199 52.84 275.639 52.28C275.079 51.72 274.267 51.44 273.203 51.44ZM282.253 50.744C282.973 50.744 283.549 50.944 283.981 51.344C284.421 51.744 284.673 52.292 284.737 52.988H283.609C283.473 52.132 283.009 51.704 282.217 51.704C281.625 51.704 281.157 51.956 280.813 52.46C280.477 52.964 280.297 53.732 280.273 54.764H280.297C280.769 54.076 281.433 53.732 282.289 53.732C283.057 53.732 283.677 53.976 284.149 54.464C284.621 54.952 284.857 55.592 284.857 56.384C284.857 57.208 284.601 57.88 284.089 58.4C283.577 58.912 282.909 59.168 282.085 59.168C281.165 59.168 280.457 58.84 279.961 58.184C279.473 57.528 279.229 56.556 279.229 55.268C279.229 53.804 279.489 52.684 280.009 51.908C280.537 51.132 281.285 50.744 282.253 50.744ZM282.109 54.632C281.621 54.632 281.225 54.8 280.921 55.136C280.625 55.464 280.477 55.888 280.477 56.408C280.477 56.96 280.621 57.4 280.909 57.728C281.197 58.048 281.589 58.208 282.085 58.208C282.573 58.208 282.965 58.044 283.261 57.716C283.557 57.388 283.705 56.952 283.705 56.408C283.705 55.88 283.557 55.452 283.261 55.124C282.973 54.796 282.589 54.632 282.109 54.632ZM285.599 50.912H290.867V51.884C289.515 53.868 288.575 56.24 288.047 59H286.835C287.459 56.168 288.427 53.792 289.739 51.872H285.599V50.912ZM296.798 50.912V51.848H293.138L292.898 54.356H292.922C293.306 53.908 293.85 53.684 294.554 53.684C295.346 53.684 295.978 53.928 296.45 54.416C296.93 54.896 297.17 55.54 297.17 56.348C297.17 57.204 296.91 57.888 296.39 58.4C295.878 58.912 295.194 59.168 294.338 59.168C293.538 59.168 292.898 58.96 292.418 58.544C291.946 58.128 291.71 57.564 291.71 56.852H292.838C292.846 57.276 292.986 57.608 293.258 57.848C293.538 58.088 293.898 58.208 294.338 58.208C294.858 58.208 295.27 58.048 295.574 57.728C295.878 57.4 296.03 56.952 296.03 56.384C296.03 55.832 295.882 55.4 295.586 55.088C295.298 54.776 294.902 54.62 294.398 54.62C293.574 54.62 293.062 55 292.862 55.76L291.77 55.688L292.214 50.912H296.798Z" fill="#003218"/>
<rect width="96" height="96" fill="#003218"/>
<path d="M40.5309 36.772C41.1869 36.772 41.6909 36.98 42.0429 37.396C42.4029 37.812 42.5829 38.424 42.5829 39.232V43H41.5269V39.316C41.5269 38.196 41.1109 37.636 40.2789 37.636C39.8389 37.636 39.4869 37.808 39.2229 38.152C38.9669 38.496 38.8389 38.96 38.8389 39.544V43H37.7829V39.16C37.7829 38.68 37.6749 38.308 37.4589 38.044C37.2429 37.772 36.9389 37.636 36.5469 37.636C36.0989 37.636 35.7429 37.812 35.4789 38.164C35.2229 38.516 35.0949 39 35.0949 39.616V43H34.0389V36.904H35.0589V37.66H35.0829C35.5149 37.068 36.0829 36.772 36.7869 36.772C37.6669 36.772 38.2709 37.156 38.5989 37.924C39.0309 37.156 39.6749 36.772 40.5309 36.772ZM44.9623 37.6C45.4823 37.024 46.1903 36.736 47.0863 36.736C47.9823 36.736 48.6903 37.024 49.2103 37.6C49.7303 38.176 49.9903 38.96 49.9903 39.952C49.9903 40.944 49.7303 41.728 49.2103 42.304C48.6903 42.88 47.9823 43.168 47.0863 43.168C46.1903 43.168 45.4823 42.88 44.9623 42.304C44.4503 41.728 44.1943 40.944 44.1943 39.952C44.1943 38.96 44.4503 38.176 44.9623 37.6ZM47.0863 37.6C46.5343 37.6 46.0983 37.812 45.7783 38.236C45.4583 38.652 45.2983 39.224 45.2983 39.952C45.2983 40.68 45.4583 41.256 45.7783 41.68C46.0983 42.096 46.5343 42.304 47.0863 42.304C47.6463 42.304 48.0863 42.096 48.4063 41.68C48.7263 41.256 48.8863 40.68 48.8863 39.952C48.8863 39.224 48.7263 38.652 48.4063 38.236C48.0863 37.812 47.6463 37.6 47.0863 37.6ZM53.6657 36.736C54.4177 36.736 55.0017 36.916 55.4177 37.276C55.8337 37.636 56.0417 38.148 56.0417 38.812H55.0097C55.0097 38.404 54.8897 38.092 54.6497 37.876C54.4177 37.66 54.0857 37.552 53.6537 37.552C53.2857 37.552 52.9937 37.632 52.7777 37.792C52.5697 37.944 52.4657 38.152 52.4657 38.416C52.4657 38.712 52.5617 38.916 52.7537 39.028C52.9537 39.14 53.3457 39.264 53.9297 39.4C54.7137 39.592 55.2417 39.776 55.5137 39.952C55.9857 40.272 56.2257 40.736 56.2337 41.344C56.2337 41.896 56.0137 42.34 55.5737 42.676C55.1417 43.004 54.5577 43.168 53.8217 43.168C53.0137 43.168 52.3857 42.98 51.9377 42.604C51.4977 42.228 51.2737 41.684 51.2657 40.972H52.3337C52.3337 41.404 52.4617 41.74 52.7177 41.98C52.9817 42.212 53.3537 42.328 53.8337 42.328C54.2337 42.328 54.5537 42.244 54.7937 42.076C55.0337 41.908 55.1537 41.688 55.1537 41.416C55.1537 41.088 55.0377 40.86 54.8057 40.732C54.5817 40.596 54.1377 40.448 53.4737 40.288C52.7697 40.112 52.2977 39.948 52.0577 39.796C51.6257 39.524 51.4097 39.092 51.4097 38.5C51.4097 37.98 51.6177 37.556 52.0337 37.228C52.4577 36.9 53.0017 36.736 53.6657 36.736ZM59.8354 36.736C60.5874 36.736 61.1714 36.916 61.5874 37.276C62.0034 37.636 62.2114 38.148 62.2114 38.812H61.1794C61.1794 38.404 61.0594 38.092 60.8194 37.876C60.5874 37.66 60.2554 37.552 59.8234 37.552C59.4554 37.552 59.1634 37.632 58.9474 37.792C58.7394 37.944 58.6354 38.152 58.6354 38.416C58.6354 38.712 58.7314 38.916 58.9234 39.028C59.1234 39.14 59.5154 39.264 60.0994 39.4C60.8834 39.592 61.4114 39.776 61.6834 39.952C62.1554 40.272 62.3954 40.736 62.4034 41.344C62.4034 41.896 62.1834 42.34 61.7434 42.676C61.3114 43.004 60.7274 43.168 59.9914 43.168C59.1834 43.168 58.5554 42.98 58.1074 42.604C57.6674 42.228 57.4434 41.684 57.4354 40.972H58.5034C58.5034 41.404 58.6314 41.74 58.8874 41.98C59.1514 42.212 59.5234 42.328 60.0034 42.328C60.4034 42.328 60.7234 42.244 60.9634 42.076C61.2034 41.908 61.3234 41.688 61.3234 41.416C61.3234 41.088 61.2074 40.86 60.9754 40.732C60.7514 40.596 60.3074 40.448 59.6434 40.288C58.9394 40.112 58.4674 39.948 58.2274 39.796C57.7954 39.524 57.5794 39.092 57.5794 38.5C57.5794 37.98 57.7874 37.556 58.2034 37.228C58.6274 36.9 59.1714 36.736 59.8354 36.736ZM31.2543 53.96H29.8503L29.5383 55.928H30.9543L30.8223 56.708H29.4063L29.0463 59H28.1343L28.4943 56.708H26.7663L26.4063 59H25.4943L25.8543 56.708H24.4383L24.5583 55.928H25.9863L26.2983 53.96H24.8703L24.9903 53.168H26.4183L26.7783 50.912H27.6903L27.3303 53.168H29.0583L29.4183 50.912H30.3303L29.9703 53.168H31.3863L31.2543 53.96ZM28.6263 55.928L28.9383 53.96H27.2103L26.8983 55.928H28.6263ZM33.4193 51.836C33.9233 51.108 34.6473 50.744 35.5913 50.744C36.5353 50.744 37.2593 51.108 37.7633 51.836C38.2673 52.556 38.5193 53.596 38.5193 54.956C38.5193 56.316 38.2673 57.36 37.7633 58.088C37.2593 58.808 36.5353 59.168 35.5913 59.168C34.6473 59.168 33.9233 58.808 33.4193 58.088C32.9153 57.36 32.6633 56.316 32.6633 54.956C32.6633 53.596 32.9153 52.556 33.4193 51.836ZM35.5913 51.716C35.0073 51.716 34.5633 51.992 34.2593 52.544C33.9553 53.096 33.8033 53.9 33.8033 54.956C33.8033 56.02 33.9553 56.832 34.2593 57.392C34.5633 57.944 35.0073 58.22 35.5913 58.22C36.1673 58.22 36.6073 57.944 36.9113 57.392C37.2153 56.832 37.3673 56.02 37.3673 54.956C37.3673 53.9 37.2153 53.096 36.9113 52.544C36.6073 51.992 36.1673 51.716 35.5913 51.716ZM40.8546 51.836C41.3586 51.108 42.0826 50.744 43.0266 50.744C43.9706 50.744 44.6946 51.108 45.1986 51.836C45.7026 52.556 45.9546 53.596 45.9546 54.956C45.9546 56.316 45.7026 57.36 45.1986 58.088C44.6946 58.808 43.9706 59.168 43.0266 59.168C42.0826 59.168 41.3586 58.808 40.8546 58.088C40.3506 57.36 40.0986 56.316 40.0986 54.956C40.0986 53.596 40.3506 52.556 40.8546 51.836ZM43.0266 51.716C42.4426 51.716 41.9986 51.992 41.6946 52.544C41.3906 53.096 41.2386 53.9 41.2386 54.956C41.2386 56.02 41.3906 56.832 41.6946 57.392C41.9986 57.944 42.4426 58.22 43.0266 58.22C43.6026 58.22 44.0426 57.944 44.3466 57.392C44.6506 56.832 44.8026 56.02 44.8026 54.956C44.8026 53.9 44.6506 53.096 44.3466 52.544C44.0426 51.992 43.6026 51.716 43.0266 51.716ZM50.0263 50.744C50.8023 50.744 51.4263 50.952 51.8983 51.368C52.3783 51.776 52.6183 52.32 52.6183 53C52.6183 53.648 52.4383 54.172 52.0783 54.572C51.7183 54.964 51.1543 55.384 50.3863 55.832C49.6183 56.28 49.1023 56.664 48.8383 56.984C48.5823 57.296 48.4503 57.652 48.4423 58.052H52.7983V59H47.2303C47.2223 58.944 47.2183 58.864 47.2183 58.76C47.2183 57.952 47.3743 57.296 47.6863 56.792C48.0063 56.28 48.6423 55.744 49.5943 55.184C50.2903 54.776 50.7743 54.432 51.0463 54.152C51.3263 53.864 51.4663 53.488 51.4663 53.024C51.4663 52.632 51.3343 52.316 51.0703 52.076C50.8143 51.828 50.4663 51.704 50.0263 51.704C49.0343 51.704 48.5063 52.232 48.4423 53.288H47.3263C47.3583 52.488 47.6143 51.864 48.0943 51.416C48.5743 50.968 49.2183 50.744 50.0263 50.744ZM57.1729 50.744C57.8929 50.744 58.4689 50.944 58.9009 51.344C59.3409 51.744 59.5929 52.292 59.6569 52.988H58.5289C58.3929 52.132 57.9289 51.704 57.1369 51.704C56.5449 51.704 56.0769 51.956 55.7329 52.46C55.3969 52.964 55.2169 53.732 55.1929 54.764H55.2169C55.6889 54.076 56.3529 53.732 57.2089 53.732C57.9769 53.732 58.5969 53.976 59.0689 54.464C59.5409 54.952 59.7769 55.592 59.7769 56.384C59.7769 57.208 59.5209 57.88 59.0089 58.4C58.4969 58.912 57.8289 59.168 57.0049 59.168C56.0849 59.168 55.3769 58.84 54.8809 58.184C54.3929 57.528 54.1489 56.556 54.1489 55.268C54.1489 53.804 54.4089 52.684 54.9289 51.908C55.4569 51.132 56.2049 50.744 57.1729 50.744ZM57.0289 54.632C56.5409 54.632 56.1449 54.8 55.8409 55.136C55.5449 55.464 55.3969 55.888 55.3969 56.408C55.3969 56.96 55.5409 57.4 55.8289 57.728C56.1169 58.048 56.5089 58.208 57.0049 58.208C57.4929 58.208 57.8849 58.044 58.1809 57.716C58.4769 57.388 58.6249 56.952 58.6249 56.408C58.6249 55.88 58.4769 55.452 58.1809 55.124C57.8929 54.796 57.5089 54.632 57.0289 54.632ZM63.6578 50.912V59H62.5658V53.108H60.7538V52.268C61.3858 52.268 61.8498 52.164 62.1458 51.956C62.4498 51.748 62.6418 51.4 62.7218 50.912H63.6578ZM68.594 50.744C69.37 50.744 69.994 50.952 70.466 51.368C70.946 51.776 71.186 52.32 71.186 53C71.186 53.648 71.006 54.172 70.646 54.572C70.286 54.964 69.722 55.384 68.954 55.832C68.186 56.28 67.67 56.664 67.406 56.984C67.15 57.296 67.018 57.652 67.01 58.052H71.366V59H65.798C65.79 58.944 65.786 58.864 65.786 58.76C65.786 57.952 65.942 57.296 66.254 56.792C66.574 56.28 67.21 55.744 68.162 55.184C68.858 54.776 69.342 54.432 69.614 54.152C69.894 53.864 70.034 53.488 70.034 53.024C70.034 52.632 69.902 52.316 69.638 52.076C69.382 51.828 69.034 51.704 68.594 51.704C67.602 51.704 67.074 52.232 67.01 53.288H65.894C65.926 52.488 66.182 51.864 66.662 51.416C67.142 50.968 67.786 50.744 68.594 50.744Z" fill="#DEEEE1"/>
</svg>
