<svg width="944" height="944" viewBox="0 0 944 944" fill="none" xmlns="http://www.w3.org/2000/svg">
<rect width="944" height="944" fill="#DEEEE1"/>
<path d="M47.0898 46.2485C58.479 46.2485 62 44.2582 62 46.1999C62 48.3358 59.485 49.5494 47.0539 49.5494C34.6587 49.5494 32 48.3358 32 46.1999C32.0359 44.2582 35.7006 46.2485 47.0898 46.2485Z" fill="#9BB2DD"/>
<path d="M47.5036 52.2614C58.9065 52.2614 62 49.8803 62 52.3962C62 55.0917 59.482 59.6292 47.036 59.6292C34.6259 59.5843 32 55.0468 32 52.3512C32 49.8803 36.1007 52.2614 47.5036 52.2614Z" fill="#9BB2DD"/>
<path d="M47.0898 43.6693C58.479 43.6693 62 42.2987 62 39.8672C62 37.2145 59.485 32.7493 47.0539 32.7493C34.6228 32.7493 32 37.2145 32 39.8672C32 42.2987 35.7006 43.6693 47.0898 43.6693Z" fill="#9BB2DD"/>
<path d="M47.0898 494.248C58.479 494.248 62 492.258 62 494.2C62 496.336 59.485 497.549 47.0539 497.549C34.6587 497.549 32 496.336 32 494.2C32.0359 492.258 35.7006 494.248 47.0898 494.248Z" fill="#9BB2DD"/>
<path d="M47.5036 500.261C58.9065 500.261 62 497.88 62 500.396C62 503.092 59.482 507.629 47.036 507.629C34.6259 507.584 32 503.047 32 500.351C32 497.88 36.1007 500.261 47.5036 500.261Z" fill="#9BB2DD"/>
<path d="M47.0898 491.669C58.479 491.669 62 490.299 62 487.867C62 485.215 59.485 480.749 47.0539 480.749C34.6228 480.749 32 485.215 32 487.867C32 490.299 35.7006 491.669 47.0898 491.669Z" fill="#9BB2DD"/>
<path d="M495.09 46.2485C506.479 46.2485 510 44.2582 510 46.1999C510 48.3358 507.485 49.5494 495.054 49.5494C482.659 49.5494 480 48.3358 480 46.1999C480.036 44.2582 483.701 46.2485 495.09 46.2485Z" fill="#9BB2DD"/>
<path d="M495.504 52.2614C506.906 52.2614 510 49.8803 510 52.3962C510 55.0917 507.482 59.6292 495.036 59.6292C482.626 59.5843 480 55.0468 480 52.3512C480 49.8803 484.101 52.2614 495.504 52.2614Z" fill="#9BB2DD"/>
<path d="M495.09 43.6693C506.479 43.6693 510 42.2987 510 39.8672C510 37.2145 507.485 32.7493 495.054 32.7493C482.623 32.7493 480 37.2145 480 39.8672C480 42.2987 483.701 43.6693 495.09 43.6693Z" fill="#9BB2DD"/>
<path d="M495.09 494.248C506.479 494.248 510 492.258 510 494.2C510 496.336 507.485 497.549 495.054 497.549C482.659 497.549 480 496.336 480 494.2C480.036 492.258 483.701 494.248 495.09 494.248Z" fill="#9BB2DD"/>
<path d="M495.504 500.261C506.906 500.261 510 497.88 510 500.396C510 503.092 507.482 507.629 495.036 507.629C482.626 507.584 480 503.047 480 500.351C480 497.88 484.101 500.261 495.504 500.261Z" fill="#9BB2DD"/>
<path d="M495.09 491.669C506.479 491.669 510 490.299 510 487.867C510 485.215 507.485 480.749 495.054 480.749C482.623 480.749 480 485.215 480 487.867C480 490.299 483.701 491.669 495.09 491.669Z" fill="#9BB2DD"/>
<path d="M159.09 158.248C170.479 158.248 174 156.258 174 158.2C174 160.336 171.485 161.549 159.054 161.549C146.659 161.549 144 160.336 144 158.2C144.036 156.258 147.701 158.248 159.09 158.248Z" fill="#FFD675"/>
<path d="M159.504 164.261C170.906 164.261 174 161.88 174 164.396C174 167.092 171.482 171.629 159.036 171.629C146.626 171.584 144 167.047 144 164.351C144 161.88 148.101 164.261 159.504 164.261Z" fill="#FFD675"/>
<path d="M159.09 155.669C170.479 155.669 174 154.299 174 151.867C174 149.215 171.485 144.749 159.054 144.749C146.623 144.749 144 149.215 144 151.867C144 154.299 147.701 155.669 159.09 155.669Z" fill="#FFD675"/>
<path d="M159.09 606.248C170.479 606.248 174 604.258 174 606.2C174 608.336 171.485 609.549 159.054 609.549C146.659 609.549 144 608.336 144 606.2C144.036 604.258 147.701 606.248 159.09 606.248Z" fill="#FFD675"/>
<path d="M159.504 612.261C170.906 612.261 174 609.88 174 612.396C174 615.092 171.482 619.629 159.036 619.629C146.626 619.584 144 615.047 144 612.351C144 609.88 148.101 612.261 159.504 612.261Z" fill="#FFD675"/>
<path d="M159.09 603.669C170.479 603.669 174 602.299 174 599.867C174 597.215 171.485 592.749 159.054 592.749C146.623 592.749 144 597.215 144 599.867C144 602.299 147.701 603.669 159.09 603.669Z" fill="#FFD675"/>
<path d="M607.09 158.248C618.479 158.248 622 156.258 622 158.2C622 160.336 619.485 161.549 607.054 161.549C594.659 161.549 592 160.336 592 158.2C592.036 156.258 595.701 158.248 607.09 158.248Z" fill="#FFD675"/>
<path d="M607.504 164.261C618.906 164.261 622 161.88 622 164.396C622 167.092 619.482 171.629 607.036 171.629C594.626 171.584 592 167.047 592 164.351C592 161.88 596.101 164.261 607.504 164.261Z" fill="#FFD675"/>
<path d="M607.09 155.669C618.479 155.669 622 154.299 622 151.867C622 149.215 619.485 144.749 607.054 144.749C594.623 144.749 592 149.215 592 151.867C592 154.299 595.701 155.669 607.09 155.669Z" fill="#FFD675"/>
<path d="M607.09 606.248C618.479 606.248 622 604.258 622 606.2C622 608.336 619.485 609.549 607.054 609.549C594.659 609.549 592 608.336 592 606.2C592.036 604.258 595.701 606.248 607.09 606.248Z" fill="#FFD675"/>
<path d="M607.504 612.261C618.906 612.261 622 609.88 622 612.396C622 615.092 619.482 619.629 607.036 619.629C594.626 619.584 592 615.047 592 612.351C592 609.88 596.101 612.261 607.504 612.261Z" fill="#FFD675"/>
<path d="M607.09 603.669C618.479 603.669 622 602.299 622 599.867C622 597.215 619.485 592.749 607.054 592.749C594.623 592.749 592 597.215 592 599.867C592 602.299 595.701 603.669 607.09 603.669Z" fill="#FFD675"/>
<path d="M103.09 102.248C114.479 102.248 118 100.258 118 102.2C118 104.336 115.485 105.549 103.054 105.549C90.6587 105.549 88 104.336 88 102.2C88.0359 100.258 91.7006 102.248 103.09 102.248Z" fill="#FAC0B5"/>
<path d="M103.504 108.261C114.906 108.261 118 105.88 118 108.396C118 111.092 115.482 115.629 103.036 115.629C90.6259 115.584 88 111.047 88 108.351C88 105.88 92.1007 108.261 103.504 108.261Z" fill="#FAC0B5"/>
<path d="M103.09 99.6693C114.479 99.6693 118 98.2987 118 95.8672C118 93.2145 115.485 88.7493 103.054 88.7493C90.6228 88.7493 88 93.2145 88 95.8672C88 98.2987 91.7006 99.6693 103.09 99.6693Z" fill="#FAC0B5"/>
<path d="M103.09 550.248C114.479 550.248 118 548.258 118 550.2C118 552.336 115.485 553.549 103.054 553.549C90.6587 553.549 88 552.336 88 550.2C88.0359 548.258 91.7006 550.248 103.09 550.248Z" fill="#FAC0B5"/>
<path d="M103.504 556.261C114.906 556.261 118 553.88 118 556.396C118 559.092 115.482 563.629 103.036 563.629C90.6259 563.584 88 559.047 88 556.351C88 553.88 92.1007 556.261 103.504 556.261Z" fill="#FAC0B5"/>
<path d="M103.09 547.669C114.479 547.669 118 546.299 118 543.867C118 541.215 115.485 536.749 103.054 536.749C90.6228 536.749 88 541.215 88 543.867C88 546.299 91.7006 547.669 103.09 547.669Z" fill="#FAC0B5"/>
<path d="M551.09 102.248C562.479 102.248 566 100.258 566 102.2C566 104.336 563.485 105.549 551.054 105.549C538.659 105.549 536 104.336 536 102.2C536.036 100.258 539.701 102.248 551.09 102.248Z" fill="#FAC0B5"/>
<path d="M551.504 108.261C562.906 108.261 566 105.88 566 108.396C566 111.092 563.482 115.629 551.036 115.629C538.626 115.584 536 111.047 536 108.351C536 105.88 540.101 108.261 551.504 108.261Z" fill="#FAC0B5"/>
<path d="M551.09 99.6693C562.479 99.6693 566 98.2987 566 95.8672C566 93.2145 563.485 88.7493 551.054 88.7493C538.623 88.7493 536 93.2145 536 95.8672C536 98.2987 539.701 99.6693 551.09 99.6693Z" fill="#FAC0B5"/>
<path d="M551.09 550.248C562.479 550.248 566 548.258 566 550.2C566 552.336 563.485 553.549 551.054 553.549C538.659 553.549 536 552.336 536 550.2C536.036 548.258 539.701 550.248 551.09 550.248Z" fill="#FAC0B5"/>
<path d="M551.504 556.261C562.906 556.261 566 553.88 566 556.396C566 559.092 563.482 563.629 551.036 563.629C538.626 563.584 536 559.047 536 556.351C536 553.88 540.101 556.261 551.504 556.261Z" fill="#FAC0B5"/>
<path d="M551.09 547.669C562.479 547.669 566 546.299 566 543.867C566 541.215 563.485 536.749 551.054 536.749C538.623 536.749 536 541.215 536 543.867C536 546.299 539.701 547.669 551.09 547.669Z" fill="#FAC0B5"/>
<path d="M383.571 45.8991C394.96 45.8991 398.481 43.9089 398.481 45.8506C398.481 47.9864 395.966 49.2 383.535 49.2C371.139 49.2 368.481 47.9864 368.481 45.8506C368.517 43.9089 372.181 45.8991 383.571 45.8991Z" fill="#FAC0B5"/>
<path d="M383.984 51.912C395.387 51.912 398.481 49.5309 398.481 52.0468C398.481 54.7424 395.963 59.2799 383.517 59.2799C371.107 59.235 368.481 54.6974 368.481 52.0019C368.481 49.5309 372.581 51.912 383.984 51.912Z" fill="#FAC0B5"/>
<path d="M383.571 43.3199C394.96 43.3199 398.481 41.9494 398.481 39.5178C398.481 36.8652 395.966 32.3999 383.535 32.3999C371.104 32.3999 368.481 36.8652 368.481 39.5178C368.481 41.9494 372.181 43.3199 383.571 43.3199Z" fill="#FAC0B5"/>
<path d="M383.571 493.899C394.96 493.899 398.481 491.909 398.481 493.851C398.481 495.986 395.966 497.2 383.535 497.2C371.139 497.2 368.481 495.986 368.481 493.851C368.517 491.909 372.181 493.899 383.571 493.899Z" fill="#FAC0B5"/>
<path d="M383.984 499.912C395.387 499.912 398.481 497.531 398.481 500.047C398.481 502.742 395.963 507.28 383.517 507.28C371.107 507.235 368.481 502.697 368.481 500.002C368.481 497.531 372.581 499.912 383.984 499.912Z" fill="#FAC0B5"/>
<path d="M383.571 491.32C394.96 491.32 398.481 489.949 398.481 487.518C398.481 484.865 395.966 480.4 383.535 480.4C371.104 480.4 368.481 484.865 368.481 487.518C368.481 489.949 372.181 491.32 383.571 491.32Z" fill="#FAC0B5"/>
<path d="M831.571 45.8991C842.96 45.8991 846.481 43.9089 846.481 45.8506C846.481 47.9864 843.966 49.2 831.535 49.2C819.139 49.2 816.481 47.9864 816.481 45.8506C816.517 43.9089 820.181 45.8991 831.571 45.8991Z" fill="#FAC0B5"/>
<path d="M831.984 51.912C843.387 51.912 846.481 49.5309 846.481 52.0468C846.481 54.7424 843.963 59.2799 831.517 59.2799C819.107 59.235 816.481 54.6974 816.481 52.0019C816.481 49.5309 820.581 51.912 831.984 51.912Z" fill="#FAC0B5"/>
<path d="M831.571 43.3199C842.96 43.3199 846.481 41.9494 846.481 39.5178C846.481 36.8652 843.966 32.3999 831.535 32.3999C819.103 32.3999 816.481 36.8652 816.481 39.5178C816.481 41.9494 820.181 43.3199 831.571 43.3199Z" fill="#FAC0B5"/>
<path d="M831.571 493.899C842.96 493.899 846.481 491.909 846.481 493.851C846.481 495.986 843.966 497.2 831.535 497.2C819.139 497.2 816.481 495.986 816.481 493.851C816.517 491.909 820.181 493.899 831.571 493.899Z" fill="#FAC0B5"/>
<path d="M831.984 499.912C843.387 499.912 846.481 497.531 846.481 500.047C846.481 502.742 843.963 507.28 831.517 507.28C819.107 507.235 816.481 502.697 816.481 500.002C816.481 497.531 820.581 499.912 831.984 499.912Z" fill="#FAC0B5"/>
<path d="M831.571 491.32C842.96 491.32 846.481 489.949 846.481 487.518C846.481 484.865 843.966 480.4 831.535 480.4C819.103 480.4 816.481 484.865 816.481 487.518C816.481 489.949 820.181 491.32 831.571 491.32Z" fill="#FAC0B5"/>
<path d="M159.09 46.2485C170.479 46.2485 174 44.2582 174 46.1999C174 48.3358 171.485 49.5494 159.054 49.5494C146.659 49.5494 144 48.3358 144 46.1999C144.036 44.2582 147.701 46.2485 159.09 46.2485Z" fill="#92D2C4"/>
<path d="M159.504 52.2614C170.906 52.2614 174 49.8803 174 52.3962C174 55.0917 171.482 59.6292 159.036 59.6292C146.626 59.5843 144 55.0468 144 52.3512C144 49.8803 148.101 52.2614 159.504 52.2614Z" fill="#92D2C4"/>
<path d="M159.09 43.6693C170.479 43.6693 174 42.2987 174 39.8672C174 37.2145 171.485 32.7493 159.054 32.7493C146.623 32.7493 144 37.2145 144 39.8672C144 42.2987 147.701 43.6693 159.09 43.6693Z" fill="#92D2C4"/>
<path d="M159.09 494.248C170.479 494.248 174 492.258 174 494.2C174 496.336 171.485 497.549 159.054 497.549C146.659 497.549 144 496.336 144 494.2C144.036 492.258 147.701 494.248 159.09 494.248Z" fill="#92D2C4"/>
<path d="M159.504 500.261C170.906 500.261 174 497.88 174 500.396C174 503.092 171.482 507.629 159.036 507.629C146.626 507.584 144 503.047 144 500.351C144 497.88 148.101 500.261 159.504 500.261Z" fill="#92D2C4"/>
<path d="M159.09 491.669C170.479 491.669 174 490.299 174 487.867C174 485.215 171.485 480.749 159.054 480.749C146.623 480.749 144 485.215 144 487.867C144 490.299 147.701 491.669 159.09 491.669Z" fill="#92D2C4"/>
<path d="M607.09 46.2485C618.479 46.2485 622 44.2582 622 46.1999C622 48.3358 619.485 49.5494 607.054 49.5494C594.659 49.5494 592 48.3358 592 46.1999C592.036 44.2582 595.701 46.2485 607.09 46.2485Z" fill="#92D2C4"/>
<path d="M607.504 52.2614C618.906 52.2614 622 49.8803 622 52.3962C622 55.0917 619.482 59.6292 607.036 59.6292C594.626 59.5843 592 55.0468 592 52.3512C592 49.8803 596.101 52.2614 607.504 52.2614Z" fill="#92D2C4"/>
<path d="M607.09 43.6693C618.479 43.6693 622 42.2987 622 39.8672C622 37.2145 619.485 32.7493 607.054 32.7493C594.623 32.7493 592 37.2145 592 39.8672C592 42.2987 595.701 43.6693 607.09 43.6693Z" fill="#92D2C4"/>
<path d="M607.09 494.248C618.479 494.248 622 492.258 622 494.2C622 496.336 619.485 497.549 607.054 497.549C594.659 497.549 592 496.336 592 494.2C592.036 492.258 595.701 494.248 607.09 494.248Z" fill="#92D2C4"/>
<path d="M607.504 500.261C618.906 500.261 622 497.88 622 500.396C622 503.092 619.482 507.629 607.036 507.629C594.626 507.584 592 503.047 592 500.351C592 497.88 596.101 500.261 607.504 500.261Z" fill="#92D2C4"/>
<path d="M607.09 491.669C618.479 491.669 622 490.299 622 487.867C622 485.215 619.485 480.749 607.054 480.749C594.623 480.749 592 485.215 592 487.867C592 490.299 595.701 491.669 607.09 491.669Z" fill="#92D2C4"/>
<path d="M271.09 158.248C282.479 158.248 286 156.258 286 158.2C286 160.336 283.485 161.549 271.054 161.549C258.659 161.549 256 160.336 256 158.2C256.036 156.258 259.701 158.248 271.09 158.248Z" fill="#FAC0B5"/>
<path d="M271.504 164.261C282.906 164.261 286 161.88 286 164.396C286 167.092 283.482 171.629 271.036 171.629C258.626 171.584 256 167.047 256 164.351C256 161.88 260.101 164.261 271.504 164.261Z" fill="#FAC0B5"/>
<path d="M271.09 155.669C282.479 155.669 286 154.299 286 151.867C286 149.215 283.485 144.749 271.054 144.749C258.623 144.749 256 149.215 256 151.867C256 154.299 259.701 155.669 271.09 155.669Z" fill="#FAC0B5"/>
<path d="M271.09 606.248C282.479 606.248 286 604.258 286 606.2C286 608.336 283.485 609.549 271.054 609.549C258.659 609.549 256 608.336 256 606.2C256.036 604.258 259.701 606.248 271.09 606.248Z" fill="#FAC0B5"/>
<path d="M271.504 612.261C282.906 612.261 286 609.88 286 612.396C286 615.092 283.482 619.629 271.036 619.629C258.626 619.584 256 615.047 256 612.351C256 609.88 260.101 612.261 271.504 612.261Z" fill="#FAC0B5"/>
<path d="M271.09 603.669C282.479 603.669 286 602.299 286 599.867C286 597.215 283.485 592.749 271.054 592.749C258.623 592.749 256 597.215 256 599.867C256 602.299 259.701 603.669 271.09 603.669Z" fill="#FAC0B5"/>
<path d="M719.09 158.248C730.479 158.248 734 156.258 734 158.2C734 160.336 731.485 161.549 719.054 161.549C706.659 161.549 704 160.336 704 158.2C704.036 156.258 707.701 158.248 719.09 158.248Z" fill="#FAC0B5"/>
<path d="M719.504 164.261C730.906 164.261 734 161.88 734 164.396C734 167.092 731.482 171.629 719.036 171.629C706.626 171.584 704 167.047 704 164.351C704 161.88 708.101 164.261 719.504 164.261Z" fill="#FAC0B5"/>
<path d="M719.09 155.669C730.479 155.669 734 154.299 734 151.867C734 149.215 731.485 144.749 719.054 144.749C706.623 144.749 704 149.215 704 151.867C704 154.299 707.701 155.669 719.09 155.669Z" fill="#FAC0B5"/>
<path d="M719.09 606.248C730.479 606.248 734 604.258 734 606.2C734 608.336 731.485 609.549 719.054 609.549C706.659 609.549 704 608.336 704 606.2C704.036 604.258 707.701 606.248 719.09 606.248Z" fill="#FAC0B5"/>
<path d="M719.504 612.261C730.906 612.261 734 609.88 734 612.396C734 615.092 731.482 619.629 719.036 619.629C706.626 619.584 704 615.047 704 612.351C704 609.88 708.101 612.261 719.504 612.261Z" fill="#FAC0B5"/>
<path d="M719.09 603.669C730.479 603.669 734 602.299 734 599.867C734 597.215 731.485 592.749 719.054 592.749C706.623 592.749 704 597.215 704 599.867C704 602.299 707.701 603.669 719.09 603.669Z" fill="#FAC0B5"/>
<path d="M439.09 214.248C450.479 214.248 454 212.258 454 214.2C454 216.336 451.485 217.549 439.054 217.549C426.659 217.549 424 216.336 424 214.2C424.036 212.258 427.701 214.248 439.09 214.248Z" fill="#FAC0B5"/>
<path d="M439.504 220.261C450.906 220.261 454 217.88 454 220.396C454 223.092 451.482 227.629 439.036 227.629C426.626 227.584 424 223.047 424 220.351C424 217.88 428.101 220.261 439.504 220.261Z" fill="#FAC0B5"/>
<path d="M439.09 211.669C450.479 211.669 454 210.299 454 207.867C454 205.215 451.485 200.749 439.054 200.749C426.623 200.749 424 205.215 424 207.867C424 210.299 427.701 211.669 439.09 211.669Z" fill="#FAC0B5"/>
<path d="M439.09 662.248C450.479 662.248 454 660.258 454 662.2C454 664.336 451.485 665.549 439.054 665.549C426.659 665.549 424 664.336 424 662.2C424.036 660.258 427.701 662.248 439.09 662.248Z" fill="#FAC0B5"/>
<path d="M439.504 668.261C450.906 668.261 454 665.88 454 668.396C454 671.092 451.482 675.629 439.036 675.629C426.626 675.584 424 671.047 424 668.351C424 665.88 428.101 668.261 439.504 668.261Z" fill="#FAC0B5"/>
<path d="M439.09 659.669C450.479 659.669 454 658.299 454 655.867C454 653.215 451.485 648.749 439.054 648.749C426.623 648.749 424 653.215 424 655.867C424 658.299 427.701 659.669 439.09 659.669Z" fill="#FAC0B5"/>
<path d="M887.09 214.248C898.479 214.248 902 212.258 902 214.2C902 216.336 899.485 217.549 887.054 217.549C874.659 217.549 872 216.336 872 214.2C872.036 212.258 875.701 214.248 887.09 214.248Z" fill="#FAC0B5"/>
<path d="M887.504 220.261C898.906 220.261 902 217.88 902 220.396C902 223.092 899.482 227.629 887.036 227.629C874.626 227.584 872 223.047 872 220.351C872 217.88 876.101 220.261 887.504 220.261Z" fill="#FAC0B5"/>
<path d="M887.09 211.669C898.479 211.669 902 210.299 902 207.867C902 205.215 899.485 200.749 887.054 200.749C874.623 200.749 872 205.215 872 207.867C872 210.299 875.701 211.669 887.09 211.669Z" fill="#FAC0B5"/>
<path d="M887.09 662.248C898.479 662.248 902 660.258 902 662.2C902 664.336 899.485 665.549 887.054 665.549C874.659 665.549 872 664.336 872 662.2C872.036 660.258 875.701 662.248 887.09 662.248Z" fill="#FAC0B5"/>
<path d="M887.504 668.261C898.906 668.261 902 665.88 902 668.396C902 671.092 899.482 675.629 887.036 675.629C874.626 675.584 872 671.047 872 668.351C872 665.88 876.101 668.261 887.504 668.261Z" fill="#FAC0B5"/>
<path d="M887.09 659.669C898.479 659.669 902 658.299 902 655.867C902 653.215 899.485 648.749 887.054 648.749C874.623 648.749 872 653.215 872 655.867C872 658.299 875.701 659.669 887.09 659.669Z" fill="#FAC0B5"/>
<path d="M327.09 214.248C338.479 214.248 342 212.258 342 214.2C342 216.336 339.485 217.549 327.054 217.549C314.659 217.549 312 216.336 312 214.2C312.036 212.258 315.701 214.248 327.09 214.248Z" fill="#FFD675"/>
<path d="M327.504 220.261C338.906 220.261 342 217.88 342 220.396C342 223.092 339.482 227.629 327.036 227.629C314.626 227.584 312 223.047 312 220.351C312 217.88 316.101 220.261 327.504 220.261Z" fill="#FFD675"/>
<path d="M327.09 211.669C338.479 211.669 342 210.299 342 207.867C342 205.215 339.485 200.749 327.054 200.749C314.623 200.749 312 205.215 312 207.867C312 210.299 315.701 211.669 327.09 211.669Z" fill="#FFD675"/>
<path d="M327.09 662.248C338.479 662.248 342 660.258 342 662.2C342 664.336 339.485 665.549 327.054 665.549C314.659 665.549 312 664.336 312 662.2C312.036 660.258 315.701 662.248 327.09 662.248Z" fill="#FFD675"/>
<path d="M327.504 668.261C338.906 668.261 342 665.88 342 668.396C342 671.092 339.482 675.629 327.036 675.629C314.626 675.584 312 671.047 312 668.351C312 665.88 316.101 668.261 327.504 668.261Z" fill="#FFD675"/>
<path d="M327.09 659.669C338.479 659.669 342 658.299 342 655.867C342 653.215 339.485 648.749 327.054 648.749C314.623 648.749 312 653.215 312 655.867C312 658.299 315.701 659.669 327.09 659.669Z" fill="#FFD675"/>
<path d="M775.09 214.248C786.479 214.248 790 212.258 790 214.2C790 216.336 787.485 217.549 775.054 217.549C762.659 217.549 760 216.336 760 214.2C760.036 212.258 763.701 214.248 775.09 214.248Z" fill="#FFD675"/>
<path d="M775.504 220.261C786.906 220.261 790 217.88 790 220.396C790 223.092 787.482 227.629 775.036 227.629C762.626 227.584 760 223.047 760 220.351C760 217.88 764.101 220.261 775.504 220.261Z" fill="#FFD675"/>
<path d="M775.09 211.669C786.479 211.669 790 210.299 790 207.867C790 205.215 787.485 200.749 775.054 200.749C762.623 200.749 760 205.215 760 207.867C760 210.299 763.701 211.669 775.09 211.669Z" fill="#FFD675"/>
<path d="M775.09 662.248C786.479 662.248 790 660.258 790 662.2C790 664.336 787.485 665.549 775.054 665.549C762.659 665.549 760 664.336 760 662.2C760.036 660.258 763.701 662.248 775.09 662.248Z" fill="#FFD675"/>
<path d="M775.504 668.261C786.906 668.261 790 665.88 790 668.396C790 671.092 787.482 675.629 775.036 675.629C762.626 675.584 760 671.047 760 668.351C760 665.88 764.101 668.261 775.504 668.261Z" fill="#FFD675"/>
<path d="M775.09 659.669C786.479 659.669 790 658.299 790 655.867C790 653.215 787.485 648.749 775.054 648.749C762.623 648.749 760 653.215 760 655.867C760 658.299 763.701 659.669 775.09 659.669Z" fill="#FFD675"/>
<path d="M215.09 214.248C226.479 214.248 230 212.258 230 214.2C230 216.336 227.485 217.549 215.054 217.549C202.659 217.549 200 216.336 200 214.2C200.036 212.258 203.701 214.248 215.09 214.248Z" fill="#92D2C4"/>
<path d="M215.504 220.261C226.906 220.261 230 217.88 230 220.396C230 223.092 227.482 227.629 215.036 227.629C202.626 227.584 200 223.047 200 220.351C200 217.88 204.101 220.261 215.504 220.261Z" fill="#92D2C4"/>
<path d="M215.09 211.669C226.479 211.669 230 210.299 230 207.867C230 205.215 227.485 200.749 215.054 200.749C202.623 200.749 200 205.215 200 207.867C200 210.299 203.701 211.669 215.09 211.669Z" fill="#92D2C4"/>
<path d="M215.09 662.248C226.479 662.248 230 660.258 230 662.2C230 664.336 227.485 665.549 215.054 665.549C202.659 665.549 200 664.336 200 662.2C200.036 660.258 203.701 662.248 215.09 662.248Z" fill="#92D2C4"/>
<path d="M215.504 668.261C226.906 668.261 230 665.88 230 668.396C230 671.092 227.482 675.629 215.036 675.629C202.626 675.584 200 671.047 200 668.351C200 665.88 204.101 668.261 215.504 668.261Z" fill="#92D2C4"/>
<path d="M215.09 659.669C226.479 659.669 230 658.299 230 655.867C230 653.215 227.485 648.749 215.054 648.749C202.623 648.749 200 653.215 200 655.867C200 658.299 203.701 659.669 215.09 659.669Z" fill="#92D2C4"/>
<path d="M663.09 214.248C674.479 214.248 678 212.258 678 214.2C678 216.336 675.485 217.549 663.054 217.549C650.659 217.549 648 216.336 648 214.2C648.036 212.258 651.701 214.248 663.09 214.248Z" fill="#92D2C4"/>
<path d="M663.504 220.261C674.906 220.261 678 217.88 678 220.396C678 223.092 675.482 227.629 663.036 227.629C650.626 227.584 648 223.047 648 220.351C648 217.88 652.101 220.261 663.504 220.261Z" fill="#92D2C4"/>
<path d="M663.09 211.669C674.479 211.669 678 210.299 678 207.867C678 205.215 675.485 200.749 663.054 200.749C650.623 200.749 648 205.215 648 207.867C648 210.299 651.701 211.669 663.09 211.669Z" fill="#92D2C4"/>
<path d="M663.09 662.248C674.479 662.248 678 660.258 678 662.2C678 664.336 675.485 665.549 663.054 665.549C650.659 665.549 648 664.336 648 662.2C648.036 660.258 651.701 662.248 663.09 662.248Z" fill="#92D2C4"/>
<path d="M663.504 668.261C674.906 668.261 678 665.88 678 668.396C678 671.092 675.482 675.629 663.036 675.629C650.626 675.584 648 671.047 648 668.351C648 665.88 652.101 668.261 663.504 668.261Z" fill="#92D2C4"/>
<path d="M663.09 659.669C674.479 659.669 678 658.299 678 655.867C678 653.215 675.485 648.749 663.054 648.749C650.623 648.749 648 653.215 648 655.867C648 658.299 651.701 659.669 663.09 659.669Z" fill="#92D2C4"/>
<path d="M439.09 102.248C450.479 102.248 454 100.258 454 102.2C454 104.336 451.485 105.549 439.054 105.549C426.659 105.549 424 104.336 424 102.2C424.036 100.258 427.701 102.248 439.09 102.248Z" fill="#FFD675"/>
<path d="M439.504 108.261C450.906 108.261 454 105.88 454 108.396C454 111.092 451.482 115.629 439.036 115.629C426.626 115.584 424 111.047 424 108.351C424 105.88 428.101 108.261 439.504 108.261Z" fill="#FFD675"/>
<path d="M439.09 99.6693C450.479 99.6693 454 98.2987 454 95.8672C454 93.2145 451.485 88.7493 439.054 88.7493C426.623 88.7493 424 93.2145 424 95.8672C424 98.2987 427.701 99.6693 439.09 99.6693Z" fill="#FFD675"/>
<path d="M439.09 550.248C450.479 550.248 454 548.258 454 550.2C454 552.336 451.485 553.549 439.054 553.549C426.659 553.549 424 552.336 424 550.2C424.036 548.258 427.701 550.248 439.09 550.248Z" fill="#FFD675"/>
<path d="M439.504 556.261C450.906 556.261 454 553.88 454 556.396C454 559.092 451.482 563.629 439.036 563.629C426.626 563.584 424 559.047 424 556.351C424 553.88 428.101 556.261 439.504 556.261Z" fill="#FFD675"/>
<path d="M439.09 547.669C450.479 547.669 454 546.299 454 543.867C454 541.215 451.485 536.749 439.054 536.749C426.623 536.749 424 541.215 424 543.867C424 546.299 427.701 547.669 439.09 547.669Z" fill="#FFD675"/>
<path d="M887.09 102.248C898.479 102.248 902 100.258 902 102.2C902 104.336 899.485 105.549 887.054 105.549C874.659 105.549 872 104.336 872 102.2C872.036 100.258 875.701 102.248 887.09 102.248Z" fill="#FFD675"/>
<path d="M887.504 108.261C898.906 108.261 902 105.88 902 108.396C902 111.092 899.482 115.629 887.036 115.629C874.626 115.584 872 111.047 872 108.351C872 105.88 876.101 108.261 887.504 108.261Z" fill="#FFD675"/>
<path d="M887.09 99.6693C898.479 99.6693 902 98.2987 902 95.8672C902 93.2145 899.485 88.7493 887.054 88.7493C874.623 88.7493 872 93.2145 872 95.8672C872 98.2987 875.701 99.6693 887.09 99.6693Z" fill="#FFD675"/>
<path d="M887.09 550.248C898.479 550.248 902 548.258 902 550.2C902 552.336 899.485 553.549 887.054 553.549C874.659 553.549 872 552.336 872 550.2C872.036 548.258 875.701 550.248 887.09 550.248Z" fill="#FFD675"/>
<path d="M887.504 556.261C898.906 556.261 902 553.88 902 556.396C902 559.092 899.482 563.629 887.036 563.629C874.626 563.584 872 559.047 872 556.351C872 553.88 876.101 556.261 887.504 556.261Z" fill="#FFD675"/>
<path d="M887.09 547.669C898.479 547.669 902 546.299 902 543.867C902 541.215 899.485 536.749 887.054 536.749C874.623 536.749 872 541.215 872 543.867C872 546.299 875.701 547.669 887.09 547.669Z" fill="#FFD675"/>
<path d="M215.09 102.248C226.479 102.248 230 100.258 230 102.2C230 104.336 227.485 105.549 215.054 105.549C202.659 105.549 200 104.336 200 102.2C200.036 100.258 203.701 102.248 215.09 102.248Z" fill="#9BB2DD"/>
<path d="M215.504 108.261C226.906 108.261 230 105.88 230 108.396C230 111.092 227.482 115.629 215.036 115.629C202.626 115.584 200 111.047 200 108.351C200 105.88 204.101 108.261 215.504 108.261Z" fill="#9BB2DD"/>
<path d="M215.09 99.6693C226.479 99.6693 230 98.2987 230 95.8672C230 93.2145 227.485 88.7493 215.054 88.7493C202.623 88.7493 200 93.2145 200 95.8672C200 98.2987 203.701 99.6693 215.09 99.6693Z" fill="#9BB2DD"/>
<path d="M215.09 550.248C226.479 550.248 230 548.258 230 550.2C230 552.336 227.485 553.549 215.054 553.549C202.659 553.549 200 552.336 200 550.2C200.036 548.258 203.701 550.248 215.09 550.248Z" fill="#9BB2DD"/>
<path d="M215.504 556.261C226.906 556.261 230 553.88 230 556.396C230 559.092 227.482 563.629 215.036 563.629C202.626 563.584 200 559.047 200 556.351C200 553.88 204.101 556.261 215.504 556.261Z" fill="#9BB2DD"/>
<path d="M215.09 547.669C226.479 547.669 230 546.299 230 543.867C230 541.215 227.485 536.749 215.054 536.749C202.623 536.749 200 541.215 200 543.867C200 546.299 203.701 547.669 215.09 547.669Z" fill="#9BB2DD"/>
<path d="M663.09 102.248C674.479 102.248 678 100.258 678 102.2C678 104.336 675.485 105.549 663.054 105.549C650.659 105.549 648 104.336 648 102.2C648.036 100.258 651.701 102.248 663.09 102.248Z" fill="#9BB2DD"/>
<path d="M663.504 108.261C674.906 108.261 678 105.88 678 108.396C678 111.092 675.482 115.629 663.036 115.629C650.626 115.584 648 111.047 648 108.351C648 105.88 652.101 108.261 663.504 108.261Z" fill="#9BB2DD"/>
<path d="M663.09 99.6693C674.479 99.6693 678 98.2987 678 95.8672C678 93.2145 675.485 88.7493 663.054 88.7493C650.623 88.7493 648 93.2145 648 95.8672C648 98.2987 651.701 99.6693 663.09 99.6693Z" fill="#9BB2DD"/>
<path d="M663.09 550.248C674.479 550.248 678 548.258 678 550.2C678 552.336 675.485 553.549 663.054 553.549C650.659 553.549 648 552.336 648 550.2C648.036 548.258 651.701 550.248 663.09 550.248Z" fill="#9BB2DD"/>
<path d="M663.504 556.261C674.906 556.261 678 553.88 678 556.396C678 559.092 675.482 563.629 663.036 563.629C650.626 563.584 648 559.047 648 556.351C648 553.88 652.101 556.261 663.504 556.261Z" fill="#9BB2DD"/>
<path d="M663.09 547.669C674.479 547.669 678 546.299 678 543.867C678 541.215 675.485 536.749 663.054 536.749C650.623 536.749 648 541.215 648 543.867C648 546.299 651.701 547.669 663.09 547.669Z" fill="#9BB2DD"/>
<path d="M47.0898 158.248C58.479 158.248 62 156.258 62 158.2C62 160.336 59.485 161.549 47.0539 161.549C34.6587 161.549 32 160.336 32 158.2C32.0359 156.258 35.7006 158.248 47.0898 158.248Z" fill="#92D2C4"/>
<path d="M47.5036 164.261C58.9065 164.261 62 161.88 62 164.396C62 167.092 59.482 171.629 47.036 171.629C34.6259 171.584 32 167.047 32 164.351C32 161.88 36.1007 164.261 47.5036 164.261Z" fill="#92D2C4"/>
<path d="M47.0898 155.669C58.479 155.669 62 154.299 62 151.867C62 149.215 59.485 144.749 47.0539 144.749C34.6228 144.749 32 149.215 32 151.867C32 154.299 35.7006 155.669 47.0898 155.669Z" fill="#92D2C4"/>
<path d="M47.0898 606.248C58.479 606.248 62 604.258 62 606.2C62 608.336 59.485 609.549 47.0539 609.549C34.6587 609.549 32 608.336 32 606.2C32.0359 604.258 35.7006 606.248 47.0898 606.248Z" fill="#92D2C4"/>
<path d="M47.5036 612.261C58.9065 612.261 62 609.88 62 612.396C62 615.092 59.482 619.629 47.036 619.629C34.6259 619.584 32 615.047 32 612.351C32 609.88 36.1007 612.261 47.5036 612.261Z" fill="#92D2C4"/>
<path d="M47.0898 603.669C58.479 603.669 62 602.299 62 599.867C62 597.215 59.485 592.749 47.0539 592.749C34.6228 592.749 32 597.215 32 599.867C32 602.299 35.7006 603.669 47.0898 603.669Z" fill="#92D2C4"/>
<path d="M495.09 158.248C506.479 158.248 510 156.258 510 158.2C510 160.336 507.485 161.549 495.054 161.549C482.659 161.549 480 160.336 480 158.2C480.036 156.258 483.701 158.248 495.09 158.248Z" fill="#92D2C4"/>
<path d="M495.504 164.261C506.906 164.261 510 161.88 510 164.396C510 167.092 507.482 171.629 495.036 171.629C482.626 171.584 480 167.047 480 164.351C480 161.88 484.101 164.261 495.504 164.261Z" fill="#92D2C4"/>
<path d="M495.09 155.669C506.479 155.669 510 154.299 510 151.867C510 149.215 507.485 144.749 495.054 144.749C482.623 144.749 480 149.215 480 151.867C480 154.299 483.701 155.669 495.09 155.669Z" fill="#92D2C4"/>
<path d="M495.09 606.248C506.479 606.248 510 604.258 510 606.2C510 608.336 507.485 609.549 495.054 609.549C482.659 609.549 480 608.336 480 606.2C480.036 604.258 483.701 606.248 495.09 606.248Z" fill="#92D2C4"/>
<path d="M495.504 612.261C506.906 612.261 510 609.88 510 612.396C510 615.092 507.482 619.629 495.036 619.629C482.626 619.584 480 615.047 480 612.351C480 609.88 484.101 612.261 495.504 612.261Z" fill="#92D2C4"/>
<path d="M495.09 603.669C506.479 603.669 510 602.299 510 599.867C510 597.215 507.485 592.749 495.054 592.749C482.623 592.749 480 597.215 480 599.867C480 602.299 483.701 603.669 495.09 603.669Z" fill="#92D2C4"/>
<path d="M47.0898 270.248C58.479 270.248 62 268.258 62 270.2C62 272.336 59.485 273.549 47.0539 273.549C34.6587 273.549 32 272.336 32 270.2C32.0359 268.258 35.7006 270.248 47.0898 270.248Z" fill="#FFD675"/>
<path d="M47.5036 276.261C58.9065 276.261 62 273.88 62 276.396C62 279.092 59.482 283.629 47.036 283.629C34.6259 283.584 32 279.047 32 276.351C32 273.88 36.1007 276.261 47.5036 276.261Z" fill="#FFD675"/>
<path d="M47.0898 267.669C58.479 267.669 62 266.299 62 263.867C62 261.215 59.485 256.749 47.0539 256.749C34.6228 256.749 32 261.215 32 263.867C32 266.299 35.7006 267.669 47.0898 267.669Z" fill="#FFD675"/>
<path d="M47.0898 718.248C58.479 718.248 62 716.258 62 718.2C62 720.336 59.485 721.549 47.0539 721.549C34.6587 721.549 32 720.336 32 718.2C32.0359 716.258 35.7006 718.248 47.0898 718.248Z" fill="#FFD675"/>
<path d="M47.5036 724.261C58.9065 724.261 62 721.88 62 724.396C62 727.092 59.482 731.629 47.036 731.629C34.6259 731.584 32 727.047 32 724.351C32 721.88 36.1007 724.261 47.5036 724.261Z" fill="#FFD675"/>
<path d="M47.0898 715.669C58.479 715.669 62 714.299 62 711.867C62 709.215 59.485 704.749 47.0539 704.749C34.6228 704.749 32 709.215 32 711.867C32 714.299 35.7006 715.669 47.0898 715.669Z" fill="#FFD675"/>
<path d="M495.09 270.248C506.479 270.248 510 268.258 510 270.2C510 272.336 507.485 273.549 495.054 273.549C482.659 273.549 480 272.336 480 270.2C480.036 268.258 483.701 270.248 495.09 270.248Z" fill="#FFD675"/>
<path d="M495.504 276.261C506.906 276.261 510 273.88 510 276.396C510 279.092 507.482 283.629 495.036 283.629C482.626 283.584 480 279.047 480 276.351C480 273.88 484.101 276.261 495.504 276.261Z" fill="#FFD675"/>
<path d="M495.09 267.669C506.479 267.669 510 266.299 510 263.867C510 261.215 507.485 256.749 495.054 256.749C482.623 256.749 480 261.215 480 263.867C480 266.299 483.701 267.669 495.09 267.669Z" fill="#FFD675"/>
<path d="M495.09 718.248C506.479 718.248 510 716.258 510 718.2C510 720.336 507.485 721.549 495.054 721.549C482.659 721.549 480 720.336 480 718.2C480.036 716.258 483.701 718.248 495.09 718.248Z" fill="#FFD675"/>
<path d="M495.504 724.261C506.906 724.261 510 721.88 510 724.396C510 727.092 507.482 731.629 495.036 731.629C482.626 731.584 480 727.047 480 724.351C480 721.88 484.101 724.261 495.504 724.261Z" fill="#FFD675"/>
<path d="M495.09 715.669C506.479 715.669 510 714.299 510 711.867C510 709.215 507.485 704.749 495.054 704.749C482.623 704.749 480 709.215 480 711.867C480 714.299 483.701 715.669 495.09 715.669Z" fill="#FFD675"/>
<path d="M103.09 326.248C114.479 326.248 118 324.258 118 326.2C118 328.336 115.485 329.549 103.054 329.549C90.6587 329.549 88 328.336 88 326.2C88.0359 324.258 91.7006 326.248 103.09 326.248Z" fill="#92D2C4"/>
<path d="M103.504 332.261C114.906 332.261 118 329.88 118 332.396C118 335.092 115.482 339.629 103.036 339.629C90.6259 339.584 88 335.047 88 332.351C88 329.88 92.1007 332.261 103.504 332.261Z" fill="#92D2C4"/>
<path d="M103.09 323.669C114.479 323.669 118 322.299 118 319.867C118 317.215 115.485 312.749 103.054 312.749C90.6228 312.749 88 317.215 88 319.867C88 322.299 91.7006 323.669 103.09 323.669Z" fill="#92D2C4"/>
<path d="M103.09 774.248C114.479 774.248 118 772.258 118 774.2C118 776.336 115.485 777.549 103.054 777.549C90.6587 777.549 88 776.336 88 774.2C88.0359 772.258 91.7006 774.248 103.09 774.248Z" fill="#92D2C4"/>
<path d="M103.504 780.261C114.906 780.261 118 777.88 118 780.396C118 783.092 115.482 787.629 103.036 787.629C90.6259 787.584 88 783.047 88 780.351C88 777.88 92.1007 780.261 103.504 780.261Z" fill="#92D2C4"/>
<path d="M103.09 771.669C114.479 771.669 118 770.299 118 767.867C118 765.215 115.485 760.749 103.054 760.749C90.6228 760.749 88 765.215 88 767.867C88 770.299 91.7006 771.669 103.09 771.669Z" fill="#92D2C4"/>
<path d="M551.09 326.248C562.479 326.248 566 324.258 566 326.2C566 328.336 563.485 329.549 551.054 329.549C538.659 329.549 536 328.336 536 326.2C536.036 324.258 539.701 326.248 551.09 326.248Z" fill="#92D2C4"/>
<path d="M551.504 332.261C562.906 332.261 566 329.88 566 332.396C566 335.092 563.482 339.629 551.036 339.629C538.626 339.584 536 335.047 536 332.351C536 329.88 540.101 332.261 551.504 332.261Z" fill="#92D2C4"/>
<path d="M551.09 323.669C562.479 323.669 566 322.299 566 319.867C566 317.215 563.485 312.749 551.054 312.749C538.623 312.749 536 317.215 536 319.867C536 322.299 539.701 323.669 551.09 323.669Z" fill="#92D2C4"/>
<path d="M551.09 774.248C562.479 774.248 566 772.258 566 774.2C566 776.336 563.485 777.549 551.054 777.549C538.659 777.549 536 776.336 536 774.2C536.036 772.258 539.701 774.248 551.09 774.248Z" fill="#92D2C4"/>
<path d="M551.504 780.261C562.906 780.261 566 777.88 566 780.396C566 783.092 563.482 787.629 551.036 787.629C538.626 787.584 536 783.047 536 780.351C536 777.88 540.101 780.261 551.504 780.261Z" fill="#92D2C4"/>
<path d="M551.09 771.669C562.479 771.669 566 770.299 566 767.867C566 765.215 563.485 760.749 551.054 760.749C538.623 760.749 536 765.215 536 767.867C536 770.299 539.701 771.669 551.09 771.669Z" fill="#92D2C4"/>
<path d="M103.09 438.248C114.479 438.248 118 436.258 118 438.2C118 440.336 115.485 441.549 103.054 441.549C90.6587 441.549 88 440.336 88 438.2C88.0359 436.258 91.7006 438.248 103.09 438.248Z" fill="#FFD675"/>
<path d="M103.504 444.261C114.906 444.261 118 441.88 118 444.396C118 447.092 115.482 451.629 103.036 451.629C90.6259 451.584 88 447.047 88 444.351C88 441.88 92.1007 444.261 103.504 444.261Z" fill="#FFD675"/>
<path d="M103.09 435.669C114.479 435.669 118 434.299 118 431.867C118 429.215 115.485 424.749 103.054 424.749C90.6228 424.749 88 429.215 88 431.867C88 434.299 91.7006 435.669 103.09 435.669Z" fill="#FFD675"/>
<path d="M103.09 886.248C114.479 886.248 118 884.258 118 886.2C118 888.336 115.485 889.549 103.054 889.549C90.6587 889.549 88 888.336 88 886.2C88.0359 884.258 91.7006 886.248 103.09 886.248Z" fill="#FFD675"/>
<path d="M103.504 892.262C114.906 892.262 118 889.88 118 892.396C118 895.092 115.482 899.629 103.036 899.629C90.6259 899.584 88 895.047 88 892.351C88 889.88 92.1007 892.262 103.504 892.262Z" fill="#FFD675"/>
<path d="M103.09 883.669C114.479 883.669 118 882.299 118 879.867C118 877.215 115.485 872.749 103.054 872.749C90.6228 872.749 88 877.215 88 879.867C88 882.299 91.7006 883.669 103.09 883.669Z" fill="#FFD675"/>
<path d="M551.09 438.248C562.479 438.248 566 436.258 566 438.2C566 440.336 563.485 441.549 551.054 441.549C538.659 441.549 536 440.336 536 438.2C536.036 436.258 539.701 438.248 551.09 438.248Z" fill="#FFD675"/>
<path d="M551.504 444.261C562.906 444.261 566 441.88 566 444.396C566 447.092 563.482 451.629 551.036 451.629C538.626 451.584 536 447.047 536 444.351C536 441.88 540.101 444.261 551.504 444.261Z" fill="#FFD675"/>
<path d="M551.09 435.669C562.479 435.669 566 434.299 566 431.867C566 429.215 563.485 424.749 551.054 424.749C538.623 424.749 536 429.215 536 431.867C536 434.299 539.701 435.669 551.09 435.669Z" fill="#FFD675"/>
<path d="M551.09 886.248C562.479 886.248 566 884.258 566 886.2C566 888.336 563.485 889.549 551.054 889.549C538.659 889.549 536 888.336 536 886.2C536.036 884.258 539.701 886.248 551.09 886.248Z" fill="#FFD675"/>
<path d="M551.504 892.262C562.906 892.262 566 889.88 566 892.396C566 895.092 563.482 899.629 551.036 899.629C538.626 899.584 536 895.047 536 892.351C536 889.88 540.101 892.262 551.504 892.262Z" fill="#FFD675"/>
<path d="M551.09 883.669C562.479 883.669 566 882.299 566 879.867C566 877.215 563.485 872.749 551.054 872.749C538.623 872.749 536 877.215 536 879.867C536 882.299 539.701 883.669 551.09 883.669Z" fill="#FFD675"/>
<path d="M47.0898 382.248C58.479 382.248 62 380.258 62 382.2C62 384.336 59.485 385.549 47.0539 385.549C34.6587 385.549 32 384.336 32 382.2C32.0359 380.258 35.7006 382.248 47.0898 382.248Z" fill="#FAC0B5"/>
<path d="M47.5036 388.261C58.9065 388.261 62 385.88 62 388.396C62 391.092 59.482 395.629 47.036 395.629C34.6259 395.584 32 391.047 32 388.351C32 385.88 36.1007 388.261 47.5036 388.261Z" fill="#FAC0B5"/>
<path d="M47.0898 379.669C58.479 379.669 62 378.299 62 375.867C62 373.215 59.485 368.749 47.0539 368.749C34.6228 368.749 32 373.215 32 375.867C32 378.299 35.7006 379.669 47.0898 379.669Z" fill="#FAC0B5"/>
<path d="M47.0898 830.248C58.479 830.248 62 828.258 62 830.2C62 832.336 59.485 833.549 47.0539 833.549C34.6587 833.549 32 832.336 32 830.2C32.0359 828.258 35.7006 830.248 47.0898 830.248Z" fill="#FAC0B5"/>
<path d="M47.5036 836.262C58.9065 836.262 62 833.88 62 836.396C62 839.092 59.482 843.629 47.036 843.629C34.6259 843.584 32 839.047 32 836.351C32 833.88 36.1007 836.262 47.5036 836.262Z" fill="#FAC0B5"/>
<path d="M47.0898 827.669C58.479 827.669 62 826.299 62 823.867C62 821.215 59.485 816.749 47.0539 816.749C34.6228 816.749 32 821.215 32 823.867C32 826.299 35.7006 827.669 47.0898 827.669Z" fill="#FAC0B5"/>
<path d="M495.09 382.248C506.479 382.248 510 380.258 510 382.2C510 384.336 507.485 385.549 495.054 385.549C482.659 385.549 480 384.336 480 382.2C480.036 380.258 483.701 382.248 495.09 382.248Z" fill="#FAC0B5"/>
<path d="M495.504 388.261C506.906 388.261 510 385.88 510 388.396C510 391.092 507.482 395.629 495.036 395.629C482.626 395.584 480 391.047 480 388.351C480 385.88 484.101 388.261 495.504 388.261Z" fill="#FAC0B5"/>
<path d="M495.09 379.669C506.479 379.669 510 378.299 510 375.867C510 373.215 507.485 368.749 495.054 368.749C482.623 368.749 480 373.215 480 375.867C480 378.299 483.701 379.669 495.09 379.669Z" fill="#FAC0B5"/>
<path d="M495.09 830.248C506.479 830.248 510 828.258 510 830.2C510 832.336 507.485 833.549 495.054 833.549C482.659 833.549 480 832.336 480 830.2C480.036 828.258 483.701 830.248 495.09 830.248Z" fill="#FAC0B5"/>
<path d="M495.504 836.262C506.906 836.262 510 833.88 510 836.396C510 839.092 507.482 843.629 495.036 843.629C482.626 843.584 480 839.047 480 836.351C480 833.88 484.101 836.262 495.504 836.262Z" fill="#FAC0B5"/>
<path d="M495.09 827.669C506.479 827.669 510 826.299 510 823.867C510 821.215 507.485 816.749 495.054 816.749C482.623 816.749 480 821.215 480 823.867C480 826.299 483.701 827.669 495.09 827.669Z" fill="#FAC0B5"/>
<path d="M215.09 326.248C226.479 326.248 230 324.258 230 326.2C230 328.336 227.485 329.549 215.054 329.549C202.659 329.549 200 328.336 200 326.2C200.036 324.258 203.701 326.248 215.09 326.248Z" fill="#FFD675"/>
<path d="M215.504 332.261C226.906 332.261 230 329.88 230 332.396C230 335.092 227.482 339.629 215.036 339.629C202.626 339.584 200 335.047 200 332.351C200 329.88 204.101 332.261 215.504 332.261Z" fill="#FFD675"/>
<path d="M215.09 323.669C226.479 323.669 230 322.299 230 319.867C230 317.215 227.485 312.749 215.054 312.749C202.623 312.749 200 317.215 200 319.867C200 322.299 203.701 323.669 215.09 323.669Z" fill="#FFD675"/>
<path d="M215.09 774.248C226.479 774.248 230 772.258 230 774.2C230 776.336 227.485 777.549 215.054 777.549C202.659 777.549 200 776.336 200 774.2C200.036 772.258 203.701 774.248 215.09 774.248Z" fill="#FFD675"/>
<path d="M215.504 780.261C226.906 780.261 230 777.88 230 780.396C230 783.092 227.482 787.629 215.036 787.629C202.626 787.584 200 783.047 200 780.351C200 777.88 204.101 780.261 215.504 780.261Z" fill="#FFD675"/>
<path d="M215.09 771.669C226.479 771.669 230 770.299 230 767.867C230 765.215 227.485 760.749 215.054 760.749C202.623 760.749 200 765.215 200 767.867C200 770.299 203.701 771.669 215.09 771.669Z" fill="#FFD675"/>
<path d="M663.09 326.248C674.479 326.248 678 324.258 678 326.2C678 328.336 675.485 329.549 663.054 329.549C650.659 329.549 648 328.336 648 326.2C648.036 324.258 651.701 326.248 663.09 326.248Z" fill="#FFD675"/>
<path d="M663.504 332.261C674.906 332.261 678 329.88 678 332.396C678 335.092 675.482 339.629 663.036 339.629C650.626 339.584 648 335.047 648 332.351C648 329.88 652.101 332.261 663.504 332.261Z" fill="#FFD675"/>
<path d="M663.09 323.669C674.479 323.669 678 322.299 678 319.867C678 317.215 675.485 312.749 663.054 312.749C650.623 312.749 648 317.215 648 319.867C648 322.299 651.701 323.669 663.09 323.669Z" fill="#FFD675"/>
<path d="M663.09 774.248C674.479 774.248 678 772.258 678 774.2C678 776.336 675.485 777.549 663.054 777.549C650.659 777.549 648 776.336 648 774.2C648.036 772.258 651.701 774.248 663.09 774.248Z" fill="#FFD675"/>
<path d="M663.504 780.261C674.906 780.261 678 777.88 678 780.396C678 783.092 675.482 787.629 663.036 787.629C650.626 787.584 648 783.047 648 780.351C648 777.88 652.101 780.261 663.504 780.261Z" fill="#FFD675"/>
<path d="M663.09 771.669C674.479 771.669 678 770.299 678 767.867C678 765.215 675.485 760.749 663.054 760.749C650.623 760.749 648 765.215 648 767.867C648 770.299 651.701 771.669 663.09 771.669Z" fill="#FFD675"/>
<path d="M215.09 438.248C226.479 438.248 230 436.258 230 438.2C230 440.336 227.485 441.549 215.054 441.549C202.659 441.549 200 440.336 200 438.2C200.036 436.258 203.701 438.248 215.09 438.248Z" fill="#FAC0B5"/>
<path d="M215.504 444.261C226.906 444.261 230 441.88 230 444.396C230 447.092 227.482 451.629 215.036 451.629C202.626 451.584 200 447.047 200 444.351C200 441.88 204.101 444.261 215.504 444.261Z" fill="#FAC0B5"/>
<path d="M215.09 435.669C226.479 435.669 230 434.299 230 431.867C230 429.215 227.485 424.749 215.054 424.749C202.623 424.749 200 429.215 200 431.867C200 434.299 203.701 435.669 215.09 435.669Z" fill="#FAC0B5"/>
<path d="M215.09 886.248C226.479 886.248 230 884.258 230 886.2C230 888.336 227.485 889.549 215.054 889.549C202.659 889.549 200 888.336 200 886.2C200.036 884.258 203.701 886.248 215.09 886.248Z" fill="#FAC0B5"/>
<path d="M215.504 892.262C226.906 892.262 230 889.88 230 892.396C230 895.092 227.482 899.629 215.036 899.629C202.626 899.584 200 895.047 200 892.351C200 889.88 204.101 892.262 215.504 892.262Z" fill="#FAC0B5"/>
<path d="M215.09 883.669C226.479 883.669 230 882.299 230 879.867C230 877.215 227.485 872.749 215.054 872.749C202.623 872.749 200 877.215 200 879.867C200 882.299 203.701 883.669 215.09 883.669Z" fill="#FAC0B5"/>
<path d="M663.09 438.248C674.479 438.248 678 436.258 678 438.2C678 440.336 675.485 441.549 663.054 441.549C650.659 441.549 648 440.336 648 438.2C648.036 436.258 651.701 438.248 663.09 438.248Z" fill="#FAC0B5"/>
<path d="M663.504 444.261C674.906 444.261 678 441.88 678 444.396C678 447.092 675.482 451.629 663.036 451.629C650.626 451.584 648 447.047 648 444.351C648 441.88 652.101 444.261 663.504 444.261Z" fill="#FAC0B5"/>
<path d="M663.09 435.669C674.479 435.669 678 434.299 678 431.867C678 429.215 675.485 424.749 663.054 424.749C650.623 424.749 648 429.215 648 431.867C648 434.299 651.701 435.669 663.09 435.669Z" fill="#FAC0B5"/>
<path d="M663.09 886.248C674.479 886.248 678 884.258 678 886.2C678 888.336 675.485 889.549 663.054 889.549C650.659 889.549 648 888.336 648 886.2C648.036 884.258 651.701 886.248 663.09 886.248Z" fill="#FAC0B5"/>
<path d="M663.504 892.262C674.906 892.262 678 889.88 678 892.396C678 895.092 675.482 899.629 663.036 899.629C650.626 899.584 648 895.047 648 892.351C648 889.88 652.101 892.262 663.504 892.262Z" fill="#FAC0B5"/>
<path d="M663.09 883.669C674.479 883.669 678 882.299 678 879.867C678 877.215 675.485 872.749 663.054 872.749C650.623 872.749 648 877.215 648 879.867C648 882.299 651.701 883.669 663.09 883.669Z" fill="#FAC0B5"/>
<path d="M159.09 382.248C170.479 382.248 174 380.258 174 382.2C174 384.336 171.485 385.549 159.054 385.549C146.659 385.549 144 384.336 144 382.2C144.036 380.258 147.701 382.248 159.09 382.248Z" fill="#9BB2DD"/>
<path d="M159.504 388.261C170.906 388.261 174 385.88 174 388.396C174 391.092 171.482 395.629 159.036 395.629C146.626 395.584 144 391.047 144 388.351C144 385.88 148.101 388.261 159.504 388.261Z" fill="#9BB2DD"/>
<path d="M159.09 379.669C170.479 379.669 174 378.299 174 375.867C174 373.215 171.485 368.749 159.054 368.749C146.623 368.749 144 373.215 144 375.867C144 378.299 147.701 379.669 159.09 379.669Z" fill="#9BB2DD"/>
<path d="M159.09 830.248C170.479 830.248 174 828.258 174 830.2C174 832.336 171.485 833.549 159.054 833.549C146.659 833.549 144 832.336 144 830.2C144.036 828.258 147.701 830.248 159.09 830.248Z" fill="#9BB2DD"/>
<path d="M159.504 836.262C170.906 836.262 174 833.88 174 836.396C174 839.092 171.482 843.629 159.036 843.629C146.626 843.584 144 839.047 144 836.351C144 833.88 148.101 836.262 159.504 836.262Z" fill="#9BB2DD"/>
<path d="M159.09 827.669C170.479 827.669 174 826.299 174 823.867C174 821.215 171.485 816.749 159.054 816.749C146.623 816.749 144 821.215 144 823.867C144 826.299 147.701 827.669 159.09 827.669Z" fill="#9BB2DD"/>
<path d="M607.09 382.248C618.479 382.248 622 380.258 622 382.2C622 384.336 619.485 385.549 607.054 385.549C594.659 385.549 592 384.336 592 382.2C592.036 380.258 595.701 382.248 607.09 382.248Z" fill="#9BB2DD"/>
<path d="M607.504 388.261C618.906 388.261 622 385.88 622 388.396C622 391.092 619.482 395.629 607.036 395.629C594.626 395.584 592 391.047 592 388.351C592 385.88 596.101 388.261 607.504 388.261Z" fill="#9BB2DD"/>
<path d="M607.09 379.669C618.479 379.669 622 378.299 622 375.867C622 373.215 619.485 368.749 607.054 368.749C594.623 368.749 592 373.215 592 375.867C592 378.299 595.701 379.669 607.09 379.669Z" fill="#9BB2DD"/>
<path d="M607.09 830.248C618.479 830.248 622 828.258 622 830.2C622 832.336 619.485 833.549 607.054 833.549C594.659 833.549 592 832.336 592 830.2C592.036 828.258 595.701 830.248 607.09 830.248Z" fill="#9BB2DD"/>
<path d="M607.504 836.262C618.906 836.262 622 833.88 622 836.396C622 839.092 619.482 843.629 607.036 843.629C594.626 843.584 592 839.047 592 836.351C592 833.88 596.101 836.262 607.504 836.262Z" fill="#9BB2DD"/>
<path d="M607.09 827.669C618.479 827.669 622 826.299 622 823.867C622 821.215 619.485 816.749 607.054 816.749C594.623 816.749 592 821.215 592 823.867C592 826.299 595.701 827.669 607.09 827.669Z" fill="#9BB2DD"/>
<path d="M327.09 326.248C338.479 326.248 342 324.258 342 326.2C342 328.336 339.485 329.549 327.054 329.549C314.659 329.549 312 328.336 312 326.2C312.036 324.258 315.701 326.248 327.09 326.248Z" fill="#FAC0B5"/>
<path d="M327.504 332.261C338.906 332.261 342 329.88 342 332.396C342 335.092 339.482 339.629 327.036 339.629C314.626 339.584 312 335.047 312 332.351C312 329.88 316.101 332.261 327.504 332.261Z" fill="#FAC0B5"/>
<path d="M327.09 323.669C338.479 323.669 342 322.299 342 319.867C342 317.215 339.485 312.749 327.054 312.749C314.623 312.749 312 317.215 312 319.867C312 322.299 315.701 323.669 327.09 323.669Z" fill="#FAC0B5"/>
<path d="M327.09 774.248C338.479 774.248 342 772.258 342 774.2C342 776.336 339.485 777.549 327.054 777.549C314.659 777.549 312 776.336 312 774.2C312.036 772.258 315.701 774.248 327.09 774.248Z" fill="#FAC0B5"/>
<path d="M327.504 780.261C338.906 780.261 342 777.88 342 780.396C342 783.092 339.482 787.629 327.036 787.629C314.626 787.584 312 783.047 312 780.351C312 777.88 316.101 780.261 327.504 780.261Z" fill="#FAC0B5"/>
<path d="M327.09 771.669C338.479 771.669 342 770.299 342 767.867C342 765.215 339.485 760.749 327.054 760.749C314.623 760.749 312 765.215 312 767.867C312 770.299 315.701 771.669 327.09 771.669Z" fill="#FAC0B5"/>
<path d="M775.09 326.248C786.479 326.248 790 324.258 790 326.2C790 328.336 787.485 329.549 775.054 329.549C762.659 329.549 760 328.336 760 326.2C760.036 324.258 763.701 326.248 775.09 326.248Z" fill="#FAC0B5"/>
<path d="M775.504 332.261C786.906 332.261 790 329.88 790 332.396C790 335.092 787.482 339.629 775.036 339.629C762.626 339.584 760 335.047 760 332.351C760 329.88 764.101 332.261 775.504 332.261Z" fill="#FAC0B5"/>
<path d="M775.09 323.669C786.479 323.669 790 322.299 790 319.867C790 317.215 787.485 312.749 775.054 312.749C762.623 312.749 760 317.215 760 319.867C760 322.299 763.701 323.669 775.09 323.669Z" fill="#FAC0B5"/>
<path d="M775.09 774.248C786.479 774.248 790 772.258 790 774.2C790 776.336 787.485 777.549 775.054 777.549C762.659 777.549 760 776.336 760 774.2C760.036 772.258 763.701 774.248 775.09 774.248Z" fill="#FAC0B5"/>
<path d="M775.504 780.261C786.906 780.261 790 777.88 790 780.396C790 783.092 787.482 787.629 775.036 787.629C762.626 787.584 760 783.047 760 780.351C760 777.88 764.101 780.261 775.504 780.261Z" fill="#FAC0B5"/>
<path d="M775.09 771.669C786.479 771.669 790 770.299 790 767.867C790 765.215 787.485 760.749 775.054 760.749C762.623 760.749 760 765.215 760 767.867C760 770.299 763.701 771.669 775.09 771.669Z" fill="#FAC0B5"/>
<path d="M327.09 438.248C338.479 438.248 342 436.258 342 438.2C342 440.336 339.485 441.549 327.054 441.549C314.659 441.549 312 440.336 312 438.2C312.036 436.258 315.701 438.248 327.09 438.248Z" fill="#9BB2DD"/>
<path d="M327.504 444.261C338.906 444.261 342 441.88 342 444.396C342 447.092 339.482 451.629 327.036 451.629C314.626 451.584 312 447.047 312 444.351C312 441.88 316.101 444.261 327.504 444.261Z" fill="#9BB2DD"/>
<path d="M327.09 435.669C338.479 435.669 342 434.299 342 431.867C342 429.215 339.485 424.749 327.054 424.749C314.623 424.749 312 429.215 312 431.867C312 434.299 315.701 435.669 327.09 435.669Z" fill="#9BB2DD"/>
<path d="M327.09 886.248C338.479 886.248 342 884.258 342 886.2C342 888.336 339.485 889.549 327.054 889.549C314.659 889.549 312 888.336 312 886.2C312.036 884.258 315.701 886.248 327.09 886.248Z" fill="#9BB2DD"/>
<path d="M327.504 892.262C338.906 892.262 342 889.88 342 892.396C342 895.092 339.482 899.629 327.036 899.629C314.626 899.584 312 895.047 312 892.351C312 889.88 316.101 892.262 327.504 892.262Z" fill="#9BB2DD"/>
<path d="M327.09 883.669C338.479 883.669 342 882.299 342 879.867C342 877.215 339.485 872.749 327.054 872.749C314.623 872.749 312 877.215 312 879.867C312 882.299 315.701 883.669 327.09 883.669Z" fill="#9BB2DD"/>
<path d="M775.09 438.248C786.479 438.248 790 436.258 790 438.2C790 440.336 787.485 441.549 775.054 441.549C762.659 441.549 760 440.336 760 438.2C760.036 436.258 763.701 438.248 775.09 438.248Z" fill="#9BB2DD"/>
<path d="M775.504 444.261C786.906 444.261 790 441.88 790 444.396C790 447.092 787.482 451.629 775.036 451.629C762.626 451.584 760 447.047 760 444.351C760 441.88 764.101 444.261 775.504 444.261Z" fill="#9BB2DD"/>
<path d="M775.09 435.669C786.479 435.669 790 434.299 790 431.867C790 429.215 787.485 424.749 775.054 424.749C762.623 424.749 760 429.215 760 431.867C760 434.299 763.701 435.669 775.09 435.669Z" fill="#9BB2DD"/>
<path d="M775.09 886.248C786.479 886.248 790 884.258 790 886.2C790 888.336 787.485 889.549 775.054 889.549C762.659 889.549 760 888.336 760 886.2C760.036 884.258 763.701 886.248 775.09 886.248Z" fill="#9BB2DD"/>
<path d="M775.504 892.262C786.906 892.262 790 889.88 790 892.396C790 895.092 787.482 899.629 775.036 899.629C762.626 899.584 760 895.047 760 892.351C760 889.88 764.101 892.262 775.504 892.262Z" fill="#9BB2DD"/>
<path d="M775.09 883.669C786.479 883.669 790 882.299 790 879.867C790 877.215 787.485 872.749 775.054 872.749C762.623 872.749 760 877.215 760 879.867C760 882.299 763.701 883.669 775.09 883.669Z" fill="#9BB2DD"/>
<path d="M271.09 382.248C282.479 382.248 286 380.258 286 382.2C286 384.336 283.485 385.549 271.054 385.549C258.659 385.549 256 384.336 256 382.2C256.036 380.258 259.701 382.248 271.09 382.248Z" fill="#92D2C4"/>
<path d="M271.504 388.261C282.906 388.261 286 385.88 286 388.396C286 391.092 283.482 395.629 271.036 395.629C258.626 395.584 256 391.047 256 388.351C256 385.88 260.101 388.261 271.504 388.261Z" fill="#92D2C4"/>
<path d="M271.09 379.669C282.479 379.669 286 378.299 286 375.867C286 373.215 283.485 368.749 271.054 368.749C258.623 368.749 256 373.215 256 375.867C256 378.299 259.701 379.669 271.09 379.669Z" fill="#92D2C4"/>
<path d="M271.09 830.248C282.479 830.248 286 828.258 286 830.2C286 832.336 283.485 833.549 271.054 833.549C258.659 833.549 256 832.336 256 830.2C256.036 828.258 259.701 830.248 271.09 830.248Z" fill="#92D2C4"/>
<path d="M271.504 836.262C282.906 836.262 286 833.88 286 836.396C286 839.092 283.482 843.629 271.036 843.629C258.626 843.584 256 839.047 256 836.351C256 833.88 260.101 836.262 271.504 836.262Z" fill="#92D2C4"/>
<path d="M271.09 827.669C282.479 827.669 286 826.299 286 823.867C286 821.215 283.485 816.749 271.054 816.749C258.623 816.749 256 821.215 256 823.867C256 826.299 259.701 827.669 271.09 827.669Z" fill="#92D2C4"/>
<path d="M719.09 382.248C730.479 382.248 734 380.258 734 382.2C734 384.336 731.485 385.549 719.054 385.549C706.659 385.549 704 384.336 704 382.2C704.036 380.258 707.701 382.248 719.09 382.248Z" fill="#92D2C4"/>
<path d="M719.504 388.261C730.906 388.261 734 385.88 734 388.396C734 391.092 731.482 395.629 719.036 395.629C706.626 395.584 704 391.047 704 388.351C704 385.88 708.101 388.261 719.504 388.261Z" fill="#92D2C4"/>
<path d="M719.09 379.669C730.479 379.669 734 378.299 734 375.867C734 373.215 731.485 368.749 719.054 368.749C706.623 368.749 704 373.215 704 375.867C704 378.299 707.701 379.669 719.09 379.669Z" fill="#92D2C4"/>
<path d="M719.09 830.248C730.479 830.248 734 828.258 734 830.2C734 832.336 731.485 833.549 719.054 833.549C706.659 833.549 704 832.336 704 830.2C704.036 828.258 707.701 830.248 719.09 830.248Z" fill="#92D2C4"/>
<path d="M719.504 836.262C730.906 836.262 734 833.88 734 836.396C734 839.092 731.482 843.629 719.036 843.629C706.626 843.584 704 839.047 704 836.351C704 833.88 708.101 836.262 719.504 836.262Z" fill="#92D2C4"/>
<path d="M719.09 827.669C730.479 827.669 734 826.299 734 823.867C734 821.215 731.485 816.749 719.054 816.749C706.623 816.749 704 821.215 704 823.867C704 826.299 707.701 827.669 719.09 827.669Z" fill="#92D2C4"/>
<path d="M439.09 326.248C450.479 326.248 454 324.258 454 326.2C454 328.336 451.485 329.549 439.054 329.549C426.659 329.549 424 328.336 424 326.2C424.036 324.258 427.701 326.248 439.09 326.248Z" fill="#9BB2DD"/>
<path d="M439.504 332.261C450.906 332.261 454 329.88 454 332.396C454 335.092 451.482 339.629 439.036 339.629C426.626 339.584 424 335.047 424 332.351C424 329.88 428.101 332.261 439.504 332.261Z" fill="#9BB2DD"/>
<path d="M439.09 323.669C450.479 323.669 454 322.299 454 319.867C454 317.215 451.485 312.749 439.054 312.749C426.623 312.749 424 317.215 424 319.867C424 322.299 427.701 323.669 439.09 323.669Z" fill="#9BB2DD"/>
<path d="M439.09 774.248C450.479 774.248 454 772.258 454 774.2C454 776.336 451.485 777.549 439.054 777.549C426.659 777.549 424 776.336 424 774.2C424.036 772.258 427.701 774.248 439.09 774.248Z" fill="#9BB2DD"/>
<path d="M439.504 780.261C450.906 780.261 454 777.88 454 780.396C454 783.092 451.482 787.629 439.036 787.629C426.626 787.584 424 783.047 424 780.351C424 777.88 428.101 780.261 439.504 780.261Z" fill="#9BB2DD"/>
<path d="M439.09 771.669C450.479 771.669 454 770.299 454 767.867C454 765.215 451.485 760.749 439.054 760.749C426.623 760.749 424 765.215 424 767.867C424 770.299 427.701 771.669 439.09 771.669Z" fill="#9BB2DD"/>
<path d="M887.09 326.248C898.479 326.248 902 324.258 902 326.2C902 328.336 899.485 329.549 887.054 329.549C874.659 329.549 872 328.336 872 326.2C872.036 324.258 875.701 326.248 887.09 326.248Z" fill="#9BB2DD"/>
<path d="M887.504 332.261C898.906 332.261 902 329.88 902 332.396C902 335.092 899.482 339.629 887.036 339.629C874.626 339.584 872 335.047 872 332.351C872 329.88 876.101 332.261 887.504 332.261Z" fill="#9BB2DD"/>
<path d="M887.09 323.669C898.479 323.669 902 322.299 902 319.867C902 317.215 899.485 312.749 887.054 312.749C874.623 312.749 872 317.215 872 319.867C872 322.299 875.701 323.669 887.09 323.669Z" fill="#9BB2DD"/>
<path d="M887.09 774.248C898.479 774.248 902 772.258 902 774.2C902 776.336 899.485 777.549 887.054 777.549C874.659 777.549 872 776.336 872 774.2C872.036 772.258 875.701 774.248 887.09 774.248Z" fill="#9BB2DD"/>
<path d="M887.504 780.261C898.906 780.261 902 777.88 902 780.396C902 783.092 899.482 787.629 887.036 787.629C874.626 787.584 872 783.047 872 780.351C872 777.88 876.101 780.261 887.504 780.261Z" fill="#9BB2DD"/>
<path d="M887.09 771.669C898.479 771.669 902 770.299 902 767.867C902 765.215 899.485 760.749 887.054 760.749C874.623 760.749 872 765.215 872 767.867C872 770.299 875.701 771.669 887.09 771.669Z" fill="#9BB2DD"/>
<path d="M439.09 438.248C450.479 438.248 454 436.258 454 438.2C454 440.336 451.485 441.549 439.054 441.549C426.659 441.549 424 440.336 424 438.2C424.036 436.258 427.701 438.248 439.09 438.248Z" fill="#92D2C4"/>
<path d="M439.504 444.261C450.906 444.261 454 441.88 454 444.396C454 447.092 451.482 451.629 439.036 451.629C426.626 451.584 424 447.047 424 444.351C424 441.88 428.101 444.261 439.504 444.261Z" fill="#92D2C4"/>
<path d="M439.09 435.669C450.479 435.669 454 434.299 454 431.867C454 429.215 451.485 424.749 439.054 424.749C426.623 424.749 424 429.215 424 431.867C424 434.299 427.701 435.669 439.09 435.669Z" fill="#92D2C4"/>
<path d="M439.09 886.248C450.479 886.248 454 884.258 454 886.2C454 888.336 451.485 889.549 439.054 889.549C426.659 889.549 424 888.336 424 886.2C424.036 884.258 427.701 886.248 439.09 886.248Z" fill="#92D2C4"/>
<path d="M439.504 892.262C450.906 892.262 454 889.88 454 892.396C454 895.092 451.482 899.629 439.036 899.629C426.626 899.584 424 895.047 424 892.351C424 889.88 428.101 892.262 439.504 892.262Z" fill="#92D2C4"/>
<path d="M439.09 883.669C450.479 883.669 454 882.299 454 879.867C454 877.215 451.485 872.749 439.054 872.749C426.623 872.749 424 877.215 424 879.867C424 882.299 427.701 883.669 439.09 883.669Z" fill="#92D2C4"/>
<path d="M887.09 438.248C898.479 438.248 902 436.258 902 438.2C902 440.336 899.485 441.549 887.054 441.549C874.659 441.549 872 440.336 872 438.2C872.036 436.258 875.701 438.248 887.09 438.248Z" fill="#92D2C4"/>
<path d="M887.504 444.261C898.906 444.261 902 441.88 902 444.396C902 447.092 899.482 451.629 887.036 451.629C874.626 451.584 872 447.047 872 444.351C872 441.88 876.101 444.261 887.504 444.261Z" fill="#92D2C4"/>
<path d="M887.09 435.669C898.479 435.669 902 434.299 902 431.867C902 429.215 899.485 424.749 887.054 424.749C874.623 424.749 872 429.215 872 431.867C872 434.299 875.701 435.669 887.09 435.669Z" fill="#92D2C4"/>
<path d="M887.09 886.248C898.479 886.248 902 884.258 902 886.2C902 888.336 899.485 889.549 887.054 889.549C874.659 889.549 872 888.336 872 886.2C872.036 884.258 875.701 886.248 887.09 886.248Z" fill="#92D2C4"/>
<path d="M887.504 892.262C898.906 892.262 902 889.88 902 892.396C902 895.092 899.482 899.629 887.036 899.629C874.626 899.584 872 895.047 872 892.351C872 889.88 876.101 892.262 887.504 892.262Z" fill="#92D2C4"/>
<path d="M887.09 883.669C898.479 883.669 902 882.299 902 879.867C902 877.215 899.485 872.749 887.054 872.749C874.623 872.749 872 877.215 872 879.867C872 882.299 875.701 883.669 887.09 883.669Z" fill="#92D2C4"/>
<path d="M383.09 382.248C394.479 382.248 398 380.258 398 382.2C398 384.336 395.485 385.549 383.054 385.549C370.659 385.549 368 384.336 368 382.2C368.036 380.258 371.701 382.248 383.09 382.248Z" fill="#FFD675"/>
<path d="M383.504 388.261C394.906 388.261 398 385.88 398 388.396C398 391.092 395.482 395.629 383.036 395.629C370.626 395.584 368 391.047 368 388.351C368 385.88 372.101 388.261 383.504 388.261Z" fill="#FFD675"/>
<path d="M383.09 379.669C394.479 379.669 398 378.299 398 375.867C398 373.215 395.485 368.749 383.054 368.749C370.623 368.749 368 373.215 368 375.867C368 378.299 371.701 379.669 383.09 379.669Z" fill="#FFD675"/>
<path d="M383.09 830.248C394.479 830.248 398 828.258 398 830.2C398 832.336 395.485 833.549 383.054 833.549C370.659 833.549 368 832.336 368 830.2C368.036 828.258 371.701 830.248 383.09 830.248Z" fill="#FFD675"/>
<path d="M383.504 836.262C394.906 836.262 398 833.88 398 836.396C398 839.092 395.482 843.629 383.036 843.629C370.626 843.584 368 839.047 368 836.351C368 833.88 372.101 836.262 383.504 836.262Z" fill="#FFD675"/>
<path d="M383.09 827.669C394.479 827.669 398 826.299 398 823.867C398 821.215 395.485 816.749 383.054 816.749C370.623 816.749 368 821.215 368 823.867C368 826.299 371.701 827.669 383.09 827.669Z" fill="#FFD675"/>
<path d="M831.09 382.248C842.479 382.248 846 380.258 846 382.2C846 384.336 843.485 385.549 831.054 385.549C818.659 385.549 816 384.336 816 382.2C816.036 380.258 819.701 382.248 831.09 382.248Z" fill="#FFD675"/>
<path d="M831.504 388.261C842.906 388.261 846 385.88 846 388.396C846 391.092 843.482 395.629 831.036 395.629C818.626 395.584 816 391.047 816 388.351C816 385.88 820.101 388.261 831.504 388.261Z" fill="#FFD675"/>
<path d="M831.09 379.669C842.479 379.669 846 378.299 846 375.867C846 373.215 843.485 368.749 831.054 368.749C818.623 368.749 816 373.215 816 375.867C816 378.299 819.701 379.669 831.09 379.669Z" fill="#FFD675"/>
<path d="M831.09 830.248C842.479 830.248 846 828.258 846 830.2C846 832.336 843.485 833.549 831.054 833.549C818.659 833.549 816 832.336 816 830.2C816.036 828.258 819.701 830.248 831.09 830.248Z" fill="#FFD675"/>
<path d="M831.504 836.262C842.906 836.262 846 833.88 846 836.396C846 839.092 843.482 843.629 831.036 843.629C818.626 843.584 816 839.047 816 836.351C816 833.88 820.101 836.262 831.504 836.262Z" fill="#FFD675"/>
<path d="M831.09 827.669C842.479 827.669 846 826.299 846 823.867C846 821.215 843.485 816.749 831.054 816.749C818.623 816.749 816 821.215 816 823.867C816 826.299 819.701 827.669 831.09 827.669Z" fill="#FFD675"/>
<path d="M159.09 270.248C170.479 270.248 174 268.258 174 270.2C174 272.336 171.485 273.549 159.054 273.549C146.659 273.549 144 272.336 144 270.2C144.036 268.258 147.701 270.248 159.09 270.248Z" fill="#FAC0B5"/>
<path d="M159.504 276.261C170.906 276.261 174 273.88 174 276.396C174 279.092 171.482 283.629 159.036 283.629C146.626 283.584 144 279.047 144 276.351C144 273.88 148.101 276.261 159.504 276.261Z" fill="#FAC0B5"/>
<path d="M159.09 267.669C170.479 267.669 174 266.299 174 263.867C174 261.215 171.485 256.749 159.054 256.749C146.623 256.749 144 261.215 144 263.867C144 266.299 147.701 267.669 159.09 267.669Z" fill="#FAC0B5"/>
<path d="M159.09 718.248C170.479 718.248 174 716.258 174 718.2C174 720.336 171.485 721.549 159.054 721.549C146.659 721.549 144 720.336 144 718.2C144.036 716.258 147.701 718.248 159.09 718.248Z" fill="#FAC0B5"/>
<path d="M159.504 724.261C170.906 724.261 174 721.88 174 724.396C174 727.092 171.482 731.629 159.036 731.629C146.626 731.584 144 727.047 144 724.351C144 721.88 148.101 724.261 159.504 724.261Z" fill="#FAC0B5"/>
<path d="M159.09 715.669C170.479 715.669 174 714.299 174 711.867C174 709.215 171.485 704.749 159.054 704.749C146.623 704.749 144 709.215 144 711.867C144 714.299 147.701 715.669 159.09 715.669Z" fill="#FAC0B5"/>
<path d="M607.09 270.248C618.479 270.248 622 268.258 622 270.2C622 272.336 619.485 273.549 607.054 273.549C594.659 273.549 592 272.336 592 270.2C592.036 268.258 595.701 270.248 607.09 270.248Z" fill="#FAC0B5"/>
<path d="M607.504 276.261C618.906 276.261 622 273.88 622 276.396C622 279.092 619.482 283.629 607.036 283.629C594.626 283.584 592 279.047 592 276.351C592 273.88 596.101 276.261 607.504 276.261Z" fill="#FAC0B5"/>
<path d="M607.09 267.669C618.479 267.669 622 266.299 622 263.867C622 261.215 619.485 256.749 607.054 256.749C594.623 256.749 592 261.215 592 263.867C592 266.299 595.701 267.669 607.09 267.669Z" fill="#FAC0B5"/>
<path d="M607.09 718.248C618.479 718.248 622 716.258 622 718.2C622 720.336 619.485 721.549 607.054 721.549C594.659 721.549 592 720.336 592 718.2C592.036 716.258 595.701 718.248 607.09 718.248Z" fill="#FAC0B5"/>
<path d="M607.504 724.261C618.906 724.261 622 721.88 622 724.396C622 727.092 619.482 731.629 607.036 731.629C594.626 731.584 592 727.047 592 724.351C592 721.88 596.101 724.261 607.504 724.261Z" fill="#FAC0B5"/>
<path d="M607.09 715.669C618.479 715.669 622 714.299 622 711.867C622 709.215 619.485 704.749 607.054 704.749C594.623 704.749 592 709.215 592 711.867C592 714.299 595.701 715.669 607.09 715.669Z" fill="#FAC0B5"/>
<path d="M271.09 270.248C282.479 270.248 286 268.258 286 270.2C286 272.336 283.485 273.549 271.054 273.549C258.659 273.549 256 272.336 256 270.2C256.036 268.258 259.701 270.248 271.09 270.248Z" fill="#9BB2DD"/>
<path d="M271.504 276.261C282.906 276.261 286 273.88 286 276.396C286 279.092 283.482 283.629 271.036 283.629C258.626 283.584 256 279.047 256 276.351C256 273.88 260.101 276.261 271.504 276.261Z" fill="#9BB2DD"/>
<path d="M271.09 267.669C282.479 267.669 286 266.299 286 263.867C286 261.215 283.485 256.749 271.054 256.749C258.623 256.749 256 261.215 256 263.867C256 266.299 259.701 267.669 271.09 267.669Z" fill="#9BB2DD"/>
<path d="M271.09 718.248C282.479 718.248 286 716.258 286 718.2C286 720.336 283.485 721.549 271.054 721.549C258.659 721.549 256 720.336 256 718.2C256.036 716.258 259.701 718.248 271.09 718.248Z" fill="#9BB2DD"/>
<path d="M271.504 724.261C282.906 724.261 286 721.88 286 724.396C286 727.092 283.482 731.629 271.036 731.629C258.626 731.584 256 727.047 256 724.351C256 721.88 260.101 724.261 271.504 724.261Z" fill="#9BB2DD"/>
<path d="M271.09 715.669C282.479 715.669 286 714.299 286 711.867C286 709.215 283.485 704.749 271.054 704.749C258.623 704.749 256 709.215 256 711.867C256 714.299 259.701 715.669 271.09 715.669Z" fill="#9BB2DD"/>
<path d="M719.09 270.248C730.479 270.248 734 268.258 734 270.2C734 272.336 731.485 273.549 719.054 273.549C706.659 273.549 704 272.336 704 270.2C704.036 268.258 707.701 270.248 719.09 270.248Z" fill="#9BB2DD"/>
<path d="M719.504 276.261C730.906 276.261 734 273.88 734 276.396C734 279.092 731.482 283.629 719.036 283.629C706.626 283.584 704 279.047 704 276.351C704 273.88 708.101 276.261 719.504 276.261Z" fill="#9BB2DD"/>
<path d="M719.09 267.669C730.479 267.669 734 266.299 734 263.867C734 261.215 731.485 256.749 719.054 256.749C706.623 256.749 704 261.215 704 263.867C704 266.299 707.701 267.669 719.09 267.669Z" fill="#9BB2DD"/>
<path d="M719.09 718.248C730.479 718.248 734 716.258 734 718.2C734 720.336 731.485 721.549 719.054 721.549C706.659 721.549 704 720.336 704 718.2C704.036 716.258 707.701 718.248 719.09 718.248Z" fill="#9BB2DD"/>
<path d="M719.504 724.261C730.906 724.261 734 721.88 734 724.396C734 727.092 731.482 731.629 719.036 731.629C706.626 731.584 704 727.047 704 724.351C704 721.88 708.101 724.261 719.504 724.261Z" fill="#9BB2DD"/>
<path d="M719.09 715.669C730.479 715.669 734 714.299 734 711.867C734 709.215 731.485 704.749 719.054 704.749C706.623 704.749 704 709.215 704 711.867C704 714.299 707.701 715.669 719.09 715.669Z" fill="#9BB2DD"/>
<path d="M383.09 270.248C394.479 270.248 398 268.258 398 270.2C398 272.336 395.485 273.549 383.054 273.549C370.659 273.549 368 272.336 368 270.2C368.036 268.258 371.701 270.248 383.09 270.248Z" fill="#92D2C4"/>
<path d="M383.504 276.261C394.906 276.261 398 273.88 398 276.396C398 279.092 395.482 283.629 383.036 283.629C370.626 283.584 368 279.047 368 276.351C368 273.88 372.101 276.261 383.504 276.261Z" fill="#92D2C4"/>
<path d="M383.09 267.669C394.479 267.669 398 266.299 398 263.867C398 261.215 395.485 256.749 383.054 256.749C370.623 256.749 368 261.215 368 263.867C368 266.299 371.701 267.669 383.09 267.669Z" fill="#92D2C4"/>
<path d="M383.09 718.248C394.479 718.248 398 716.258 398 718.2C398 720.336 395.485 721.549 383.054 721.549C370.659 721.549 368 720.336 368 718.2C368.036 716.258 371.701 718.248 383.09 718.248Z" fill="#92D2C4"/>
<path d="M383.504 724.261C394.906 724.261 398 721.88 398 724.396C398 727.092 395.482 731.629 383.036 731.629C370.626 731.584 368 727.047 368 724.351C368 721.88 372.101 724.261 383.504 724.261Z" fill="#92D2C4"/>
<path d="M383.09 715.669C394.479 715.669 398 714.299 398 711.867C398 709.215 395.485 704.749 383.054 704.749C370.623 704.749 368 709.215 368 711.867C368 714.299 371.701 715.669 383.09 715.669Z" fill="#92D2C4"/>
<path d="M831.09 270.248C842.479 270.248 846 268.258 846 270.2C846 272.336 843.485 273.549 831.054 273.549C818.659 273.549 816 272.336 816 270.2C816.036 268.258 819.701 270.248 831.09 270.248Z" fill="#92D2C4"/>
<path d="M831.504 276.261C842.906 276.261 846 273.88 846 276.396C846 279.092 843.482 283.629 831.036 283.629C818.626 283.584 816 279.047 816 276.351C816 273.88 820.101 276.261 831.504 276.261Z" fill="#92D2C4"/>
<path d="M831.09 267.669C842.479 267.669 846 266.299 846 263.867C846 261.215 843.485 256.749 831.054 256.749C818.623 256.749 816 261.215 816 263.867C816 266.299 819.701 267.669 831.09 267.669Z" fill="#92D2C4"/>
<path d="M831.09 718.248C842.479 718.248 846 716.258 846 718.2C846 720.336 843.485 721.549 831.054 721.549C818.659 721.549 816 720.336 816 718.2C816.036 716.258 819.701 718.248 831.09 718.248Z" fill="#92D2C4"/>
<path d="M831.504 724.261C842.906 724.261 846 721.88 846 724.396C846 727.092 843.482 731.629 831.036 731.629C818.626 731.584 816 727.047 816 724.351C816 721.88 820.101 724.261 831.504 724.261Z" fill="#92D2C4"/>
<path d="M831.09 715.669C842.479 715.669 846 714.299 846 711.867C846 709.215 843.485 704.749 831.054 704.749C818.623 704.749 816 709.215 816 711.867C816 714.299 819.701 715.669 831.09 715.669Z" fill="#92D2C4"/>
<path d="M103.09 214.248C114.479 214.248 118 212.258 118 214.2C118 216.336 115.485 217.549 103.054 217.549C90.6587 217.549 88 216.336 88 214.2C88.0359 212.258 91.7006 214.248 103.09 214.248Z" fill="#9BB2DD"/>
<path d="M103.504 220.261C114.906 220.261 118 217.88 118 220.396C118 223.092 115.482 227.629 103.036 227.629C90.6259 227.584 88 223.047 88 220.351C88 217.88 92.1007 220.261 103.504 220.261Z" fill="#9BB2DD"/>
<path d="M103.09 211.669C114.479 211.669 118 210.299 118 207.867C118 205.215 115.485 200.749 103.054 200.749C90.6228 200.749 88 205.215 88 207.867C88 210.299 91.7006 211.669 103.09 211.669Z" fill="#9BB2DD"/>
<path d="M103.09 662.248C114.479 662.248 118 660.258 118 662.2C118 664.336 115.485 665.549 103.054 665.549C90.6587 665.549 88 664.336 88 662.2C88.0359 660.258 91.7006 662.248 103.09 662.248Z" fill="#9BB2DD"/>
<path d="M103.504 668.261C114.906 668.261 118 665.88 118 668.396C118 671.092 115.482 675.629 103.036 675.629C90.6259 675.584 88 671.047 88 668.351C88 665.88 92.1007 668.261 103.504 668.261Z" fill="#9BB2DD"/>
<path d="M103.09 659.669C114.479 659.669 118 658.299 118 655.867C118 653.215 115.485 648.749 103.054 648.749C90.6228 648.749 88 653.215 88 655.867C88 658.299 91.7006 659.669 103.09 659.669Z" fill="#9BB2DD"/>
<path d="M551.09 214.248C562.479 214.248 566 212.258 566 214.2C566 216.336 563.485 217.549 551.054 217.549C538.659 217.549 536 216.336 536 214.2C536.036 212.258 539.701 214.248 551.09 214.248Z" fill="#9BB2DD"/>
<path d="M551.504 220.261C562.906 220.261 566 217.88 566 220.396C566 223.092 563.482 227.629 551.036 227.629C538.626 227.584 536 223.047 536 220.351C536 217.88 540.101 220.261 551.504 220.261Z" fill="#9BB2DD"/>
<path d="M551.09 211.669C562.479 211.669 566 210.299 566 207.867C566 205.215 563.485 200.749 551.054 200.749C538.623 200.749 536 205.215 536 207.867C536 210.299 539.701 211.669 551.09 211.669Z" fill="#9BB2DD"/>
<path d="M551.09 662.248C562.479 662.248 566 660.258 566 662.2C566 664.336 563.485 665.549 551.054 665.549C538.659 665.549 536 664.336 536 662.2C536.036 660.258 539.701 662.248 551.09 662.248Z" fill="#9BB2DD"/>
<path d="M551.504 668.261C562.906 668.261 566 665.88 566 668.396C566 671.092 563.482 675.629 551.036 675.629C538.626 675.584 536 671.047 536 668.351C536 665.88 540.101 668.261 551.504 668.261Z" fill="#9BB2DD"/>
<path d="M551.09 659.669C562.479 659.669 566 658.299 566 655.867C566 653.215 563.485 648.749 551.054 648.749C538.623 648.749 536 653.215 536 655.867C536 658.299 539.701 659.669 551.09 659.669Z" fill="#9BB2DD"/>
<path d="M271.09 46.2485C282.479 46.2485 286 44.2582 286 46.1999C286 48.3358 283.485 49.5494 271.054 49.5494C258.659 49.5494 256 48.3358 256 46.1999C256.036 44.2582 259.701 46.2485 271.09 46.2485Z" fill="#FFD675"/>
<path d="M271.504 52.2614C282.906 52.2614 286 49.8803 286 52.3962C286 55.0917 283.482 59.6292 271.036 59.6292C258.626 59.5843 256 55.0468 256 52.3512C256 49.8803 260.101 52.2614 271.504 52.2614Z" fill="#FFD675"/>
<path d="M271.09 43.6693C282.479 43.6693 286 42.2987 286 39.8672C286 37.2145 283.485 32.7493 271.054 32.7493C258.623 32.7493 256 37.2145 256 39.8672C256 42.2987 259.701 43.6693 271.09 43.6693Z" fill="#FFD675"/>
<path d="M271.09 494.248C282.479 494.248 286 492.258 286 494.2C286 496.336 283.485 497.549 271.054 497.549C258.659 497.549 256 496.336 256 494.2C256.036 492.258 259.701 494.248 271.09 494.248Z" fill="#FFD675"/>
<path d="M271.504 500.261C282.906 500.261 286 497.88 286 500.396C286 503.092 283.482 507.629 271.036 507.629C258.626 507.584 256 503.047 256 500.351C256 497.88 260.101 500.261 271.504 500.261Z" fill="#FFD675"/>
<path d="M271.09 491.669C282.479 491.669 286 490.299 286 487.867C286 485.215 283.485 480.749 271.054 480.749C258.623 480.749 256 485.215 256 487.867C256 490.299 259.701 491.669 271.09 491.669Z" fill="#FFD675"/>
<path d="M719.09 46.2485C730.479 46.2485 734 44.2582 734 46.1999C734 48.3358 731.485 49.5494 719.054 49.5494C706.659 49.5494 704 48.3358 704 46.1999C704.036 44.2582 707.701 46.2485 719.09 46.2485Z" fill="#FFD675"/>
<path d="M719.504 52.2614C730.906 52.2614 734 49.8803 734 52.3962C734 55.0917 731.482 59.6292 719.036 59.6292C706.626 59.5843 704 55.0468 704 52.3512C704 49.8803 708.101 52.2614 719.504 52.2614Z" fill="#FFD675"/>
<path d="M719.09 43.6693C730.479 43.6693 734 42.2987 734 39.8672C734 37.2145 731.485 32.7493 719.054 32.7493C706.623 32.7493 704 37.2145 704 39.8672C704 42.2987 707.701 43.6693 719.09 43.6693Z" fill="#FFD675"/>
<path d="M719.09 494.248C730.479 494.248 734 492.258 734 494.2C734 496.336 731.485 497.549 719.054 497.549C706.659 497.549 704 496.336 704 494.2C704.036 492.258 707.701 494.248 719.09 494.248Z" fill="#FFD675"/>
<path d="M719.504 500.261C730.906 500.261 734 497.88 734 500.396C734 503.092 731.482 507.629 719.036 507.629C706.626 507.584 704 503.047 704 500.351C704 497.88 708.101 500.261 719.504 500.261Z" fill="#FFD675"/>
<path d="M719.09 491.669C730.479 491.669 734 490.299 734 487.867C734 485.215 731.485 480.749 719.054 480.749C706.623 480.749 704 485.215 704 487.867C704 490.299 707.701 491.669 719.09 491.669Z" fill="#FFD675"/>
<path d="M383.09 158.248C394.479 158.248 398 156.258 398 158.2C398 160.336 395.485 161.549 383.054 161.549C370.659 161.549 368 160.336 368 158.2C368.036 156.258 371.701 158.248 383.09 158.248Z" fill="#9BB2DD"/>
<path d="M383.504 164.261C394.906 164.261 398 161.88 398 164.396C398 167.092 395.482 171.629 383.036 171.629C370.626 171.584 368 167.047 368 164.351C368 161.88 372.101 164.261 383.504 164.261Z" fill="#9BB2DD"/>
<path d="M383.09 155.669C394.479 155.669 398 154.299 398 151.867C398 149.215 395.485 144.749 383.054 144.749C370.623 144.749 368 149.215 368 151.867C368 154.299 371.701 155.669 383.09 155.669Z" fill="#9BB2DD"/>
<path d="M383.09 606.248C394.479 606.248 398 604.258 398 606.2C398 608.336 395.485 609.549 383.054 609.549C370.659 609.549 368 608.336 368 606.2C368.036 604.258 371.701 606.248 383.09 606.248Z" fill="#9BB2DD"/>
<path d="M383.504 612.261C394.906 612.261 398 609.88 398 612.396C398 615.092 395.482 619.629 383.036 619.629C370.626 619.584 368 615.047 368 612.351C368 609.88 372.101 612.261 383.504 612.261Z" fill="#9BB2DD"/>
<path d="M383.09 603.669C394.479 603.669 398 602.299 398 599.867C398 597.215 395.485 592.749 383.054 592.749C370.623 592.749 368 597.215 368 599.867C368 602.299 371.701 603.669 383.09 603.669Z" fill="#9BB2DD"/>
<path d="M831.09 158.248C842.479 158.248 846 156.258 846 158.2C846 160.336 843.485 161.549 831.054 161.549C818.659 161.549 816 160.336 816 158.2C816.036 156.258 819.701 158.248 831.09 158.248Z" fill="#9BB2DD"/>
<path d="M831.504 164.261C842.906 164.261 846 161.88 846 164.396C846 167.092 843.482 171.629 831.036 171.629C818.626 171.584 816 167.047 816 164.351C816 161.88 820.101 164.261 831.504 164.261Z" fill="#9BB2DD"/>
<path d="M831.09 155.669C842.479 155.669 846 154.299 846 151.867C846 149.215 843.485 144.749 831.054 144.749C818.623 144.749 816 149.215 816 151.867C816 154.299 819.701 155.669 831.09 155.669Z" fill="#9BB2DD"/>
<path d="M831.09 606.248C842.479 606.248 846 604.258 846 606.2C846 608.336 843.485 609.549 831.054 609.549C818.659 609.549 816 608.336 816 606.2C816.036 604.258 819.701 606.248 831.09 606.248Z" fill="#9BB2DD"/>
<path d="M831.504 612.261C842.906 612.261 846 609.88 846 612.396C846 615.092 843.482 619.629 831.036 619.629C818.626 619.584 816 615.047 816 612.351C816 609.88 820.101 612.261 831.504 612.261Z" fill="#9BB2DD"/>
<path d="M831.09 603.669C842.479 603.669 846 602.299 846 599.867C846 597.215 843.485 592.749 831.054 592.749C818.623 592.749 816 597.215 816 599.867C816 602.299 819.701 603.669 831.09 603.669Z" fill="#9BB2DD"/>
<path d="M327.09 102.248C338.479 102.248 342 100.258 342 102.2C342 104.336 339.485 105.549 327.054 105.549C314.659 105.549 312 104.336 312 102.2C312.036 100.258 315.701 102.248 327.09 102.248Z" fill="#92D2C4"/>
<path d="M327.504 108.261C338.906 108.261 342 105.88 342 108.396C342 111.092 339.482 115.629 327.036 115.629C314.626 115.584 312 111.047 312 108.351C312 105.88 316.101 108.261 327.504 108.261Z" fill="#92D2C4"/>
<path d="M327.09 99.6693C338.479 99.6693 342 98.2987 342 95.8672C342 93.2145 339.485 88.7493 327.054 88.7493C314.623 88.7493 312 93.2145 312 95.8672C312 98.2987 315.701 99.6693 327.09 99.6693Z" fill="#92D2C4"/>
<path d="M327.09 550.248C338.479 550.248 342 548.258 342 550.2C342 552.336 339.485 553.549 327.054 553.549C314.659 553.549 312 552.336 312 550.2C312.036 548.258 315.701 550.248 327.09 550.248Z" fill="#92D2C4"/>
<path d="M327.504 556.261C338.906 556.261 342 553.88 342 556.396C342 559.092 339.482 563.629 327.036 563.629C314.626 563.584 312 559.047 312 556.351C312 553.88 316.101 556.261 327.504 556.261Z" fill="#92D2C4"/>
<path d="M327.09 547.669C338.479 547.669 342 546.299 342 543.867C342 541.215 339.485 536.749 327.054 536.749C314.623 536.749 312 541.215 312 543.867C312 546.299 315.701 547.669 327.09 547.669Z" fill="#92D2C4"/>
<path d="M775.09 102.248C786.479 102.248 790 100.258 790 102.2C790 104.336 787.485 105.549 775.054 105.549C762.659 105.549 760 104.336 760 102.2C760.036 100.258 763.701 102.248 775.09 102.248Z" fill="#92D2C4"/>
<path d="M775.504 108.261C786.906 108.261 790 105.88 790 108.396C790 111.092 787.482 115.629 775.036 115.629C762.626 115.584 760 111.047 760 108.351C760 105.88 764.101 108.261 775.504 108.261Z" fill="#92D2C4"/>
<path d="M775.09 99.6693C786.479 99.6693 790 98.2987 790 95.8672C790 93.2145 787.485 88.7493 775.054 88.7493C762.623 88.7493 760 93.2145 760 95.8672C760 98.2987 763.701 99.6693 775.09 99.6693Z" fill="#92D2C4"/>
<path d="M775.09 550.248C786.479 550.248 790 548.258 790 550.2C790 552.336 787.485 553.549 775.054 553.549C762.659 553.549 760 552.336 760 550.2C760.036 548.258 763.701 550.248 775.09 550.248Z" fill="#92D2C4"/>
<path d="M775.504 556.261C786.906 556.261 790 553.88 790 556.396C790 559.092 787.482 563.629 775.036 563.629C762.626 563.584 760 559.047 760 556.351C760 553.88 764.101 556.261 775.504 556.261Z" fill="#92D2C4"/>
<path d="M775.09 547.669C786.479 547.669 790 546.299 790 543.867C790 541.215 787.485 536.749 775.054 536.749C762.623 536.749 760 541.215 760 543.867C760 546.299 763.701 547.669 775.09 547.669Z" fill="#92D2C4"/>
</svg>
